<svg xmlns="http://www.w3.org/2000/svg" width="194" height="31" viewBox="0 0 194 31" xmlns:xlink="http://www.w3.org/1999/xlink">
  <defs>
    <rect id="a" width="25.234" height="25.234" x=".55" y=".804"/>
    <path id="c" d="M23.783823,2.80397488 L23.783823,13.4236886 C23.783823,19.2855796 19.031808,24.0375811 13.16702,24.0375811 C7.303522,24.0375811 2.550217,19.2767426 2.550217,13.4236886 L2.550217,2.80397488 L23.783823,2.80397488 Z"/>
    <rect id="d" width="25.52" height="25.234" x=".733" y=".804"/>
    <polygon id="f" points="18.949 13.421 24.253 2.804 13.493 2.804 2.733 2.804 8.037 13.421 2.733 24.038 13.493 24.038 24.253 24.038"/>
  </defs>
  <g fill="none" fill-rule="evenodd">
    <path fill="#F29400" fill-rule="nonzero" d="M77.2088874,6.69745941 L70.1937732,6.69745941 L70.1937732,25.1487383 C70.1937732,26.5237134 70.9533716,27.233378 72.5619328,27.233378 L77.2088874,27.233378 L77.9684857,27.233378 C83.5537677,27.0116078 86.1453385,24.5721359 86.1453385,18.8061112 L86.1453385,15.3464964 C86.1900208,9.58047174 83.2409919,6.69745941 77.2088874,6.69745941 L77.2088874,6.69745941 Z M82.4367113,18.8061112 C82.4367113,22.9753906 81.0515614,25.0156762 77.3429341,25.0156762 L73.991765,25.0156762 L73.991765,9.00386927 L77.2535696,9.00386927 C81.0515614,9.00386927 82.4367113,11.2215711 82.4367113,15.3908504 L82.4367113,18.8061112 Z M124.348667,6.4313352 C125.19763,6.4313352 126.046593,6.74181345 126.18064,7.14099977 L133.865988,27.189024 L132.078697,27.189024 C130.425454,27.189024 129.710538,27.0559619 129.263715,25.8140489 L124.169938,10.9554469 L121.354956,18.8948193 L124.527396,18.8948193 L125.19763,21.1568751 L120.64004,21.1568751 L118.942114,25.8584029 C118.450609,27.1003159 117.780376,27.233378 116.261179,27.233378 L114.876029,27.233378 L122.472012,7.1853538 C122.650741,6.74181345 123.455022,6.4313352 124.348667,6.4313352 Z M10.4982796,28.519645 L10.4982796,2.57253408 L0.0426317715,2.57253408 L0.846912374,0 L23.6348628,0 L22.8305822,2.57253408 L14.2962713,2.57253408 L14.2962713,30.6042847 L12.9111214,30.6042847 C11.3472425,30.6042847 10.4982796,29.8946202 10.4982796,28.519645 Z M31.4095753,9.00386927 L22.4284419,9.00386927 L22.4284419,15.0360181 L29.2201447,15.0360181 L28.5499109,17.298074 L22.3837596,17.298074 L22.3837596,20.8463968 C22.3837596,24.2173036 23.143358,24.9269681 26.4051626,24.9269681 L34.7160622,24.9269681 L34.7160622,6.65310537 L41.1056248,6.65310537 C45.7078971,6.65310537 49.1484308,8.20549663 49.1484308,11.8868816 L49.1484308,13.7053971 C49.1484308,16.2779312 47.4951873,17.7859684 44.635523,18.2738628 L50.0867582,26.4793594 L57.3252836,7.14099977 C57.5040126,6.69745941 58.2636109,6.38698116 59.2019383,6.38698116 C60.0509012,6.38698116 60.899864,6.69745941 61.0785931,7.14099977 L68.8086233,27.189024 L67.0213331,27.189024 C65.3680896,27.189024 64.6531735,27.0559619 64.206351,25.8140489 L59.1125738,10.9554469 L56.2975917,18.8948193 L59.4700318,18.8948193 L60.1402657,21.1568751 L55.5826756,21.1568751 L53.8847499,25.8584029 C53.3932451,27.1003159 52.7230112,27.233378 51.2038145,27.233378 L47.8973276,27.233378 C46.3781309,27.233378 46.0653551,27.1446699 45.4398036,26.035819 L39.7651571,16.3666392 L41.4630828,16.3666392 C43.6971956,16.3666392 45.5291681,15.7456827 45.5291681,13.7497511 L45.5291681,11.9755897 C45.5291681,10.0240121 44.0546536,9.00386927 41.150307,9.00386927 L38.4693717,9.00386927 L38.4693717,27.189024 L26.3157981,27.233378 C19.7475065,27.233378 18.6304501,25.7253408 18.6304501,20.9351049 L18.6304501,6.74181345 L32.1244914,6.74181345 L31.4095753,9.00386927 Z M110.720579,27.277732 C109.1567,27.277732 108.307737,26.5680675 108.307737,25.1930924 L108.307737,9.00386927 L101.247941,9.00386927 L101.962857,6.74181345 L119.120843,6.74181345 L118.450609,9.00386927 L112.105729,9.00386927 L112.105729,27.277732 L110.720579,27.277732 Z M95.6179767,6.4313352 C96.4669396,6.4313352 97.2712202,6.74181345 97.4499492,7.1853538 L105.179979,27.233378 L103.392689,27.233378 C101.739446,27.233378 101.02453,27.1003159 100.577707,25.8584029 L95.4839299,10.9554469 L92.6689478,18.8948193 L95.841388,18.8948193 L96.5116218,21.1568751 L91.9540317,21.1568751 L90.256106,25.8584029 C89.7646012,27.1003159 89.0943674,27.233378 87.5751707,27.233378 L86.1453385,27.233378 L93.741322,7.1853538 C93.920051,6.74181345 94.6796493,6.4313352 95.6179767,6.4313352 Z"/>
    <g transform="translate(143 4)">
      <mask id="b" fill="white">
        <use xlink:href="#a"/>
      </mask>
      <path stroke="#FFFFFF" stroke-width="4" d="M23.783823,2.80397488 L23.783823,13.4236886 C23.783823,19.2855796 19.031808,24.0375811 13.16702,24.0375811 C7.303522,24.0375811 2.550217,19.2767426 2.550217,13.4236886 L2.550217,2.80397488 L23.783823,2.80397488 Z" mask="url(#b)"/>
      <g fill="#F6B500" transform="translate(2 2)">
        <path d="M21.783823,0.80397488 L21.783823,11.4236886 C21.783823,17.2855796 17.031808,22.0375811 11.16702,22.0375811 C5.303522,22.0375811 0.550217,17.2767426 0.550217,11.4236886 L0.550217,0.80397488 L21.783823,0.80397488 Z"/>
      </g>
    </g>
    <g transform="translate(167 4)">
      <polygon fill="#D8D8D8" points="16.949 11.421 22.253 .804 11.493 .804 .733 .804 6.037 11.421 .733 22.038 11.493 22.038 22.253 22.038" transform="translate(2 2)"/>
      <mask id="e" fill="white">
        <use xlink:href="#d"/>
      </mask>
      <polygon stroke="#FFFFFF" stroke-width="4" points="18.949 13.421 24.253 2.804 13.493 2.804 2.733 2.804 8.037 13.421 2.733 24.038 13.493 24.038 24.253 24.038" mask="url(#e)"/>
    </g>
    <polygon fill="#F29400" fill-rule="nonzero" points="177.988 23.327 169.733 6.804 180.645 6.804 183.253 12.025"/>
    <polygon fill="#F6B500" fill-rule="nonzero" points="177.988 23.327 180.342 28.038 191.253 28.038 183.253 12.025"/>
    <polygon fill="#F8CC3E" fill-rule="nonzero" points="191.253 6.804 180.645 28.038 169.733 28.038 180.342 6.804"/>
    <rect width="10.617" height="10.617" x="145.55" y="6.804" fill="#F8CC3E" fill-rule="nonzero"/>
    <rect width="10.617" height="10.617" x="156.167" y="6.804" fill="#F29400" fill-rule="nonzero"/>
    <path fill="#F29400" fill-rule="nonzero" d="M137.351795,26.6481449 C137.083019,26.9165044 136.747048,27.0506842 136.37748,27.0506842 C136.007912,27.0506842 135.671942,26.9165044 135.403165,26.6481449 C135.134388,26.3797854 135,26.044336 135,25.6753417 C135,25.3063474 135.134388,24.970898 135.403165,24.7025385 C135.671942,24.434179 136.007912,24.2999992 136.37748,24.2999992 C136.747048,24.2999992 137.083019,24.434179 137.351795,24.7025385 C137.620572,24.970898 137.75496,25.3063474 137.75496,25.6753417 C137.788558,26.044336 137.654169,26.3462405 137.351795,26.6481449 L137.351795,26.6481449 Z M135.537553,24.8031733 C135.302374,25.0379879 135.201582,25.3063474 135.201582,25.6417968 C135.201582,25.9772461 135.302374,26.2456057 135.537553,26.4804202 C135.772733,26.7152348 136.041509,26.8158696 136.37748,26.8158696 C136.713451,26.8158696 136.982228,26.6816898 137.217407,26.4804202 C137.452587,26.2456057 137.553378,25.9772461 137.553378,25.6417968 C137.553378,25.3063474 137.452587,25.0379879 137.217407,24.8031733 C136.982228,24.5683587 136.713451,24.4677239 136.37748,24.4677239 C136.075107,24.4677239 135.772733,24.5683587 135.537553,24.8031733 L135.537553,24.8031733 Z M136.343883,24.8702632 C136.545466,24.8702632 136.679854,24.9038081 136.747048,24.9373531 C136.915033,25.0044429 136.982228,25.1386227 136.982228,25.3063474 C136.982228,25.4405271 136.948631,25.541162 136.847839,25.6082518 C136.780645,25.6417968 136.713451,25.6753417 136.61266,25.6753417 C136.747048,25.7088866 136.814242,25.7424316 136.881436,25.8095215 C136.948631,25.8766113 136.948631,25.9772461 136.948631,26.044336 L136.948631,26.1449708 L136.948631,26.2456057 L136.948631,26.3126955 L136.948631,26.3462405 L136.679854,26.3462405 L136.679854,26.3462405 C136.679854,26.3462405 136.679854,26.3462405 136.679854,26.3126955 L136.679854,26.2791506 L136.679854,26.1449708 C136.679854,25.9772461 136.646257,25.8430664 136.545466,25.8095215 C136.478271,25.7759765 136.37748,25.7759765 136.243092,25.7759765 L136.041509,25.7759765 L136.041509,26.3797854 L135.772733,26.3797854 L135.772733,24.8702632 L136.343883,24.8702632 L136.343883,24.8702632 Z M136.646257,25.1386227 C136.579063,25.1050778 136.478271,25.0715328 136.310286,25.0715328 L136.075107,25.0715328 L136.075107,25.6082518 L136.310286,25.6082518 C136.411077,25.6082518 136.511869,25.6082518 136.579063,25.5747069 C136.679854,25.541162 136.747048,25.4405271 136.747048,25.3398923 C136.747048,25.2392575 136.713451,25.1721676 136.646257,25.1386227 L136.646257,25.1386227 Z"/>
  </g>
</svg>
