<svg xmlns="http://www.w3.org/2000/svg" width="24" height="24">
    <path d="M3 14.223c0 2.455 4.027 4.444 9 4.444.241 0 .48-.005.717-.014l-2.021 2.427-.078.099-.075.103-.073.106-.104.176a2.994 2.994 0 00-.161.347c-4.014-.4-7.057-2.12-7.2-4.202L3 17.556v-3.333zm0-5.556c0 2.455 4.027 4.445 9 4.445.688 0 1.357-.038 2-.11v3.333c-.643.072-1.313.11-2 .11-4.872 0-8.835-1.91-8.995-4.296L3 12V8.668zm18 0V11h-1.338c.799-.638 1.28-1.384 1.333-2.184l.005-.15zM20 13v2h-1v1.638l4.768 5.722a1 1 0 01-.64 1.632L23 24H13a1.002 1.002 0 01-.844-1.536l.076-.104L17 16.638V15h-1v-2h4zM12 2c4.973 0 9 1.989 9 4.445 0 2.455-4.027 4.444-9 4.444s-9-1.99-9-4.444C3 3.989 7.027 2 12 2z"/>
</svg>
