<svg xmlns="http://www.w3.org/2000/svg" width="24" height="24">
    <path d="M24 11c0-2.6-2-4.8-4.7-5-.7-3.5-3.8-6-7.3-6-2.9 0-5.4 1.6-6.7 4-3 .4-5.3 2.9-5.3 6 0 3.3 2.7 6 6 6h.2v-4.1C5.5 11.6 5 10.8 5 10c0-1.1.9-2 2-2s2 .9 2 2c0 .8-.5 1.6-1.2 1.9V18.1c-.7.3-1.2 1-1.2 1.9 0 1.1.9 2 2 2s2-.9 2-2c0-.8-.5-1.6-1.2-1.9V16h2V7.9C10.5 7.6 10 6.8 10 6c0-1.1.9-2 2-2s2 .9 2 2c0 .8-.5 1.6-1.2 1.9v12.2c-.7.3-1.3 1-1.3 1.9 0 1.1.9 2 2 2s2-.9 2-2c0-.8-.5-1.6-1.2-1.8V16h2v-3.1c-.7-.3-1.2-1-1.2-1.9 0-1.1.9-2 2-2s2 .9 2 2c0 .8-.5 1.6-1.2 1.9V17.1c-.7.3-1.2 1-1.2 1.9 0 1.1.9 2 2 2s2-.9 2-2c0-.8-.5-1.6-1.2-1.9V16c2.4-.2 4.5-2.3 4.5-5z"/>
</svg>
