<svg xmlns="http://www.w3.org/2000/svg" width="24" height="24">
    <path d="M20 15v4a2 2 0 0 1-2 2H13v-2.5a1.5 1.5 0 0 0-3 0V21H5a2 2 0 0 1-2-2V13h2.5a1.5 1.5 0 1 0 0-3H3V6a2 2 0 0 1 2-2h3v-.5a3.5 3.5 0 1 1 7 0V4h.762l-2 2H13V3.5a1.5 1.5 0 1 0-3 0V6H5.5a.5.5 0 0 0-.5.5V8h.5a3.5 3.5 0 1 1 0 7H5v3.5a.5.5 0 0 0 .5.5H8v-.5a3.5 3.5 0 1 1 7 0v.5h2.5a.5.5 0 0 0 .5-.5V13h2.5a1.5 1.5 0 1 0 0-3h-2.262l2-2h.262a3.5 3.5 0 1 1 0 7H20zM17.001 0h7v7h-2V3.41l-9.83 9.831-1.411-1.411L20.591 2h-3.59V0z"/>
</svg>
