<svg xmlns="http://www.w3.org/2000/svg" viewBox="0 0 24 24"><path d="m19 15 1.253 2.747L23 19l-2.747 1.253L19 23l-1.253-2.747L15 19l2.747-1.253L19 15ZM5 15v4h4v2H5c-1.1 0-2-.9-2-2v-4h2Zm7 3.5c.28 0 .5.22.5.5s-.22.5-.5.5-.5-.22-.5-.5.22-.5.5-.5ZM8 15c.55 0 1 .45 1 1s-.45 1-1 1-1-.45-1-1 .45-1 1-1Zm4 0c.55 0 1 .45 1 1s-.45 1-1 1-1-.45-1-1 .45-1 1-1Zm4 .5c.275 0 .5.225.5.5s-.225.5-.5.5a.501.501 0 0 1-.5-.5c0-.275.225-.5.5-.5Zm-8-5c.83 0 1.5.67 1.5 1.5s-.67 1.5-1.5 1.5-1.5-.67-1.5-1.5.67-1.5 1.5-1.5Zm4 0c.83 0 1.5.67 1.5 1.5s-.67 1.5-1.5 1.5-1.5-.67-1.5-1.5.67-1.5 1.5-1.5ZM4 11c.55 0 1 .45 1 1s-.45 1-1 1-1-.45-1-1 .45-1 1-1Zm12 0c.55 0 1 .45 1 1s-.45 1-1 1-1-.45-1-1 .45-1 1-1Zm3 .5c.28 0 .5.22.5.5s-.22.5-.5.5-.5-.22-.5-.5.22-.5.5-.5Zm-7-5c.83 0 1.5.67 1.5 1.5s-.67 1.5-1.5 1.5-1.5-.67-1.5-1.5.67-1.5 1.5-1.5Zm-4 0c.83 0 1.5.67 1.5 1.5S8.83 9.5 8 9.5 6.5 8.83 6.5 8 7.17 6.5 8 6.5Zm8 .5c.55 0 1 .45 1 1s-.45 1-1 1-1-.45-1-1 .45-1 1-1ZM9 3v2H5v4H3V5c0-1.1.9-2 2-2h4Zm10 0c1.1 0 2 .9 2 2v4h-2V5h-4V3h4Zm-7 0c.55 0 1 .45 1 1s-.45 1-1 1-1-.45-1-1 .45-1 1-1Z"/></svg>