<svg xmlns="http://www.w3.org/2000/svg" viewBox="0 0 24 24"><path d="M9.3 11h5.3c.7 0 1.3-.6 1.3-1.3V4.4c0-.7-.6-1.3-1.3-1.3H9.3c-.7 0-1.3.6-1.3 1.3v5.3c0 .7.6 1.3 1.3 1.3Zm.2-6c0-.3.2-.5.5-.5h4c.3 0 .5.2.5.5v4c0 .3-.2.5-.5.5h-4c-.3 0-.5-.2-.5-.5V5ZM7 10H5V8h2v2Zm0-4H5V4h2v2Zm12 4h-2V8h2v2Zm0-4h-2V4h2v2Zm-8-4H9V0h2v2ZM0 18h2v2H0v-2ZM15 2h-2V0h2v2ZM9.7 13H4.4c-.7 0-1.3.6-1.3 1.3v5.3c0 .7.6 1.3 1.3 1.3h5.3c.7 0 1.3-.6 1.3-1.3v-5.3c0-.7-.6-1.3-1.3-1.3Zm-.2 6c0 .3-.2.5-.5.5H5c-.3 0-.5-.2-.5-.5v-4c0-.3.2-.5.5-.5h4c.3 0 .5.2.5.5v4Zm10.2-6h-5.3c-.7 0-1.3.6-1.3 1.3v5.3c0 .7.6 1.3 1.3 1.3h5.3c.7 0 1.3-.6 1.3-1.3v-5.3c0-.7-.6-1.3-1.3-1.3Zm-.2 6c0 .3-.2.5-.5.5h-4c-.3 0-.5-.2-.5-.5v-4c0-.3.2-.5.5-.5h4c.3 0 .5.2.5.5v4ZM18 22h2v2h-2v-2Zm-4 0h2v2h-2v-2Zm8-4h2v2h-2v-2Zm2-4v2h-2v-2h2ZM4 22h2v2H4v-2Zm-4-8h2v2H0v-2Zm8 8h2v2H8v-2Z"/></svg>