<svg xmlns="http://www.w3.org/2000/svg" viewBox="0 0 24 24"><path d="M9 4H7V1h2v3Zm4-3h-2v3h2V1Zm4 0h-2v3h2V1ZM7 23h2v-3H7v3ZM20 7v2h3V7h-3ZM1 9h3V7H1v2Zm0 4h3v-2H1v2Zm0 4h3v-2H1v2Zm20.5-2.5c1 1 1.5 2.1 1.5 3.5s-.5 2.6-1.5 3.5c-1 1-2.2 1.5-3.5 1.5s-2.6-.5-3.5-1.5c-1-1-1.5-2.1-1.5-3.5s.5-2.6 1.5-3.5c1-1 2.1-1.5 3.5-1.5s2.6.5 3.5 1.5Zm-1.2 5.2-1.8-1.9V15h-1v3.2l2.2 2.1.7-.7ZM7.9 17c-.5 0-.9-.4-.9-.9V7.9c0-.5.4-.9.9-.9h8.2c.5 0 .9.4.9.9v3.2h2V7.4c0-1.3-1-2.3-2.3-2.3H7.3C6 5.1 5 6.1 5 7.4v9.3C5 18 6 19 7.3 19H11v-2H7.8Z"/></svg>