<?xml version="1.0" encoding="UTF-8"?>
<svg id="a" data-name="Layer 34 copy" xmlns="http://www.w3.org/2000/svg" viewBox="0 0 24 24">
  <defs>
    <style>
      .b {
        fill: #000;
        stroke-width: 0px;
      }
    </style>
  </defs>
  <path class="b" d="M12,4c.32,0,.57.07.84.25.16.11.3.25.43.43.17.24.24.49.24.81s-.07.57-.25.83c-.11.16-.25.3-.43.43-.24.17-.49.24-.81.24s-.57-.07-.83-.25c-.16-.11-.3-.25-.43-.43-.17-.24-.24-.49-.24-.81s.07-.57.25-.83c.11-.16.25-.3.43-.43.24-.17.49-.24.81-.24M12,11.88c.8,0,1.6.1,2.37.28.78.19,1.57.48,2.31.85.1.05.17.12.23.22.06.1.09.19.09.32v.45H7v-.45c0-.13.03-.22.09-.32.07-.11.13-.17.21-.21.77-.38,1.55-.67,2.33-.86.77-.19,1.57-.28,2.37-.28M12,2c-.73,0-1.38.2-1.95.6-.38.25-.7.58-.95.95-.4.57-.6,1.22-.6,1.95s.2,1.38.6,1.95c.25.38.58.7.95.95.57.4,1.22.6,1.95.6s1.38-.2,1.95-.6c.38-.25.7-.58.95-.95.4-.57.6-1.22.6-1.95s-.2-1.38-.6-1.95c-.25-.38-.58-.7-.95-.95-.57-.4-1.22-.6-1.95-.6h0ZM12,9.88c-.96,0-1.91.11-2.84.34-.93.23-1.85.57-2.76,1.02-.42.22-.76.54-1.02.95-.26.42-.38.87-.38,1.37v2.45h14v-2.45c0-.5-.13-.95-.38-1.37-.26-.42-.59-.73-1.02-.95-.9-.45-1.82-.79-2.76-1.02-.93-.23-1.88-.34-2.84-.34h0ZM13,16h-2v2h-1c-.55,0-1,.45-1,1H2v2h7c0,.55.45,1,1,1h4c.55,0,1-.45,1-1h7v-2h-7c0-.55-.45-1-1-1h-1v-2h0Z"/>
</svg>