
<svg  xmlns="http://www.w3.org/2000/svg" viewBox="0 0 24 24">

  <path  d="M5.62,9.83c1,.45,2.14.76,3.38.95V3.22c-1.24.19-2.38.5-3.38.95-1.75.79-2.63,1.73-2.63,2.83s.88,2.04,2.63,2.83ZM4.03,11.37c-.69-.51-1.03-1.13-1.03-1.86v2.5c0,.73.35,1.35,1.03,1.86.68.51,1.5.92,2.45,1.24.82.28,1.67.47,2.52.61v-2.5c-.86-.14-1.71-.34-2.52-.61-.95-.32-1.77-.73-2.45-1.24ZM9,18.22c-.86-.14-1.71-.34-2.52-.61-.95-.32-1.76-.73-2.45-1.24-.69-.51-1.03-1.13-1.03-1.86v2.5c0,.73.35,1.35,1.03,1.86.68.51,1.5.92,2.45,1.24.81.27,1.65.47,2.52.61v-2.5ZM18,15h2v2h-2v-2ZM14,19h2v2h-2v-2ZM18,19v2c1.1,0,2-.9,2-2h-2ZM18,11h2v2h-2v-2ZM11,2h2v20h-2V2ZM22.88,3.68l-.9.8c.02.2.04.37.04.51s-.02.31-.04.51l.9.8-.8,1.37-1.17-.38c-.14.1-.27.2-.41.28s-.29.15-.45.22l-.24,1.2h-1.61l-.24-1.2c-.16-.06-.31-.14-.45-.22-.14-.08-.28-.18-.41-.28l-1.17.4-.8-1.38.9-.8c-.02-.2-.04-.37-.04-.51s.02-.31.04-.51l-.9-.8.8-1.38,1.17.4c.14-.1.27-.2.41-.29s.29-.16.45-.23l.24-1.2h1.61l.24,1.2c.31.12.6.29.86.5l1.17-.4.8,1.37v.02ZM20.6,5c0-.44-.16-.81-.47-1.13s-.69-.47-1.13-.47-.82.16-1.13.47-.47.69-.47,1.13.16.81.47,1.13.69.47,1.13.47.82-.16,1.13-.47.47-.69.47-1.13Z"/>
</svg>