
<svg  xmlns="http://www.w3.org/2000/svg" viewBox="0 0 24 24">
  <path  d="M20,17h-2v-2h2v2ZM16,19h-2v2h2v-2ZM18,19v2c1.1,0,2-.9,2-2h-2ZM20,11h-2v2h2v-2ZM13,2h-2v20h2V2ZM22.88,3.67l-.8-1.37-1.17.4c-.26-.21-.55-.38-.86-.5l-.24-1.2h-1.61l-.24,1.2c-.16.07-.31.14-.45.23-.14.09-.27.18-.41.29l-1.17-.4-.8,1.38.9.8c-.02.2-.04.37-.04.51s.02.31.04.51l-.9.8.8,1.38,1.17-.4c.13.1.27.2.41.28.14.09.29.16.45.22l.24,1.2h1.61l.24-1.2c.16-.07.31-.14.45-.22s.27-.18.41-.28l1.17.38.8-1.37-.9-.8c.02-.2.04-.37.04-.51s-.02-.31-.04-.51l.9-.8v-.02ZM20.13,6.13c-.31.31-.69.47-1.13.47s-.82-.16-1.13-.47-.47-.69-.47-1.13.16-.81.47-1.13c.31-.31.69-.47,1.13-.47s.82.16,1.13.47.47.69.47,1.13-.16.81-.47,1.13ZM12.12,3s-.08,0-.12,0-.08,0-.12,0h.24ZM9,18.72c-.55-.1-1.08-.21-1.55-.35-.66-.19-1.22-.41-1.66-.64-.44-.24-.71-.48-.79-.73v-2.48c.42.24.88.45,1.4.63.51.18,1.07.33,1.66.46.3.07.62.12.94.17v-2c-.32-.05-.64-.11-.94-.17-.59-.12-1.14-.28-1.66-.46-.52-.19-.98-.4-1.4-.63v-3c.42.24.88.45,1.4.63.51.18,1.07.33,1.66.46.3.07.62.12.94.17v-2.04c-.49-.09-.97-.2-1.45-.34-1.46-.42-2.31-.88-2.54-1.38.24-.5,1.08-.96,2.54-1.39.48-.14.96-.25,1.45-.34v-2.06c-1.23.19-2.36.5-3.36.94-1.76.79-2.64,1.73-2.64,2.83v10c0,1.12.87,2.06,2.61,2.84,1,.44,2.14.74,3.39.93v-2.06Z"/>
</svg>