<svg xmlns="http://www.w3.org/2000/svg" viewBox="0 0 24 24"><path d="M12 21c-2.52 0-4.65-.39-6.39-1.16C3.87 19.06 3 18.12 3 17V7c0-1.1.88-2.04 2.64-2.83C7.4 3.39 9.52 2.99 12 2.99c2.48 0 4.6.39 6.36 1.18C20.12 4.96 21 5.9 21 7v10c0 1.12-.87 2.06-2.61 2.84C16.65 20.62 14.52 21 12 21Zm0-11.98c1.48 0 2.98-.21 4.48-.64 1.5-.43 2.34-.88 2.53-1.36-.18-.48-1.02-.94-2.51-1.38-1.49-.44-2.99-.65-4.49-.65s-3 .21-4.46.64c-1.46.43-2.3.89-2.54 1.39.23.5 1.08.96 2.54 1.38 1.46.42 2.95.63 4.46.63L12 9.02ZM12 14c.7 0 1.38-.03 2.03-.1.65-.07 1.27-.16 1.86-.29.59-.13 1.15-.28 1.68-.46s1-.39 1.44-.63v-3c-.43.23-.91.44-1.44.63-.53.19-1.08.34-1.68.46-.6.12-1.21.22-1.86.29-.65.07-1.33.1-2.03.1-.7 0-1.38-.03-2.05-.1-.67-.07-1.3-.16-1.89-.29-.59-.13-1.15-.28-1.66-.46-.52-.18-.98-.39-1.4-.63v3c.42.23.88.44 1.4.63.52.18 1.07.34 1.66.46.59.12 1.22.22 1.89.29.67.07 1.35.1 2.05.1Zm0 5c.77 0 1.55-.06 2.34-.18.79-.12 1.52-.27 2.19-.46.67-.19 1.23-.41 1.68-.65.45-.24.72-.49.8-.74v-2.45c-.43.23-.91.44-1.44.63-.53.19-1.08.34-1.68.46-.6.12-1.21.22-1.86.29-.65.07-1.33.1-2.03.1-.7 0-1.38-.03-2.05-.1-.67-.07-1.3-.16-1.89-.29-.59-.13-1.15-.28-1.66-.46-.52-.18-.98-.39-1.4-.63V17c.08.25.35.49.79.73.44.23 1 .45 1.66.64.66.19 1.4.35 2.2.46.8.11 1.58.18 2.35.18V19Z"/></svg>