<svg xmlns="http://www.w3.org/2000/svg" viewBox="0 0 24 24"><path  d="M22.89 14.88a1.992 1.992 0 0 0-.31-.5l-.92-.92c-.15-.15-.32-.26-.5-.34-.18-.08-.38-.11-.58-.11a1.451 1.451 0 0 0-1.05.43L14 18.94v3.08h3.08l5.5-5.5c.15-.15.26-.32.33-.51s.1-.38.1-.56c0-.18-.04-.37-.11-.55l-.01-.02Zm-6.44 5.62h-.95v-.95l3.05-3.02.47.45.45.48-3.03 3.05.01-.01ZM12 19a17.224 17.224 0 0 1-4.55-.63c-.67-.19-1.22-.4-1.66-.64-.44-.23-.7-.47-.79-.72v-2.48c.42.23.88.44 1.4.62.52.18 1.07.34 1.66.46.59.12 1.22.22 1.89.29.67.07 1.35.1 2.05.1.7 0 1.38-.03 2.03-.1.07 0 .14-.02.21-.03l2.5-2.49c-.28.08-.55.17-.85.23-.59.12-1.21.22-1.86.29-.65.07-1.33.1-2.03.1-.7 0-1.38-.03-2.05-.1-.67-.07-1.3-.16-1.89-.29-.59-.13-1.15-.28-1.66-.46a9.062 9.062 0 0 1-1.4-.62v-3c.42.23.88.44 1.4.62.52.18 1.07.34 1.66.46.59.12 1.22.22 1.89.29.67.07 1.35.1 2.05.1.7 0 1.38-.03 2.03-.1.65-.07 1.27-.16 1.86-.29.59-.13 1.15-.28 1.67-.46.53-.18 1-.39 1.44-.62v1.86c.11-.06.22-.13.34-.17.54-.2 1.1-.25 1.66-.18V7c0-1.1-.88-2.04-2.64-2.83C16.6 3.39 14.48 3 12 3c-2.48 0-4.6.39-6.36 1.17C3.88 4.95 3 5.89 3 7v10c0 1.12.87 2.06 2.61 2.84C7.35 20.62 9.48 21 12 21v-2ZM7.54 5.64C9 5.21 10.49 5 12 5c1.51 0 3 .22 4.49.65 1.49.43 2.33.89 2.51 1.38-.18.48-1.03.94-2.53 1.36-1.5.42-2.99.64-4.47.64-1.48 0-3-.21-4.46-.62-1.46-.42-2.3-.88-2.54-1.38.23-.5 1.08-.96 2.54-1.39Z"/></svg>