<svg xmlns="http://www.w3.org/2000/svg" viewBox="0 0 24 24"><path d="M16.5 19c.7 0 1.29-.24 1.78-.73s.73-1.08.73-1.78-.24-1.29-.73-1.78-1.08-.73-1.78-.73-1.29.24-1.78.73-.73 1.08-.73 1.78.24 1.29.73 1.78 1.08.73 1.78.73Zm5.1 4-2.7-2.7c-.35.23-.73.41-1.14.53s-.83.18-1.26.18c-1.25 0-2.31-.44-3.19-1.31-.88-.87-1.31-1.94-1.31-3.19s.44-2.31 1.31-3.19c.87-.88 1.94-1.31 3.19-1.31s2.31.44 3.19 1.31c.88.87 1.31 1.94 1.31 3.19 0 .43-.06.85-.18 1.26-.12.41-.29.79-.53 1.14l2.7 2.7-1.4 1.4h.01Zm-11.15-4.09c-.27-.03-.53-.05-.8-.09-.8-.12-1.53-.27-2.2-.46-.67-.19-1.22-.4-1.66-.64-.44-.23-.7-.47-.79-.72v-2.48c.42.23.88.44 1.4.62.52.18 1.07.34 1.66.46.59.12 1.22.22 1.89.29h.08c.06-.69.23-1.36.49-1.98-.19-.01-.38 0-.57-.03-.67-.07-1.3-.16-1.89-.29-.59-.13-1.15-.28-1.66-.46-.48-.17-.95-.37-1.4-.62v-3c.42.23.88.44 1.4.62.52.18 1.07.34 1.66.46.59.12 1.22.22 1.89.29s1.35.1 2.05.1c.38 0 .74-.03 1.11-.05 1-.62 2.15-.95 3.39-.95.4 0 .79.04 1.18.11.48-.17.92-.36 1.32-.58v.96c.73.3 1.4.75 2 1.32V6.98c0-1.1-.88-2.04-2.64-2.83-1.76-.78-3.88-1.17-6.36-1.17s-4.6.39-6.36 1.17C3.88 4.93 3 5.87 3 6.98v10c0 1.12.87 2.06 2.61 2.84 1.69.75 3.76 1.13 6.19 1.15-.58-.6-1.03-1.31-1.35-2.08v.02ZM7.54 5.64C9 5.21 10.49 5 12 5s3 .22 4.49.65c1.49.43 2.33.89 2.51 1.38-.18.48-1.03.94-2.53 1.36-1.5.42-2.99.64-4.47.64s-3-.21-4.46-.62C6.08 7.99 5.24 7.53 5 7.03c.23-.5 1.08-.96 2.54-1.39Z" /></svg>