<svg xmlns="http://www.w3.org/2000/svg" viewBox="0 0 24 24"><path d="M2.1 2.08.67 3.51l19.8 19.8 1.43-1.43L2.1 2.08ZM3 7c0 1.1.88 2.04 2.62 2.83 1.5.67 3.3 1.04 5.35 1.13L4.68 4.67C3.56 5.35 3 6.12 3 7Zm18 7.5c0 .73-.34 1.35-1.02 1.86-.14.1-.31.19-.46.28l1.27 1.27c.14-.28.22-.59.22-.92v-2.5H21Zm-16.98-.64c.68.51 1.5.92 2.45 1.24.95.32 1.94.55 2.96.69 1.03.14 1.88.21 2.56.21s1.54-.07 2.56-.21c.36-.05.7-.12 1.05-.19l-2.18-2.18c-.54.05-1.02.08-1.43.08-.68 0-1.54-.07-2.56-.21a16.14 16.14 0 0 1-2.96-.69c-.95-.32-1.77-.73-2.45-1.24-.68-.51-1.03-1.13-1.03-1.86V12c0 .73.34 1.35 1.03 1.86ZM21 12V9.5c0 .73-.34 1.35-1.02 1.86-.68.51-1.5.92-2.45 1.24-.53.18-1.07.32-1.62.44l1.93 1.93c.81-.3 1.54-.66 2.14-1.11.68-.51 1.02-1.13 1.02-1.86Zm-3.41 5.57-.06.03c-.95.32-1.94.55-2.96.69-1.02.14-1.88.21-2.56.21s-1.54-.07-2.56-.21a16.14 16.14 0 0 1-2.96-.69c-.95-.32-1.77-.73-2.45-1.24-.68-.51-1.03-1.13-1.03-1.86V17c0 .73.34 1.35 1.03 1.86.68.51 1.5.92 2.45 1.24.95.32 1.94.55 2.96.69 1.03.14 1.88.21 2.56.21s1.54-.07 2.56-.21c1.03-.14 2.01-.37 2.96-.69.66-.22 1.24-.51 1.77-.82l-1.71-1.71Zm-3.8-6.64c1.74-.15 3.27-.51 4.58-1.1 1.75-.78 2.62-1.72 2.62-2.83s-.88-2.04-2.62-2.83C16.62 3.39 14.49 3 11.99 3c-2.03 0-3.81.27-5.34.79l7.14 7.14Z" /></svg>