<svg xmlns="http://www.w3.org/2000/svg" viewBox="0 0 24 24"><path d="m23.98 18.17-3.81-.02v-1.38h1.08l-.03-.03c-.33-.31-.68-.54-1.05-.69s-.75-.23-1.13-.23c-.73 0-1.39.21-1.99.65-.6.44-.97 1.01-1.14 1.71h-1.9c.24-1.22.83-2.23 1.77-3.02s2.03-1.18 3.27-1.17c.62 0 1.22.12 1.83.36.61.24 1.16.61 1.66 1.12l.06.04v-1.12H24l-.02 3.75v.03Zm-1.76 4.66c-.94.79-2.03 1.18-3.27 1.17-.62 0-1.22-.12-1.82-.36a4.96 4.96 0 0 1-1.67-1.12l-.06-.04v1.12H14l.02-3.75 3.81.02v1.38h-1.08l.03.03c.33.31.68.54 1.05.69s.75.23 1.13.23c.73 0 1.39-.21 1.99-.65.6-.44.97-1.01 1.14-1.71h1.9c-.24 1.22-.83 2.23-1.77 3.02v-.03ZM12 19c-1.54 0-3.07-.22-4.55-.63-.67-.19-1.22-.4-1.66-.64-.44-.23-.7-.47-.79-.72v-2.48c.42.23.88.44 1.4.62.52.18 1.07.34 1.66.46.59.12 1.22.22 1.89.29.67.07 1.35.1 2.05.1.24 0 .46-.03.7-.03.38-.8.91-1.51 1.56-2.1-.08 0-.15.03-.23.04-.65.07-1.33.1-2.03.1s-1.38-.03-2.05-.1-1.3-.16-1.89-.29c-.59-.13-1.15-.28-1.66-.46-.48-.17-.95-.37-1.4-.62v-3c.42.23.88.44 1.4.62.52.18 1.07.34 1.66.46.59.12 1.22.22 1.89.29s1.35.1 2.05.1 1.38-.03 2.03-.1c.65-.07 1.27-.16 1.86-.29.59-.13 1.15-.28 1.67-.46.53-.18 1-.39 1.44-.62v2.48c.7 0 1.37.1 2 .29V7.02c0-1.1-.88-2.04-2.64-2.83-1.76-.78-3.88-1.17-6.36-1.17s-4.6.39-6.36 1.17C3.88 4.97 3 5.91 3 7.02v10c0 1.12.87 2.06 2.61 2.84 1.74.78 3.87 1.16 6.39 1.16.1 0 .19-.01.29-.01-.19-.65-.29-1.32-.29-1.99V19ZM7.54 5.64C9 5.21 10.49 5 12 5s3 .22 4.49.65c1.49.43 2.33.89 2.51 1.38-.18.48-1.03.94-2.53 1.36-1.5.42-2.99.64-4.47.64s-3-.21-4.46-.62C6.08 7.99 5.24 7.53 5 7.03c.23-.5 1.08-.96 2.54-1.39Z"/></svg>