<svg xmlns="http://www.w3.org/2000/svg" viewBox="0 0 24 24"><path d="M20 24c2.21 0 4-1.79 4-4s-1.79-4-4-4-4 1.79-4 4 1.79 4 4 4Zm-6-4c0-.39.04-.78.11-1.15-.71.1-1.42.15-2.11.15-1.54 0-3.07-.22-4.55-.63-.67-.19-1.22-.4-1.66-.64-.44-.23-.7-.47-.79-.72v-2.48c.42.23.88.44 1.4.62.52.18 1.07.34 1.66.46.59.12 1.22.22 1.89.29.67.07 1.35.1 2.05.1s1.38-.03 2.03-.1c.65-.07 1.27-.16 1.86-.29h.05c1.07-.99 2.5-1.6 4.06-1.6.34 0 .67.04 1 .09V7.01c0-1.1-.88-2.04-2.64-2.83C16.6 3.4 14.48 3.01 12 3.01s-4.6.39-6.36 1.17C3.88 4.96 3 5.9 3 7.01v10c0 1.12.87 2.06 2.61 2.84 1.74.78 3.87 1.16 6.39 1.16.73 0 1.41-.04 2.07-.11-.04-.29-.07-.59-.07-.89ZM7.54 5.64C9 5.21 10.49 5 12 5s3 .22 4.49.65c1.49.43 2.33.89 2.51 1.38-.18.48-1.03.94-2.53 1.36-1.5.42-2.99.64-4.47.64s-3-.21-4.46-.62C6.08 7.99 5.24 7.53 5 7.03c.23-.5 1.08-.96 2.54-1.39ZM5 9.52c.42.23.88.44 1.4.62.52.18 1.07.34 1.66.46.59.12 1.22.22 1.89.29.67.07 1.35.1 2.05.1s1.38-.03 2.03-.1c.65-.07 1.27-.16 1.86-.29.59-.13 1.15-.28 1.67-.46.53-.18 1-.39 1.44-.62v3c-.43.23-.91.44-1.44.62-.53.18-1.08.34-1.67.46-.59.12-1.21.22-1.86.29-.65.07-1.33.1-2.03.1s-1.38-.03-2.05-.1c-.67-.07-1.3-.16-1.89-.29-.59-.13-1.15-.28-1.66-.46-.48-.17-.95-.37-1.4-.62v-3Z" /></svg>