<svg xmlns="http://www.w3.org/2000/svg" viewBox="0 0 24 24"><path d="m23.98 18.17-3.81-.02v-1.38h1.08l-.03-.03c-.33-.31-.68-.54-1.05-.69-.37-.15-.75-.23-1.13-.23-.73 0-1.39.21-1.99.65-.6.44-.97 1.01-1.14 1.71h-1.9c.24-1.22.83-2.23 1.77-3.02s2.03-1.18 3.27-1.17c.62 0 1.22.12 1.83.36.61.24 1.16.61 1.66 1.12l.06.04v-1.12H24l-.02 3.75v.03Zm-1.76 4.66c-.94.79-2.03 1.18-3.27 1.17-.62 0-1.22-.12-1.82-.36a4.96 4.96 0 0 1-1.67-1.12l-.06-.04v1.12H14l.02-3.75 3.81.02v1.38h-1.08l.03.03c.33.31.68.54 1.05.69.37.15.75.23 1.13.23.73 0 1.39-.21 1.99-.65.6-.44.97-1.01 1.14-1.71h1.9c-.24 1.22-.83 2.23-1.77 3.02v-.03ZM21 9.5c0 .73-.34 1.35-1.02 1.86-.32.24-.67.45-1.04.64h.07c.68 0 1.34.1 1.97.28.01-.09.03-.19.03-.28V9.5H21Zm-15.38.32c1.75.78 3.88 1.17 6.38 1.17s4.62-.39 6.38-1.17C20.14 9.04 21 8.1 21 6.99s-.88-2.04-2.62-2.83C16.63 3.38 14.5 2.99 12 2.99s-4.62.39-6.38 1.17C3.87 4.94 3 5.89 3 6.99s.88 2.04 2.62 2.83ZM12 19c0-.17.01-.33.03-.5H12c-.68 0-1.54-.07-2.56-.21-1.01-.14-2-.37-2.96-.69-.95-.32-1.77-.73-2.45-1.24C3.35 15.85 3 15.23 3 14.5V17c0 .73.34 1.35 1.03 1.86.68.51 1.5.92 2.45 1.24s1.94.55 2.96.69c1.03.14 1.88.21 2.56.21h.29c-.19-.65-.29-1.32-.29-1.99Zm-7.98-5.14c.68.51 1.5.92 2.45 1.24.95.32 1.94.55 2.96.69 1.03.14 1.88.21 2.56.21.21 0 .45 0 .69-.02a7.048 7.048 0 0 1 2.4-2.79c-.18.03-.35.07-.54.1-1.02.14-1.88.21-2.56.21s-1.54-.07-2.56-.21c-1.01-.14-2-.37-2.96-.69-.95-.32-1.77-.73-2.45-1.24-.68-.51-1.03-1.13-1.03-1.86V12c0 .73.34 1.35 1.03 1.86Z" /></svg>