
<svg  xmlns="http://www.w3.org/2000/svg" viewBox="0 0 24 24">

  <path  d="M20.52,9.63l-1-1.1c-.25.03-.46.05-.64.05s-.39-.02-.64-.05l-1,1.1-1.72-.99.47-1.43c-.13-.17-.25-.34-.35-.5s-.19-.35-.28-.55l-1.5-.3v-1.97s1.5-.3,1.5-.3c.08-.2.17-.38.28-.55.1-.17.22-.34.35-.5l-.5-1.43,1.73-.99,1,1.1c.25-.03.46-.05.64-.05s.39.02.64.05l1-1.1,1.73.99-.5,1.43c.13.17.25.34.36.5.11.17.2.35.29.55l1.5.3v1.97s-1.5.3-1.5.3c-.15.38-.36.74-.62,1.05l.5,1.43-1.72.99h-.02ZM18.88,6.84c.55,0,1.02-.2,1.41-.58.39-.38.59-.85.59-1.39s-.2-1.01-.59-1.39c-.39-.38-.86-.58-1.41-.58s-1.02.2-1.41.58c-.39.38-.59.85-.59,1.39s.2,1.01.59,1.39c.39.38.86.58,1.41.58ZM20.52,23.88l-1-1.1c-.25.03-.46.05-.64.05s-.39-.02-.64-.05l-1,1.1-1.72-.99.47-1.43c-.13-.17-.25-.34-.35-.5s-.19-.35-.28-.55l-1.5-.3v-1.97s1.5-.3,1.5-.3c.08-.2.17-.38.28-.55.1-.17.22-.34.35-.5l-.5-1.43,1.73-.99,1,1.1c.25-.03.46-.05.64-.05s.39.02.64.05l1-1.1,1.73.99-.5,1.43c.13.17.25.34.36.5.11.17.2.35.29.55l1.5.3v1.97s-1.5.3-1.5.3c-.15.38-.36.74-.62,1.05l.5,1.43-1.72.99h-.02ZM18.88,21.09c.55,0,1.02-.2,1.41-.58.39-.38.59-.85.59-1.39s-.2-1.01-.59-1.39c-.39-.38-.86-.58-1.41-.58s-1.02.2-1.41.58c-.39.38-.59.85-.59,1.39s.2,1.01.59,1.39c.39.38.86.58,1.41.58ZM14.13,9.61l-1.63,1.45c.04.36.07.67.07.93s-.03.56-.07.93l1.63,1.45-1.45,2.49-2.11-.68c-.25.19-.49.36-.74.51s-.52.27-.81.41l-.44,2.17h-2.9s-.44-2.17-.44-2.17c-.29-.12-.57-.25-.81-.41-.25-.14-.51-.32-.74-.51l-2.11.72L.13,14.39l1.63-1.45c-.04-.36-.07-.67-.07-.93s.03-.56.07-.93l-1.63-1.45,1.45-2.5,2.11.72c.25-.19.49-.36.74-.52.25-.16.52-.29.81-.42l.44-2.17h2.9s.44,2.17.44,2.17c.57.22,1.09.52,1.55.9l2.11-.72,1.45,2.49v.03ZM10.02,12c0-.8-.29-1.48-.86-2.04-.57-.56-1.25-.85-2.05-.85s-1.48.29-2.05.85c-.57.56-.86,1.24-.86,2.04s.29,1.48.86,2.04c.57.56,1.25.85,2.05.85s1.48-.29,2.05-.85c.57-.56.86-1.24.86-2.04Z"/>
</svg>