<svg xmlns="http://www.w3.org/2000/svg" viewBox="0 0 24 24"><path  d="m5.548 13 4.03 4.333c.56.602.556 1.483.03 2.08l-.104.108-.093.082c-.654.533-1.62.522-2.245.012l-.12-.11-.058-.059-5.922-6.369L1 13h4.548ZM23 13l-.066.077-5.922 6.37-.058.059-.12.109c-.626.51-1.591.521-2.245-.012l-.093-.082-.105-.109a1.533 1.533 0 0 1 .031-2.08L18.452 13H23ZM9.41 4.397l.094.082c.627.593.668 1.549.074 2.188L5.548 11H1l.066-.077 5.922-6.37.058-.059c.615-.615 1.668-.666 2.365-.097Zm5.18 0c.696-.569 1.749-.518 2.364.097l.058.06 5.922 6.369L23 11h-4.548l-4.03-4.333a1.536 1.536 0 0 1 .074-2.188l.093-.082Z" /></svg>