
<svg xmlns="http://www.w3.org/2000/svg" viewBox="0 0 24 24">
  <path d="M19.5,16v1.1c.7.3,1.2,1.1,1.2,1.9s-.9,2-2,2-2-.9-2-2,.5-1.6,1.2-1.9v-4.2c.7-.3,1.2-1.1,1.2-1.9s-.9-2-2-2-2,.9-2,2,.5,1.6,1.2,1.9v3.1h-2v4.2c.7.2,1.2,1,1.2,1.8s-.9,2-2,2-2-.9-2-2,.6-1.6,1.3-1.9V7.9c.7-.3,1.2-1.1,1.2-1.9s-.9-2-2-2-2,.9-2,2,.5,1.6,1.4,1.9v8.1h-2v2.1c.7.3,1.2,1.1,1.2,1.9s-.9,2-2,2-2-.9-2-2,.5-1.6,1.2-1.9v-6.2c.7-.3,1.2-1.1,1.2-1.9s-.9-2-2-2-2,.9-2,2,.5,1.6,1.2,1.9v4.1h-.2c-3.3,0-6-2.7-6-6s2.3-5.6,5.3-6C6.6,1.6,9.1,0,12,0s6.6,2.5,7.3,6c2.7.2,4.7,2.4,4.7,5s-2.1,4.8-4.5,5Z"/>
</svg>