<svg xmlns="http://www.w3.org/2000/svg" viewBox="0 0 24 24"><path d="M6.5 13.5H0l7.14 7.78.16.14a2.546 2.546 0 0 0 3.22.01l.11-.1.04-.04.1-.11c.81-.91.79-2.24-.02-3.11L6.5 13.5Zm3.2 6.64-.08.09-.05.04c-.09.07-.19.13-.31.16-.05 0-.1.01-.15.02h-.06l-.1.03c-.02 0-.04 0-.06.01h-.04l-.12-.03s-.08-.01-.13-.02c-.02-.01-.05-.02-.07-.03-.08-.03-.18-.08-.22-.1l-.08-.07-.05-.05L3.36 15h2.51l3.81 4.09c.29.31.3.75.04 1.05H9.7Zm3.5-2.07c-.81.87-.83 2.2-.02 3.11l.1.11.04.04.11.1c.45.37 1.02.57 1.61.57.59 0 1.15-.2 1.61-.58l.16-.14 7.14-7.78h-6.5l-4.25 4.57ZM20.61 15l-4.82 5.19-.05.05-.08.07s-.14.07-.22.1c-.02 0-.05.02-.07.03-.05 0-.09 0-.13.02l-.12.03h-.04c-.02 0-.04 0-.06-.01-.03 0-.07-.01-.1-.02h-.06c-.05-.02-.1-.02-.15-.03a.832.832 0 0 1-.31-.16l-.05-.04-.08-.09c-.26-.29-.25-.73.04-1.05L18.12 15h2.51-.02Zm-3.16-3.5h6.5l-7.13-7.78-.16-.14a2.546 2.546 0 0 0-3.22-.01l-.11.1-.04.04-.1.11c-.81.91-.79 2.24.02 3.11l4.25 4.57h-.01Zm-3.19-6.64.08-.09.05-.04c.09-.07.19-.13.31-.16.05 0 .1-.01.15-.02h.06l.1-.03c.02 0 .04 0 .06-.01h.04l.12.03s.08.01.13.02c.02.01.05.02.07.03.08.03.18.08.22.1l.08.07.05.05L20.6 10h-2.51l-3.81-4.09c-.29-.31-.3-.75-.04-1.05h.02Zm-3.59-1.15-.04-.04-.11-.1C10.07 3.2 9.5 3 8.91 3c-.59 0-1.15.2-1.61.58l-.16.14L0 11.5h6.5l4.25-4.57c.81-.87.83-2.2.02-3.11l-.1-.11Zm-1.01 2.2L5.85 10H3.34l4.83-5.19.05-.05.08-.07s.14-.07.22-.1c.02 0 .05-.02.07-.03.05 0 .09 0 .13-.02l.12-.03h.04c.02 0 .04 0 .06.01.03 0 .07.01.1.02h.06c.05.02.1.02.15.03.12.03.22.09.31.16l.05.04.08.09c.26.29.25.73-.04 1.05h.01Z"/></svg>