
<svg  xmlns="http://www.w3.org/2000/svg" viewBox="0 0 24 24">

  <path  d="M11.5,0c1.93,0,3.5,1.57,3.5,3.5v.5h.76l-2,2h-.76v-2.5c0-.83-.67-1.5-1.5-1.5s-1.5.67-1.5,1.5v2.5h-4.5c-.28,0-.5.22-.5.5v1.5h.5c1.93,0,3.5,1.57,3.5,3.5s-1.57,3.5-3.5,3.5h-.5v3.5c0,.28.22.5.5.5h2.5v-.5c0-1.93,1.57-3.5,3.5-3.5s3.5,1.57,3.5,3.5v.5h2.5c.28,0,.5-.22.5-.5v-5.5h2.5c.83,0,1.5-.67,1.5-1.5s-.67-1.5-1.5-1.5h-2.26l2-2h.26c1.93,0,3.5,1.57,3.5,3.5s-1.57,3.5-3.5,3.5h-.5v4c0,1.1-.9,2-2,2h-5v-2.5c0-.83-.67-1.5-1.5-1.5s-1.5.67-1.5,1.5v2.5h-5c-1.1,0-2-.9-2-2v-6h2.5c.83,0,1.5-.67,1.5-1.5s-.67-1.5-1.5-1.5h-2.5v-4c0-1.1.9-2,2-2h3v-.5c0-1.93,1.57-3.5,3.5-3.5ZM24,0v7h-2v-3.59l-9.83,9.83-1.41-1.41L20.59,2h-3.59V0h7Z"/>
</svg>