
<svg  xmlns="http://www.w3.org/2000/svg" viewBox="0 0 24 24">

  <path  d="M20,15.9c2.21,0,4,1.79,4,4s-1.79,4-4,4-4-1.79-4-4,1.79-4,4-4ZM4,12h16c.28,0,.52-.1.71-.29s.29-.43.29-.71v-7c0-.28-.1-.52-.29-.71s-.43-.29-.71-.29H4c-.28,0-.52.1-.71.29s-.29.43-.29.71v7c0,.27.1.52.29.71s.43.29.71.29ZM6.44,6.44c.29-.29.64-.44,1.06-.44s.77.15,1.06.44.44.65.44,1.06-.15.77-.44,1.06-.65.44-1.06.44-.77-.15-1.06-.44-.44-.65-.44-1.06.15-.77.44-1.06ZM14,19.9c0-3.31,2.69-6,6-6,.34,0,.67.04,1,.09,0-.28-.1-.51-.29-.7s-.43-.29-.71-.29H4c-.28,0-.52.1-.71.29s-.29.43-.29.71v7c0,.27.1.52.29.71.19.19.43.29.71.29h10.39c-.25-.65-.39-1.36-.39-2.1ZM8.56,18.56c-.29.29-.65.44-1.06.44s-.77-.15-1.06-.44-.44-.65-.44-1.06.15-.77.44-1.06.64-.44,1.06-.44.77.15,1.06.44.44.65.44,1.06-.15.77-.44,1.06Z"/>
</svg>