<svg xmlns="http://www.w3.org/2000/svg" viewBox="0 0 24 24">
  <path d="M23.98,18.17l-3.81-.02v-1.38h1.08l-.03-.03c-.33-.31-.68-.54-1.05-.69-.37-.15-.75-.23-1.13-.23-.73,0-1.39.21-1.99.65s-.97,1.01-1.14,1.71h-1.9c.24-1.22.83-2.23,1.77-3.02.94-.79,2.03-1.18,3.27-1.17.62,0,1.22.12,1.83.36s1.16.61,1.66,1.12l.06.04v-1.12h1.4l-.02,3.75v.03ZM22.22,22.83c-.94.79-2.03,1.18-3.27,1.17-.62,0-1.22-.12-1.82-.36-.63-.26-1.2-.64-1.67-1.12l-.06-.04v1.12h-1.4l.02-3.75,3.81.02v1.38h-1.08l.03.03c.33.31.68.54,1.05.69.37.15.75.23,1.13.23.73,0,1.39-.21,1.99-.65s.97-1.01,1.14-1.71h1.9c-.24,1.22-.83,2.23-1.77,3.02,0,0,0-.03,0-.03ZM12.08,20h-7.08v-5h8.26c.57-.81,1.3-1.49,2.15-2H4c-.28,0-.52.1-.71.29s-.29.43-.29.71v7c0,.28.1.52.29.71.19.19.43.29.71.29h8.68c-.3-.62-.5-1.29-.6-2ZM6.44,16.44c-.29.29-.44.65-.44,1.06s.15.77.44,1.06c.29.29.65.44,1.06.44s.77-.15,1.06-.44c.29-.29.44-.65.44-1.06s-.15-.77-.44-1.06c-.29-.29-.65-.44-1.06-.44s-.77.15-1.06.44ZM7.5,6c-.42,0-.77.15-1.06.44s-.44.65-.44,1.06.15.77.44,1.06c.29.29.65.44,1.06.44s.77-.15,1.06-.44c.29-.29.44-.65.44-1.06s-.15-.77-.44-1.06c-.29-.29-.65-.44-1.06-.44ZM4,12h16c.28,0,.52-.1.71-.29.19-.19.29-.43.29-.71v-7c0-.28-.1-.52-.29-.71-.19-.19-.44-.29-.71-.29H4c-.28,0-.52.1-.71.29s-.29.43-.29.71v7c0,.28.1.52.29.71s.43.29.71.29ZM5,5h14v5H5v-5Z"/>
</svg>