
<svg xmlns="http://www.w3.org/2000/svg" viewBox="0 0 24 24">
  <path d="M20,24c2.21,0,4-1.79,4-4s-1.79-4-4-4-4,1.79-4,4,1.79,4,4,4ZM7.5,6c-.42,0-.77.15-1.06.44s-.44.65-.44,1.06.15.77.44,1.06c.29.29.65.44,1.06.44s.77-.15,1.06-.44c.29-.29.44-.65.44-1.06s-.15-.77-.44-1.06c-.29-.29-.65-.44-1.06-.44ZM20,23.9c2.21,0,4-1.79,4-4s-1.79-4-4-4-4,1.79-4,4,1.79,4,4,4ZM14.35,22s0,0,0,0H4c-.28,0-.52-.1-.71-.29s-.29-.43-.29-.71v-7c0-.28.1-.52.29-.71s.43-.29.71-.29h16c.27,0,.52.1.71.29.19.19.28.42.29.7-.33-.05-.66-.09-1-.09-1.29,0-2.48.41-3.45,1.1H5v5h9c0,.34.04.67.09,1,0,.01,0,.03,0,.04.06.33.14.65.25.96ZM4,12h16c.28,0,.52-.1.71-.29s.29-.43.29-.71v-7c0-.28-.1-.52-.29-.71-.19-.19-.44-.29-.71-.29H4c-.28,0-.52.1-.71.29s-.29.43-.29.71v7c0,.28.1.52.29.71s.43.29.71.29ZM5,5h14v5H5v-5ZM6.44,16.44c-.29.29-.44.65-.44,1.06s.15.77.44,1.06c.29.29.65.44,1.06.44s.77-.15,1.06-.44c.29-.29.44-.65.44-1.06s-.15-.77-.44-1.06c-.29-.29-.65-.44-1.06-.44s-.77.15-1.06.44Z"/>
</svg>