<svg viewBox="0 0 24 24" xmlns="http://www.w3.org/2000/svg">
<path d="M10 1L12 3H20C21.1 3 22 3.9 22 5V15C22 16.1 21.1 17 20 17H13V18H14C14.5523 18 15 18.4477 15 19H22V21H15C15 21.5523 14.5523 22 14 22H10C9.44772 22 9 21.5523 9 21H2V19H9C9 18.4477 9.44772 18 10 18H11V17H4C2.9 17 2 16.1 2 15L2.01 3C2.01 1.9 2.9 1 4 1H10ZM9.01374 7H5V13H6.44643V10.6099H8.77885V9.49725H6.44643V8.11676H9.01374V7ZM14.408 7H9.39286V8.11676H11.1607V13H12.6071V8.11676H14.408V7ZM17.4121 7H15.0179V13H16.4643V10.9643H17.3874C18.1181 10.9643 18.693 10.7892 19.1119 10.4389C19.5309 10.0886 19.7404 9.62088 19.7404 9.03571C19.7404 8.64011 19.6435 8.2864 19.4499 7.97459C19.2562 7.66277 18.9828 7.42239 18.6298 7.25343C18.2768 7.08448 17.8709 7 17.4121 7ZM17.4286 8.11676C17.6896 8.11951 17.8956 8.20467 18.0467 8.37225C18.1978 8.53984 18.2734 8.76373 18.2734 9.04396C18.2734 9.29945 18.1999 9.49725 18.0529 9.63736C17.9059 9.77747 17.6923 9.84753 17.4121 9.84753H16.4643V8.11676H17.4286Z" />
</svg>
