
<svg xmlns="http://www.w3.org/2000/svg" viewBox="0 0 24 24">
  <path d="M20.3,3.69c-.23-.23-.65-.51-1.36-.51s-1.66.31-2.73.86c.51.27,1,.59,1.46.97.3-.12,1.34-.49,1.57-.26,1.22,1.21-4.43,7.55-5.65,8.78-1.62,1.62-6.28,5.78-8.54,5.78-.66,0-.29-1.03-.05-1.65-.38-.46-.7-.95-.97-1.46-1.76,3.42-.43,4.61,1.01,4.61,1.16,0,2.9-.79,4.85-2.15.66.21,1.36.33,2.09.33,3.87,0,7-3.13,7-7,0-.73-.12-1.43-.33-2.09,1.15-1.65,3.06-4.8,1.64-6.22ZM12.19,16.98c.83-.68,1.67-1.44,2.5-2.27s1.6-1.68,2.28-2.52c-.1,2.61-2.18,4.69-4.79,4.79ZM7.04,16.94c-1.26-1.27-2.04-3.01-2.04-4.94,0-3.87,3.13-7,7-7,1.94,0,3.69.79,4.96,2.06-.34.54-.74,1.11-1.18,1.69-.91-1.07-2.25-1.75-3.77-1.75-2.76,0-5,2.24-5,5,0,1.51.68,2.85,1.74,3.76-.59.44-1.16.85-1.71,1.18Z"/>
</svg>