
<svg  xmlns="http://www.w3.org/2000/svg" viewBox="0 0 24 24">

  <path  d="M15,12c0,1.66-1.34,3-3,3s-3-1.34-3-3,1.34-3,3-3,3,1.34,3,3ZM12,1c-1.66,0-3,1.34-3,3s1.34,3,3,3,3-1.34,3-3-1.34-3-3-3ZM21.1,2.68h-4.12v2h4.12c.42,0,.75.34.75.75v4.49c0,.42-.34.75-.75.75h-4.12v2h4.12c1.52,0,2.75-1.23,2.75-2.75v-4.49c0-1.52-1.23-2.75-2.75-2.75ZM.13,13.75v4.49c0,1.52,1.23,2.75,2.75,2.75h4.12v-2H2.88c-.42,0-.75-.34-.75-.75v-4.49c0-.42.34-.75.75-.75h4.12v-2H2.88c-1.52,0-2.75,1.23-2.75,2.75ZM12,17c-1.66,0-3,1.34-3,3s1.34,3,3,3,3-1.34,3-3-1.34-3-3-3Z"/>
</svg>