<?xml version="1.0" encoding="UTF-8" standalone="no"?>
<svg width="512px" height="512px" viewBox="0 0 512 512" version="1.1" xmlns="http://www.w3.org/2000/svg" xmlns:xlink="http://www.w3.org/1999/xlink">
    <title>Appcenter</title>
    <desc>Copyright Teradata, Inc.</desc>
    <defs></defs>
    <g id="appcenter" fill-rule="evenodd">
        <g>
            <path d="M350.472874,303.285556 L442,222.5 L349.198639,140.589752 L298.566865,185.090065 C305.640232,196.078748 309.744277,209.162001 309.744277,223.204399 C309.744277,236.250551 306.201903,248.468825 300.027097,258.948715 L350.472874,303.285556 L350.472874,303.285556 Z M145.538735,123.168745 L237.5,42 L331.092617,124.608642 L282.373767,167.427686 C270.466518,158.208678 255.526591,152.722569 239.306107,152.722569 C223.002945,152.722569 207.993427,158.264747 196.056605,167.568948 L145.538735,123.168745 L145.538735,123.168745 Z M332.366852,319.266667 L237.5,403 L144.2645,320.706563 L193.895408,277.08591 C206.157205,287.443393 222.003062,293.68623 239.306107,293.68623 C256.526967,293.68623 272.304448,287.502556 284.541841,277.233218 L332.366852,319.266667 L332.366852,319.266667 Z M127.432713,139.149855 L33,222.5 L126.158478,304.725453 L178.468529,258.750099 C172.365742,248.314579 168.867937,236.168221 168.867937,223.204399 C168.867937,209.243926 172.924235,196.231439 179.921851,185.282609 L127.432713,139.149855 L127.432713,139.149855 Z M288.744657,223.204399 C288.744657,195.759131 266.610264,173.510345 239.306107,173.510345 C212.00195,173.510345 189.867557,195.759131 189.867557,223.204399 C189.867557,250.649668 212.00195,272.898454 239.306107,272.898454 C266.610264,272.898454 288.744657,250.649668 288.744657,223.204399 L288.744657,223.204399 Z" id="Rectangle-3"></path>
            <polygon id="Rectangle-1-Copy-8" points="245 417.167348 245 468 442 290.103149 442 238"></polygon>
            <polygon id="Rectangle-1-Copy-8" transform="translate(131.500000, 353.000000) scale(-1, 1) translate(-131.500000, -353.000000) " points="33 417.167348 33 468 230 290.103149 230 238"></polygon>
        </g>
    </g>
</svg>