<?xml version="1.0" encoding="UTF-8" standalone="no"?>
<svg width="512px" height="512px" viewBox="0 0 512 512" version="1.1" xmlns="http://www.w3.org/2000/svg" xmlns:xlink="http://www.w3.org/1999/xlink">
    <title>Querygrid</title>
    <desc>Copyright Teradata, Inc.</desc>
    <defs></defs>
    <g id="querygrid" fill-rule="evenodd">
        <g>
            <path d="M279.316134,299.134424 L291.746532,311.564822 L256.104868,347.206486 L165.791659,256.893277 L256.104868,166.580068 L346.418077,256.893277 L314.04609,289.265264 L300.771661,275.990835 C303.480443,269.915676 304.986191,263.186115 304.986191,256.104869 C304.986191,229.10846 283.101277,207.223546 256.104868,207.223546 C229.108459,207.223546 207.223546,229.10846 207.223546,256.104869 C207.223546,283.101278 229.108459,304.986191 256.104868,304.986191 C264.505346,304.986191 272.410894,302.867143 279.316134,299.134424 Z M335.119997,310.339171 L385.287035,260.172133 L388.784381,256.674786 L333.645628,201.536033 L356.461325,178.720335 L411.886466,234.145475 L411.770424,234.261518 L412.002509,234.261518 L412.002509,100.232086 L277.973076,100.232086 L277.973077,100.464171 L278.089119,100.348129 L334.161768,156.420777 L311.34607,179.236475 L259.382558,127.272963 L255.885212,123.775616 L202.615031,177.045797 L179.799333,154.230099 L233.91339,100.116043 L234.029433,100.232086 L234.029432,100 L100,100 L100,234.029433 L100.232086,234.029433 L100.116043,233.91339 L157.499776,176.529657 L180.315473,199.345355 L122.986042,256.674786 L126.483388,260.172133 L178.841104,312.529849 L156.582896,334.788057 L100.441446,278.646608 L100.557489,278.530565 L100.325403,278.530565 L100.325404,412.559997 L234.354836,412.559998 L234.354836,412.327912 L234.238793,412.443955 L178.882453,357.087615 L201.140662,334.829407 L255.885212,389.573956 L259.382558,386.076609 L312.820439,332.638729 L334.684444,354.502734 L277.626114,411.561063 L277.510072,411.445021 L277.510072,411.677106 L411.539504,411.677106 L411.539504,277.647674 L411.307418,277.647674 L411.423461,277.763717 L356.984002,332.203176 L335.119997,310.339171 Z M256.893277,282.122347 C270.826907,282.122347 282.122346,270.826907 282.122346,256.893277 C282.122346,242.959647 270.826907,231.664207 256.893277,231.664207 C242.959646,231.664207 231.664207,242.959647 231.664207,256.893277 C231.664207,270.826907 242.959646,282.122347 256.893277,282.122347 Z" id="Combined-Shape" transform="translate(256.001255, 256.279999) rotate(-315.000000) translate(-256.001255, -256.279999) "></path>
        </g>
    </g>
</svg>