<?xml version="1.0" encoding="UTF-8"?>
<svg width="512px" height="512px" viewBox="0 0 512 512" version="1.1" xmlns="http://www.w3.org/2000/svg" xmlns:xlink="http://www.w3.org/1999/xlink">
    <title>studio</title>
    <desc>Copyright Teradata, Inc.</desc>
    <defs></defs>
    <g id="studio" fill-rule="evenodd">
        <g>
            <path d="M0.193434176,233.538672 L233.538672,0.193434176 L466.88391,233.538672 L233.538672,466.88391 L0.193434176,233.538672 Z M44.1015625,236.144531 L427.388673,236.144531 L234.630805,43.3866639 L44.1015625,236.144531 Z M99,265 L99,295 L129,295 L129,265 L99,265 Z M196,265 L196,295 L226,295 L226,265 L196,265 Z M196,315 L196,345 L226,345 L226,315 L196,315 Z M196,365 L196,395 L275,395 L275,365 L196,365 Z M293,265 L293,295 L323,295 L323,265 L293,265 Z M293,315 L293,345 L323,345 L323,315 L293,315 Z M148,265 L148,295 L178,295 L178,265 L148,265 Z M148,315 L148,345 L178,345 L178,315 L148,315 Z M245,265 L245,295 L275,295 L275,265 L245,265 Z M245,315 L245,345 L275,345 L275,315 L245,315 Z M342,265 L342,295 L372,295 L372,265 L342,265 Z" id="Combined-Shape"></path>
            <path d="M162,157 L234,85 L306,157 L282.992708,157 L234,108.007292 L185.007292,157 L162,157 Z M202.5,200 C196.148725,200 191,194.851275 191,188.5 C191,182.148725 196.148725,177 202.5,177 C208.851275,177 214,182.148725 214,188.5 C214,194.851275 208.851275,200 202.5,200 Z M234.5,200 C228.148725,200 223,194.851275 223,188.5 C223,182.148725 228.148725,177 234.5,177 C240.851275,177 246,182.148725 246,188.5 C246,194.851275 240.851275,200 234.5,200 Z M268.5,200 C262.148725,200 257,194.851275 257,188.5 C257,182.148725 262.148725,177 268.5,177 C274.851275,177 280,182.148725 280,188.5 C280,194.851275 274.851275,200 268.5,200 Z" id="Combined-Shape"></path>
        </g>
    </g>
</svg>