<?xml version="1.0" encoding="UTF-8" standalone="no"?>
<svg xmlns="http://www.w3.org/2000/svg" width="103" height="20" viewBox="0 0 103 20" >
    <g id="teradata">
    <path d="M0 2.30158H3.53561V5.66126H7.47898V8.88021H3.53561V14.507C3.53561 15.9629 4.26909 16.4388 5.30341 16.4388H7.47898V19.6578H5.30341C1.68575 19.6578 0 18.0355 0 14.507V2.30158Z" />
    <path d="M15.9376 19.9904C11.5865 19.9904 8.67492 17.0504 8.67492 12.6851C8.67492 8.31983 11.5318 5.3235 15.7461 5.3235C19.9605 5.3235 22.708 8.1791 22.708 12.5444C22.708 12.964 22.6806 13.4118 22.5986 13.944H12.3746C12.7003 15.9041 13.8714 16.8278 15.9923 16.8278C17.325 16.8278 18.3046 16.2393 18.685 15.4563H22.33C21.5145 18.1711 19.2295 19.9904 15.9376 19.9904ZM12.4293 10.9784H19.0107C18.6577 9.21541 17.6233 8.37613 15.7461 8.37613C13.9783 8.37613 12.8371 9.2717 12.4293 10.9784Z" />
    <path d="M24.6672 5.6587H28.0661V7.33726C29.3167 6.05019 30.8135 5.40538 32.2282 5.6587V9.01838C30.4604 8.79577 29.3192 9.63505 28.2028 11.1166V19.6527H24.6672V5.6587Z" />
    <path d="M36.6316 19.8216C34.1303 19.8216 32.1437 18.3093 32.1437 15.1748C32.1437 12.6007 33.7201 10.8377 37.2557 10.8377H40.3288V10.418C40.3288 9.13097 39.5406 8.59874 37.5814 8.59874C36.276 8.59874 35.2417 8.73947 33.827 9.15911V5.88387C34.916 5.57682 36.276 5.37979 37.8797 5.37979C41.9599 5.37979 43.8619 6.97391 43.8619 10.418V19.6552H40.4084V18.8441L39.6202 19.1793C38.6132 19.5989 37.5814 19.8241 36.6291 19.8241L36.6316 19.8216ZM38.5635 16.5463L40.3313 15.7633V13.6933H37.6386C36.4153 13.6933 35.6793 14.2818 35.6793 15.2055C35.6793 16.2981 36.4128 16.8278 37.3377 16.8278C37.7181 16.8278 38.1532 16.7152 38.561 16.5489L38.5635 16.5463Z" />
    <path d="M56.3758 19.6552V18.7315L56.1868 18.816C54.9362 19.4326 53.6035 19.7397 52.3255 19.7397C48.9267 19.7397 45.9331 17.4726 45.9331 12.6595C45.9331 7.84646 48.9242 5.55123 52.3529 5.55123C53.6035 5.55123 54.9362 5.85829 56.1868 6.47495L56.2962 6.53125V0.341553H59.8318V19.6552H56.3758ZM52.9769 16.38C53.7378 16.38 54.5806 16.183 55.4509 15.7633L56.2938 15.3437V9.97025L55.4509 9.55061C54.5806 9.13097 53.7378 8.93394 52.9769 8.93394C51.0177 8.93394 49.5507 10.1929 49.5507 12.657C49.5507 15.1211 51.0202 16.38 52.9769 16.38Z" />
    <path d="M66.2218 19.8216C63.7205 19.8216 61.7339 18.3093 61.7339 15.1748C61.7339 12.6007 63.3103 10.8377 66.8459 10.8377H69.919V10.418C69.919 9.13097 69.1308 8.59874 67.1716 8.59874C65.8662 8.59874 64.8319 8.73947 63.4172 9.15911V5.88387C64.5062 5.57682 65.8662 5.37979 67.4699 5.37979C71.5501 5.37979 73.4521 6.97391 73.4521 10.418V19.6552H69.9986V18.8441L69.2104 19.1793C68.2034 19.5989 67.1716 19.8241 66.2193 19.8241L66.2218 19.8216ZM68.1537 16.5463L69.9215 15.7633V13.6933H67.2288C66.0055 13.6933 65.2695 14.2818 65.2695 15.2055C65.2695 16.2981 66.003 16.8278 66.9279 16.8278C67.3083 16.8278 67.7435 16.7152 68.1512 16.5489L68.1537 16.5463Z" />
    <path d="M76.0653 2.30158H79.6009V5.66126H83.5443V8.88021H79.6009V14.507C79.6009 15.9629 80.3344 16.4388 81.3687 16.4388H83.5443V19.6578H81.3687C77.7511 19.6578 76.0653 18.0355 76.0653 14.507V2.30158Z" />
    <path d="M89.2555 19.8216C86.7542 19.8216 84.7676 18.3093 84.7676 15.1748C84.7676 12.6007 86.3439 10.8377 89.8795 10.8377H92.9527V10.418C92.9527 9.13097 92.1645 8.59874 90.2053 8.59874C88.8999 8.59874 87.8656 8.73947 86.4509 9.15911V5.88387C87.5399 5.57682 88.8999 5.37979 90.5036 5.37979C94.5837 5.37979 96.4858 6.97391 96.4858 10.418V19.6552H93.0323V18.8441L92.2441 19.1793C91.2371 19.5989 90.2053 19.8241 89.253 19.8241L89.2555 19.8216ZM91.1874 16.5463L92.9552 15.7633V13.6933H90.2624C89.0392 13.6933 88.3032 14.2818 88.3032 15.2055C88.3032 16.2981 89.0367 16.8278 89.9616 16.8278C90.342 16.8278 90.7771 16.7152 91.1849 16.5489L91.1874 16.5463Z" />
    <path d="M98.5296 18.0586C98.5296 16.9941 99.3451 16.1548 100.407 16.1548C101.468 16.1548 102.284 16.9941 102.284 18.0586C102.284 19.123 101.441 19.9904 100.407 19.9904C99.3725 19.9904 98.5296 19.123 98.5296 18.0586Z" />
    </g>
</svg>