<?xml version="1.0" encoding="UTF-8" standalone="no"?>
<svg width="188px" height="200px" viewBox="0 0 188 200" version="1.1" xmlns="http://www.w3.org/2000/svg" xmlns:xlink="http://www.w3.org/1999/xlink">
    <!-- Generator: Sketch 42 (36781) - http://www.bohemiancoding.com/sketch -->
    <title>angular</title>
    <desc>Created with Sketch.</desc>
    <defs></defs>
    <g id="angular" fill-rule="evenodd">
        <g>
            <path d="M94,0 L187.1,33.2 L172.9,156.3 L94,200 L15.1,156.3 L0.9,33.2 L94,0 Z M94,3.81310419 L4.45,35.7471536 L18.1085392,154.153222 L94,196.186896 L169.891461,154.153222 L183.55,35.7471536 L94,3.81310419 Z" id="Combined-Shape"></path>
            <path d="M94,22.1 L35.8,152.6 L35.8,152.6 L57.5,152.6 L57.5,152.6 L69.2,123.4 L118.6,123.4 L130.3,152.6 L130.3,152.6 L152,152.6 L152,152.6 L94,22.1 L94,22.1 L94,22.1 L94,22.1 L94,22.1 Z M111,105.4 L77,105.4 L94,64.5 L111,105.4 Z" id="Shape"></path>
        </g>
    </g>
</svg>