<svg width="331" height="382" viewBox="0 0 331 382" version="1.1" xmlns="http://www.w3.org/2000/svg" xmlns:xlink="http://www.w3.org/1999/xlink">
<title>Covalent</title>
<desc>Copyright 2017 Teradata</desc>
<g id="covalent-stroke" transform="translate(-1139 -298)">
<g id="covalent-stroke-shape">
<use xlink:href="#path0_fill" transform="translate(1139.12 298.164)"/>
</g>
</g>
<defs>
<path id="path0_fill" fill-rule="evenodd" d="M 330.362 95.418L 165.181 0L 0 95.418L 11.3918 286.254L 165.181 381.672L 318.97 286.254L 330.362 95.418ZM 290.681 195.836L 232.681 229.347L 232.681 295.836L 165.181 334.836L 97.6812 295.836L 97.6812 229.347L 39.6812 195.836L 39.6812 117.836L 107.181 78.836L 165.181 112.347L 223.181 78.836L 290.681 117.836L 290.681 195.836ZM 222.181 100.836L 270.681 128.586L 270.681 184.086L 222.181 211.836L 173.681 184.086L 173.681 128.586L 222.181 100.836ZM 213.681 228.586L 165.181 200.836L 116.681 228.586L 116.681 284.086L 165.181 311.836L 213.681 284.086L 213.681 228.586Z"/>
</defs>
</svg>
