<svg width="298" height="60" viewBox="0 0 298 60" version="1.1" xmlns="http://www.w3.org/2000/svg" xmlns:xlink="http://www.w3.org/1999/xlink">
<title>covalent 2</title>
<desc>Created using Figma</desc>
<g id="Canvas" transform="translate(-810 -75)">
<g id="covalent 2">
<g id="covalent logo">
<g id="covalent">
<g id="Covalent">
<use xlink:href="#path0_fill" transform="translate(878 81.5)"/>
</g>
</g>
</g>
<g id="Group">
<g id="Combined Shape">
<use xlink:href="#path1_fill" transform="translate(816.383 82.3343)"/>
</g>
<g id="Combined Shape">
<use xlink:href="#path2_fill" transform="translate(810 75)"/>
</g>
</g>
</g>
</g>
<defs>
<path id="path0_fill" fill-rule="evenodd" d="M 36.8513 33.8255C 36.3842 38.773 34.5581 42.6322 31.373 45.4032C 28.1879 48.1743 23.9518 49.5597 18.6645 49.5597C 14.9698 49.5597 11.7158 48.6839 8.90228 46.9321C 6.08879 45.1803 3.91764 42.6906 2.3888 39.4631C 0.859959 36.2355 0.0637018 32.4878 0 28.2198L 0 23.8881C 0 19.5139 0.775027 15.66 2.3251 12.3262C 3.87518 8.99251 6.0994 6.42324 8.99783 4.61836C 11.8963 2.81347 15.2459 1.91105 19.0467 1.91105C 24.1641 1.91105 28.2834 3.30185 31.4048 6.08349C 34.5262 8.86514 36.3417 12.7934 36.8513 17.8683L 28.8249 17.8683C 28.4427 14.5345 27.4713 12.1298 25.9106 10.6541C 24.3499 9.17831 22.062 8.44044 19.0467 8.44044C 15.5431 8.44044 12.8518 9.71977 10.9726 12.2785C 9.09338 14.8371 8.13256 18.5902 8.09009 23.5377L 8.09009 27.6464C 8.09009 32.6576 8.9872 36.4797 10.7815 39.1127C 12.5757 41.7457 15.2034 43.0622 18.6645 43.0622C 21.8284 43.0622 24.2066 42.3509 25.7991 40.9282C 27.3916 39.5055 28.4002 37.138 28.8249 33.8255L 36.8513 33.8255ZM 38.7587 31.373C 38.7587 27.9968 39.4275 24.9551 40.7653 22.2477C 42.103 19.5404 43.9822 17.4595 46.4029 16.005C 48.8235 14.5505 51.6051 13.8232 54.7478 13.8232C 59.398 13.8232 63.1723 15.3202 66.0707 18.3142C 68.9691 21.3082 70.5351 25.2788 70.7687 30.2263L 70.8005 32.0418C 70.8005 35.4393 70.1476 38.4757 68.8417 41.1511C 67.5358 43.8266 65.6673 45.8969 63.236 47.362C 60.8047 48.8272 57.9966 49.5597 54.8115 49.5597C 49.9489 49.5597 46.0578 47.9407 43.1382 44.7025C 40.2185 41.4643 38.7587 37.1486 38.7587 31.7552L 38.7587 31.373ZM 46.4984 32.0418C 46.4984 35.5879 47.231 38.3642 48.6961 40.3708C 50.1613 42.3774 52.1997 43.3807 54.8115 43.3807C 57.4232 43.3807 59.4563 42.3615 60.9109 40.323C 62.3654 38.2846 63.0927 35.3013 63.0927 31.373C 63.0927 27.8906 62.3442 25.1302 60.8472 23.0918C 59.3502 21.0533 57.3171 20.0341 54.7478 20.0341C 52.2209 20.0341 50.2143 21.0374 48.728 23.044C 47.2416 25.0506 46.4984 28.0499 46.4984 32.0418ZM 85.926 39.1127L 93.2198 14.4602L 101.214 14.4602L 89.2703 48.9227L 82.5498 48.9227L 70.5102 14.4602L 78.5366 14.4602L 85.926 39.1127ZM 123.06 48.9227C 122.721 48.2645 122.423 47.1922 122.168 45.7058C 119.705 48.2751 116.69 49.5597 113.123 49.5597C 109.662 49.5597 106.838 48.5724 104.651 46.5976C 102.463 44.6229 101.37 42.181 101.37 39.272C 101.37 35.5985 102.734 32.7797 105.463 30.8156C 108.191 28.8514 112.093 27.8694 117.168 27.8694L 121.914 27.8694L 121.914 25.608C 121.914 23.8243 121.415 22.3964 120.417 21.3241C 119.419 20.2518 117.9 19.7156 115.862 19.7156C 114.1 19.7156 112.656 20.1562 111.53 21.0374C 110.405 21.9186 109.842 23.0387 109.842 24.3977L 102.102 24.3977C 102.102 22.5078 102.729 20.7401 103.982 19.0945C 105.234 17.4489 106.938 16.1589 109.094 15.2247C 111.249 14.2904 113.654 13.8232 116.308 13.8232C 120.342 13.8232 123.559 14.8371 125.959 16.865C 128.358 18.8928 129.59 21.7434 129.653 25.4169L 129.653 40.96C 129.653 44.0602 130.089 46.5339 130.959 48.3813L 130.959 48.9227L 123.06 48.9227ZM 114.556 43.3489C 116.085 43.3489 117.524 42.9773 118.872 42.2341C 120.22 41.4909 121.234 40.4929 121.914 39.2401L 121.914 32.7426L 117.741 32.7426C 114.875 32.7426 112.719 33.2415 111.275 34.2395C 109.832 35.2375 109.11 36.6496 109.11 38.4757C 109.11 39.9621 109.603 41.1458 110.591 42.027C 111.578 42.9083 112.9 43.3489 114.556 43.3489ZM 142.9 48.9227L 135.16 48.9227L 135.16 0L 142.9 0L 142.9 48.9227ZM 163.408 49.5597C 158.503 49.5597 154.527 48.015 151.48 44.9255C 148.433 41.8359 146.909 37.7219 146.909 32.5833L 146.909 31.6278C 146.909 28.1879 147.573 25.1143 148.9 22.407C 150.227 19.6997 152.09 17.5922 154.49 16.0846C 156.889 14.577 159.565 13.8232 162.516 13.8232C 167.209 13.8232 170.834 15.3202 173.393 18.3142C 175.952 21.3082 177.231 25.5443 177.231 31.0226L 177.231 34.144L 154.713 34.144C 154.946 36.9893 155.896 39.2401 157.563 40.8963C 159.23 42.5526 161.327 43.3807 163.854 43.3807C 167.4 43.3807 170.288 41.9474 172.517 39.0809L 176.69 43.0622C 175.309 45.1219 173.467 46.7197 171.163 47.8557C 168.86 48.9917 166.274 49.5597 163.408 49.5597ZM 162.484 20.0341C 160.361 20.0341 158.646 20.7773 157.34 22.2637C 156.034 23.75 155.201 25.8203 154.84 28.4746L 169.587 28.4746L 169.587 27.9012C 169.417 25.3107 168.727 23.3519 167.517 22.0248C 166.306 20.6977 164.629 20.0341 162.484 20.0341ZM 187.324 14.4602L 187.547 18.4416C 190.095 15.3627 193.439 13.8232 197.58 13.8232C 204.757 13.8232 208.409 17.9319 208.537 26.1495L 208.537 48.9227L 200.797 48.9227L 200.797 26.5954C 200.797 24.4083 200.324 22.7892 199.38 21.7381C 198.435 20.687 196.89 20.1615 194.745 20.1615C 191.624 20.1615 189.299 21.5736 187.77 24.3977L 187.77 48.9227L 180.03 48.9227L 180.03 14.4602L 187.324 14.4602ZM 223.025 6.08349L 223.025 14.4602L 229.109 14.4602L 229.109 20.1934L 223.025 20.1934L 223.025 39.4312C 223.025 40.7477 223.285 41.6979 223.805 42.2819C 224.326 42.8658 225.255 43.1577 226.592 43.1577C 227.484 43.1577 228.387 43.0516 229.3 42.8392L 229.3 48.8272C 227.537 49.3156 225.839 49.5597 224.204 49.5597C 218.258 49.5597 215.285 46.2792 215.285 39.7179L 215.285 20.1934L 209.616 20.1934L 209.616 14.4602L 215.285 14.4602L 215.285 6.08349L 223.025 6.08349Z"/>
<path id="path1_fill" fill-rule="evenodd" d="M 38.2542 11.0794L 19.1271 0L 0 11.0794L 1.31909 33.2383L 19.1271 44.3178L 36.935 33.2383L 38.2542 11.0794ZM 33.6592 22.7394L 26.9431 26.6306L 26.9431 34.3509L 19.127 38.8794L 11.3109 34.3509L 11.3109 26.6306L 4.59479 22.7394L 4.59479 13.6825L 12.4109 9.15402L 19.127 13.0452L 25.8431 9.15402L 33.6592 13.6825L 33.6592 22.7394ZM 25.7273 11.7085L 31.3433 14.9307L 31.3433 21.3751L 25.7273 24.5973L 20.1113 21.3751L 20.1113 14.9307L 25.7273 11.7085ZM 24.743 26.5422L 19.127 23.32L 13.511 26.5422L 13.511 32.9866L 19.127 36.2088L 24.743 32.9866L 24.743 26.5422Z"/>
<path id="path2_fill" fill-rule="evenodd" d="M 25.5 0L 51 14.7632L 49.2587 44.2895L 25.5 59.0526L 1.58307 44.2895L 0 14.7632L 25.5 0ZM 25.5095 4.87682L 46.7578 17.185L 45.3068 41.8013L 25.5095 54.1095L 5.58032 41.8013L 4.26123 17.185L 25.5095 4.87682Z"/>
</defs>
</svg>
