<?xml version="1.0" encoding="UTF-8"?><svg version="1.1" xmlns="http://www.w3.org/2000/svg" x="0" y="0" viewBox="0 0 240 240" enable-background="new 0 0 240 240" xml:space="preserve"><radialGradient id="a" cx="97.71" cy="81.286" r="143.432" gradientUnits="userSpaceOnUse"><stop offset="0" stop-color="#1C0A00" stop-opacity=".85"/><stop offset=".767" stop-color="#1C0A00"/></radialGradient><path fill-rule="evenodd" clip-rule="evenodd" fill="url(#a)" d="M10 10h220v214H10z"/><path fill-rule="evenodd" clip-rule="evenodd" fill="#F37021" d="M0 0v234h240V0H0zm10 10h220v214H10V10z"/><path fill-rule="evenodd" clip-rule="evenodd" fill="#FF7F18" d="M83.252 132.5l-7.92 29.983c-.164.824-.495 1.017-1.484 1.017H59.16c-.988 0-1.152-.33-.988-1.485l28.38-99.448c.495-1.815.825-3.377.99-8.327 0-.66.33-.99.826-.99h20.954c.66 0 .99.165 1.156.99l31.844 107.94c.165.824 0 1.32-.825 1.32h-16.5c-.824 0-1.32-.193-1.484-.853l-8.25-30.147h-32.01zm27.886-16.25c-2.805-11.055-9.406-35.285-11.88-47h-.165c-2.146 11.715-7.426 31.49-11.55 47h23.595zm44.992-55.578c0-6.435 4.455-10.23 10.23-10.23 6.105 0 10.23 4.125 10.23 10.23 0 6.6-4.29 10.23-10.395 10.23-5.94 0-10.065-3.63-10.065-10.23zm1.12 22.733c0-.825.33-1.155 1.155-1.155h15.69c.825 0 1.155.33 1.155 1.155v78.94c0 .825-.165 1.155-1.155 1.155H158.57c-.99 0-1.32-.496-1.32-1.32V83.405z"/></svg>