<?xml version="1.0" encoding="UTF-8" standalone="no"?>
<svg width="198px" height="146px" viewBox="0 0 198 146" version="1.1" xmlns="http://www.w3.org/2000/svg" xmlns:xlink="http://www.w3.org/1999/xlink" xmlns:sketch="http://www.bohemiancoding.com/sketch/ns">
    <!-- Generator: Sketch 3.3.2 (12043) - http://www.bohemiancoding.com/sketch -->
    <title>listener</title>
    <desc>Created with Sketch.</desc>
    <defs></defs>
    <g id="listener">
        <g id="listener" sketch:type="MSLayerGroup" transform="translate(-2.000000, 0.000000)">
            <path d="M90.3234043,47.5323404 C98.7405957,49.9764681 105.981532,50.6430511 110.190128,50.7998936 L110.190128,15.8109574 L90.3234043,34.6320638 L90.3234043,47.5323617 L90.3234043,47.5323404 Z" id="Shape" sketch:type="MSShapeGroup"></path>
            <path d="M90.3234043,98.6238298 L90.3234043,113.053319 L110.190128,131.874426 L110.190128,95.421617 C105.968451,95.5653894 98.7275745,96.2188979 90.3234043,98.623817 L90.3234043,98.6238298 Z" id="Shape" sketch:type="MSShapeGroup"></path>
            <path d="M188.821277,65.0595745 L135.547234,65.0595745 L135.547234,81.1359149 L188.821277,81.1359149 L188.821277,89.788383 L199.15983,73.2153617 L188.821277,56.067234 L188.821277,65.0595319 L188.821277,65.0595745 Z" id="Shape" sketch:type="MSShapeGroup"></path>
            <path d="M132.774468,14.2425532 L132.774468,130.044681 L113.064596,131.874511 L113.064596,12.1515319 L132.774468,14.242766 L132.774468,14.2425532 Z" id="Shape" sketch:type="MSShapeGroup"></path>
            <path d="M175.489362,83.4365957 L175.489362,87.1616043 L135.546809,87.1616043 L135.546809,100.885306 L175.489362,100.885306 L175.489362,110.583391 L185.827915,94.0103702 L179.44966,83.436583 L175.489387,83.436583 L175.489362,83.4365957 Z" id="Shape" sketch:type="MSShapeGroup"></path>
            <path d="M175.489362,62.746383 L175.489362,59.0213745 L135.546809,59.0213745 L135.546809,45.2976723 L175.489362,45.2976723 L175.489362,35.5995872 L185.827915,52.1726085 L179.44966,62.7463957 L175.489387,62.7463957 L175.489362,62.746383 Z" id="Shape" sketch:type="MSShapeGroup"></path>
            <path d="M2.65106383,86.3378723 C3.76202979,96.7286809 6.11466809,105.472638 9.10774468,112.791957 C14.4011915,106.413702 27.2361277,93.6310213 48.2399574,88.6120851 C77.9746809,81.5018723 104.154426,82.1292766 110.192723,82.4037447 L110.192723,76.5613617 C103.827532,76.4175894 75.2822128,75.9470638 48.7629362,78.9532085 C27.3016596,81.3711957 10.5064255,84.6518043 2.65144681,86.3378894 L2.65106383,86.3378723 Z" id="Shape" sketch:type="MSShapeGroup"></path>
            <path d="M110.191489,87.24 C103.342681,87.6190362 71.2030638,89.9586043 51.8982979,100.519319 C36.3578298,109.028043 24.6861277,123.248426 19.3011915,130.646128 C27.7837447,141.612043 36.2140426,145.729149 36.2140426,145.729149 C36.2140426,145.729149 43.2719574,124.816809 64.4457021,108.609745 C85.6194468,92.4026809 110.191234,93.1868936 110.191234,93.1868936 L110.191234,87.2399574 L110.191489,87.24 Z" id="Shape" sketch:type="MSShapeGroup"></path>
            <path d="M48.2382979,57.5965957 C27.2083404,52.5645532 14.3603404,39.7557447 9.07995745,33.3905532 C6.07380851,40.775234 3.69502128,49.6237447 2.61021277,60.1583404 C10.4523404,61.8443957 27.2606383,65.1380851 48.7612766,67.5691489 C75.2807234,70.5622255 103.825957,70.1047702 110.191064,69.9609957 L110.191064,63.8049106 C104.152638,64.0663149 77.9730213,64.7067532 48.2382979,57.5965702 L48.2382979,57.5965957 Z" id="Shape" sketch:type="MSShapeGroup"></path>
            <path d="M19.2638298,15.5106383 C24.6357021,22.8953191 36.3335319,37.1679574 51.9001277,45.6766809 C71.2048085,56.2504681 103.344383,58.5769787 110.193319,58.956 L110.193319,52.9306383 C110.193319,52.9306383 85.6213191,53.7148511 64.4477872,37.5077872 C43.2740426,21.3007234 36.2161277,0.388382979 36.2161277,0.388382979 C36.2161277,0.388382979 27.772766,4.51856596 19.2640851,15.5105957 L19.2638298,15.5106383 Z" id="Shape" sketch:type="MSShapeGroup"></path>
        </g>
    </g>
</svg>
