<?xml version="1.0" encoding="UTF-8"?>
<svg width="512px" height="512px" viewBox="0 0 512 512" version="1.1" xmlns="http://www.w3.org/2000/svg" xmlns:xlink="http://www.w3.org/1999/xlink">
    <title>t-drive</title>
    <desc>Copyright Teradata, Inc.</desc>
    <defs></defs>
    <g id="t-drive" fill-rule="evenodd">
        <g>
            <path d="M356.767417,296.365091 C342.289851,337.671572 302.957694,367.292893 256.707107,367.292893 C198.164923,367.292893 150.707107,319.835077 150.707107,261.292893 C150.707107,202.75071 198.164923,155.292893 256.707107,155.292893 C303.097237,155.292893 342.527127,185.093226 356.897779,226.594893 L302.821263,261.032253 L356.767417,296.365091 Z M493.054437,261.466558 L256.880772,497.640223 L20.7071068,261.466558 L256.880772,25.2928932 L493.054437,261.466558 Z M469.707107,261.466558 L409.120274,322.053391 L409.120274,200.879726 L469.707107,261.466558 Z M43.5334419,261.879726 L104.120274,322.466558 L104.120274,201.292893 L43.5334419,261.879726 Z M256.533442,475.292893 L195.946609,414.706061 L317.120274,414.706061 L256.533442,475.292893 Z M256.120274,49.1192283 L195.533442,109.706061 L316.707107,109.706061 L256.120274,49.1192283 Z M322.414138,261.292893 L387.120274,303.673142 L387.120274,220.086309 L322.414138,261.292893 Z M127.806566,324.01829 L192.86039,389.072114 L182.960895,398.971609 L117.907071,333.917785 L127.806566,324.01829 Z M223.707107,261.292893 C223.707107,279.51829 238.48171,294.292893 256.707107,294.292893 C274.932504,294.292893 289.707107,279.51829 289.707107,261.292893 C289.707107,243.067496 274.932504,228.292893 256.707107,228.292893 C238.48171,228.292893 223.707107,243.067496 223.707107,261.292893 Z M70.7071068,261.292893 C70.7071068,266.815741 75.1842593,271.292893 80.7071068,271.292893 C86.2299543,271.292893 90.7071068,266.815741 90.7071068,261.292893 C90.7071068,255.770046 86.2299543,251.292893 80.7071068,251.292893 C75.1842593,251.292893 70.7071068,255.770046 70.7071068,261.292893 Z M246.707107,81.2928932 C246.707107,86.8157407 251.184259,91.2928932 256.707107,91.2928932 C262.229954,91.2928932 266.707107,86.8157407 266.707107,81.2928932 C266.707107,75.7700457 262.229954,71.2928932 256.707107,71.2928932 C251.184259,71.2928932 246.707107,75.7700457 246.707107,81.2928932 Z M428.707107,262.292893 C428.707107,267.815741 433.184259,272.292893 438.707107,272.292893 C444.229954,272.292893 448.707107,267.815741 448.707107,262.292893 C448.707107,256.770046 444.229954,252.292893 438.707107,252.292893 C433.184259,252.292893 428.707107,256.770046 428.707107,262.292893 Z M246.707107,441.292893 C246.707107,446.815741 251.184259,451.292893 256.707107,451.292893 C262.229954,451.292893 266.707107,446.815741 266.707107,441.292893 C266.707107,435.770046 262.229954,431.292893 256.707107,431.292893 C251.184259,431.292893 246.707107,435.770046 246.707107,441.292893 Z"></path>
        </g>
    </g>
</svg>