<?xml version="1.0" encoding="UTF-8" standalone="no"?>
<svg width="512px" height="512px" viewBox="0 0 512 512" version="1.1" xmlns="http://www.w3.org/2000/svg" xmlns:xlink="http://www.w3.org/1999/xlink">
    <title>Teradata Database</title>
    <desc>Copyright Teradata, Inc.</desc>
    <defs></defs>
    <g id="teradata-database" fill-rule="evenodd">
        <g>
            <path d="M19.8263351,256 L256,19.8263351 L492.173665,256 L256,492.173665 L19.8263351,256 Z M148,175.180783 L255.396567,70 L362.793134,175.180783 L255.396567,280.361567 L148,175.180783 Z M148,194.306268 L255.211447,301.360919 L363.565771,193.165062 L363.565771,228.543183 L256.002305,335.949338 L148.558801,228.662969 L148,194.306268 Z M148,249.894039 L255.211447,356.948691 L363.565771,248.752834 L363.565771,284.130954 L256.002305,391.53711 L148.558801,284.250741 L148,249.894039 Z M148,301.121985 L255.211447,408.176637 L363.565771,299.98078 L363.565771,335.358901 L256.002305,442.765056 L148.558801,335.478687 L148,301.121985 Z M89,226.140253 L128.964799,187 L128.964799,265.280507 L89,226.140253 Z M89,235.257298 L128.895911,275.094862 L129.190208,285.966029 L89.2079432,246.042238 L89,235.257298 Z M89,254.94282 L128.895911,294.780384 L129.190208,305.651552 L89.2079432,265.72776 L89,254.94282 Z M89,274.005949 L128.895911,313.843513 L129.190208,325.714681 L89.2079432,285.790889 L89,274.005949 Z M422.565771,226.140253 L382.600973,187 L382.600973,265.280507 L422.565771,226.140253 Z M422.565771,235.257298 L382.66986,275.094862 L382.375563,285.966029 L422.357828,246.042238 L422.565771,235.257298 Z M422.565771,254.94282 L382.66986,294.780384 L382.375563,305.651552 L422.357828,265.72776 L422.565771,254.94282 Z M422.565771,274.005949 L382.66986,313.843513 L382.375563,325.714681 L422.357828,285.790889 L422.565771,274.005949 Z"></path>
        </g>
    </g>
</svg>