<svg xmlns="http://www.w3.org/2000/svg" width="306" height="69" viewBox="0 0 306 69">
  <g>
    <path d="M263.145205 14.9342466L225.242466 14.9342466 223.730137 20.0383562 239.326027 20.0383562 239.326027 56.0506849C239.326027 59.0753425 241.121918 60.6821918 244.619178 60.6821918L247.643836 60.6821918 247.643836 20.0383562 261.632877 20.0383562 263.145205 14.9342466zM190.269863 34.1219178C190.269863 21.2671233 183.747945 14.9342466 170.515068 14.9342466L155.013699 14.9342466 155.013699 56.0506849C155.013699 59.0753425 156.715068 60.6821918 160.212329 60.6821918L170.515068 60.6821918 172.216438 60.6821918C184.50411 60.209589 190.269863 54.8219178 190.269863 41.9671233L190.269863 34.1219178zM181.952055 41.7780822C181.952055 51.0410959 178.927397 55.5780822 170.70411 55.5780822L163.331507 55.5780822 163.331507 20.0383562 170.515068 20.0383562C178.927397 20.0383562 181.952055 24.9534247 181.952055 34.2164384L181.952055 41.7780822zM130.721918 14.3671233C128.736986 14.3671233 127.035616 15.0287671 126.563014 16.0684932L110.4 58.9808219 98.490411 40.6438356C104.728767 39.6041096 108.509589 36.2013699 108.509589 30.530137L108.509589 26.560274C108.509589 18.3369863 100.853425 14.9342466 90.739726 14.9342466L76.5616438 14.9342466 76.5616438 55.5780822 58.3191781 55.5780822C51.1356164 55.5780822 49.4342466 53.9712329 49.4342466 46.5041096L49.4342466 38.469863 63.0452055 38.469863 64.5575342 33.3657534 49.4342466 33.3657534 49.4342466 20.0383562 69.3780822 20.0383562 70.890411 14.9342466 41.1164384 14.9342466 41.1164384 46.5041096C41.1164384 57.090411 43.5739726 60.5876712 58.0356164 60.5876712L84.8794521 60.4931507 84.8794521 20.0383562 90.739726 20.0383562C97.1671233 20.0383562 100.380822 22.3068493 100.380822 26.6547945L100.380822 30.530137C100.380822 34.9726027 96.3164384 36.390411 91.4013699 36.390411L87.7150685 36.390411 100.286301 57.8465753C101.70411 60.3041096 102.365753 60.5876712 105.673973 60.5876712L112.952055 60.5876712C116.354795 60.5876712 117.772603 60.3041096 118.812329 57.5630137L122.593151 47.0712329 132.706849 47.0712329 131.194521 42.0616438 124.2 42.0616438 130.438356 24.4808219 141.686301 57.5630137C142.631507 60.3041096 144.238356 60.5876712 147.924658 60.5876712L151.8 60.5876712 134.786301 15.9739726C134.50274 15.0287671 132.612329 14.3671233 130.721918 14.3671233L130.721918 14.3671233zM278.741096 15.9739726C278.363014 14.9342466 276.472603 14.2726027 274.582192 14.2726027 272.59726 14.2726027 270.89589 14.9342466 270.423288 15.9739726L253.693151 60.5876712 256.812329 60.5876712C260.215068 60.5876712 261.727397 60.3041096 262.672603 57.5630137L266.453425 47.0712329 276.567123 47.0712329 275.054795 42.0616438 268.060274 42.0616438 274.29863 24.4808219 285.546575 57.5630137C286.491781 60.3041096 288.09863 60.5876712 291.784932 60.5876712L295.660274 60.5876712 278.741096 15.9739726zM211.064384 14.3671233C209.079452 14.3671233 207.378082 15.0287671 206.905479 16.0684932L190.175342 60.6821918 193.294521 60.6821918C196.69726 60.6821918 198.209589 60.3986301 199.154795 57.6575342L202.935616 47.1657534 213.049315 47.1657534 211.536986 42.1561644 204.542466 42.1561644 210.780822 24.5753425 222.028767 57.6575342C222.973973 60.3986301 224.580822 60.6821918 228.267123 60.6821918L232.236986 60.6821918 215.223288 16.0684932C214.845205 15.0287671 212.954795 14.3671233 211.064384 14.3671233L211.064384 14.3671233zM52.1753425 0L1.79589041 0 0 5.76575342 23.1575342 5.76575342 23.1575342 63.5178082C23.1575342 66.5424658 24.9534247 68.1493151 28.4506849 68.1493151L31.4753425 68.1493151 31.4753425 5.76575342 50.2849315 5.76575342 52.1753425 0zM304.356164 59.5479452C303.6 60.3041096 302.654795 60.6821918 301.615068 60.6821918 300.575342 60.6821918 299.630137 60.3041096 298.873973 59.5479452 298.117808 58.7917808 297.739726 57.8465753 297.739726 56.8068493 297.739726 55.7671233 298.117808 54.8219178 298.873973 54.0657534 299.630137 53.309589 300.575342 52.9315068 301.615068 52.9315068 302.654795 52.9315068 303.6 53.309589 304.356164 54.0657534 305.112329 54.8219178 305.490411 55.7671233 305.490411 56.8068493 305.584932 57.8465753 305.206849 58.6972603 304.356164 59.5479452L304.356164 59.5479452zM299.252055 54.3493151C298.590411 55.0109589 298.306849 55.7671233 298.306849 56.7123288 298.306849 57.6575342 298.590411 58.4136986 299.252055 59.0753425 299.913699 59.7369863 300.669863 60.0205479 301.615068 60.0205479 302.560274 60.0205479 303.316438 59.6424658 303.978082 59.0753425 304.639726 58.4136986 304.923288 57.6575342 304.923288 56.7123288 304.923288 55.7671233 304.639726 55.0109589 303.978082 54.3493151 303.316438 53.6876712 302.560274 53.4041096 301.615068 53.4041096 300.764384 53.4041096 299.913699 53.6876712 299.252055 54.3493151L299.252055 54.3493151zM301.520548 54.5383562C302.087671 54.5383562 302.465753 54.6328767 302.654795 54.7273973 303.127397 54.9164384 303.316438 55.2945205 303.316438 55.7671233 303.316438 56.1452055 303.221918 56.4287671 302.938356 56.6178082 302.749315 56.7123288 302.560274 56.8068493 302.276712 56.8068493 302.654795 56.9013699 302.843836 56.9958904 303.032877 57.1849315 303.221918 57.3739726 303.221918 57.6575342 303.221918 57.8465753L303.221918 58.130137 303.221918 58.4136986 303.221918 58.6027397 303.221918 58.6972603 302.465753 58.6972603 302.465753 58.6972603C302.465753 58.6972603 302.465753 58.6972603 302.465753 58.6027397L302.465753 58.5082192 302.465753 58.130137C302.465753 57.6575342 302.371233 57.2794521 302.087671 57.1849315 301.89863 57.090411 301.615068 57.090411 301.236986 57.090411L300.669863 57.090411 300.669863 58.7917808 299.913699 58.7917808 299.913699 54.5383562 301.520548 54.5383562 301.520548 54.5383562zM302.371233 55.2945205C302.182192 55.2 301.89863 55.1054795 301.426027 55.1054795L300.764384 55.1054795 300.764384 56.6178082 301.426027 56.6178082C301.709589 56.6178082 301.993151 56.6178082 302.182192 56.5232877 302.465753 56.4287671 302.654795 56.1452055 302.654795 55.8616438 302.654795 55.5780822 302.560274 55.3890411 302.371233 55.2945205L302.371233 55.2945205z"/>
  </g>
</svg>
