<?xml version="1.0" encoding="UTF-8" standalone="no"?>
<svg width="184px" height="184px" viewBox="0 0 184 184" version="1.1" xmlns="http://www.w3.org/2000/svg" xmlns:xlink="http://www.w3.org/1999/xlink">
    <title>unity</title>
    <desc>Copyright Teradata, Inc.</desc>
    <defs></defs>
    <g id="Page-1" stroke="none" stroke-width="1" fill-rule="evenodd">
        <g id="product-icons" transform="translate(-1271.000000, -101.000000)">
            <g id="unity" transform="translate(1271.000000, 101.000000)">
                <path d="M142.982964,132.869957 L144.147638,134.034631 L155.928692,145.815686 L112.03877,147.250994 L113.950011,103.837005 L125.634553,115.521546 L126.530559,116.417552 L150.690534,92.2575771 L92.2422219,33.8092646 L80.2455912,45.8058953 L81.9843309,28.1799736 L62.2882907,29.6355909 L91.9238816,2.84217094e-14 L183.888401,91.9645199 L142.982964,132.869957 Z M39.6630301,52.2608514 L38.6685232,51.2663446 L26.6074984,39.2053198 L71.4203126,38.018134 L69.9387581,82.5365795 L57.7781112,70.3759325 L56.7268326,69.3246539 L33.8197372,92.2317493 L92.2680497,150.680062 L102.948707,139.999404 L101.208709,158.955595 L118.27151,157.581412 L91.9645199,183.888401 L7.81597009e-14,91.9238816 L39.6630301,52.2608514 Z"></path>
                <path d="M102.749022,121.646162 L91.6252878,132.769896 L51.6252878,92.7698961 L60.2105441,84.1846398 L63.8788579,87.8529536 L69.0573846,93.0314804 L68.8989418,93.1899233 L91.6622322,115.399618 L103.547239,103.514612 L102.749022,121.646162 Z M123.046016,101.349168 L121.89569,100.198842 L114.379349,92.6825013 L114.425523,92.636328 L110.628314,88.9314665 L104.46076,82.7639117 L104.454428,82.9077272 L91.6622322,70.4266328 L82.7118362,79.3770288 L83.5266471,60.8685369 L91.7958004,52.5993836 L131.7958,92.5993836 L123.046016,101.349168 Z" id="Combined-Shape"></path>
            </g>
        </g>
    </g>
</svg>