<svg xmlns="http://www.w3.org/2000/svg" width="24" height="24">
  <path d="M4 13c-.55 0-1-.45-1-1s.45-1 1-1 1 .45 1 1-.45 1-1 1zm14.5-1c0-.28.22-.5.5-.5s.5.22.5.5-.22.5-.5.5-.5-.22-.5-.5zM12 18.5c.28 0 .5.22.5.5s-.22.5-.5.5-.5-.22-.5-.5.22-.5.5-.5zm4-5.5c-.55 0-1-.45-1-1s.45-1 1-1 1 .45 1 1-.45 1-1 1zm0-4c-.55 0-1-.45-1-1s.45-1 1-1 1 .45 1 1-.45 1-1 1zm-.5 7c0-.275.225-.5.5-.5s.5.225.5.5-.225.5-.5.5a.501.501 0 0 1-.5-.5zM12 6.5c.83 0 1.5.67 1.5 1.5s-.67 1.5-1.5 1.5-1.5-.67-1.5-1.5.67-1.5 1.5-1.5zM12 5c-.55 0-1-.45-1-1s.45-1 1-1 1 .45 1 1-.45 1-1 1zm-4 5.5c.83 0 1.5.67 1.5 1.5s-.67 1.5-1.5 1.5-1.5-.67-1.5-1.5.67-1.5 1.5-1.5zM8 15c.55 0 1 .45 1 1s-.45 1-1 1-1-.45-1-1 .45-1 1-1zm4 0c.55 0 1 .45 1 1s-.45 1-1 1-1-.45-1-1 .45-1 1-1zm0-4.5c.83 0 1.5.67 1.5 1.5s-.67 1.5-1.5 1.5-1.5-.67-1.5-1.5.67-1.5 1.5-1.5zm-4-4c.83 0 1.5.67 1.5 1.5S8.83 9.5 8 9.5 6.5 8.83 6.5 8 7.17 6.5 8 6.5zM5 5v4H3V5c0-1.1.9-2 2-2h4v2H5zm14 4V5h-4V3h4c1.1 0 2 .9 2 2v4h-2zM5 15v4h4v2H5c-1.1 0-2-.9-2-2v-4h2zm15.253 2.747L23 19l-2.747 1.253L19 23l-1.253-2.747L15 19l2.747-1.253L19 15l1.253 2.747z"/>
</svg>
