<?xml version="1.0" encoding="UTF-8" standalone="no"?>
<svg width="696px" height="133px" viewBox="0 0 696 133" version="1.1" xmlns="http://www.w3.org/2000/svg" xmlns:xlink="http://www.w3.org/1999/xlink">
    <title>Teradata</title>
    <desc>Copyright Teradata</desc>
    <defs></defs>
    <g id="teradata-2-color" stroke="none" stroke-width="1" fill="none" fill-rule="evenodd">
        <g id="text" fill="#354145">
            <path d="M78.882,72.796 L123.941,72.796 C120.763,60.83 111.788,55.595 101.878,55.595 C92.53,55.595 81.873,61.204 78.882,72.796 Z M149.182,90.184 L78.134,90.184 C80.564,103.646 90.099,111.873 101.504,111.873 C108.796,111.873 117.957,110.937 124.689,99.533 L146.751,104.206 C138.524,123.652 121.884,133 101.504,133 C75.142,133 53.64,112.994 53.64,83.64 C53.64,54.286 75.142,34.093 101.878,34.093 C126.745,34.093 148.246,53.351 149.182,81.771 L149.182,90.184 Z" id="Fill-1"></path>
            <path d="M387.843,83.64 C387.843,66.439 374.568,55.595 361.294,55.595 C346.336,55.595 335.118,66.439 335.118,83.64 C335.118,100.841 346.336,111.498 361.294,111.498 C374.568,111.498 387.843,100.841 387.843,83.64 Z M412.523,130.195 L387.843,130.195 L387.843,122.156 C380.364,129.074 370.081,133 356.993,133 C333.248,133 311.186,112.994 311.186,83.64 C311.186,54.286 333.248,34.093 356.993,34.093 C370.081,34.093 380.364,38.019 387.843,44.937 L387.843,0.937 L412.523,0.937 L412.523,130.195 Z" id="Fill-3"></path>
            <path d="M630.3,92.427 C630.3,104.393 618.894,113.368 605.807,113.368 C596.271,113.368 589.915,108.88 589.915,101.962 C589.915,95.606 595.149,91.306 603.003,91.306 L630.3,91.306 L630.3,92.427 Z M614.407,37.117 L614.407,37.093 L580.299,37.093 L580.299,57.658 L614.407,57.658 C623.943,57.658 630.3,61.765 630.3,71.113 L630.3,72.61 L603.377,72.61 C579.818,72.61 566.356,84.576 566.356,102.524 C566.356,120.846 580.566,133 601.881,133 C614.595,133 623.943,128.7 630.3,122.53 L630.3,130.195 L653.858,130.195 L653.858,69.244 C653.858,47.082 638.243,37.617 614.407,37.117 Z" id="Fill-4"></path>
            <path d="M484.378,92.427 C484.378,104.393 472.973,113.368 459.885,113.368 C450.349,113.368 443.992,108.88 443.992,101.962 C443.992,95.606 449.227,91.306 457.08,91.306 L484.378,91.306 L484.378,92.427 Z M468.485,37.117 L468.485,37.093 L434.377,37.093 L434.377,57.658 L468.485,57.658 C478.02,57.658 484.378,61.765 484.378,71.113 L484.378,72.61 L457.454,72.61 C433.895,72.61 420.434,84.576 420.434,102.524 C420.434,120.846 434.644,133 455.958,133 C468.672,133 478.02,128.7 484.378,122.53 L484.378,130.195 L507.935,130.195 L507.935,69.244 C507.935,47.082 492.321,37.617 468.485,37.117 Z" id="Fill-5"></path>
            <path d="M279.3,92.427 C279.3,104.393 267.894,113.368 254.807,113.368 C245.271,113.368 238.914,108.88 238.914,101.962 C238.914,95.606 244.15,91.306 252.003,91.306 L279.3,91.306 L279.3,92.427 Z M263.408,37.117 L263.408,37.093 L229.299,37.093 L229.299,57.658 L263.408,57.658 C272.943,57.658 279.3,61.765 279.3,71.113 L279.3,72.61 L252.376,72.61 C228.818,72.61 215.356,84.576 215.356,102.524 C215.356,120.846 229.566,133 250.881,133 C263.595,133 272.943,128.7 279.3,122.53 L279.3,130.195 L302.858,130.195 L302.858,69.244 C302.858,47.082 287.244,37.617 263.408,37.117 Z" id="Fill-6"></path>
            <path d="M216.11,37.026 C200.966,37.026 190.121,43.069 182.643,53.913 L182.643,36.899 L157.963,36.899 L157.963,130.197 L182.643,130.197 L182.643,100.095 C182.643,74.106 193.113,57.776 215.923,57.776 L217.044,57.776 L217.044,37.029 C216.741,37.027 216.431,37.026 216.11,37.026" id="Fill-7"></path>
            <path d="M48.982,107.707 C45.229,109.115 41.291,110.002 38.328,110.002 C30.102,110.002 24.68,105.142 24.68,93.923 L24.68,57.09 L49.982,57.09 L49.982,36.898 L24.68,36.898 L24.68,14.007 L0,14.007 L0,95.793 C0,121.408 14.584,133 36.646,133 C44.438,133 51.879,131.338 61.481,126.199 C56.364,121.123 51.667,114.8 48.982,107.707" id="Fill-8"></path>
            <path d="M558.509,109.788 C557.521,109.926 556.586,110.002 555.733,110.002 C547.507,110.002 542.085,105.142 542.085,93.923 L542.085,57.09 L568.068,57.09 L568.068,36.898 L542.085,36.898 L542.085,14.007 L517.404,14.007 L517.404,95.793 C517.404,121.408 531.988,133 554.051,133 C559.44,133 564.302,132.206 569.964,130.017 C562.645,124.774 559.799,116.281 558.509,109.788" id="Fill-9"></path>
        </g>
        <path d="M695.029,116.028 C695.029,124.853 688.257,131.624 678.817,131.624 C669.377,131.624 662.605,124.853 662.605,116.028 C662.605,107.615 669.377,100.227 678.817,100.227 C688.257,100.227 695.029,107.615 695.029,116.028" id="Fill-11" fill="#E46C42"></path>
    </g>
</svg>