<?xml version="1.0" encoding="UTF-8" standalone="no"?>
<svg width="454px" height="432px" viewBox="0 0 454 432" version="1.1" xmlns="http://www.w3.org/2000/svg" xmlns:xlink="http://www.w3.org/1999/xlink" xmlns:sketch="http://www.bohemiancoding.com/sketch/ns">
    <!-- Generator: Sketch 3.4.2 (15855) - http://www.bohemiancoding.com/sketch -->
    <title>appcenter</title>
    <desc>Created with Sketch.</desc>
    <defs></defs>
    <g id="appcenter">
        <g id="iPad-Portrait" sketch:type="MSArtboardGroup" transform="translate(-29.000000, -40.000000)">
            <g id="appcenter" sketch:type="MSLayerGroup" transform="translate(29.000000, 40.000000)">
                <path d="M0.546074656,166.825391 L218.43635,307.846844 L218.43635,361.348202 L0.546074656,221.326749 L0.546074656,166.825391 Z" id="Rectangle-1-Copy" sketch:type="MSShapeGroup"></path>
                <path d="M0.546074656,236.825391 L218.43635,377.846844 L218.43635,431.348202 L0.546074656,291.326749 L0.546074656,236.825391 Z" id="Rectangle-1-Copy-6" sketch:type="MSShapeGroup"></path>
                <path d="M235.56365,166.825391 L453.453925,307.846844 L453.453925,361.348202 L235.56365,221.326749 L235.56365,166.825391 Z" id="Rectangle-1-Copy-8" sketch:type="MSShapeGroup" transform="translate(344.508788, 264.086797) scale(-1, 1) translate(-344.508788, -264.086797) "></path>
                <path d="M235.56365,236.825391 L453.453925,377.846844 L453.453925,431.348202 L235.56365,291.326749 L235.56365,236.825391 Z" id="Rectangle-1-Copy-7" sketch:type="MSShapeGroup" transform="translate(344.508788, 334.086797) scale(-1, 1) translate(-344.508788, -334.086797) "></path>
                <path d="M352.100981,210.800069 L453.453925,145.825391 L350.689952,79.9461383 L294.622647,115.73711 C302.455369,124.575152 307,135.097827 307,146.391929 C307,156.884764 303.077338,166.711749 296.239641,175.140576 L352.100981,210.800069 Z M125.166311,65.9346692 L227,0.651797518 L330.640173,67.092758 L276.691152,101.531509 C263.505611,94.1167908 246.96182,89.7043912 229,89.7043912 C210.946626,89.7043912 194.325773,94.1618869 181.107484,101.645124 L125.166311,65.9346692 Z M332.051203,223.65345 L227,290.998984 L123.755281,224.811538 L178.714274,189.728065 C192.292426,198.058442 209.839401,203.079467 229,203.079467 C248.069591,203.079467 265.54085,198.106026 279.091978,189.846543 L332.051203,223.65345 Z M105.116532,78.7880494 L0.546074656,145.825391 L103.705503,211.958158 L161.631255,174.980832 C154.873309,166.587691 151,156.818547 151,146.391929 C151,135.163718 155.491758,124.697959 163.240597,115.89197 L105.116532,78.7880494 Z M289,146.391929 C289,122.199644 262.137085,102.587923 229,102.587923 C195.862915,102.587923 169,122.199644 169,146.391929 C169,170.584214 195.862915,190.195936 229,190.195936 C262.137085,190.195936 289,170.584214 289,146.391929 Z" id="Rectangle-3" sketch:type="MSShapeGroup"></path>
            </g>
        </g>
    </g>
</svg>
