<?xml version="1.0" encoding="UTF-8" standalone="no"?>
<svg width="512px" height="512px" viewBox="0 0 512 512" version="1.1" xmlns="http://www.w3.org/2000/svg" xmlns:xlink="http://www.w3.org/1999/xlink">
    <!-- Generator: Sketch 3.8.3 (29802) - http://www.bohemiancoding.com/sketch -->
    <title>covalent</title>
    <desc>Created with Sketch.</desc>
    <defs></defs>
    <g id="Page-1" stroke="none" stroke-width="1" fill="none" fill-rule="evenodd">
        <g id="covalent">
            <polygon id="Polygon-1" fill="#FB8C00" points="256.080725 1.7143935 476.29852 128.857197 461.260124 383.142803 256.080725 510.285606 49.5341992 383.142803 35.8629301 128.857197"></polygon>
            <path d="M256,510.235915 L256.080725,510.285606 L461.260124,383.142803 L476.29852,128.857197 L256.080725,1.7143935 L255.58604,2 L256,2 L256,510.235915 Z" id="Combined-Shape" fill="#EF6C00"></path>
            <path d="M256.080725,56 L429.285806,156 L417.457849,356 L256.080725,456 L93.6283325,356 L82.8756443,156 L256.080725,56 Z M256.080725,75.9660451 L411.994704,165.983023 L401.242015,346.016977 L256.080725,436.033955 L110.919435,346.016977 L100.166747,165.983023 L256.080725,75.9660451 Z" id="Combined-Shape" fill="#FFFFFF"></path>
            <path d="M368.953995,258.4825 C365.791495,256.8127 362.097695,256.745233 358.842428,257.9006 L349.110361,252.7647 L349.110361,212.0064 L358.690628,206.238 C359.871295,206.600633 361.094128,206.836767 362.359128,206.836767 C364.652995,206.836767 366.913128,206.2127 368.878095,205.0236 C371.770728,203.2779 373.811595,200.511767 374.629628,197.239633 C375.439228,193.959067 374.933228,190.560433 373.187528,187.6678 C369.729861,181.9247 361.583261,179.883833 355.823295,183.358367 C352.635495,185.281167 350.645228,188.4015 349.987428,191.800133 L340.677028,197.4083 L306.943695,177.176733 L306.943695,166.011 C309.515861,163.691833 311.160361,160.377533 311.160361,156.65 C311.160361,149.675633 305.484728,144 298.510361,144 C291.535995,144 285.860361,149.675633 285.860361,156.65 C285.860361,160.377533 287.504861,163.691833 290.077028,166.011 L290.077028,177.176733 L256.343695,197.416733 L222.610361,177.176733 L222.610361,166.011 C225.182528,163.691833 226.827028,160.377533 226.827028,156.65 C226.827028,149.675633 221.151395,144 214.177028,144 C207.202661,144 201.527028,149.675633 201.527028,156.65 C201.527028,160.377533 203.171528,163.691833 205.743695,166.011 L205.743695,177.176733 L172.018795,197.4083 L162.708395,191.800133 C162.050595,188.4015 160.060328,185.272733 156.872528,183.358367 C151.112561,179.8754 142.974395,181.9247 139.508295,187.659367 C137.754161,190.552 137.248161,193.959067 138.057761,197.239633 C138.875795,200.511767 140.916661,203.2779 143.809295,205.0236 C145.782695,206.2127 148.034395,206.836767 150.328261,206.836767 C151.593261,206.836767 152.816095,206.600633 153.996761,206.238 L163.577028,212.014833 L163.577028,252.7647 L153.853395,257.909033 C150.598128,256.753667 146.904328,256.8127 143.733395,258.490933 C137.568628,261.754633 135.207295,269.420533 138.462561,275.5853 C140.663661,279.742933 144.947795,282.323533 149.653595,282.323533 C151.702895,282.323533 153.735328,281.817533 155.556928,280.856133 C158.845928,279.118867 161.013295,276.108167 161.856628,272.760133 L171.748928,267.531467 L205.743695,287.923267 L205.743695,328.6647 L196.020061,333.809033 C192.756361,332.653667 189.062561,332.721133 185.900061,334.390933 C179.735295,337.654633 177.373961,345.320533 180.629228,351.4853 C182.830328,355.642933 187.114461,358.223533 191.820261,358.223533 C193.869561,358.223533 195.901995,357.717533 197.723595,356.756133 C201.012595,355.018867 203.179961,352.008167 204.023295,348.660133 L213.915595,343.431467 L247.910361,363.823267 L247.910361,374.989 C245.338195,377.308167 243.693695,380.622467 243.693695,384.35 C243.693695,391.324367 249.369328,397 256.343695,397 C263.318061,397 268.993695,391.324367 268.993695,384.35 C268.993695,380.622467 267.349195,377.308167 264.777028,374.989 L264.777028,363.823267 L298.771795,343.431467 L308.664095,348.660133 C309.515861,352.0166 311.674795,355.018867 314.963795,356.764567 C316.776961,357.717533 318.817828,358.223533 320.867128,358.223533 C325.572928,358.223533 329.857061,355.642933 332.058161,351.4853 C335.321861,345.320533 332.952095,337.6462 326.787328,334.390933 C323.624828,332.7127 319.931028,332.653667 316.675761,333.809033 L306.943695,328.6647 L306.943695,287.923267 L340.938461,267.531467 L350.830761,272.760133 C351.682528,276.1166 353.841461,279.118867 357.130461,280.864567 C358.943628,281.817533 360.984495,282.323533 363.033795,282.323533 C367.739595,282.323533 372.023728,279.742933 374.224828,275.5853 C377.488528,269.420533 375.118761,261.7462 368.953995,258.4825 L368.953995,258.4825 Z M290.077028,328.9683 L256.343695,349.2083 L222.610361,328.9683 L222.610361,287.923267 L256.343695,267.683267 L290.077028,287.923267 L290.077028,328.9683 L290.077028,328.9683 Z M332.243695,253.0683 L298.510361,273.3083 L264.777028,253.0683 L264.777028,212.023267 L298.510361,191.783267 L332.243695,212.023267 L332.243695,253.0683 L332.243695,253.0683 Z" id="Shape" fill="#FFFFFF"></path>
        </g>
    </g>
</svg>