<?xml version="1.0" encoding="UTF-8" standalone="no"?>
<svg width="346px" height="400px" viewBox="0 0 346 400" version="1.1" xmlns="http://www.w3.org/2000/svg" xmlns:xlink="http://www.w3.org/1999/xlink">
    <title>Covalent</title>
    <desc>Copyright 2016-2017 Teradata.</desc>
    <defs></defs>
    <g stroke="none" stroke-width="1" fill-rule="evenodd">
        <g id="covalent-outline">
            <path d="M173.080725,0 L346.285806,100 L334.457849,300 L173.080725,400 L10.6283325,300 L-0.124355653,100 L173.080725,0 Z M173.080725,9.98302255 L8.52119548,104.991511 L19.8701286,295.008489 L173.080725,390.016977 L326.291322,295.008489 L337.640255,104.991511 L173.080725,9.98302255 Z" id="Combined-Shape"></path>
            <path d="M285.953995,202.4825 C282.791495,200.8127 279.097695,200.745233 275.842428,201.9006 L266.110361,196.7647 L266.110361,156.0064 L275.690628,150.238 C276.871295,150.600633 278.094128,150.836767 279.359128,150.836767 C281.652995,150.836767 283.913128,150.2127 285.878095,149.0236 C288.770728,147.2779 290.811595,144.511767 291.629628,141.239633 C292.439228,137.959067 291.933228,134.560433 290.187528,131.6678 C286.729861,125.9247 278.583261,123.883833 272.823295,127.358367 C269.635495,129.281167 267.645228,132.4015 266.987428,135.800133 L257.677028,141.4083 L223.943695,121.176733 L223.943695,110.011 C226.515861,107.691833 228.160361,104.377533 228.160361,100.65 C228.160361,93.6756333 222.484728,88 215.510361,88 C208.535995,88 202.860361,93.6756333 202.860361,100.65 C202.860361,104.377533 204.504861,107.691833 207.077028,110.011 L207.077028,121.176733 L173.343695,141.416733 L139.610361,121.176733 L139.610361,110.011 C142.182528,107.691833 143.827028,104.377533 143.827028,100.65 C143.827028,93.6756333 138.151395,88 131.177028,88 C124.202661,88 118.527028,93.6756333 118.527028,100.65 C118.527028,104.377533 120.171528,107.691833 122.743695,110.011 L122.743695,121.176733 L89.0187947,141.4083 L79.7083947,135.800133 C79.0505947,132.4015 77.060328,129.272733 73.872528,127.358367 C68.1125614,123.8754 59.9743947,125.9247 56.5082947,131.659367 C54.7541614,134.552 54.2481614,137.959067 55.0577614,141.239633 C55.8757947,144.511767 57.9166614,147.2779 60.8092947,149.0236 C62.7826947,150.2127 65.0343947,150.836767 67.3282614,150.836767 C68.5932614,150.836767 69.8160947,150.600633 70.9967614,150.238 L80.577028,156.014833 L80.577028,196.7647 L70.8533947,201.909033 C67.598128,200.753667 63.904328,200.8127 60.7333947,202.490933 C54.568628,205.754633 52.2072947,213.420533 55.4625614,219.5853 C57.6636614,223.742933 61.9477947,226.323533 66.6535947,226.323533 C68.7028947,226.323533 70.735328,225.817533 72.556928,224.856133 C75.845928,223.118867 78.0132947,220.108167 78.856628,216.760133 L88.748928,211.531467 L122.743695,231.923267 L122.743695,272.6647 L113.020061,277.809033 C109.756361,276.653667 106.062561,276.721133 102.900061,278.390933 C96.7352947,281.654633 94.3739614,289.320533 97.629228,295.4853 C99.830328,299.642933 104.114461,302.223533 108.820261,302.223533 C110.869561,302.223533 112.901995,301.717533 114.723595,300.756133 C118.012595,299.018867 120.179961,296.008167 121.023295,292.660133 L130.915595,287.431467 L164.910361,307.823267 L164.910361,318.989 C162.338195,321.308167 160.693695,324.622467 160.693695,328.35 C160.693695,335.324367 166.369328,341 173.343695,341 C180.318061,341 185.993695,335.324367 185.993695,328.35 C185.993695,324.622467 184.349195,321.308167 181.777028,318.989 L181.777028,307.823267 L215.771795,287.431467 L225.664095,292.660133 C226.515861,296.0166 228.674795,299.018867 231.963795,300.764567 C233.776961,301.717533 235.817828,302.223533 237.867128,302.223533 C242.572928,302.223533 246.857061,299.642933 249.058161,295.4853 C252.321861,289.320533 249.952095,281.6462 243.787328,278.390933 C240.624828,276.7127 236.931028,276.653667 233.675761,277.809033 L223.943695,272.6647 L223.943695,231.923267 L257.938461,211.531467 L267.830761,216.760133 C268.682528,220.1166 270.841461,223.118867 274.130461,224.864567 C275.943628,225.817533 277.984495,226.323533 280.033795,226.323533 C284.739595,226.323533 289.023728,223.742933 291.224828,219.5853 C294.488528,213.420533 292.118761,205.7462 285.953995,202.4825 L285.953995,202.4825 Z M207.077028,272.9683 L173.343695,293.2083 L139.610361,272.9683 L139.610361,231.923267 L173.343695,211.683267 L207.077028,231.923267 L207.077028,272.9683 L207.077028,272.9683 Z M249.243695,197.0683 L215.510361,217.3083 L181.777028,197.0683 L181.777028,156.023267 L215.510361,135.783267 L249.243695,156.023267 L249.243695,197.0683 L249.243695,197.0683 Z" id="Shape"></path>
        </g>
    </g>
</svg>