<?xml version="1.0" encoding="UTF-8" standalone="no"?>
<svg width="346px" height="400px" viewBox="0 0 346 400" version="1.1" xmlns="http://www.w3.org/2000/svg" xmlns:xlink="http://www.w3.org/1999/xlink">
    <title>covalent-stroke</title>
    <desc>Created with Sketch.</desc>
    <defs></defs>
    <g stroke="none" stroke-width="1" fill="none" fill-rule="evenodd">
        <g id="covalent-stroke" stroke="#FFFFFF" stroke-width="2">
            <g id="Group" transform="translate(7.000000, 7.000000)">
                <path d="M166.5,0 L333,96.25 L321.629925,288.75 L166.5,385 L10.3364322,288.75 L1.74049942e-14,96.25 L166.5,0 Z M166.5,9.6086592 L8.31086627,101.05433 L19.2204617,283.94567 L166.5,375.391341 L313.779538,283.94567 L324.689134,101.05433 L166.5,9.6086592 Z" id="Combined-Shape"></path>
                <path fill="#FF6D00" d="M275.508187,195.41 C272.460839,193.7996 268.901536,193.734533 265.764799,194.8488 L256.387092,189.8956 L256.387092,150.5872 L265.618526,145.024 C266.756203,145.373733 267.934511,145.601467 269.15345,145.601467 C271.363794,145.601467 273.541632,144.9996 275.435051,143.8528 C278.222359,142.1692 280.188915,139.501467 280.977162,136.345733 C281.757283,133.181867 281.269708,129.904133 279.587571,127.1144 C276.255804,121.5756 268.405834,119.607333 262.855597,122.958267 C259.78387,124.812667 257.866072,127.822 257.232223,131.099733 L248.260829,136.5084 L215.755779,116.996533 L215.755779,106.228 C218.234289,103.991333 219.818911,100.794933 219.818911,97.2 C219.818911,90.4737333 214.349936,85 207.629517,85 C200.909098,85 195.440123,90.4737333 195.440123,97.2 C195.440123,100.794933 197.024744,103.991333 199.503254,106.228 L199.503254,116.996533 L166.998204,136.516533 L134.493154,116.996533 L134.493154,106.228 C136.971664,103.991333 138.556286,100.794933 138.556286,97.2 C138.556286,90.4737333 133.087311,85 126.366892,85 C119.646473,85 114.177498,90.4737333 114.177498,97.2 C114.177498,100.794933 115.762119,103.991333 118.240629,106.228 L118.240629,116.996533 L85.7437057,136.5084 L76.7723119,131.099733 C76.1384634,127.822 74.2206655,124.804533 71.1489382,122.958267 C65.598701,119.5992 57.7568577,121.5756 54.4169638,127.106267 C52.7267012,129.896 52.2391254,133.181867 53.0192466,136.345733 C53.8074941,139.501467 55.7740496,142.1692 58.5613576,143.8528 C60.4629031,144.9996 62.6326152,145.601467 64.8429585,145.601467 C66.0618979,145.601467 67.240206,145.373733 68.3778827,145.024 L77.6093169,150.595333 L77.6093169,189.8956 L68.2397363,194.856933 C65.1029989,193.742667 61.543696,193.7996 58.4882213,195.418133 C52.5479234,198.565733 50.2725699,205.958933 53.4093072,211.9044 C55.5302617,215.914133 59.6584031,218.402933 64.1928575,218.402933 C66.1675393,218.402933 68.1259686,217.914933 69.8812413,216.987733 C73.0504837,215.312267 75.1389331,212.408667 75.9515594,209.179733 L85.4836653,204.137067 L118.240629,223.803467 L118.240629,263.0956 L108.871049,268.056933 C105.726185,266.942667 102.166882,267.007733 99.1195337,268.618133 C93.1792359,271.765733 90.9038824,279.158933 94.0406197,285.1044 C96.1615742,289.114133 100.289716,291.602933 104.82417,291.602933 C106.798852,291.602933 108.757281,291.114933 110.512554,290.187733 C113.681796,288.512267 115.770246,285.608667 116.582872,282.379733 L126.114978,277.337067 L158.871942,297.003467 L158.871942,307.772 C156.393432,310.008667 154.808811,313.205067 154.808811,316.8 C154.808811,323.526267 160.277785,329 166.998204,329 C173.718623,329 179.187598,323.526267 179.187598,316.8 C179.187598,313.205067 177.602977,310.008667 175.124467,307.772 L175.124467,297.003467 L207.881431,277.337067 L217.413537,282.379733 C218.234289,285.6168 220.314613,288.512267 223.483855,290.195867 C225.231001,291.114933 227.197557,291.602933 229.172239,291.602933 C233.706693,291.602933 237.834835,289.114133 239.955789,285.1044 C243.100653,279.158933 240.817173,271.7576 234.876875,268.618133 C231.829527,266.9996 228.270224,266.942667 225.133486,268.056933 L215.755779,263.0956 L215.755779,223.803467 L248.512743,204.137067 L258.044849,209.179733 C258.865602,212.4168 260.945925,215.312267 264.115167,216.995867 C265.862314,217.914933 267.828869,218.402933 269.803551,218.402933 C274.338006,218.402933 278.466147,215.914133 280.587102,211.9044 C283.731965,205.958933 281.448485,198.5576 275.508187,195.41 L275.508187,195.41 Z M199.503254,263.3884 L166.998204,282.9084 L134.493154,263.3884 L134.493154,223.803467 L166.998204,204.283467 L199.503254,223.803467 L199.503254,263.3884 L199.503254,263.3884 Z M240.134567,190.1884 L207.629517,209.7084 L175.124467,190.1884 L175.124467,150.603467 L207.629517,131.083467 L240.134567,150.603467 L240.134567,190.1884 L240.134567,190.1884 Z" id="Shape"></path>
            </g>
        </g>
    </g>
</svg>