<?xml version="1.0" encoding="UTF-8" standalone="no"?>
<svg width="192px" height="32px" viewBox="0 0 192 32" version="1.1" xmlns="http://www.w3.org/2000/svg" xmlns:xlink="http://www.w3.org/1999/xlink">
    <!-- Generator: Sketch 3.8.3 (29802) - http://www.bohemiancoding.com/sketch -->
    <title>teradata-ux</title>
    <desc>Created with Sketch.</desc>
    <defs>
        <path d="M166.783823,6.80397488 L166.783823,17.4236886 C166.783823,23.2855796 162.031808,28.0375811 156.16702,28.0375811 C150.303522,28.0375811 145.550217,23.2767426 145.550217,17.4236886 L145.550217,6.80397488 L166.783823,6.80397488 Z" id="path-1"></path>
        <mask id="mask-2" maskContentUnits="userSpaceOnUse" maskUnits="objectBoundingBox" x="-2" y="-2" width="25.2336062" height="25.2336062">
            <rect x="143.550217" y="4.80397488" width="25.2336062" height="25.2336062" fill="white"></rect>
            <use xlink:href="#path-1" fill="black"></use>
        </mask>
        <path d="M185.948934,17.420778 L191.253218,6.80397488 L180.493076,6.80397488 L169.732935,6.80397488 L175.037219,17.420778 L169.732935,28.0375811 L180.493076,28.0375811 L191.253218,28.0375811 L185.948934,17.420778 Z" id="path-3"></path>
        <mask id="mask-4" maskContentUnits="userSpaceOnUse" maskUnits="objectBoundingBox" x="-2" y="-2" width="25.5202823" height="25.2336062">
            <rect x="167.732935" y="4.80397488" width="25.5202823" height="25.2336062" fill="white"></rect>
            <use xlink:href="#path-3" fill="black"></use>
        </mask>
    </defs>
    <g id="Page-1" stroke="none" stroke-width="1" fill="none" fill-rule="evenodd">
        <g id="teradata-ux">
            <path d="M77.2088874,6.69745941 L70.1937732,6.69745941 L70.1937732,25.1487383 C70.1937732,26.5237134 70.9533716,27.233378 72.5619328,27.233378 L77.2088874,27.233378 L77.9684857,27.233378 C83.5537677,27.0116078 86.1453385,24.5721359 86.1453385,18.8061112 L86.1453385,15.3464964 C86.1900208,9.58047174 83.2409919,6.69745941 77.2088874,6.69745941 L77.2088874,6.69745941 Z M82.4367113,18.8061112 C82.4367113,22.9753906 81.0515614,25.0156762 77.3429341,25.0156762 L73.991765,25.0156762 L73.991765,9.00386927 L77.2535696,9.00386927 C81.0515614,9.00386927 82.4367113,11.2215711 82.4367113,15.3908504 L82.4367113,18.8061112 L82.4367113,18.8061112 Z" id="Shape" fill="#F29400"></path>
            <path d="M124.348667,6.4313352 C123.455022,6.4313352 122.650741,6.74181345 122.472012,7.1853538 L114.876029,27.233378 L116.261179,27.233378 C117.780376,27.233378 118.450609,27.1003159 118.942114,25.8584029 L120.64004,21.1568751 L125.19763,21.1568751 L124.527396,18.8948193 L121.354956,18.8948193 L124.169938,10.9554469 L129.263715,25.8140489 C129.710538,27.0559619 130.425454,27.189024 132.078697,27.189024 L133.865988,27.189024 L126.18064,7.14099977 C126.046593,6.74181345 125.19763,6.4313352 124.348667,6.4313352 L124.348667,6.4313352 Z" id="Shape" fill="#F29400"></path>
            <path d="M10.4982796,28.519645 C10.4982796,29.8946202 11.3472425,30.6042847 12.9111214,30.6042847 L14.2962713,30.6042847 L14.2962713,2.57253408 L22.8305822,2.57253408 L23.6348628,0 L0.846912374,0 L0.0426317715,2.57253408 L10.4982796,2.57253408 L10.4982796,28.519645 L10.4982796,28.519645 Z" id="Shape" fill="#F29400"></path>
            <path d="M31.4095753,9.00386927 L32.1244914,6.74181345 L18.6304501,6.74181345 L18.6304501,20.9351049 C18.6304501,25.7253408 19.7475065,27.233378 26.3157981,27.233378 L38.4693717,27.189024 L38.4693717,9.00386927 L41.150307,9.00386927 C44.0546536,9.00386927 45.5291681,10.0240121 45.5291681,11.9755897 L45.5291681,13.7497511 C45.5291681,15.7456827 43.6971956,16.3666392 41.4630828,16.3666392 L39.7651571,16.3666392 L45.4398036,26.035819 C46.0653551,27.1446699 46.3781309,27.233378 47.8973276,27.233378 L51.2038145,27.233378 C52.7230112,27.233378 53.3932451,27.1003159 53.8847499,25.8584029 L55.5826756,21.1568751 L60.1402657,21.1568751 L59.4700318,18.8948193 L56.2975917,18.8948193 L59.1125738,10.9554469 L64.206351,25.8140489 C64.6531735,27.0559619 65.3680896,27.189024 67.0213331,27.189024 L68.8086233,27.189024 L61.0785931,7.14099977 C60.899864,6.69745941 60.0509012,6.38698116 59.2019383,6.38698116 C58.2636109,6.38698116 57.5040126,6.69745941 57.3252836,7.14099977 L50.0867582,26.4793594 L44.635523,18.2738628 C47.4951873,17.7859684 49.1484308,16.2779312 49.1484308,13.7053971 L49.1484308,11.8868816 C49.1484308,8.20549663 45.7078971,6.65310537 41.1056248,6.65310537 L34.7160622,6.65310537 L34.7160622,24.9269681 L26.4051626,24.9269681 C23.143358,24.9269681 22.3837596,24.2173036 22.3837596,20.8463968 L22.3837596,17.298074 L28.5499109,17.298074 L29.2201447,15.0360181 L22.4284419,15.0360181 L22.4284419,9.00386927 L31.4095753,9.00386927 L31.4095753,9.00386927 Z" id="Shape" fill="#F29400"></path>
            <path d="M110.720579,27.277732 L112.105729,27.277732 L112.105729,9.00386927 L118.450609,9.00386927 L119.120843,6.74181345 L101.962857,6.74181345 L101.247941,9.00386927 L108.307737,9.00386927 L108.307737,25.1930924 C108.307737,26.5680675 109.1567,27.277732 110.720579,27.277732 L110.720579,27.277732 Z" id="Shape" fill="#F29400"></path>
            <path d="M95.6179767,6.4313352 C94.6796493,6.4313352 93.920051,6.74181345 93.741322,7.1853538 L86.1453385,27.233378 L87.5751707,27.233378 C89.0943674,27.233378 89.7646012,27.1003159 90.256106,25.8584029 L91.9540317,21.1568751 L96.5116218,21.1568751 L95.841388,18.8948193 L92.6689478,18.8948193 L95.4839299,10.9554469 L100.577707,25.8584029 C101.02453,27.1003159 101.739446,27.233378 103.392689,27.233378 L105.179979,27.233378 L97.4499492,7.1853538 C97.2712202,6.74181345 96.4669396,6.4313352 95.6179767,6.4313352 L95.6179767,6.4313352 Z" id="Shape" fill="#F29400"></path>
            <g id="Combined-Shape">
                <use fill="#F6B500" fill-rule="evenodd" xlink:href="#path-1"></use>
                <use stroke="#FFFFFF" mask="url(#mask-2)" stroke-width="4" xlink:href="#path-1"></use>
            </g>
            <g id="Combined-Shape">
                <use fill="#D8D8D8" fill-rule="evenodd" xlink:href="#path-3"></use>
                <use stroke="#FFFFFF" mask="url(#mask-4)" stroke-width="4" xlink:href="#path-3"></use>
            </g>
            <path d="M177.988195,23.3273109 L169.732935,6.80397488 L180.64465,6.80397488 L183.253245,12.025215 L177.988195,23.3273109 Z" id="Combined-Shape" fill="#F29400"></path>
            <path d="M177.988195,23.3273109 L180.341503,28.0375811 L191.253218,28.0375811 L183.253245,12.025215 L177.988195,23.3273109 Z" id="Combined-Shape" fill="#F6B500"></path>
            <polygon id="Rectangle-9" fill="#F8CC3E" points="191.253218 6.80397488 180.64465 28.0375811 169.732935 28.0375811 180.341503 6.80397488"></polygon>
            <rect id="Rectangle-7" fill="#F8CC3E" x="145.550217" y="6.80397488" width="10.6168031" height="10.6168031"></rect>
            <rect id="Rectangle-7-Copy" fill="#F29400" x="156.16702" y="6.80397488" width="10.6168031" height="10.6168031"></rect>
        </g>
    </g>
</svg>