<svg xmlns="http://www.w3.org/2000/svg" id="teradata" width="300" height="69" viewBox="0 0 300 69">
<path class="st0" d="M172.7 15.1h-15.7v41.6c0 3.1 1.7 4.7 5.3 4.7h10.4l1.7 0c12.5-0.5 18.3-6 18.3-19v-7.8C192.8 21.6 186.2 15.1 172.7 15.1zM184.4 42.4c0 9.4-3.1 14-11.4 14h-7.5V20.3h7.3c8.5 0 11.6 5 11.6 14.4V42.4z"/><path class="st0" d="M278.2 14.5c-2 0-3.8 0.7-4.2 1.7l-17 45.2h3.1c3.4 0 4.9-0.3 6-3.1l3.8-10.6h10.2l-1.5-5.1h-7.1l6.3-17.9 11.4 33.5c1 2.8 2.6 3.1 6.3 3.1h4l-17.2-45.2C282 15.2 280.1 14.5 278.2 14.5z"/><path class="st0" d="M23.4 64.3c0 3.1 1.9 4.7 5.4 4.7h3.1V5.8H51L52.8 0h-51L0 5.8h23.4V64.3z"/><path class="st0" d="M70.2 20.3l1.6-5.1H41.6v32c0 10.8 2.5 14.2 17.2 14.2L86 61.3v-41h6c6.5 0 9.8 2.3 9.8 6.7v4c0 4.5-4.1 5.9-9.1 5.9h-3.8l12.7 21.8c1.4 2.5 2.1 2.7 5.5 2.7h7.4c3.4 0 4.9-0.3 6-3.1l3.8-10.6h10.2l-1.5-5.1h-7.1l6.3-17.9 11.4 33.5c1 2.8 2.6 3.1 6.3 3.1h4l-17.3-45.2c-0.4-1-2.3-1.7-4.2-1.7 -2.1 0-3.8 0.7-4.2 1.7L112 59.7 99.8 41.2c6.4-1.1 10.1-4.5 10.1-10.3v-4.1c0-8.3-7.7-11.8-18-11.8H77.6v41.2H59c-7.3 0-9-1.6-9-9.2V39h13.8l1.5-5.1H50.1V20.3H70.2z"/><path class="st0" d="M247.7 61.5h3.1V20.3h14.2l1.5-5.1h-38.4l-1.6 5.1h15.8v36.5C242.3 59.9 244.2 61.5 247.7 61.5z"/><path class="st0" d="M213.9 14.5c-2.1 0-3.8 0.7-4.2 1.7l-17 45.2h3.2c3.4 0 4.9-0.3 6-3.1l3.8-10.6h10.2l-1.5-5.1h-7.1l6.3-17.9L225 58.3c1 2.8 2.6 3.1 6.3 3.1h4L218 16.2C217.6 15.2 215.8 14.5 213.9 14.5z"/></svg>
