
<svg xmlns="http://www.w3.org/2000/svg" viewBox="0 0 24 24">

  <path  d="M12,1c3.58,0,6.66,2.53,7.35,6.04,2.6.18,4.65,2.32,4.65,4.96s-2.24,5-5,5h-6v1h1c.55,0,1,.45,1,1h7v2h-7c0,.55-.45,1-1,1h-4c-.55,0-1-.45-1-1H2v-2h7c0-.55.45-1,1-1h1v-1h-5C2.69,17,0,14.31,0,11c0-3.06,2.31-5.63,5.35-5.96,1.25-2.4,3.76-4.04,6.65-4.04ZM8.06,7l2.22,6h-1.55l-.35-1.12h-1.98l-.35,1.12h-1.55l2.2-6h-.7c-2.21,0-4,1.79-4,4s1.79,4,4,4h13c1.66,0,3-1.34,3-3s-1.34-3-3-3h-1.25v4s-1.44,0-1.44,0v-6h.99c-.65-2.31-2.77-4-5.29-4-2.46,0-4.62,1.63-5.29,4h1.35ZM13.11,7c.46,0,.86.08,1.22.25.35.17.63.41.82.72.19.31.29.67.29,1.06,0,.59-.21,1.05-.63,1.4-.42.35-.99.53-1.72.53h-.92v2.04h-1.45v-6h2.39ZM7.38,8.68l-.64,2.08h1.29l-.65-2.08ZM13.12,8.12h-.96v1.73h.95c.28,0,.49-.07.64-.21s.22-.34.22-.59c0-.28-.08-.5-.23-.67-.15-.17-.36-.25-.62-.26Z"/>
</svg>