<svg viewBox="0 0 24 24" xmlns="http://www.w3.org/2000/svg">
<path d="M10 7.85506C11.4457 7.42479 12.5 6.08551 12.5 4.5C12.5 2.567 10.933 1 9 1C7.067 1 5.5 2.567 5.5 4.5C5.5 6.08551 6.55426 7.42479 8 7.85506V16.1449C6.55426 16.5752 5.5 17.9145 5.5 19.5C5.5 21.433 7.067 23 9 23C10.933 23 12.5 21.433 12.5 19.5C12.5 17.9145 11.4457 16.5752 10 16.1449V13.8033C13.3296 12.9985 15.627 11.5377 16.9902 9.96314C17.1566 9.98742 17.3268 10 17.5 10C19.433 10 21 8.433 21 6.5C21 4.567 19.433 3 17.5 3C15.567 3 14 4.567 14 6.5C14 7.50605 14.4245 8.41296 15.1041 9.05141C14.0723 10.0648 12.4191 11.0834 10 11.739V7.85506ZM10.5 4.5C10.5 5.32843 9.82843 6 9 6C8.17157 6 7.5 5.32843 7.5 4.5C7.5 3.67157 8.17157 3 9 3C9.82843 3 10.5 3.67157 10.5 4.5ZM7.5 19.5C7.5 18.6716 8.17157 18 9 18C9.82843 18 10.5 18.6716 10.5 19.5C10.5 20.3284 9.82843 21 9 21C8.17157 21 7.5 20.3284 7.5 19.5ZM19 6.5C19 7.32843 18.3284 8 17.5 8C16.6716 8 16 7.32843 16 6.5C16 5.67157 16.6716 5 17.5 5C18.3284 5 19 5.67157 19 6.5Z" />
</svg>
