<svg xmlns="http://www.w3.org/2000/svg" viewBox="0 0 24 24"><path d="M9 1H7v3h2V1Zm4 0h-2v3h2V1Zm2 0h2v3h-2V1ZM9 23v-3H7v3h2Zm2-3h2v3h-2v-3Zm6 3v-3h-2v3h2Zm3-14h3V7h-3v2Zm3 4h-3v-2h3v2Zm-3 4h3v-2h-3v2ZM4 9H1V7h3v2Zm-3 4h3v-2H1v2Zm3 4H1v-2h3v2ZM16.7 5H7.3C6 5 5 6.1 5 7.3v9.3c0 1.3 1.1 2.3 2.3 2.3h9.3c1.3 0 2.3-1 2.3-2.3V7.3c0-1.3-1-2.3-2.3-2.3Zm.3 3.7v7.4c0 .5-.4.9-.9.9H7.9c-.5 0-.9-.4-.9-.9V7.9c0-.5.4-.9.9-.9h8.2c.5 0 .9.4.9.9v.7ZM10.6 16l.4-2.8H9L12.6 8h.8l-.4 3.2h2.4l-4 4.8h-.8ZM9 1H7v3h2V1Zm4 0h-2v3h2V1Zm2 0h2v3h-2V1ZM9 23v-3H7v3h2Zm2-3h2v3h-2v-3Zm6 3v-3h-2v3h2Zm3-14h3V7h-3v2Zm3 4h-3v-2h3v2Zm-3 4h3v-2h-3v2ZM4 9H1V7h3v2Zm-3 4h3v-2H1v2Zm3 4H1v-2h3v2ZM16.7 5H7.3C6 5 5 6.1 5 7.3v9.3c0 1.3 1.1 2.3 2.3 2.3h9.3c1.3 0 2.3-1 2.3-2.3V7.3c0-1.3-1-2.3-2.3-2.3Zm.3 3.7v7.4c0 .5-.4.9-.9.9H7.9c-.5 0-.9-.4-.9-.9V7.9c0-.5.4-.9.9-.9h8.2c.5 0 .9.4.9.9v.7Z"/></svg>