<svg xmlns="http://www.w3.org/2000/svg" viewBox="0 0 24 24"><path d="M2.1 2.08.67 3.51l19.8 19.8 1.43-1.43L2.1 2.08Zm15.78 15.78c-.39.18-.83.35-1.35.5-.67.19-1.4.35-2.19.46-.79.12-1.57.17-2.34.17a17.224 17.224 0 0 1-4.55-.63c-.67-.19-1.22-.4-1.66-.64-.44-.23-.7-.47-.79-.72v-2.48c.42.23.88.44 1.4.62.52.18 1.07.34 1.66.46s1.22.22 1.89.29c.67.07 1.35.1 2.05.1s1.38-.03 2.03-.1c.57-.06 1.11-.15 1.64-.25l-1.74-1.74a19.88 19.88 0 0 1-3.97 0c-.67-.07-1.3-.16-1.89-.29-.59-.13-1.15-.28-1.66-.46a9.07 9.07 0 0 1-1.4-.62v-3c.42.23.88.44 1.4.62.52.18 1.07.34 1.66.46.59.12 1.22.22 1.89.29.33.03.68.03 1.02.05L8.72 8.69c-.39-.08-.78-.17-1.17-.29-1.46-.42-2.3-.88-2.54-1.38.15-.31.53-.61 1.15-.89L4.7 4.67C3.58 5.35 3.01 6.12 3.01 7v10c0 1.12.87 2.06 2.61 2.84 1.74.78 3.87 1.16 6.39 1.16s4.65-.39 6.39-1.16c.36-.16.68-.33.96-.51l-1.47-1.47h-.01ZM8.31 5.44C9.52 5.15 10.75 5 12 5c1.5 0 3 .22 4.49.65 1.49.43 2.33.89 2.51 1.38-.18.48-1.03.94-2.53 1.36-1.5.42-2.99.64-4.47.64h-.11l1.89 1.89c.08 0 .17 0 .24-.01.65-.07 1.27-.16 1.86-.29.59-.13 1.15-.28 1.67-.46.53-.18 1-.39 1.44-.62v3c-.43.23-.91.44-1.44.62-.38.13-.8.23-1.21.33l1.54 1.54c.39-.15.77-.31 1.11-.5v1.61l1.78 1.78c.14-.29.22-.59.22-.91V7c0-1.1-.88-2.04-2.64-2.83C16.59 3.39 14.47 3 11.99 3c-2.02 0-3.79.27-5.34.79L8.3 5.44h.01Z" /></svg>