
<svg  xmlns="http://www.w3.org/2000/svg" viewBox="0 0 24 24">

  <path  d="M22,18.5l-8,3-7-2v-9h1.9l7.3,2.7c.5.2.8.6.8,1.1,0,.3-.1.6-.3.8-.2.2-.6.4-.9.4h-2.8l-1.8-.7-.3.9,2.1.8h7c.6,0,1.1.2,1.5.6.3.4.5.9.5,1.4ZM1,21.5h4v-11H1v11ZM9.89,6.13c-.07-.23-.11-.5-.11-.82v-.74c0-.32.03-.6.1-.82.07-.22.17-.42.29-.57.12-.15.28-.26.45-.33.17-.07.37-.1.59-.1s.41.03.59.1c.18.07.33.18.46.33.13.15.23.34.3.57s.11.5.11.82v.74c0,.32-.03.6-.1.82s-.17.42-.29.57c-.12.15-.28.26-.45.33-.17.07-.37.1-.59.1s-.41-.03-.59-.1c-.18-.07-.33-.18-.46-.33s-.23-.34-.3-.57ZM10.62,5.42c0,.19.01.35.04.48.03.13.07.24.12.32.05.08.11.14.19.17.08.03.16.05.25.05s.18-.02.25-.05c.07-.03.14-.09.19-.17.05-.08.09-.19.11-.32.02-.13.04-.29.04-.48v-.97h.01c0-.19-.01-.35-.04-.48-.03-.13-.07-.23-.12-.31-.05-.08-.11-.14-.19-.17-.08-.03-.16-.05-.25-.05s-.18.02-.25.05c-.07.03-.14.09-.19.17-.05.08-.09.18-.12.31-.03.13-.04.29-.04.48v.97ZM12.36,10.5v-1.75h-.09l-1.77.63v.69l1.01-.31v.49s.85.25.85.25ZM14.82,7.02h.85V2.75h-.09l-1.77.63v.69l1.01-.31v3.26ZM14.62,10.45c0-.19.01-.35.04-.48.03-.13.07-.23.12-.31.05-.08.12-.14.19-.17.07-.03.16-.05.25-.05s.17.02.25.05c.08.03.14.09.19.17.05.08.09.18.12.31.03.13.04.29.04.48h-.01v.97s0,.02,0,.03l.85.21c0-.11.01-.23.01-.35v-.74c0-.32-.04-.59-.11-.82s-.17-.42-.3-.57c-.13-.15-.28-.26-.46-.33-.18-.07-.37-.1-.59-.1s-.42.03-.59.1c-.17.07-.33.18-.45.33-.12.15-.22.35-.29.57s-.1.5-.1.82v.38l.84.21v-.71ZM17.39,6.13c-.07-.23-.11-.5-.11-.82v-.74c0-.32.03-.6.1-.82s.17-.42.29-.57c.12-.15.28-.26.45-.33.17-.07.37-.1.59-.1s.41.03.59.1c.18.07.33.18.46.33.13.15.23.34.3.57s.11.5.11.82v.74c0,.32-.03.6-.1.82s-.17.42-.29.57c-.12.15-.28.26-.45.33-.17.07-.37.1-.59.1s-.41-.03-.59-.1c-.18-.07-.33-.18-.46-.33s-.23-.34-.3-.57ZM18.12,5.42c0,.19.01.35.04.48.03.13.07.24.12.32.05.08.11.14.19.17.08.03.16.05.25.05s.18-.02.25-.05c.07-.03.14-.09.19-.17.05-.08.09-.19.11-.32.02-.13.04-.29.04-.48v-.97h.01c0-.19-.01-.35-.04-.48-.03-.13-.07-.23-.12-.31-.05-.08-.11-.14-.19-.17-.08-.03-.16-.05-.25-.05s-.18.02-.25.05c-.07.03-.14.09-.19.17-.05.08-.09.18-.12.31-.03.13-.04.29-.04.48v.97ZM19.86,13.02v-4.27h-.09l-1.77.63v.69l1.01-.31v3.26h.85Z"/>
</svg>