<svg xmlns="http://www.w3.org/2000/svg" viewBox="0 0 24 24"><path d="M16.5 19c.7 0 1.29-.24 1.78-.73s.73-1.08.73-1.78-.24-1.29-.73-1.78-1.08-.73-1.78-.73-1.29.24-1.78.73-.73 1.08-.73 1.78.24 1.29.73 1.78 1.08.73 1.78.73Zm5.1 4-2.7-2.7c-.35.23-.73.41-1.14.53-.41.12-.83.18-1.26.18-1.25 0-2.31-.44-3.19-1.31-.88-.87-1.31-1.94-1.31-3.19s.44-2.31 1.31-3.19c.87-.88 1.94-1.31 3.19-1.31s2.31.44 3.19 1.31c.88.87 1.31 1.94 1.31 3.19 0 .43-.06.85-.18 1.26-.12.41-.29.79-.53 1.14l2.7 2.7-1.4 1.4.01-.01ZM5.62 9.82c1.75.78 3.88 1.17 6.38 1.17.38 0 .73-.03 1.1-.04 1.01-.62 2.16-.96 3.4-.96.39 0 .77.04 1.14.1.25-.09.51-.17.74-.27C20.13 9.04 21 8.1 21 6.99s-.88-2.04-2.62-2.83C16.63 3.38 14.5 2.99 12 2.99s-4.62.39-6.38 1.17C3.87 4.94 3 5.89 3 6.99s.88 2.04 2.62 2.83Zm4.65 8.57c-.26-.03-.54-.06-.83-.1a16.141 16.141 0 0 1-2.96-.69c-.95-.32-1.77-.73-2.45-1.24C3.35 15.85 3 15.23 3 14.5V17c0 .73.34 1.35 1.03 1.86.68.51 1.5.92 2.45 1.24.95.32 1.94.55 2.96.69.93.13 1.71.2 2.36.21a6.263 6.263 0 0 1-1.53-2.61Zm-6.25-4.53c.68.51 1.5.92 2.45 1.24 1.151.386 2.342.641 3.55.76.08-.87.32-1.68.72-2.42-.4-.04-.84-.08-1.31-.15a16.141 16.141 0 0 1-2.96-.69c-.95-.32-1.77-.73-2.45-1.24-.68-.51-1.03-1.13-1.03-1.86V12c0 .73.34 1.35 1.03 1.86Z"/></svg>