
<svg xmlns="http://www.w3.org/2000/svg" viewBox="0 0 24 24">
  <path  d="M15,3h2v2h-2v-2ZM19,9h2v-2h-2v2ZM19,17h2v-2h-2v2ZM15,21h2v-2h-2v2ZM19,21c1.1,0,2-.9,2-2h-2v2ZM19,3v2h2c0-1.1-.9-2-2-2ZM19,13h2v-2h-2v2ZM11,22h2V2h-2v20ZM3,7v10c0,1.12.87,2.06,2.61,2.84,1,.44,2.14.74,3.39.93v-2.05c-.55-.1-1.08-.21-1.55-.35-.66-.19-1.22-.41-1.66-.64-.44-.24-.71-.48-.79-.73v-2.48c.42.24.88.45,1.4.63.51.18,1.07.33,1.66.46.3.07.62.12.94.17v-2c-.32-.05-.64-.11-.94-.17-.59-.12-1.14-.28-1.66-.46-.52-.19-.98-.4-1.4-.63v-3c.42.24.88.45,1.4.63.51.18,1.07.33,1.66.46.3.07.62.12.94.17v-2.04c-.49-.09-.97-.2-1.45-.34-1.46-.42-2.31-.88-2.54-1.38.24-.5,1.08-.96,2.54-1.39.48-.14.96-.25,1.45-.34v-2.06c-1.23.19-2.36.5-3.36.94-1.76.79-2.64,1.73-2.64,2.83Z"/>
</svg>