<svg xmlns="http://www.w3.org/2000/svg" viewBox="0 0 24 24"><path d="M8 18v-2h6.14s-.08-.07-.12-.11c-.51-.5-.79-1.17-.84-1.89H7.99v-2h5.8c.07-.09.13-.18.21-.25a2.89 2.89 0 0 1 2.07-.87h3.92V8l-6-6H6c-.55 0-1.02.2-1.41.59C4.2 2.98 4 3.45 4 4v16c0 .55.2 1.02.59 1.41.39.39.86.59 1.41.59h4.88c.03-.76.32-1.5.85-2.15L13.22 18H8Zm5-14 5 5h-5V4Zm10.69 18.9c-.3.64-.81.97-1.52.97h-7.6c-.71 0-1.22-.32-1.52-.97-.3-.65-.23-1.24.22-1.79l2.89-3.57v-2.8h-.08c-.25 0-.47-.09-.65-.27-.18-.18-.27-.4-.27-.67s.09-.48.27-.66.4-.27.65-.27h4.58c.25 0 .47.09.65.27s.27.4.27.66-.09.49-.26.67c-.18.18-.39.27-.65.27h-.07v2.8l2.87 3.57c.45.55.52 1.15.22 1.79Z" /></svg>