
<svg  xmlns="http://www.w3.org/2000/svg" viewBox="0 0 24 24">

  <path  d="M7,20.03v-9.03h1.6c.12,0,.23.01.35.04s.23.05.35.09l6.93,2.58c.23.08.42.23.56.45s.21.44.21.68c0,.35-.12.63-.36.85s-.52.33-.84.33h-2.63c-.08,0-.15,0-.19-.01s-.1-.03-.16-.06l-1.6-.63-.33.98,1.93.68s.08.03.15.04.13.01.18.01h6.85c.53,0,1,.19,1.4.58.4.38.6.86.6,1.43l-7.98,3-7.03-1.98ZM1,22v-11h4v11H1ZM23,5.35l-1.12,1c.03.25.05.46.05.64s-.02.39-.05.64l1.12,1-1,1.72-1.45-.47c-.17.13-.34.25-.51.35s-.36.19-.56.28l-.3,1.5h-2l-.3-1.5c-.2-.08-.39-.17-.56-.28-.17-.1-.35-.22-.51-.35l-1.45.5-1-1.73,1.12-1c-.03-.25-.05-.46-.05-.64s.02-.39.05-.64l-1.12-1,1-1.73,1.45.5c.17-.13.34-.25.51-.36.17-.11.36-.2.56-.29l.3-1.5h2l.3,1.5c.39.15.75.36,1.07.62l1.45-.5,1,1.72v.02ZM20.17,7c0-.55-.2-1.02-.59-1.41-.39-.39-.86-.59-1.41-.59s-1.02.2-1.41.59c-.39.39-.59.86-.59,1.41s.2,1.02.59,1.41.86.59,1.41.59,1.02-.2,1.41-.59.59-.86.59-1.41Z"/>
</svg>