<svg xmlns="http://www.w3.org/2000/svg" viewBox="0 0 24 24"><path d="M12 22c-.55 0-1.02-.196-1.412-.587A1.926 1.926 0 0 1 10 20h4c0 .55-.196 1.02-.588 1.413A1.926 1.926 0 0 1 12 22Zm-4-3v-2h8v2H8Zm.25-3a7.662 7.662 0 0 1-2.737-2.75A7.278 7.278 0 0 1 4.5 9.5c0-2.083.73-3.854 2.188-5.313C8.146 2.73 9.916 2 12 2s3.854.73 5.313 2.188C18.77 5.646 19.5 7.417 19.5 9.5c0 1.35-.337 2.6-1.012 3.75A7.662 7.662 0 0 1 15.75 16h-7.5Zm.6-2h6.3a5.548 5.548 0 0 0 1.737-1.975A5.383 5.383 0 0 0 17.5 9.5c0-1.533-.533-2.833-1.6-3.9C14.833 4.533 13.533 4 12 4s-2.833.533-3.9 1.6C7.033 6.667 6.5 7.967 6.5 9.5c0 .9.204 1.742.612 2.525A5.549 5.549 0 0 0 8.85 14Z"/></svg>