<svg xmlns="http://www.w3.org/2000/svg" width="24" height="24">
    <path d="M20.134 14c.12 0 .23.09.24.21l.19 1.32c.31.12.59.29.85.49l1.24-.5c.12-.04.25 0 .31.11l1 1.73a.26.26 0 01-.06.32l-1.06.83c.03.16.04.32.04.49 0 .17-.02.33-.04.49l1.07.83a.26.26 0 01.06.32l-1 1.73c-.07.11-.2.15-.31.11l-1.25-.5c-.25.2-.54.36-.84.49l-.19 1.32c-.02.12-.13.21-.25.21h-2c-.13 0-.23-.09-.25-.21l-.19-1.32c-.31-.12-.59-.29-.85-.49l-1.24.5c-.12.04-.25 0-.31-.11l-1-1.73a.26.26 0 01.06-.32l1.06-.83a3.908 3.908 0 010-.98l-1.06-.83a.248.248 0 01-.06-.32l1-1.73c.07-.11.2-.15.31-.11l1.24.5c.26-.2.55-.36.85-.49l.19-1.32c.02-.12.13-.21.25-.21zm-8.235 8H9.333C8.6 22 8 21.55 8 21v-1h3.515a7.97 7.97 0 00.384 2zm7.235-4.5c-.83 0-1.5.67-1.5 1.5s.67 1.5 1.5 1.5 1.5-.67 1.5-1.5-.67-1.5-1.5-1.5zM12 2c3.86 0 7 3.14 7 7 0 .906-.172 1.77-.485 2.561a8.003 8.003 0 00-6.875 6.44L9 18c-.55 0-1-.45-1-1v-2.26C6.19 13.47 5 11.38 5 9c0-3.86 3.14-7 7-7z"/>
</svg>
