
<svg  xmlns="http://www.w3.org/2000/svg" viewBox="0 0 24 24">

  <path d="M8.56,7.44c.29.29.44.65.44,1.06s-.15.77-.44,1.06c-.29.29-.65.44-1.06.44s-.77-.15-1.06-.44c-.29-.29-.44-.65-.44-1.06s.15-.77.44-1.06c.29-.29.64-.44,1.06-.44s.77.15,1.06.44ZM17,20H7v-2h4v-5h-7c-.28,0-.52-.1-.71-.29-.09-.09-.17-.2-.22-.33-.05-.12-.07-.25-.07-.38v-7c0-.28.1-.52.29-.71s.43-.29.71-.29h16c.28,0,.52.1.71.29s.29.43.29.71v7c0,.28-.1.52-.29.71s-.43.29-.71.29h-7v5h4v2ZM19,11v-5H5v5h14ZM4,18c-.55,0-1,.45-1,1s.45,1,1,1,1-.45,1-1-.45-1-1-1ZM20,18c-.55,0-1,.45-1,1s.45,1,1,1,1-.45,1-1-.45-1-1-1Z"/>
</svg>