<svg viewBox="0 0 24 24" xmlns="http://www.w3.org/2000/svg">
<path d="M20.5 13H18V18.5C18 18.776 17.776 19 17.5 19H15V18.5C15 16.567 13.433 15 11.5 15C9.567 15 8 16.567 8 18.5V19H5.5C5.224 19 5 18.776 5 18.5V15H5.5C7.433 15 9 13.433 9 11.5C9 9.567 7.433 8 5.5 8H5V6.5C5 6.224 5.224 6 5.5 6H10V3.5C10 2.671 10.672 2 11.5 2C12.328 2 13 2.671 13 3.5V6H17.5C17.776 6 18 6.224 18 6.5V10H20.5C21.328 10 22 10.671 22 11.5C22 12.329 21.328 13 20.5 13ZM20.5 8H20V6C20 4.896 19.104 4 18 4H15V3.5C15 1.567 13.433 0 11.5 0C9.567 0 8 1.567 8 3.5V4H5C3.896 4 3 4.896 3 6V7V9.078V10H5.5C6.328 10 7 10.671 7 11.5C7 12.329 6.328 13 5.5 13H3V13.922V17V19C3 20.104 3.896 21 5 21H7H9.078H10V18.5C10 17.672 10.672 17 11.5 17C12.328 17 13 17.672 13 18.5V21H13.922H17H18C19.104 21 20 20.104 20 19V15H20.5C22.433 15 24 13.433 24 11.5C24 9.567 22.433 8 20.5 8Z" />
</svg>
