<svg xmlns="http://www.w3.org/2000/svg" viewBox="0 0 24 24" fill="none">
  <path d="M5.05263 15.1579C5.05263 15.8279 4.78647 16.4705 4.31269 16.9443C3.83891 17.418 3.19634 17.6842 2.52632 17.6842C1.8563 17.6842 1.21372 17.418 0.739941 16.9443C0.266165 16.4705 0 15.8279 0 15.1579C0 14.4879 0.266165 13.8453 0.739941 13.3715C1.21372 12.8977 1.8563 12.6316 2.52632 12.6316H5.05263V15.1579ZM6.31579 15.1579C6.31579 14.4879 6.58195 13.8453 7.05573 13.3715C7.52951 12.8977 8.17208 12.6316 8.8421 12.6316C9.51213 12.6316 10.1547 12.8977 10.6285 13.3715C11.1023 13.8453 11.3684 14.4879 11.3684 15.1579V21.4737C11.3684 22.1437 11.1023 22.7863 10.6285 23.2601C10.1547 23.7338 9.51213 24 8.8421 24C8.17208 24 7.52951 23.7338 7.05573 23.2601C6.58195 22.7863 6.31579 22.1437 6.31579 21.4737V15.1579ZM8.8421 5.05263C8.17208 5.05263 7.52951 4.78647 7.05573 4.31269C6.58195 3.83891 6.31579 3.19634 6.31579 2.52632C6.31579 1.8563 6.58195 1.21372 7.05573 0.739941C7.52951 0.266165 8.17208 0 8.8421 0C9.51213 0 10.1547 0.266165 10.6285 0.739941C11.1023 1.21372 11.3684 1.8563 11.3684 2.52632V5.05263H8.8421ZM8.8421 6.31579C9.51213 6.31579 10.1547 6.58195 10.6285 7.05573C11.1023 7.52951 11.3684 8.17208 11.3684 8.8421C11.3684 9.51213 11.1023 10.1547 10.6285 10.6285C10.1547 11.1023 9.51213 11.3684 8.8421 11.3684H2.52632C1.8563 11.3684 1.21372 11.1023 0.739941 10.6285C0.266165 10.1547 0 9.51213 0 8.8421C0 8.17208 0.266165 7.52951 0.739941 7.05573C1.21372 6.58195 1.8563 6.31579 2.52632 6.31579H8.8421ZM18.9474 8.8421C18.9474 8.17208 19.2135 7.52951 19.6873 7.05573C20.1611 6.58195 20.8037 6.31579 21.4737 6.31579C22.1437 6.31579 22.7863 6.58195 23.2601 7.05573C23.7338 7.52951 24 8.17208 24 8.8421C24 9.51213 23.7338 10.1547 23.2601 10.6285C22.7863 11.1023 22.1437 11.3684 21.4737 11.3684H18.9474V8.8421ZM17.6842 8.8421C17.6842 9.51213 17.418 10.1547 16.9443 10.6285C16.4705 11.1023 15.8279 11.3684 15.1579 11.3684C14.4879 11.3684 13.8453 11.1023 13.3715 10.6285C12.8977 10.1547 12.6316 9.51213 12.6316 8.8421V2.52632C12.6316 1.8563 12.8977 1.21372 13.3715 0.739941C13.8453 0.266165 14.4879 0 15.1579 0C15.8279 0 16.4705 0.266165 16.9443 0.739941C17.418 1.21372 17.6842 1.8563 17.6842 2.52632V8.8421ZM15.1579 18.9474C15.8279 18.9474 16.4705 19.2135 16.9443 19.6873C17.418 20.1611 17.6842 20.8037 17.6842 21.4737C17.6842 22.1437 17.418 22.7863 16.9443 23.2601C16.4705 23.7338 15.8279 24 15.1579 24C14.4879 24 13.8453 23.7338 13.3715 23.2601C12.8977 22.7863 12.6316 22.1437 12.6316 21.4737V18.9474H15.1579ZM15.1579 17.6842C14.4879 17.6842 13.8453 17.418 13.3715 16.9443C12.8977 16.4705 12.6316 15.8279 12.6316 15.1579C12.6316 14.4879 12.8977 13.8453 13.3715 13.3715C13.8453 12.8977 14.4879 12.6316 15.1579 12.6316H21.4737C22.1437 12.6316 22.7863 12.8977 23.2601 13.3715C23.7338 13.8453 24 14.4879 24 15.1579C24 15.8279 23.7338 16.4705 23.2601 16.9443C22.7863 17.418 22.1437 17.6842 21.4737 17.6842H15.1579Z" fill="#59627B"/>
</svg>