<svg xmlns="http://www.w3.org/2000/svg" viewBox="0 0 24 24"><path d="M12 17c.283 0 .52-.096.713-.288A.968.968 0 0 0 13 16a.968.968 0 0 0-.287-.713A.968.968 0 0 0 12 15a.968.968 0 0 0-.713.287A.968.968 0 0 0 11 16c0 .283.096.52.287.712.192.192.43.288.713.288Zm-1-4h2V7h-2v6Zm1 9a9.738 9.738 0 0 1-3.9-.788 10.099 10.099 0 0 1-3.175-2.137c-.9-.9-1.612-1.958-2.137-3.175A9.738 9.738 0 0 1 2 12c0-1.383.263-2.683.788-3.9a10.099 10.099 0 0 1 2.137-3.175c.9-.9 1.958-1.612 3.175-2.137A9.738 9.738 0 0 1 12 2c1.383 0 2.683.263 3.9.788a10.098 10.098 0 0 1 3.175 2.137c.9.9 1.613 1.958 2.137 3.175A9.738 9.738 0 0 1 22 12a9.738 9.738 0 0 1-.788 3.9 10.098 10.098 0 0 1-2.137 3.175c-.9.9-1.958 1.613-3.175 2.137A9.738 9.738 0 0 1 12 22Z"/></svg>