
<svg xmlns="http://www.w3.org/2000/svg" viewBox="0 0 24 24">
  <path d="M13.42,5.02c-.53-.05-1.06.12-1.46.46-.41.34-.66.83-.71,1.36l-.25,2.89h2.82v2h-3l-.44,5.07c-.15,1.71-1.38,3.14-3.06,3.54-1.67.4-3.41-.32-4.32-1.78l1.5-1.5c.29.91,1.18,1.49,2.13,1.38.95-.11,1.69-.87,1.77-1.82l.42-4.89h-3v-2h3.18l.27-3.07c.15-1.72,1.38-3.15,3.06-3.55,1.68-.4,3.43.32,4.33,1.79l-1.5,1.5c-.25-.77-.93-1.31-1.74-1.38ZM11.99,20.45v-3.08l5.53-5.5c.28-.28.66-.44,1.05-.43.2,0,.39.04.58.11s.35.19.5.34l.93.93c.13.15.24.32.31.5s.11.37.11.55-.03.37-.1.56c-.07.19-.18.37-.33.51l-5.5,5.5h-3.08ZM18.57,14.85l.93-.98-.93-.93-.95.95.95.95h0Z"/>
</svg>