
<svg xmlns="http://www.w3.org/2000/svg" viewBox="0 0 24 24">

  <path d="M17.71,8.63l-.36-.36h0s-1.79-1.79-1.79-1.79h0s-.19-.19-.19-.19c-.37-.39-1.02-.39-1.41,0l-.08.08h0s-2.78,2.78-2.78,2.78h0S2.29,17.96,2.29,17.96c-.39.39-.39,1.04,0,1.41l2.34,2.34c.37.39,1.02.39,1.41,0l11.67-11.67c.39-.39.39-1.04,0-1.41ZM14.67,8.41l.92.92-1.85,1.85-.92-.92,1.85-1.85ZM21.6,3.5l1.4,2.5-2.5-1.4-2.5,1.4,1.4-2.5-1.4-2.5,2.5,1.4,2.5-1.4-1.4,2.5ZM23,13l-1.4,2.5,1.4,2.5-2.5-1.4-2.5,1.4,1.4-2.5-1.4-2.5,2.5,1.4,2.5-1.4ZM6,6l1.4-2.5-1.4-2.5,2.5,1.4,2.5-1.4-1.4,2.5,1.4,2.5-2.5-1.4-2.5,1.4Z"/>
</svg>