<svg width="24" height="24" fill="none" xmlns="http://www.w3.org/2000/svg">
  <path fill="#000" fill-rule="evenodd" clip-rule="evenodd" d="M11 0H9v2h2V0ZM6 22H4v2h2v-2ZM16 22h-2v2h2v-2ZM15 0h-2v2h2V0ZM10 22H8v2h2v-2ZM20 22h-2v2h2v-2ZM19 6h-2V4h2v2ZM24 16h-2v-2h2v2ZM19 10h-2V8h2v2ZM24 20h-2v-2h2v2ZM7 6H5V4h2v2ZM2 16H0v-2h2v2ZM7 10H5V8h2v2ZM2 20H0v-2h2v2ZM14.667 3H9.333C8.597 3 8 3.597 8 4.333v5.334C8 10.403 8.597 11 9.333 11h5.334C15.403 11 16 10.403 16 9.667V4.333C16 3.597 15.403 3 14.667 3ZM9.667 13H4.333C3.597 13 3 13.597 3 14.333v5.334C3 20.403 3.597 21 4.333 21h5.334c.736 0 1.333-.597 1.333-1.333v-5.334C11 13.597 10.403 13 9.667 13ZM19.667 13h-5.334c-.736 0-1.333.597-1.333 1.333v5.334c0 .736.597 1.333 1.333 1.333h5.334c.736 0 1.333-.597 1.333-1.333v-5.334c0-.736-.597-1.333-1.333-1.333Z"/>
</svg>