<svg width="24" height="24" fill="none" xmlns="http://www.w3.org/2000/svg">
  <path fill="#000" d="M9 1H7v3h2V1ZM13 1h-2v3h2V1ZM15 1h2v3h-2V1ZM9 23v-3H7v3h2ZM11 20h2v3h-2v-3ZM17 23v-3h-2v3h2ZM20 9h3V7h-3v2ZM23 13h-3v-2h3v2ZM20 17h3v-2h-3v2ZM4 9H1V7h3v2ZM1 13h3v-2H1v2ZM4 17H1v-2h3v2Z"/>
  <path fill="#000" fill-rule="evenodd" clip-rule="evenodd" d="M7.333 5h9.334A2.334 2.334 0 0 1 19 7.333v9.334A2.334 2.334 0 0 1 16.667 19H7.333A2.334 2.334 0 0 1 5 16.667V7.333A2.334 2.334 0 0 1 7.333 5ZM16 11l-5 7v-5H8l5-7v5h3Z"/>
</svg>