<svg width="24" height="24" fill="none" xmlns="http://www.w3.org/2000/svg">
  <path fill="#000" d="M9 1H7v3h2V1ZM13 1h-2v3h2V1ZM17 1h-2v3h2V1ZM9 20H7v3h2v-3ZM23 9h-3V7h3v2ZM4 9H1V7h3v2ZM4 13H1v-2h3v2ZM4 17H1v-2h3v2ZM7.333 5h9.334A2.334 2.334 0 0 1 19 7.333v1.919A8 8 0 0 0 9.252 19H7.333A2.334 2.334 0 0 1 5 16.667V7.333A2.334 2.334 0 0 1 7.333 5Z"/>
  <path fill="#000" fill-rule="evenodd" clip-rule="evenodd" d="M17 11c-3.309 0-6 2.693-6 6 0 3.308 2.691 6 6 6s6-2.692 6-6c0-3.307-2.691-6-6-6Zm.5 6.25 2.86 1.69-.75 1.22L16 18v-5h1.5v4.25Z"/>
</svg>