<svg xmlns="http://www.w3.org/2000/svg" width="24" height="24">
    <path d="M20 16a4 4 0 110 8 4 4 0 010-8zM3 14.223c0 2.455 4.027 4.444 9 4.444.752 0 1.483-.046 2.18-.132-.118.469-.18.96-.18 1.465 0 .647.102 1.27.292 1.854-.731.095-1.5.146-2.292.146-4.872 0-8.835-1.909-8.995-4.295L3 17.555v-3.332zm18-5.556V12c0 .72-.346 1.4-.962 2.001L20 14c-1.83 0-3.468.819-4.568 2.11a17.242 17.242 0 01-3.432.335c-4.872 0-8.835-1.91-8.995-4.296L3 12V8.668c0 2.455 4.027 4.445 9 4.445 4.872 0 8.835-1.91 8.995-4.296l.005-.15zM12 2c4.973 0 9 1.989 9 4.445 0 2.455-4.027 4.444-9 4.444s-9-1.99-9-4.444C3 3.989 7.027 2 12 2z"/>
</svg>
