<svg xmlns="http://www.w3.org/2000/svg" width="24" height="24">
    <path d="M20.996 12.04a6.5 6.5 0 0 0-1.058-1.279C20.614 10.137 21 9.424 21 8.666v3.333c0 .014-.004.027-.004.041zm-11.47.898a6.475 6.475 0 0 0-.488 3.255C6.85 15.816 5.048 15.037 4 14.03c-.636-.608-1-1.297-1-2.03V8.665c0 .733.364 1.422 1 2.031 1.126 1.08 3.117 1.902 5.526 2.24zm.221 5.582a6.511 6.511 0 0 0 4.427 3.345C13.476 21.95 12.751 22 12 22c-3.489 0-6.506-.982-8-2.415-.635-.608-1-1.297-1-2.03v-3.332c0 .732.365 1.421 1 2.03 1.16 1.113 3.24 1.948 5.747 2.267zM19.514 4C20.45 4.702 21 5.541 21 6.445c0 1.249-1.047 2.376-2.726 3.183a6.477 6.477 0 0 0-7.318 1.228C7.915 10.683 5.343 9.762 4 8.475c-.635-.609-1-1.298-1-2.03 0-.733.365-1.423 1-2.031.149-.143.309-.281.486-.414 1.608-1.203 4.364-1.998 7.502-2h.025c3.138.002 5.894.797 7.5 2zm-7.834 9.09a4.517 4.517 0 0 1 6.21-1.41C20 13 20.62 15.79 19.3 17.889L22.39 21 21 22.389 17.89 19.3a4.523 4.523 0 0 1-4.8 0c-2.09-1.3-2.73-4.1-1.41-6.21zm2.08 4.179a2.514 2.514 0 0 0 1.775.732c.638 0 1.276-.242 1.765-.732h-.03c.98-.969.99-2.549.03-3.539a2.504 2.504 0 0 0-3.531 0 2.507 2.507 0 0 0-.009 3.539z"/>
</svg>
