<svg xmlns="http://www.w3.org/2000/svg" width="24" height="24">
    <path d="M20 13v2h-1v1.638l4.768 5.722a1 1 0 01-.64 1.632L23 24H13a1.002 1.002 0 01-.844-1.536l.076-.104L17 16.638V15h-1v-2h4zm-6 3v1l.095-.001-3.4 4.08-.077.1-.075.103-.073.106c-.124.194-.223.4-.298.612H3.999a2.002 2.002 0 01-1.994-1.85L2 20v-4h12zm-4 2H5v2h5v-2zm12-9v2h-8v4H2V9h20zm-12 2H5v2h5v-2zm10-9c1.053 0 1.918.817 1.995 1.85L22 4v4H2V4c0-1.053.817-1.918 1.85-1.995L4 2h16zM10 4H5v2h5V4zm5 0a1 1 0 100 2 1 1 0 000-2zm3 0a1 1 0 100 2 1 1 0 000-2z"/>
</svg>
