<svg width="24" height="24" viewBox="0 0 24 24" fill="none" xmlns="http://www.w3.org/2000/svg">
<path d="M5.50005 7.30005C4.98338 7.30005 4.55005 7.12505 4.20005 6.77505C3.85005 6.42505 3.67505 6.00005 3.67505 5.50005C3.67505 4.98338 3.85005 4.55005 4.20005 4.20005C4.55005 3.85005 4.98338 3.67505 5.50005 3.67505C6.00005 3.67505 6.42505 3.85005 6.77505 4.20005C7.12505 4.55005 7.30005 4.98338 7.30005 5.50005C7.30005 6.00005 7.12505 6.42505 6.77505 6.77505C6.42505 7.12505 6.00005 7.30005 5.50005 7.30005ZM12 20.3251C11.5 20.3251 11.075 20.15 10.725 19.8C10.375 19.45 10.2 19.0167 10.2 18.5C10.2 18 10.3709 17.575 10.7125 17.225C11.0542 16.875 11.4834 16.7 12 16.7C12.5 16.7 12.925 16.875 13.275 17.225C13.625 17.575 13.8 18 13.8 18.5C13.8 19.0167 13.6292 19.45 13.2875 19.8C12.9459 20.15 12.5167 20.3251 12 20.3251ZM5.50005 20.3251C4.98338 20.3251 4.55005 20.15 4.20005 19.8C3.85005 19.45 3.67505 19.0167 3.67505 18.5C3.67505 18 3.85005 17.575 4.20005 17.225C4.55005 16.875 4.98338 16.7 5.50005 16.7C6.00005 16.7 6.42505 16.875 6.77505 17.225C7.12505 17.575 7.30005 18 7.30005 18.5C7.30005 19.0167 7.12505 19.45 6.77505 19.8C6.42505 20.15 6.00005 20.3251 5.50005 20.3251ZM5.50005 13.8C4.98338 13.8 4.55005 13.6292 4.20005 13.2875C3.85005 12.9459 3.67505 12.5167 3.67505 12C3.67505 11.5 3.85005 11.075 4.20005 10.725C4.55005 10.375 4.98338 10.2 5.50005 10.2C6.00005 10.2 6.42505 10.3709 6.77505 10.7125C7.12505 11.0542 7.30005 11.4834 7.30005 12C7.30005 12.5 7.12505 12.925 6.77505 13.275C6.42505 13.625 6.00005 13.8 5.50005 13.8ZM12 13.8C11.5 13.8 11.075 13.6292 10.725 13.2875C10.375 12.9459 10.2 12.5167 10.2 12C10.2 11.5 10.3709 11.075 10.7125 10.725C11.0542 10.375 11.4834 10.2 12 10.2C12.5 10.2 12.925 10.3709 13.275 10.7125C13.625 11.0542 13.8 11.4834 13.8 12C13.8 12.5 13.6292 12.925 13.2875 13.275C12.9459 13.625 12.5167 13.8 12 13.8ZM18.5 7.30005C18 7.30005 17.575 7.12505 17.225 6.77505C16.875 6.42505 16.7 6.00005 16.7 5.50005C16.7 4.98338 16.875 4.55005 17.225 4.20005C17.575 3.85005 18 3.67505 18.5 3.67505C19.0167 3.67505 19.45 3.85005 19.8 4.20005C20.15 4.55005 20.3251 4.98338 20.3251 5.50005C20.3251 6.00005 20.15 6.42505 19.8 6.77505C19.45 7.12505 19.0167 7.30005 18.5 7.30005ZM12 7.30005C11.5 7.30005 11.075 7.12505 10.725 6.77505C10.375 6.42505 10.2 6.00005 10.2 5.50005C10.2 4.98338 10.3709 4.55005 10.7125 4.20005C11.0542 3.85005 11.4834 3.67505 12 3.67505C12.5 3.67505 12.925 3.85005 13.275 4.20005C13.625 4.55005 13.8 4.98338 13.8 5.50005C13.8 6.00005 13.6292 6.42505 13.2875 6.77505C12.9459 7.12505 12.5167 7.30005 12 7.30005ZM18.5 13.8C18 13.8 17.575 13.6292 17.225 13.2875C16.875 12.9459 16.7 12.5167 16.7 12C16.7 11.5 16.875 11.075 17.225 10.725C17.575 10.375 18 10.2 18.5 10.2C19.0167 10.2 19.45 10.3709 19.8 10.7125C20.15 11.0542 20.3251 11.4834 20.3251 12C20.3251 12.5 20.15 12.925 19.8 13.275C19.45 13.625 19.0167 13.8 18.5 13.8Z" fill="#59627B"/>
<path d="M20.253 17.747L19 15L17.747 17.747L15 19L17.747 20.253L19 23L20.253 20.253L23 19L20.253 17.747Z" fill="#59627B"/>
</svg>
