<svg xmlns="http://www.w3.org/2000/svg" width="24" height="24">
    <path d="M17.749 9v4h-1.443V7h.987A5.499 5.499 0 0 0 6.71 7H6c-2.21 0-4 1.79-4 4s1.79 4 4 4h13c1.66 0 3-1.34 3-3s-1.34-3-3-3h-1.251zM9 17H6c-3.31 0-6-2.69-6-6a5.994 5.994 0 0 1 5.35-5.96A7.496 7.496 0 0 1 12 1a7.49 7.49 0 0 1 7.35 6.04C21.95 7.22 24 9.36 24 12c0 2.76-2.24 5-5 5h-6v1h1a1 1 0 0 1 1 1h7v2h-7a1 1 0 0 1-1 1h-4a1 1 0 0 1-1-1H2v-2h7a1 1 0 0 1 1-1h1v-1H9zm-.626-5.12l.35 1.12h1.553L8.06 7H6.7l-2.2 6h1.545l.346-1.12h1.983zm-1.636-1.118h1.29l-.648-2.08-.642 2.08zm5.423.202V13h-1.447V7h2.395c.458 0 .864.084 1.217.253.353.17.627.41.82.722.194.311.29.665.29 1.06 0 .586-.209 1.054-.628 1.404-.419.35-.993.525-1.724.525h-.923zm0-1.116h.948c.28 0 .493-.07.64-.21.147-.14.22-.339.22-.594 0-.28-.075-.504-.226-.672-.151-.167-.357-.252-.618-.255h-.964v1.73z"/>
</svg>
