<svg viewBox="0 0 24 24" xmlns="http://www.w3.org/2000/svg">
<path d="M12 1C15.5782 0.999191 18.6573 3.52946 19.35 7.04C21.95 7.22 24 9.36 24 12C24 14.76 21.76 17 19 17H13V18H14C14.5523 18 15 18.4477 15 19H22V21H15C15 21.5523 14.5523 22 14 22H10C9.44771 22 9 21.5523 9 21H2V19H9C9 18.4477 9.44771 18 10 18H11V17H6C2.69 17 4.11215e-08 14.31 4.11215e-08 11C-0.000355612 7.9386 2.30633 5.36892 5.35 5.04C6.6 2.64 9.11 1 12 1ZM8.06044 7H6.70055L4.5 13H6.04533L6.39148 11.8791H8.37363L8.7239 13H10.2775L8.06044 7ZM13.1085 7H10.7143V13H12.1607V10.9643H13.0838C13.8146 10.9643 14.3894 10.7892 14.8084 10.4389C15.2273 10.0886 15.4368 9.62088 15.4368 9.03571C15.4368 8.64011 15.34 8.2864 15.1463 7.97459C14.9526 7.66277 14.6793 7.42239 14.3262 7.25343C13.9732 7.08448 13.5673 7 13.1085 7ZM17.7486 7H16.3063V13H17.7486V7ZM7.38049 8.68132L8.02747 10.7624H6.73764L7.38049 8.68132ZM13.125 8.11676C13.386 8.11951 13.592 8.20467 13.7431 8.37225C13.8942 8.53984 13.9698 8.76373 13.9698 9.04396C13.9698 9.29945 13.8963 9.49725 13.7493 9.63736C13.6023 9.77747 13.3887 9.84753 13.1085 9.84753H12.1607V8.11676H13.125Z" />
</svg>
