<svg xmlns="http://www.w3.org/2000/svg" width="24" height="24">
    <path d="M9 17H6c-3.31 0-6-2.69-6-6a5.994 5.994 0 0 1 5.35-5.96A7.496 7.496 0 0 1 12 1a7.49 7.49 0 0 1 7.35 6.04C21.95 7.22 24 9.36 24 12c0 2.76-2.24 5-5 5h-6v1h1a1 1 0 0 1 1 1h7v2h-7a1 1 0 0 1-1 1h-4a1 1 0 0 1-1-1H2v-2h7a1 1 0 0 1 1-1h1v-1H9zm-.626-5.12l.35 1.12h1.553L8.06 7H6.7l-2.2 6h1.545l.346-1.12h1.983zm-1.636-1.118l.642-2.08.647 2.08h-1.29zm5.423.202h.923c.73 0 1.305-.175 1.724-.525.42-.35.629-.818.629-1.403 0-.396-.097-.75-.29-1.061a1.91 1.91 0 0 0-.82-.722A2.789 2.789 0 0 0 13.108 7h-2.395v6h1.447v-2.036zm0-1.116V8.117h.964c.261.003.467.088.618.255.151.168.227.392.227.672 0 .255-.074.453-.22.593-.148.14-.361.21-.641.21h-.948zM17.749 13V7h-1.443v6h1.443z"/>
</svg>
