<?xml version="1.0" encoding="UTF-8"?>
<svg id="a" data-name="Layer 14 copy" xmlns="http://www.w3.org/2000/svg" viewBox="0 0 24 24">
  <defs>
    <style>
      .b {
        fill: #000;
        fill-rule: evenodd;
        stroke-width: 0px;
      }
    </style>
  </defs>
  <path class="b" d="M8.8,5.85l-1.47-1.47,3.67-2.11c.32-.18.65-.27,1-.27s.68.09,1,.27l7,4.03c.32.18.56.42.74.72.17.3.26.63.26,1v7.95c0,.37-.09.7-.26,1-.1.17-.23.32-.37.45l-1.43-1.43.07-.04v-6.85l-4.4,2.55-1.46-1.46,4.79-2.77-5.92-3.42-3.2,1.85ZM21.54,21.54l-1.47,1.47-3.4-3.4-3.67,2.11c-.32.18-.65.28-1,.28s-.68-.09-1-.28l-7-4.02c-.32-.18-.56-.43-.74-.73s-.26-.63-.26-1v-7.95c0-.37.09-.7.26-1,.1-.17.23-.32.37-.45L1,3.94l1.47-1.47,2.99,2.99h0s1.47,1.47,1.47,1.47h0s2.34,2.35,2.34,2.35h0s3.72,3.72,3.72,3.72h0s4.07,4.07,4.07,4.07h0s1.47,1.47,1.47,1.47h0s3,3,3,3ZM11,13.94l-3.25-3.25-2.75-1.59v6.85l6,3.47v-5.48ZM15.21,18.15l-2.21-2.21v3.48l2.21-1.28Z"/>
</svg>