
<svg  xmlns="http://www.w3.org/2000/svg" viewBox="0 0 24 24">
  <path d="M5.62,4.17c1-.45,2.14-.76,3.38-.95v7.56c-1.24-.19-2.38-.5-3.38-.95-1.75-.79-2.63-1.73-2.63-2.83s.88-2.04,2.63-2.83ZM4.03,11.37c-.69-.51-1.03-1.13-1.03-1.86v2.5c0,.73.35,1.35,1.03,1.86.68.51,1.5.92,2.45,1.24.82.28,1.67.47,2.52.61v-2.5c-.86-.14-1.71-.34-2.52-.61-.95-.32-1.77-.73-2.45-1.24ZM4.03,16.37c-.69-.51-1.03-1.13-1.03-1.86v2.5c0,.73.35,1.35,1.03,1.86.68.51,1.5.92,2.45,1.24.81.27,1.65.47,2.52.61v-2.5c-.86-.14-1.71-.34-2.52-.61-.95-.32-1.76-.73-2.45-1.24ZM15,5h2v-2h-2v2ZM19,9h2v-2h-2v2ZM19,17h2v-2h-2v2ZM15,21h2v-2h-2v2ZM19,21c1.1,0,2-.9,2-2h-2v2ZM19,3v2h2c0-1.1-.9-2-2-2ZM19,13h2v-2h-2v2ZM11,22h2V2h-2v20Z"/>
</svg>