<svg xmlns="http://www.w3.org/2000/svg" viewBox="0 0 24 24"><path d="M12 11c2.5 0 4.63-.39 6.38-1.18 1.75-.79 2.63-1.73 2.63-2.83s-.88-2.04-2.63-2.83S14.5 2.98 12 2.98s-4.63.39-6.38 1.18c-1.75.79-2.63 1.73-2.63 2.83s.88 2.04 2.63 2.83S9.5 11 12 11Zm0 2.5c.68 0 1.54-.07 2.56-.21 1.02-.14 2.01-.37 2.96-.69.95-.32 1.77-.73 2.45-1.24.68-.51 1.03-1.13 1.03-1.86V12c0 .73-.34 1.35-1.03 1.86s-1.5.92-2.45 1.24c-.95.32-1.94.55-2.96.69-1.02.14-1.88.21-2.56.21-.68 0-1.54-.07-2.56-.21a16.14 16.14 0 0 1-2.96-.69c-.95-.32-1.77-.73-2.45-1.24C3.35 13.35 3 12.73 3 12V9.5c0 .73.34 1.35 1.03 1.86.68.51 1.5.92 2.45 1.24.95.32 1.94.55 2.96.69 1.02.14 1.88.21 2.56.21Zm0 5c.68 0 1.54-.07 2.56-.21 1.02-.14 2.01-.37 2.96-.69.95-.32 1.77-.73 2.45-1.24.68-.51 1.03-1.13 1.03-1.86V17c0 .73-.34 1.35-1.03 1.86s-1.5.92-2.45 1.24c-.95.32-1.94.55-2.96.69-1.03.14-1.88.21-2.56.21-.68 0-1.54-.07-2.56-.21-1.03-.14-2.01-.37-2.96-.69-.95-.32-1.77-.73-2.45-1.24C3.35 18.35 3 17.73 3 17v-2.5c0 .73.34 1.35 1.03 1.86s1.5.92 2.45 1.24c.95.32 1.94.55 2.96.69 1.02.14 1.88.21 2.56.21Z"/></svg>