<svg xmlns="http://www.w3.org/2000/svg" viewBox="0 0 24 24"><path d="m19 19.43-2.13 2.1-1.4-1.4 2.1-2.13-2.1-2.13 1.4-1.4 2.13 2.1 2.13-2.1 1.4 1.4-2.1 2.13 2.1 2.13-1.4 1.4-2.13-2.1ZM5.62 9.82c1.75.78 3.88 1.17 6.38 1.17s4.62-.39 6.38-1.17C20.14 9.04 21 8.1 21 6.99s-.88-2.04-2.62-2.83C16.63 3.38 14.5 2.99 12 2.99s-4.62.39-6.38 1.17C3.87 4.94 3 5.89 3 6.99s.88 2.04 2.62 2.83ZM21 9.5c0 .73-.34 1.35-1.02 1.86-.32.24-.67.45-1.04.64h.07c.69 0 1.34.12 1.96.33.02-.11.04-.22.04-.33V9.5H21Zm-7.98 8.96c-.37.03-.72.04-1.02.04-.68 0-1.54-.07-2.56-.21a16.141 16.141 0 0 1-2.96-.69c-.95-.32-1.77-.73-2.45-1.24C3.35 15.85 3 15.23 3 14.5V17c0 .73.34 1.35 1.03 1.86.68.51 1.5.92 2.45 1.24.95.32 1.94.55 2.96.69 1.03.14 1.88.21 2.56.21.49 0 1.07-.04 1.74-.11-.4-.73-.65-1.56-.72-2.43Zm-9-4.6c.68.51 1.5.92 2.45 1.24.95.32 1.94.55 2.96.69 1.03.14 1.88.21 2.56.21.4 0 .86-.03 1.38-.08a6.04 6.04 0 0 1 2.16-2.82c-.32.06-.64.13-.97.18-1.02.14-1.88.21-2.56.21-.68 0-1.54-.07-2.56-.21a16.141 16.141 0 0 1-2.96-.69c-.95-.32-1.77-.73-2.45-1.24C3.35 10.84 3 10.22 3 9.49v2.5c0 .73.34 1.35 1.03 1.86l-.01.01Z"/></svg>