
<svg xmlns="http://www.w3.org/2000/svg" viewBox="0 0 24 24">

  <path d="M24,14l-4.5-2-4.5,2v3c0,2.78,1.92,5.37,4.5,6,2.58-.63,4.5-3.22,4.5-6v-3ZM13,13.47v2.5c-.36.03-.7.04-1,.04-.68,0-1.54-.07-2.56-.21-1.01-.14-2-.37-2.96-.69-.95-.32-1.77-.73-2.45-1.24-.68-.51-1.03-1.13-1.03-1.86v-2.5c0,.73.34,1.35,1.03,1.86.68.51,1.5.92,2.45,1.24s1.94.55,2.96.69,1.88.21,2.56.21c.3,0,.64-.02,1-.04ZM13.98,20.87c-.77.09-1.43.14-1.98.14-.68,0-1.54-.07-2.56-.21-1.03-.14-2.01-.37-2.96-.69-.95-.32-1.77-.73-2.45-1.24-.68-.51-1.03-1.13-1.03-1.86v-2.5c0,.73.34,1.35,1.03,1.86.69.51,1.5.92,2.45,1.24s1.94.55,2.96.69,1.88.21,2.56.21c.34,0,.72-.02,1.14-.05.16.85.44,1.66.84,2.41ZM2.99,7c0-1.1.88-2.04,2.63-2.83s3.88-1.18,6.38-1.18,4.63.39,6.38,1.18,2.63,1.73,2.63,2.83-.88,2.04-2.63,2.83c-1.75.79-3.88,1.18-6.38,1.18s-4.63-.39-6.38-1.18c-1.75-.79-2.63-1.73-2.63-2.83Z"/>
</svg>