<svg xmlns="http://www.w3.org/2000/svg" viewBox="0 0 24 24"><path d="M19 12.52c-.43.23-.91.44-1.44.62-.53.18-1.08.34-1.67.46-.59.12-1.21.22-1.86.29-.65.07-1.33.1-2.03.1s-1.38-.03-2.05-.1c-.67-.07-1.3-.16-1.89-.29-.59-.13-1.15-.28-1.66-.46a9.07 9.07 0 0 1-1.4-.62V11H3v1c0 1.12.87 2.06 2.61 2.84C7.35 15.62 9.48 16 12 16s4.65-.39 6.39-1.16C20.13 14.07 21 13.12 21 12v-1h-2v1.52ZM5 12V9.52c.42.23.88.44 1.4.62.52.18 1.07.34 1.66.46.59.12 1.22.22 1.89.29.67.07 1.35.1 2.05.1s1.38-.03 2.03-.1c.65-.07 1.27-.16 1.86-.29.59-.13 1.15-.28 1.67-.46.53-.18 1-.39 1.44-.62V12h2V7c0-1.1-.88-2.04-2.64-2.83C16.6 3.39 14.48 3 12 3s-4.6.39-6.36 1.17C3.88 4.95 3 5.89 3 7v5h2Zm2.54-6.36C9 5.21 10.49 5 12 5s3 .22 4.49.65c1.49.43 2.33.89 2.51 1.38-.18.48-1.03.94-2.53 1.36-1.5.42-2.99.64-4.47.64s-3-.21-4.46-.62C6.08 7.99 5.24 7.53 5 7.03c.23-.5 1.08-.96 2.54-1.39ZM10 18c-.55 0-1 .45-1 1H2v2h7c0 .55.45 1 1 1h4c.55 0 1-.45 1-1h7v-2h-7c0-.55-.45-1-1-1h-1v-1h-2v1h-1Zm3-3h-2v3h2v-3Z" /></svg>