<svg width="24" height="24" viewBox="0 0 24 24" fill="none" xmlns="http://www.w3.org/2000/svg">
<path d="M5.62 9.83C7.37 10.61 9.5 11 12 11C14.5 11 16.62 10.61 18.38 9.83C20.14 9.05 21 8.11 21 7C21 5.89 20.12 4.96 18.38 4.17C16.63 3.39 14.5 3 12 3C9.5 3 7.38 3.39 5.62 4.17C3.87 4.95 3 5.9 3 7C3 8.1 3.88 9.04 5.62 9.83ZM21 9.51C21 10.24 20.66 10.86 19.98 11.37C19.66 11.61 19.31 11.82 18.94 12.01H19.01C19.7 12.01 20.35 12.13 20.97 12.34C20.99 12.23 21.01 12.12 21.01 12.01V9.51H21ZM13.02 18.47C12.65 18.5 12.3 18.51 12 18.51C11.32 18.51 10.46 18.44 9.44 18.3C8.43383 18.1636 7.44277 17.9326 6.48 17.61C5.53 17.29 4.71 16.88 4.03 16.37C3.35 15.86 3 15.24 3 14.51V17.01C3 17.74 3.34 18.36 4.03 18.87C4.71 19.38 5.53 19.79 6.48 20.11C7.43 20.43 8.42 20.66 9.44 20.8C10.47 20.94 11.32 21.01 12 21.01C12.49 21.01 13.07 20.97 13.74 20.9C13.34 20.17 13.09 19.34 13.02 18.47ZM4.02 13.87C4.7 14.38 5.52 14.79 6.47 15.11C7.42 15.43 8.41 15.66 9.43 15.8C10.46 15.94 11.31 16.01 11.99 16.01C12.39 16.01 12.85 15.98 13.37 15.93C13.7911 14.7947 14.5436 13.8122 15.53 13.11C15.21 13.17 14.89 13.24 14.56 13.29C13.54 13.43 12.68 13.5 12 13.5C11.32 13.5 10.46 13.43 9.44 13.29C8.43383 13.1536 7.44277 12.9226 6.48 12.6C5.53 12.28 4.71 11.87 4.03 11.36C3.35 10.85 3 10.23 3 9.5V12C3 12.73 3.34 13.35 4.03 13.86L4.02 13.87Z" fill="#59627B"/>
<path d="M23 15.11L17.9739 20.1216L15 17.1389L15.9739 16.1505L17.9739 18.1447L22.0087 14.1216L23 15.11Z" fill="#59627B"/>
</svg>
