<svg width="24" height="24" viewBox="0 0 24 24" fill="none" xmlns="http://www.w3.org/2000/svg">
<path d="M13.08 18.96C12.72 18.99 12.35 19 12 19C10.46 19 8.92999 18.78 7.44999 18.37C6.77999 18.18 6.22999 17.97 5.78999 17.73C5.34999 17.5 5.08999 17.26 4.99999 17.01V14.53C5.41999 14.76 5.87999 14.97 6.39999 15.15C6.91999 15.33 7.46999 15.49 8.05999 15.61C8.64999 15.73 9.27999 15.83 9.94999 15.9C10.62 15.97 11.3 16 12 16C12.47 16 12.92 15.96 13.37 15.93C13.67 15.12 14.13 14.39 14.72 13.79C14.48 13.82 14.26 13.87 14.02 13.9C13.37 13.97 12.69 14 11.99 14C11.29 14 10.61 13.97 9.93999 13.9C9.26999 13.83 8.63999 13.74 8.04999 13.61C7.45999 13.48 6.89999 13.33 6.38999 13.15C5.90999 12.98 5.43999 12.78 4.98999 12.53V9.53001C5.40999 9.76001 5.86999 9.97001 6.38999 10.15C6.90999 10.33 7.45999 10.49 8.04999 10.61C8.63999 10.73 9.26999 10.83 9.93999 10.9C10.61 10.97 11.29 11 11.99 11C12.69 11 13.37 10.97 14.02 10.9C14.67 10.83 15.29 10.74 15.88 10.61C16.47 10.48 17.03 10.33 17.55 10.15C18.08 9.97001 18.55 9.76001 18.99 9.53001V12.01C19.69 12.01 20.36 12.14 20.99 12.36V7.01001C20.99 5.91001 20.11 4.97001 18.35 4.18001C16.59 3.40001 14.47 3.01001 11.99 3.01001C9.50999 3.01001 7.38999 3.40001 5.62999 4.18001C3.86999 4.96001 2.98999 5.90001 2.98999 7.01001V17.01C2.98999 18.13 3.85999 19.07 5.59999 19.85C7.33999 20.63 9.46999 21.01 11.99 21.01C12.6 21.01 13.19 20.99 13.76 20.94C13.42 20.34 13.19 19.68 13.08 18.97V18.96ZM7.53999 5.64001C8.99999 5.21001 10.49 5.00001 12 5.00001C13.51 5.00001 15 5.22001 16.49 5.65001C17.98 6.08001 18.82 6.54001 19 7.03001C18.82 7.51001 17.97 7.97001 16.47 8.39001C14.97 8.81001 13.48 9.03001 12 9.03001C10.52 9.03001 8.99999 8.82001 7.53999 8.41001C6.07999 7.99001 5.23999 7.53001 4.99999 7.03001C5.22999 6.53001 6.07999 6.07001 7.53999 5.64001Z" fill="#59627B"/>
<path d="M22.9061 15.9695L17.88 20.9811L14.9061 17.9984L15.88 17.01L17.88 19.0042L21.9148 14.9811L22.9061 15.9695Z" fill="#59627B"/>
</svg>
