<svg id="a" data-name="Layer 1" xmlns="http://www.w3.org/2000/svg" viewBox="0 0 24 24">
  <path d="M11.91,12.53c.91-.19,1.58-.36,2-.5v.66c0,.79-.04,1.32-.13,1.6-.12.43-.39.79-.78,1.09-.54.39-1.1.59-1.7.59-.53,0-.97-.17-1.31-.5-.33-.31-.52-.74-.52-1.19,0-.47.22-.86.64-1.16.28-.19.88-.38,1.79-.58Z"/>
  <path fill-rule="evenodd" d="M12,23c6.08,0,11-4.92,11-11S18.08,1,12,1,1,5.93,1,12s4.93,11,11,11ZM6.52,8.81l2.99.54c.2-.58.47-.98.8-1.21.33-.24.78-.35,1.37-.35.87,0,1.46.14,1.77.41.31.27.47.72.47,1.35v.33c-.6.25-1.66.52-3.2.81-1.14.22-2.02.48-2.62.77-.6.29-1.07.71-1.41,1.27-.34.55-.5,1.17-.5,1.88,0,1.06.37,1.94,1.1,2.64.74.7,1.75,1.04,3.04,1.04.7,0,1.4-.14,2.05-.41.67-.29,1.28-.71,1.81-1.23.02.06.06.19.12.39.12.43.23.75.32.97h3.26c-.27-.53-.47-1.09-.6-1.66-.1-.52-.15-1.33-.15-2.43l.03-3.84c0-1.43-.15-2.41-.44-2.94-.29-.54-.79-.98-1.51-1.32-.72-.35-1.81-.53-3.28-.53-1.62,0-2.84.29-3.66.87-.82.58-1.4,1.47-1.73,2.67Z"/>
</svg>