<svg width="24" height="24" xmlns="http://www.w3.org/2000/svg">
<path d="M9.90356 8.20357L13.043 11.3016C13.3734 11.32 13.7102 11.3294 14.0521 11.3294C18.4437 11.3294 22 9.76863 22 7.84314V5.22902C22 7.15451 18.4437 8.7153 14.0521 8.7153C12.5314 8.7153 11.1109 8.52817 9.90356 8.20357ZM14.0521 13.0722C13.7067 13.0722 13.3666 13.0625 13.0329 13.0438L10.6863 15.3595C11.7082 15.5692 12.8488 15.6863 14.0521 15.6863C18.4437 15.6863 22 14.1263 22 12.2008V9.58667C22 11.5122 18.4437 13.0722 14.0521 13.0722ZM9.32479 16.7031L7.50935 18.4946C8.94308 19.4042 11.338 20 14.0521 20C18.4437 20 22 18.44 22 16.5145V13.9004C22 15.8259 18.4437 17.3859 14.0521 17.3859C12.2809 17.3859 10.6457 17.1322 9.32479 16.7031ZM6.10412 3.48628C6.10412 1.56 9.66038 0 14.0521 0C18.4437 0 22 1.56 22 3.48628C22 5.41177 18.4437 6.97177 14.0521 6.97177C9.66038 6.97177 6.10412 5.41177 6.10412 3.48628ZM3.83146 7.94577L5.54277 6.25702L11.5324 12.1676L5.54277 18.0783L3.83146 16.3895L6.90326 13.3582H0V10.9771H6.90326L3.83146 7.94577Z" fill="#000"/>
</svg>
