
<svg xmlns="http://www.w3.org/2000/svg" viewBox="0 0 24 24">
  <path  d="M13.24,18.95c-.42.03-.83.05-1.24.05h0c-.77,0-1.55-.06-2.35-.17s-1.54-.27-2.2-.46c-.66-.19-1.22-.41-1.66-.64-.44-.24-.71-.48-.79-.73v-2.48c.42.24.88.45,1.4.63.51.18,1.07.33,1.66.46s1.22.22,1.89.29,1.35.1,2.05.1c.34,0,.67,0,1-.02v-2c-.33.02-.66.02-1,.02-.7,0-1.38-.03-2.05-.1s-1.3-.17-1.89-.29-1.14-.28-1.66-.46c-.52-.19-.98-.4-1.4-.63v-3c.42.24.88.45,1.4.63.51.18,1.07.33,1.66.46.59.13,1.22.22,1.89.29s1.35.1,2.05.1,1.38-.03,2.03-.1c.65-.07,1.26-.17,1.86-.29s1.15-.27,1.68-.46c.53-.19,1.01-.4,1.44-.63v.5l.49-.22,1.5.67v-3.47c0-1.1-.88-2.04-2.64-2.83s-3.88-1.18-6.36-1.18-4.6.4-6.36,1.18c-1.76.79-2.64,1.73-2.64,2.83v10c0,1.12.87,2.06,2.61,2.84,1.74.77,3.87,1.16,6.39,1.16.7,0,1.36-.04,2-.1-.33-.62-.58-1.27-.75-1.96h-.01ZM7.55,5.64c1.46-.43,2.96-.64,4.46-.64s3,.21,4.49.65,2.33.9,2.51,1.38c-.19.48-1.03.93-2.53,1.36s-3,.64-4.48.64h.01c-1.51.01-3-.2-4.46-.62s-2.31-.88-2.54-1.38c.24-.5,1.08-.96,2.54-1.39ZM19.5,14.19l2.5,1.11v1.7c0,1.69-1.07,3.3-2.5,3.9-1.43-.6-2.5-2.21-2.5-3.9v-1.7l2.5-1.11M19.5,12l-4.5,2v3c0,2.78,1.92,5.37,4.5,6,2.58-.63,4.5-3.22,4.5-6v-3l-4.5-2h0Z"/>
</svg>