<svg xmlns="http://www.w3.org/2000/svg" viewBox="0 0 24 24"><path  d="M12 6.247A2.374 2.374 0 1 0 12 1.5a2.374 2.374 0 0 0 0 4.747ZM4.879 18.868a2.374 2.374 0 1 0 0-4.747 2.374 2.374 0 0 0 0 4.747Zm16.674-2.373a2.374 2.374 0 1 1-4.748 0 2.374 2.374 0 0 1 4.748 0ZM16.689 3.874a4.67 4.67 0 0 1-1.102 3.02l2.916 4.96a4.668 4.668 0 0 1 2.985.559L23 9.836l-3.532-6.08h-2.78l.002.117Zm-9.378 0v-.116H4.3L1 9.837l1.499 2.616a4.667 4.667 0 0 1 3.018-.605l2.887-4.964a4.67 4.67 0 0 1-1.093-3.01Zm.752 18.294-.902-1.575a4.701 4.701 0 0 0 2.216-2.767h5.304a4.7 4.7 0 0 0 2.06 2.676l-.978 1.666h-7.7Zm6.487-6.426H9.508a4.69 4.69 0 0 0-2.004-3.134l2.58-4.453A4.673 4.673 0 0 0 12 8.563c.685 0 1.336-.147 1.922-.41l2.617 4.466a4.69 4.69 0 0 0-1.99 3.123Z" /></svg>