<svg xmlns="http://www.w3.org/2000/svg" viewBox="0 0 24 24"><path d="M20 24c2.21 0 4-1.79 4-4s-1.79-4-4-4-4 1.79-4 4 1.79 4 4 4ZM5.62 9.82c1.75.78 3.88 1.17 6.38 1.17s4.62-.39 6.38-1.17C20.14 9.04 21 8.1 21 6.99s-.88-2.04-2.62-2.83C16.63 3.38 14.5 2.99 12 2.99s-4.62.39-6.38 1.17C3.87 4.94 3 5.89 3 6.99s.88 2.04 2.62 2.83Zm-1.6 4.04c.68.51 1.5.92 2.45 1.24.95.32 1.94.55 2.96.69 1.03.14 1.88.21 2.56.21s1.54-.07 2.56-.21c.5-.07.98-.16 1.46-.27 1-.88 2.28-1.44 3.7-1.5.08-.05.17-.1.25-.15.68-.51 1.02-1.13 1.02-1.86v-2.5c0 .73-.34 1.35-1.02 1.86-.68.51-1.5.92-2.45 1.24-.95.32-1.94.55-2.96.69-1.02.14-1.88.21-2.56.21s-1.54-.07-2.56-.21c-1.01-.14-2-.37-2.96-.69-.95-.32-1.77-.73-2.45-1.24-.68-.51-1.03-1.13-1.03-1.86v2.5c0 .73.34 1.35 1.03 1.86ZM14 20c0-.58.09-1.14.24-1.67-.88.11-1.63.17-2.24.17-.68 0-1.54-.07-2.56-.21-1.01-.14-2-.37-2.96-.69-.95-.32-1.77-.73-2.45-1.24C3.35 15.85 3 15.23 3 14.5V17c0 .73.34 1.35 1.03 1.86.68.51 1.5.92 2.45 1.24s1.94.55 2.96.69c1.03.14 1.88.21 2.56.21.57 0 1.26-.05 2.07-.15-.04-.28-.07-.56-.07-.85Z" /></svg>