<svg xmlns="http://www.w3.org/2000/svg" viewBox="0 0 24 24">
  <path d="M10.25 0C11.4926 1.28851e-07 12.5 1.00736 12.5 2.25C12.5 2.39674 12.4839 2.5398 12.457 2.67871L20.4717 7.39941C20.8348 7.14809 21.2749 7 21.75 7C22.9926 7 24 8.00737 24 9.25C24 10.4926 22.9926 11.5 21.75 11.5C21.6115 11.5 21.4763 11.4849 21.3447 11.4609L16.9004 19.8789C17.2732 20.3156 17.5 20.8808 17.5 21.5C17.5 22.8807 16.3807 24 15 24C13.712 24 12.6523 23.026 12.5156 21.7744L5.02441 20.4922C4.65756 20.9246 4.11145 21.2002 3.5 21.2002C2.39549 21.2002 1.5001 20.3047 1.5 19.2002C1.5 18.0956 2.39543 17.2002 3.5 17.2002C3.61456 17.2002 3.72664 17.211 3.83594 17.2295L5.52246 12.79L2.79883 10.1318C2.55394 10.2388 2.2843 10.2998 2 10.2998C0.89543 10.2998 0 9.40437 0 8.2998C9.8954e-05 7.19532 0.895491 6.2998 2 6.2998C2.38216 6.29982 2.73833 6.40877 3.04199 6.59473L8.07617 2.82324C8.02799 2.64004 8 2.44832 8 2.25C8 1.00736 9.00736 0 10.25 0ZM4.60547 17.5342C5.14432 17.8925 5.5 18.5046 5.5 19.2002C5.49998 19.3808 5.47362 19.5552 5.42871 19.7217L12.5635 20.9434C12.6375 20.6178 12.7755 20.3172 12.9629 20.0537L6.16797 13.4209L4.60547 17.5342ZM6.48828 12.5771L13.5469 19.4678C13.756 19.318 13.988 19.1981 14.2383 19.1182L12.6826 13.2744C12.5573 13.2904 12.4295 13.2998 12.2998 13.2998C10.643 13.2997 9.2998 11.9566 9.2998 10.2998C9.29981 10.2622 9.30038 10.2248 9.30176 10.1875L7.52441 9.84863L6.48828 12.5771ZM15.2988 10.333C15.2856 11.5564 14.5407 12.6032 13.4805 13.0576L15.0635 19.0029C15.4954 19.0137 15.8992 19.1337 16.25 19.3369L20.5674 11.1611C20.0543 10.843 19.6775 10.3266 19.5488 9.7168L15.2988 10.333ZM3.8125 9.13965C3.72718 9.32351 3.61488 9.4912 3.48047 9.63965L5.84277 11.9463L6.69922 9.69141L3.8125 9.13965ZM12.1465 3.45605C11.7471 4.08279 11.0483 4.5 10.25 4.5C10.0212 4.5 9.80077 4.46483 9.59277 4.40137L7.82324 9.06348L9.44727 9.37305C9.83787 8.17011 10.9667 7.29988 12.2998 7.2998C13.6838 7.2998 14.8452 8.23828 15.1914 9.5127L19.5322 8.88379C19.5846 8.5644 19.7012 8.26692 19.873 8.00781L12.1465 3.45605ZM3.65137 7.17285C3.87087 7.49383 3.99996 7.88161 4 8.2998C4 8.31051 3.99821 8.32136 3.99805 8.33203L6.99805 8.90527L8.85547 4.01367C8.69901 3.88979 8.56015 3.74556 8.44141 3.58496L3.65137 7.17285Z" />
</svg>
