
<svg  xmlns="http://www.w3.org/2000/svg" viewBox="0 0 24 24">
  <path d="M9,1h-2v3h2V1ZM13,1h-2v3h2V1ZM15,1h2v3h-2V1ZM9,23v-3h-2v3h2ZM11,20h2v3h-2v-3ZM17,23v-3h-2v3h2ZM20,9h3v-2h-3v2ZM23,13h-3v-2h3v2ZM20,17h3v-2h-3v2ZM4,9H1v-2h3v2ZM1,13h3v-2H1v2ZM4,17H1v-2h3v2ZM16.7,5H7.3c-1.3,0-2.3,1.1-2.3,2.3v9.3c0,1.3,1.1,2.3,2.3,2.3h9.3c1.3,0,2.3-1,2.3-2.3V7.3c0-1.3-1-2.3-2.3-2.3h.1ZM17,8.7v7.4c0,.5-.4.9-.9.9H7.9c-.5,0-.9-.4-.9-.9V7.9c0-.5.4-.9.9-.9h8.2c.5,0,.9.4.9.9v.8ZM9,1h-2v3h2V1ZM13,1h-2v3h2V1ZM15,1h2v3h-2V1ZM9,23v-3h-2v3h2ZM11,20h2v3h-2v-3ZM17,23v-3h-2v3h2ZM20,9h3v-2h-3v2ZM23,13h-3v-2h3v2ZM20,17h3v-2h-3v2ZM4,9H1v-2h3v2ZM1,13h3v-2H1v2ZM4,17H1v-2h3v2ZM16.7,5H7.3c-1.3,0-2.3,1.1-2.3,2.3v9.3c0,1.3,1.1,2.3,2.3,2.3h9.3c1.3,0,2.3-1,2.3-2.3V7.3c0-1.3-1-2.3-2.3-2.3h.1ZM17,8.7v7.4c0,.5-.4.9-.9.9H7.9c-.5,0-.9-.4-.9-.9V7.9c0-.5.4-.9.9-.9h8.2c.5,0,.9.4.9.9v.8ZM15,15h-4v-2h4v2Z"/>
</svg>