<svg xmlns="http://www.w3.org/2000/svg" viewBox="0 0 24 24"><path d="m23.98 18.17-3.81-.02v-1.38h1.08l-.03-.03c-.33-.31-.68-.54-1.05-.69s-.75-.23-1.13-.23c-.73 0-1.39.21-1.99.65-.6.44-.97 1.01-1.14 1.71h-1.9c.24-1.22.83-2.23 1.77-3.02s2.03-1.18 3.27-1.17c.62 0 1.22.12 1.83.36.61.24 1.16.61 1.66 1.12l.06.04v-1.12H24l-.02 3.75v.03Zm-1.76 4.66c-.94.79-2.03 1.18-3.27 1.17-.62 0-1.22-.12-1.82-.36-.63-.26-1.2-.64-1.67-1.12l-.06-.04v1.12H14l.02-3.75 3.81.02v1.38h-1.08l.03.03c.33.31.68.54 1.05.69s.75.23 1.13.23c.73 0 1.39-.21 1.99-.65.6-.44.97-1.01 1.14-1.71h1.9c-.24 1.22-.83 2.23-1.77 3.02v-.03ZM12.08 20H6V4h7v5h5v3.08c.33-.05.66-.08 1-.08s.67.03 1 .08V8l-6-6H6c-.55 0-1.02.2-1.41.59C4.2 2.98 4 3.45 4 4v16c0 .55.2 1.02.59 1.41.39.39.86.59 1.41.59h6.68c-.3-.62-.5-1.29-.6-2ZM8 16v2h4.08c.1-.71.31-1.38.6-2H8Zm0-2h6.11c.55-.54 1.19-.98 1.89-1.32V12H8v2Z" /></svg>