<svg xmlns="http://www.w3.org/2000/svg" viewBox="0 0 24 24"><path d="M22.89 14.88a1.99 1.99 0 0 0-.31-.5l-.92-.92c-.15-.15-.32-.26-.5-.34s-.38-.11-.58-.11c-.19 0-.39.03-.57.11s-.34.18-.48.32L14 18.94v3.08h3.08l5.5-5.5c.15-.15.26-.32.33-.51s.1-.38.1-.56-.04-.37-.11-.55v-.02Zm-6.44 5.62h-.95v-.95l3.05-3.02.47.45.45.48-3.03 3.05h.01ZM8 12h8v2H8v-2Zm4 8H6V4h7v5h5v3.12l.11-.11c.35-.35.77-.62 1.23-.79.21-.08.43-.13.66-.17V8l-6-6H6c-.55 0-1.02.2-1.41.59C4.2 2.98 4 3.45 4 4v16c0 .55.2 1.02.59 1.41.39.39.86.59 1.41.59h6v-2Zm-4-2h4.09l2.01-2H8v2Z" /></svg>