<svg xmlns="http://www.w3.org/2000/svg" viewBox="0 0 24 24"><path d="M16.5 19c.7 0 1.29-.24 1.78-.73s.73-1.08.73-1.78-.24-1.29-.73-1.78-1.08-.73-1.78-.73-1.29.24-1.78.73-.73 1.08-.73 1.78.24 1.29.73 1.78 1.08.73 1.78.73Zm5.1 4-2.7-2.7c-.35.23-.73.41-1.14.53s-.83.18-1.26.18c-1.25 0-2.31-.44-3.19-1.31-.88-.87-1.31-1.94-1.31-3.19s.44-2.31 1.31-3.19c.87-.88 1.94-1.31 3.19-1.31s2.31.44 3.19 1.31c.88.87 1.31 1.94 1.31 3.19 0 .43-.06.85-.18 1.26-.12.41-.29.79-.53 1.14l2.7 2.7-1.4 1.4h.01Zm-10.57-3H6V4h7v5h5v1.18c.72.17 1.39.46 2 .85V8l-6-6H6c-.55 0-1.02.2-1.41.59C4.2 2.98 4 3.45 4 4v16c0 .55.2 1.02.59 1.41.39.39.86.59 1.41.59h7.05c-.81-.51-1.5-1.19-2.02-2ZM8 14h2.5c.31-.75.76-1.42 1.32-2H8v2Zm0 4h2.18c-.11-.48-.18-.98-.18-1.5 0-.17.01-.33.03-.5H8v2Z" /></svg>