<svg xmlns="http://www.w3.org/2000/svg" viewBox="0 0 24 24"><path d="M16.5 19c.7 0 1.29-.24 1.78-.73s.73-1.08.73-1.78-.24-1.29-.73-1.78-1.08-.73-1.78-.73-1.29.24-1.78.73-.73 1.08-.73 1.78.24 1.29.73 1.78 1.08.73 1.78.73Zm5.1 4-2.7-2.7c-.35.23-.73.41-1.14.53s-.83.18-1.26.18c-1.25 0-2.31-.44-3.19-1.31-.88-.87-1.31-1.94-1.31-3.19s.44-2.31 1.31-3.19c.87-.88 1.94-1.31 3.19-1.31s2.31.44 3.19 1.31c.88.87 1.31 1.94 1.31 3.19 0 .43-.06.85-.18 1.26-.12.41-.29.79-.53 1.14l2.7 2.7-1.4 1.4h.01Zm-11.42-5H8v-2h2.03c.05-.7.21-1.38.47-2H8v-2h3.82a6.47 6.47 0 0 1 3.92-1.96c1.49-.18 3 .17 4.26.99V8l-6-6H6c-.55 0-1.02.2-1.41.59C4.2 2.98 4 3.45 4 4v16c0 .55.2 1.02.59 1.41.39.39.86.59 1.41.59h7.05a6.541 6.541 0 0 1-2.87-4ZM13 4l5 5h-5V4Z" /></svg>