<svg width="20" height="20" viewBox="0 0 20 20" fill="none" xmlns="http://www.w3.org/2000/svg">
<path d="M14.168 5.625C14.168 7.25833 13.1263 8.65 11.668 9.15833V18.5417H9.16797V15.2083H6.66797V12.7083H9.16797V9.15833C7.70964 8.65 6.66797 7.25833 6.66797 5.625C6.66797 3.54167 8.33464 1.875 10.418 1.875C12.5013 1.875 14.168 3.54167 14.168 5.625ZM11.668 5.625C11.668 5.29348 11.5363 4.97554 11.3019 4.74112C11.0674 4.5067 10.7495 4.375 10.418 4.375C10.0864 4.375 9.7685 4.5067 9.53408 4.74112C9.29966 4.97554 9.16797 5.29348 9.16797 5.625C9.16797 5.95652 9.29966 6.27446 9.53408 6.50888C9.7685 6.7433 10.0864 6.875 10.418 6.875C10.7495 6.875 11.0674 6.7433 11.3019 6.50888C11.5363 6.27446 11.668 5.95652 11.668 5.625Z" fill="#59627B"/>
</svg>
