<svg xmlns="http://www.w3.org/2000/svg" width="24" height="24">
    <path d="M15 3c2 0 3.644 1.472 3.939 3.39A5 5 0 0122 11c0 .745-.174 1.446-.467 2.081A5.98 5.98 0 0017 11a1 1 0 100 2c2.122 0 3.846 1.664 3.976 3.754a4.48 4.48 0 01-4.241 4.222c-.018.033-.046.059-.067.091a.985.985 0 00-.604.613c-.307.199-.669.32-1.064.32-1.103 0-2-.898-2-2a2.116 2.116 0 01.096-.58A1.997 1.997 0 0115 18a1 1 0 100-2c-.731 0-1.409.212-2 .556V10c0-1.103.897-2 2-2a1 1 0 100-2c-.731 0-1.409.212-2 .556V3.554A3.967 3.967 0 0115 3zM9 3c.732 0 1.409.211 2 .554v3.002A3.962 3.962 0 009 6a1 1 0 100 2c1.103 0 2 .897 2 2v6.556A3.962 3.962 0 009 16a1 1 0 100 2c.899 0 1.653.601 1.904 1.42A2.116 2.116 0 0111 20c0 1.102-.897 2-2 2-.395 0-.757-.121-1.064-.32a.985.985 0 00-.604-.613c-.021-.032-.049-.058-.067-.091a4.48 4.48 0 01-4.241-4.222C3.154 14.664 4.878 13 7 13a1 1 0 100-2 5.98 5.98 0 00-4.533 2.081A4.948 4.948 0 012 11a5 5 0 013.061-4.61A3.99 3.99 0 019 3z"/>
</svg>
