<svg width="20" height="20" viewBox="0 0 20 20" fill="none" xmlns="http://www.w3.org/2000/svg">
<path d="M9.16699 4.16797C10.0834 4.16815 10.8328 4.91757 10.833 5.83398V10.001H16.667C17.5835 10.0012 18.333 10.7514 18.333 11.668V15.001C18.333 15.9175 17.5835 16.6678 16.667 16.668H11.667C10.7503 16.668 10 15.9176 10 15.001V10.834H4.16699C3.25043 10.834 2.50018 10.0845 2.5 9.16797V5.83398C2.50018 4.91747 3.25043 4.16797 4.16699 4.16797H9.16699ZM11.667 15.001H16.667V11.668H11.667V15.001ZM4.16699 9.16797H9.16699V5.83398H4.16699V9.16797Z" fill="#59627B"/>
</svg>
