<svg xmlns="http://www.w3.org/2000/svg" viewBox="0 0 24 24"><path d="M21.8 18v-.6l1.1-1-1-1.8-1.4.5c-.2-.1-.4-.3-.5-.4l-.6-.3-.3-1.5h-2l-.3 1.5c-.2 0-.4.2-.6.3-.2 0-.4.2-.5.3l-1.4-.4-1 1.7 1.1 1v1.4l-1.1 1 1 1.7 1.4-.4c.2.1.4.2.5.3.2 0 .4.2.6.3l.3 1.5h2l.3-1.5c.2 0 .4-.2.6-.3.2 0 .4-.2.5-.3l1.4.5 1-1.7-1.1-1v-.6Zm-2.4 1.4c-.4.4-.9.6-1.4.6s-1-.2-1.4-.6c-.4-.4-.6-.9-.6-1.4s.2-1 .6-1.4c.4-.4.9-.6 1.4-.6s1 .2 1.4.6c.4.4.6.9.6 1.4s-.2 1-.6 1.4Zm-8.2.6c.2.7.5 1.4.9 2H12c-.5 0-1-.2-1.4-.6-.4-.4-.6-.9-.6-1.4h1.2Zm-.2-3v2H8v-2h3Zm7-6.1c-3.2 0-6 2.1-6.8 5.1H8.3c-1.2-.7-2.1-1.6-2.7-2.8s-1-2.4-1-3.8c0-2.1.7-3.8 2.2-5.3s3.2-2.2 5.3-2.2 3.8.7 5.3 2.2 2.2 3.2 2.2 5.3 0 1-.2 1.5c-.4 0-.9-.1-1.3-.1Z" /></svg>