<svg viewBox="0 0 24 24"  xmlns="http://www.w3.org/2000/svg">
<path d="M4 18C4.55 18 5 18.45 5 19C5 19.55 4.55 20 4 20C3.45 20 3 19.55 3 19C3 18.45 3.45 18 4 18ZM20 18C20.55 18 21 18.45 21 19C21 19.55 20.55 20 20 20C19.45 20 19 19.55 19 19C19 18.45 19.45 18 20 18ZM20.71 4.29C20.52 4.1 20.28 4 20 4H4C3.72 4 3.48 4.1 3.29 4.29C3.1 4.48 3 4.72 3 5V12C3 12.13 3.02 12.26 3.07 12.38C3.12 12.5 3.19 12.61 3.29 12.71C3.48 12.9 3.72 13 4 13H11V18H7V20H17V18H13V13H20C20.28 13 20.52 12.9 20.71 12.71C20.9 12.52 21 12.28 21 12V5C21 4.72 20.9 4.48 20.71 4.29ZM8.56 9.56C8.27 9.85 7.91 10 7.5 10C7.09 10 6.73 9.85 6.44 9.56C6.15 9.27 6 8.91 6 8.5C6 8.09 6.15 7.73 6.44 7.44C6.73 7.15 7.08 7 7.5 7C7.92 7 8.27 7.15 8.56 7.44C8.85 7.73 9 8.09 9 8.5C9 8.91 8.85 9.27 8.56 9.56Z" />
</svg>
