<svg xmlns="http://www.w3.org/2000/svg" viewBox="0 0 24 24">
  <path class="b" fill-rule="evenodd" d="M3,1c-1.1,0-2,.9-2,2v18c0,1.1.9,2,2,2h18c1.1,0,2-.9,2-2V3c0-1.1-.9-2-2-2H3ZM5.95,14v-4.76h.95v4.76h-.95ZM12.62,11.14h-.95v-.95h.95v.95ZM9.76,10.19v-.95h1.9v.95h-1.9ZM9.76,13.05h-.95v-2.86h.95v2.86ZM11.67,13.05v.95h-1.9v-.95h1.9ZM11.67,13.05v-.95h.95v.95h-.95ZM15.48,10.19h1.9v2.86h-1.9v-2.86ZM15.48,10.19h-.95v2.86h.95v.95h1.9v-.95h.95v-2.86h-.95v-.95h-1.9v.95ZM4,3c-.55,0-1,.45-1,1v16c0,.55.45,1,1,1h16c.55,0,1-.45,1-1V4c0-.55-.45-1-1-1H4Z"/>
</svg>