<svg xmlns="http://www.w3.org/2000/svg" viewBox="0 0 24 24"><path d="M22 18.9c.5-.8.7-1.7.8-2.6 0-.6-.1-1.2-.3-1.8-.2-.6-.6-1.1-1-1.5s-.9-.8-1.5-1c-.6-.2-1.2-.4-1.8-.4-1.2 0-2.5.5-3.3 1.4s-1.4 2.1-1.4 3.3.5 2.5 1.4 3.3S17 21 18.2 21s1.8-.3 2.6-.8l1.7 1.7 1.3-1.3-1.7-1.7Zm-1.2-2.1c-.1.6-.4 1.1-.8 1.5-.4.4-.9.7-1.5.8-.5.1-1.1 0-1.6-.2s-1-.6-1.3-1c-.3-.5-.5-1-.5-1.6s0-.7.2-1.1c.1-.3.3-.6.6-.9.2-.3.6-.5.9-.6.3-.2.7-.2 1.1-.2h.1c.6 0 1.1.2 1.6.5s.8.8 1 1.3c.2.5.3 1.1.2 1.6ZM3 12.4c0 1.9 1.4 3.4 3.2 3.5H11.3v.2c0 .6 0 1.2.2 1.8s-5.5 0-5.5 0c-2.8-.3-5-2.6-5-5.6S3.2 7 6.1 6.8c1.3-2.3 3.7-3.9 6.5-3.9s7 3 7.4 6.8c-.6-.2-1.2-.3-1.8-.3H18c-.5-2.6-2.7-4.5-5.3-4.5S8.9 6 8 7.7l-.5.9H6.4c-1.8.2-3.2 1.8-3.2 3.6Z" /></svg>