<svg xmlns="http://www.w3.org/2000/svg" viewBox="0 0 24 24"><path d="M6.489 7.853C6.125 7.637 5.894 7.5 5.35 7.5c-.55 0-.78.13-1.15.36l-.03.017C3.705 8.145 3.088 8.5 2 8.5v-2c.56 0 .78-.13 1.15-.36.45-.27 1.07-.64 2.18-.64s1.73.37 2.18.64l.01.006c.364.217.595.354 1.14.354.56 0 .78-.13 1.15-.36.45-.27 1.07-.64 2.18-.64s1.73.37 2.18.64l.01.007c.365.216.596.353 1.14.353.55 0 .78-.13 1.15-.36.45-.27 1.07-.64 2.18-.64s1.73.37 2.18.64l.01.006c.364.217.595.354 1.14.354v2c-1.1-.01-1.71-.37-2.16-.64l-.01-.007c-.365-.216-.596-.353-1.14-.353-.56 0-.78.13-1.15.36-.45.27-1.07.64-2.18.64s-1.73-.37-2.18-.64l-.01-.006c-.364-.217-.595-.354-1.14-.354-.56 0-.78.13-1.15.36-.45.27-1.07.64-2.18.64s-1.73-.37-2.18-.64l-.011-.007Zm0 5c-.364-.216-.595-.353-1.139-.353-.55 0-.78.13-1.15.36l-.03.017c-.466.268-1.083.623-2.17.623v-2c.56 0 .78-.13 1.15-.36.45-.27 1.07-.64 2.18-.64s1.73.37 2.18.64l.01.006c.364.217.595.354 1.14.354.56 0 .78-.13 1.15-.36.45-.27 1.07-.64 2.18-.64s1.73.37 2.18.64l.01.007c.365.216.596.353 1.14.353.55 0 .78-.13 1.15-.36.45-.27 1.07-.64 2.18-.64s1.73.37 2.18.64l.01.006c.364.217.595.354 1.14.354v2c-1.1-.01-1.71-.37-2.16-.64l-.01-.007c-.365-.216-.596-.353-1.14-.353-.56 0-.78.13-1.15.36-.45.27-1.07.64-2.18.64s-1.73-.37-2.18-.64l-.01-.006c-.364-.217-.595-.354-1.14-.354-.56 0-.78.13-1.15.36-.45.27-1.07.64-2.18.64s-1.73-.37-2.18-.64l-.011-.007ZM5.35 17.5c.544 0 .775.137 1.139.353l.011.007c.45.27 1.07.64 2.18.64s1.73-.37 2.18-.64c.37-.23.59-.36 1.15-.36.545 0 .776.137 1.14.354l.01.006c.45.27 1.07.64 2.18.64s1.73-.37 2.18-.64c.37-.23.59-.36 1.15-.36.544 0 .775.137 1.14.353l.01.007c.45.27 1.06.63 2.16.64v-2c-.545 0-.776-.137-1.14-.354l-.01-.006c-.45-.27-1.07-.64-2.18-.64s-1.73.37-2.18.64c-.37.23-.6.36-1.15.36-.544 0-.775-.137-1.14-.353l-.01-.007c-.45-.27-1.07-.64-2.18-.64s-1.73.37-2.18.64c-.37.23-.59.36-1.15.36-.545 0-.776-.137-1.14-.354l-.01-.006c-.45-.27-1.07-.64-2.18-.64s-1.73.37-2.18.64c-.37.23-.59.36-1.15.36v2c1.087 0 1.704-.355 2.17-.623l.03-.017c.37-.23.6-.36 1.15-.36Z" /></svg>