<svg width="24" height="24" viewBox="0 0 24 24" fill="none" xmlns="http://www.w3.org/2000/svg">
<path d="M11.6483 2L12.3098 2.6308C12.3914 2.70877 12.4732 2.78669 12.5549 2.86462C12.9634 3.25416 13.3719 3.64369 13.7755 4.03857C16.9142 7.10797 19.5714 10.562 21.5714 14.5376C21.669 14.7303 21.7576 14.9286 21.8458 15.1258L21.86 15.1576L22 15.47L21.8457 15.5577L21.73 15.3807L21.43 14.9207L21.22 14.5915C19.7642 12.316 18.3056 10.0374 16.3027 8.21419C15.6967 7.6617 15.028 7.19434 14.3127 6.82334C12.8641 6.07715 11.5755 6.37563 10.4697 7.60031C9.41826 8.76499 8.87254 10.2112 8.37967 11.6821C8.31539 11.8713 8.24826 12.0589 8.18114 12.2466L8.18109 12.2467L8.06394 12.5775L7.81822 12.4929C7.96108 11.9575 8.09252 11.419 8.22395 10.879C8.52395 9.65581 8.82396 8.43266 9.24112 7.25414C9.67943 6.01158 10.2325 4.81273 10.7854 3.61433L10.8026 3.57701C11.044 3.05237 11.2855 2.52772 11.5169 2H11.6483Z" fill="#59627B"/>
<path d="M12.6398 17.1116L12.6357 17.1137L12.3098 17.1562C12.1126 17.1839 11.9612 17.2039 11.8069 17.2162C11.439 17.2473 11.0712 17.2879 10.7024 17.3286L10.7022 17.3286C10.6514 17.3343 10.6006 17.3399 10.5497 17.3455C9.58398 17.4547 8.61682 17.5624 7.65965 17.5209C5.6696 17.4332 4.47814 16.03 4.49243 13.9684C4.50874 13.0916 4.61803 12.2198 4.81815 11.3697C5.37388 8.90192 6.45819 6.64949 7.54393 4.40013L7.63822 4.20166C7.7091 4.04886 7.77485 3.89336 7.83537 3.73548L7.97109 3.40008C5.87103 5.15402 1.59521 16.7331 2.03094 19.204C4.69517 19.5177 10.3103 18.2977 12.6357 17.1137L12.6398 17.1131V17.1116Z" fill="#59627B"/>
<path d="M4.13097 21.8303C4.76384 21.7688 5.39957 21.7165 6.0353 21.6642L6.09051 21.6596C7.56361 21.5381 9.03782 21.4164 10.4911 21.1672C12.0383 20.8995 13.6026 20.4518 15.0341 19.7948C17.2113 18.7979 17.8142 16.9085 16.7027 14.7238C16.2627 13.8622 15.6784 13.0791 15.0941 12.296C14.8384 11.9544 14.5841 11.6128 14.3412 11.2651L14.2726 11.1728L14.2718 11.1717C14.1906 11.0644 14.1082 10.9554 14.0712 10.8051C16.9027 13.1606 19.3385 15.87 21.1457 19.301C15.6027 21.4042 9.98397 22.4304 4.13097 21.8303Z" fill="#59627B"/>
</svg>
