<svg width="24" height="24" viewBox="0 0 24 24" fill="none" xmlns="http://www.w3.org/2000/svg">
<path d="M14.5036 20.3876L11.003 22V21.9233C5.34372 21.4199 1 18.38 1 14.9533C1 11.5266 5.07719 8.67147 10.4787 8.04016V10.0905C6.93178 10.682 4.32666 12.6356 4.32666 14.9533V14.9561C4.32666 17.3875 7.18961 19.4179 11.003 19.8957V3.6124L14.5036 2V20.3876Z" fill="#59627B"/>
<path d="M22.5393 8.93594L23 13.6423L16.6944 12.3086L18.4852 11.2735C17.5203 10.7275 16.3409 10.3152 15.0311 10.0933V8.04016C17.2827 8.31032 19.2995 8.96722 20.8875 9.88859L22.5393 8.93594Z" fill="#59627B"/>
</svg>
