<svg viewBox="0 0 24 25" xmlns="http://www.w3.org/2000/svg">
<path d="M7 17.5H9V12.5H7V17.5ZM15 17.5H17V7.5H15V17.5ZM11 17.5H13V14.5H11V17.5ZM11 12.5H13V10.5H11V12.5ZM5 21.5C4.45 21.5 3.97917 21.3042 3.5875 20.9125C3.19583 20.5208 3 20.05 3 19.5V5.5C3 4.95 3.19583 4.47917 3.5875 4.0875C3.97917 3.69583 4.45 3.5 5 3.5H19C19.55 3.5 20.0208 3.69583 20.4125 4.0875C20.8042 4.47917 21 4.95 21 5.5V19.5C21 20.05 20.8042 20.5208 20.4125 20.9125C20.0208 21.3042 19.55 21.5 19 21.5H5ZM5 19.5H19V5.5H5V19.5Z" />
</svg>
