<?xml version="1.0" encoding="UTF-8"?>
<svg id="a" data-name="Layer 1" xmlns="http://www.w3.org/2000/svg" viewBox="0 0 24 24">
  <defs>
    <style>
      .b {
        fill: #000;
        stroke-width: 0px;
      }
    </style>
  </defs>
  <path class="b" d="M9,12c-1.1,0-2.04-.39-2.83-1.18s-1.18-1.73-1.18-2.83.39-2.04,1.18-2.83,1.73-1.18,2.83-1.18,2.04.39,2.83,1.18,1.18,1.73,1.18,2.83-.39,2.04-1.18,2.83-1.73,1.18-2.83,1.18ZM1,20v-2.8c0-.57.15-1.09.44-1.56s.68-.84,1.16-1.09c1.03-.52,2.08-.9,3.15-1.16s2.15-.39,3.25-.39,2.18.13,3.25.39,2.12.65,3.15,1.16c.48.25.87.61,1.16,1.09.29.48.44,1,.44,1.56v2.8H1ZM23.99,7.35l-1.12,1c.03.25.05.46.05.64s-.02.39-.05.64l1.12,1-1,1.72-1.45-.47c-.17.13-.34.25-.51.35s-.36.19-.56.28l-.3,1.5h-2l-.3-1.5c-.2-.08-.39-.17-.56-.28-.17-.1-.35-.22-.51-.35l-1.45.5-1-1.73,1.12-1c-.03-.25-.05-.46-.05-.64s.02-.39.05-.64l-1.12-1,1-1.73,1.45.5c.17-.13.34-.25.51-.36s.36-.2.56-.29l.3-1.5h2l.3,1.5c.39.15.75.36,1.07.62l1.45-.5,1,1.72s0,.02,0,.02ZM21.16,9c0-.55-.2-1.02-.59-1.41s-.86-.59-1.41-.59-1.02.2-1.41.59c-.39.39-.59.86-.59,1.41s.2,1.02.59,1.41.86.59,1.41.59,1.02-.2,1.41-.59.59-.86.59-1.41Z"/>
</svg>