<svg viewBox="0 0 24 24" xmlns="http://www.w3.org/2000/svg">
<path  d="M11.5 0C13.433 0 15 1.567 15 3.5V4H18C19.104 4 20 4.896 20 6V8H20.5C22.433 8 24 9.567 24 11.5C24 13.433 22.433 15 20.5 15H20V19C20 20.104 19.104 21 18 21H13V18.5C13 17.672 12.328 17 11.5 17C10.672 17 10 17.672 10 18.5V21H5C3.896 21 3 20.104 3 19V13H5.5C6.328 13 7 12.329 7 11.5C7 10.671 6.328 10 5.5 10H3V6C3 5.57 3.139 5.174 3.37 4.848L5.003 6.482C5.003 6.488 5 6.494 5 6.5V8H5.5C7.433 8 9 9.567 9 11.5C9 13.433 7.433 15 5.5 15H5V18.5C5 18.776 5.224 19 5.5 19H8V18.5C8 16.567 9.567 15 11.5 15C13.433 15 15 16.567 15 18.5V19H17.5C17.776 19 18 18.776 18 18.5V13H20.5C21.328 13 22 12.329 22 11.5C22 10.671 21.328 10 20.5 10H18V6.5C18 6.224 17.776 6 17.5 6H13V3.5C13 2.671 12.328 2 11.5 2C10.822 2 10.255 2.453 10.07 3.071L8.578 1.58C9.204 0.629 10.277 0 11.5 0ZM4.17 0.0002L14 9.8302V7.0002H16V13.2402H10V11.2402H12.59L2.76 1.4102L4.17 0.0002Z" />
</svg>
