<svg viewBox="0 0 24 24" xmlns="http://www.w3.org/2000/svg">
<path  d="M11.5 0C12.8807 0 14 1.11929 14 2.5V4H18C19.1 4 20 4.9 20 6V10H21.5C22.8807 10 24 11.1193 24 12.5C24 13.8807 22.8807 15 21.5 15H20V19C20 20.1 19.1 21 18 21H14.2V19.5C14.2 18.0088 12.9912 16.8 11.5 16.8C10.0088 16.8 8.8 18.0088 8.8 19.5V21H5C3.9 21 3 20.1 3 19V15.2H4.5C5.99 15.2 7.2 13.99 7.2 12.5C7.2 11.01 5.99 9.8 4.5 9.8H3.01V6C3.01 4.9 3.9 4 5 4H5.591L13.59 12H10V14H17V6.9998H15V10.59L8.411 4H9V2.5C9 1.11929 10.1193 0 11.5 0Z" />
</svg>
