<svg xmlns="http://www.w3.org/2000/svg" width="24" height="24">
    <path d="M20.5 8a3.5 3.5 0 1 1 0 7H20v4a2 2 0 0 1-2 2H13v-2.5a1.5 1.5 0 0 0-3 0V21H5a2 2 0 0 1-2-2V13h2.5a1.5 1.5 0 1 0 0-3H3V6c0-.43.139-.826.37-1.152l1.633 1.634L5 6.5V8h.5a3.5 3.5 0 1 1 0 7H5v3.5a.5.5 0 0 0 .5.5H8v-.5a3.5 3.5 0 1 1 7 0v.5h2.5a.5.5 0 0 0 .5-.5V13h2.5a1.5 1.5 0 1 0 0-3H18V6.5a.5.5 0 0 0-.5-.5H13V3.5a1.495 1.495 0 1 0-2.93-.429L8.578 1.58A3.492 3.492 0 0 1 11.5 0 3.5 3.5 0 0 1 15 3.5V4h3a2 2 0 0 1 2 2v2h.5zM10 13.24v-2h2.59L2.76 1.41 4.17 0 14 9.83V7h2v6.24h-6z"/>
</svg>
