<svg width="20" height="20" viewBox="0 0 20 20" fill="none" xmlns="http://www.w3.org/2000/svg">
<g clip-path="url(#clip0_20997_35568)">
<path d="M2.5 11.667C1.58344 11.667 0.833185 12.4165 0.833008 13.333V16.667C0.833185 17.5835 1.58344 18.333 2.5 18.333C2.33696 18.333 2.4306 18.333 7.5 18.333C8.41656 18.333 9.16681 17.5835 9.16699 16.667V13.333C9.16681 12.4165 8.41656 11.667 7.5 11.667H5.83301V9.16699H7.5C8.41667 9.16699 9.16699 8.41667 9.16699 7.5V6.66699H11.667V7.5C11.667 8.41656 12.4165 9.16681 13.333 9.16699C13.1704 9.16699 13.2673 9.16699 18.333 9.16699C19.2497 9.16699 20 8.41667 20 7.5V4.16699C20 3.25033 19.2497 2.5 18.333 2.5H13.333C12.4165 2.50018 11.667 3.25043 11.667 4.16699V5H9.16699V4.16699C9.16699 3.25033 8.41667 2.5 7.5 2.5H2.5C1.58333 2.5 0.833008 3.25033 0.833008 4.16699V7.5C0.833008 8.41667 1.58333 9.16699 2.5 9.16699H4.16699V11.667H2.5ZM7.5 16.667H2.5V13.333H7.5V16.667ZM18.333 7.5H13.333V4.16699H18.333V7.5ZM7.5 7.5H2.5V4.16699H7.5V7.5Z" fill="#59627B"/>
</g>
<defs>
<clipPath id="clip0_20997_35568">
<rect width="20" height="20" fill="white"/>
</clipPath>
</defs>
</svg>
