<svg xmlns="http://www.w3.org/2000/svg" viewBox="0 0 24 24"><path d="M4 12h14.12c.35-.35.76-.61 1.22-.78.54-.2 1.1-.24 1.65-.18V4c0-.28-.1-.52-.29-.71a.973.973 0 0 0-.71-.29H4c-.28 0-.52.1-.71.29C3.1 3.48 3 3.72 3 4v7c0 .28.1.52.29.71.19.19.43.29.71.29Zm2.44-5.56C6.73 6.15 7.09 6 7.5 6c.41 0 .77.15 1.06.44.29.29.44.65.44 1.06 0 .41-.15.77-.44 1.06-.29.29-.65.44-1.06.44-.41 0-.77-.15-1.06-.44C6.15 8.27 6 7.91 6 7.5c0-.41.15-.77.44-1.06ZM12 18.09 17.12 13H4c-.28 0-.52.1-.71.29-.19.19-.29.43-.29.71v7c0 .28.1.52.29.71.19.19.43.29.71.29h8v-3.91ZM7.5 19c-.42 0-.77-.15-1.06-.44-.29-.29-.44-.65-.44-1.06 0-.41.15-.77.44-1.06.29-.29.65-.44 1.06-.44.41 0 .77.15 1.06.44.29.29.44.65.44 1.06 0 .41-.15.77-.44 1.06-.29.29-.65.44-1.06.44Zm6.5 3v-3.08l5.53-5.5a1.452 1.452 0 0 1 1.05-.43c.2 0 .39.04.58.11.19.07.35.19.5.34l.93.93c.13.15.24.32.31.5s.11.37.11.55c0 .18-.03.37-.1.56a1.4 1.4 0 0 1-.33.51l-5.5 5.5H14V22Zm6.58-5.6.93-.98-.93-.93-.95.95.95.95v.01Z"/></svg>