
<svg xmlns="http://www.w3.org/2000/svg" viewBox="0 0 24 24">
  <path d="M16.5,19c.7,0,1.29-.24,1.78-.73s.73-1.08.73-1.78-.24-1.29-.73-1.78-1.08-.73-1.78-.73-1.29.24-1.78.73-.73,1.08-.73,1.78.24,1.29.73,1.78,1.08.73,1.78.73ZM21.6,23l-2.7-2.7c-.35.23-.73.41-1.14.53s-.83.18-1.26.18c-1.25,0-2.31-.44-3.19-1.31-.88-.87-1.31-1.94-1.31-3.19s.44-2.31,1.31-3.19c.87-.88,1.94-1.31,3.19-1.31s2.31.44,3.19,1.31c.88.87,1.31,1.94,1.31,3.19,0,.43-.06.85-.18,1.26s-.29.79-.53,1.14l2.7,2.7-1.4,1.4h.01ZM4,12h7.82c1.18-1.23,2.84-2,4.68-2,1.64,0,3.13.61,4.28,1.61.14-.17.22-.39.22-.61v-7c0-.28-.1-.52-.29-.71-.19-.19-.44-.29-.71-.29H4c-.28,0-.52.1-.71.29s-.29.43-.29.71v7c0,.28.1.52.29.71s.43.29.71.29ZM6.44,6.44c.29-.29.65-.44,1.06-.44s.77.15,1.06.44c.29.29.44.65.44,1.06s-.15.77-.44,1.06c-.29.29-.65.44-1.06.44s-.77-.15-1.06-.44c-.29-.29-.44-.65-.44-1.06s.15-.77.44-1.06ZM10,16.5c0-1.29.38-2.49,1.03-3.5h-7.03c-.28,0-.52.1-.71.29s-.29.43-.29.71v7c0,.28.1.52.29.71.19.19.43.29.71.29h9.05c-1.9-1.18-3.05-3.26-3.05-5.5ZM8.56,18.56c-.29.29-.65.44-1.06.44s-.77-.15-1.06-.44-.44-.65-.44-1.06.15-.77.44-1.06c.29-.29.65-.44,1.06-.44s.77.15,1.06.44.44.65.44,1.06-.15.77-.44,1.06Z"/>
</svg>