
<svg xmlns="http://www.w3.org/2000/svg" viewBox="0 0 24 24">
  <path  d="M7.5,6c-.42,0-.77.15-1.06.44-.29.29-.44.65-.44,1.06s.15.77.44,1.06c.29.29.65.44,1.06.44s.77-.15,1.06-.44.44-.65.44-1.06-.15-.77-.44-1.06-.65-.44-1.06-.44ZM7.5,16c-.42,0-.77.15-1.06.44-.29.29-.44.65-.44,1.06s.15.77.44,1.06c.29.29.65.44,1.06.44s.77-.15,1.06-.44.44-.65.44-1.06-.15-.77-.44-1.06-.65-.44-1.06-.44ZM4,3h16c.28,0,.52.1.71.29s.29.43.29.71v7c0,.28-.1.52-.29.71s-.43.29-.71.29H4c-.28,0-.52-.1-.71-.29-.19-.19-.29-.43-.29-.71V4c0-.28.1-.52.29-.71.19-.19.43-.29.71-.29ZM4,13h16c.28,0,.52.1.71.29s.29.43.29.71v7c0,.28-.1.52-.29.71s-.43.29-.71.29H4c-.28,0-.52-.1-.71-.29-.19-.19-.29-.43-.29-.71v-7c0-.28.1-.52.29-.71.19-.19.43-.29.71-.29Z"/>
</svg>