<svg xmlns="http://www.w3.org/2000/svg" viewBox="0 0 24 24"><path d="M7.5 6c-.42 0-.77.15-1.06.44-.29.29-.44.65-.44 1.06 0 .41.15.77.44 1.06.29.29.65.44 1.06.44.41 0 .77-.15 1.06-.44.29-.29.44-.65.44-1.06 0-.41-.15-.77-.44-1.06C8.27 6.15 7.91 6 7.5 6Zm0 10c-.42 0-.77.15-1.06.44-.29.29-.44.65-.44 1.06 0 .41.15.77.44 1.06.29.29.65.44 1.06.44.41 0 .77-.15 1.06-.44.29-.29.44-.65.44-1.06 0-.41-.15-.77-.44-1.06-.29-.29-.65-.44-1.06-.44ZM4 3h16c.28 0 .52.1.71.29.19.19.29.43.29.71v7c0 .28-.1.52-.29.71-.19.19-.43.29-.71.29H4c-.28 0-.52-.1-.71-.29A.973.973 0 0 1 3 11V4c0-.28.1-.52.29-.71C3.48 3.1 3.72 3 4 3Zm0 10h16c.28 0 .52.1.71.29.19.19.29.43.29.71v7c0 .28-.1.52-.29.71-.19.19-.43.29-.71.29H4c-.28 0-.52-.1-.71-.29A.973.973 0 0 1 3 21v-7c0-.28.1-.52.29-.71.19-.19.43-.29.71-.29Z"/></svg>