<svg xmlns="http://www.w3.org/2000/svg" width="24" height="24">
    <path d="M20 16a4 4 0 110 8 4 4 0 010-8zm-4.472 0A5.978 5.978 0 0014 20c0 .702.12 1.375.342 2H3.999a2.002 2.002 0 01-1.994-1.85L2 20v-4h13.528zm-5.529 2H5v2h5v-2zM22 9v5.342A5.99 5.99 0 0020 14a5.972 5.972 0 00-3.318 1H2V9h20zm-12 2H5v2h5v-2zm5 0a1 1 0 100 2 1 1 0 000-2zm3 0a1 1 0 100 2 1 1 0 000-2zm2-9c1.053 0 1.918.817 1.995 1.85L22 4v4H2V4c0-1.053.817-1.918 1.85-1.995L4 2h16zM10 4H5v2h5V4zm5 0a1 1 0 100 2 1 1 0 000-2zm3 0a1 1 0 100 2 1 1 0 000-2z"/>
</svg>
