<svg xmlns="http://www.w3.org/2000/svg" width="24" height="24">
    <path d="M24 18c0 3.31-2.691 6-6 6a6.02 6.02 0 01-4.035-1.572l-.201-.192L12 24v-5h5l-1.811 1.811c.747.75 1.734 1.19 2.811 1.19 2.14 0 3.89-1.688 3.995-3.801L22 18h2zm-13.748-2c-.116.45-.193.915-.23 1.391l-.018.36L10 18H5v2h5v2H4a2.002 2.002 0 01-1.995-1.85L2 20v-4h8.252zM24 12v5h-5l1.811-1.811c-.746-.748-1.733-1.189-2.81-1.189a4.004 4.004 0 00-3.996 3.8L14 18h-2c0-3.308 2.691-6 6-6 1.524 0 2.943.563 4.038 1.568l.201.193L24 12zm-2-3v2.07A8.003 8.003 0 0010.581 15H2V9h20zm-12 2H5v2h5v-2zm10-9c1.053 0 1.918.817 1.995 1.85L22 4v4H2V4c0-1.053.817-1.918 1.85-1.995L4 2h16zM10 4H5v2h5V4zm5 0a1 1 0 100 2 1 1 0 000-2zm3 0a1 1 0 100 2 1 1 0 000-2z"/>
</svg>
