
<svg xmlns="http://www.w3.org/2000/svg" viewBox="0 0 24 24">
  <path d="M18,22.03c-.13,0-.27-.02-.4-.05-.13-.03-.26-.09-.38-.18l-3-1.75c-.23-.13-.41-.31-.54-.54-.13-.23-.19-.47-.19-.74v-3.53c0-.27.06-.51.19-.74.13-.23.3-.4.54-.54l3-1.75c.12-.08.24-.14.38-.18.26-.07.53-.07.79.01.13.04.25.1.36.16l3,1.75c.46.26.75.75.75,1.28v3.53c0,.27-.07.51-.2.74-.13.23-.32.4-.55.54l-3,1.75c-.12.07-.24.12-.36.16-.12.04-.25.06-.39.06,0,0,0,.02,0,.02ZM15.65,14.85l2.35,1.38,2.35-1.38-2.35-1.35-2.35,1.35ZM18.75,20.05l2.25-1.3v-2.75l-2.25,1.33v2.73h0ZM15,18.75l2.25,1.33v-2.73l-2.25-1.33v2.73ZM4,12h9.64l2.51-1.47c.29-.19.61-.34.95-.42.9-.23,1.85-.1,2.64.38l1.22.71c.01-.07.04-.13.04-.2v-7c0-.28-.1-.52-.29-.71-.19-.19-.44-.29-.71-.29H4c-.28,0-.52.1-.71.29s-.29.43-.29.71v7c0,.28.1.52.29.71s.43.29.71.29ZM5,5h14v5H5v-5ZM7.5,6c-.42,0-.77.15-1.06.44s-.44.65-.44,1.06.15.77.44,1.06c.29.29.65.44,1.06.44s.77-.15,1.06-.44c.29-.29.44-.65.44-1.06s-.15-.77-.44-1.06c-.29-.29-.65-.44-1.06-.44ZM6.44,16.44c-.29.29-.44.65-.44,1.06s.15.77.44,1.06c.29.29.65.44,1.06.44s.77-.15,1.06-.44c.29-.29.44-.65.44-1.06s-.15-.77-.44-1.06c-.29-.29-.65-.44-1.06-.44s-.77.15-1.06.44ZM13.22,21.78c-.54-.31-.97-.74-1.28-1.29-.09-.16-.13-.32-.19-.49h-6.75v-5h6.53c.04-.52.16-1.01.41-1.46.11-.2.26-.37.4-.54H4c-.28,0-.52.1-.71.29s-.29.43-.29.71v7c0,.28.1.52.29.71.19.19.43.29.71.29h9.6s-.38-.22-.38-.22Z"/>
</svg>