<svg xmlns="http://www.w3.org/2000/svg" width="24" height="24">
    <path d="M17 17h-4v1h1a1 1 0 0 1 1 1h7v2h-7a1 1 0 0 1-1 1h-4a1 1 0 0 1-1-1H2v-2h7a1 1 0 0 1 1-1h1v-1H4c-1.1 0-2-.9-2-2l.01-12c0-1.1.89-2 1.99-2h6l2 2h8c1.1 0 2 .9 2 2v10c0 1.1-.9 2-2 2h-3zm3-2V5H4v10h16zM8.779 10.61H6.446V13H5V7h4.014v1.117H6.446v1.38H8.78v1.113zm5.629-2.493h-1.8V13H11.16V8.117H9.393V7h5.015v1.117zm2.056 2.847V13h-1.446V7h2.394c.459 0 .865.084 1.218.253.353.17.626.41.82.722.194.311.29.665.29 1.06 0 .586-.21 1.054-.628 1.404-.419.35-.994.525-1.725.525h-.923zm0-1.116h.948c.28 0 .494-.07.64-.21.148-.14.221-.339.221-.594 0-.28-.075-.504-.226-.672-.151-.167-.357-.252-.618-.255h-.965v1.73z"/>
</svg>
