<svg width="24" height="24" viewBox="0 0 24 24" fill="none" xmlns="http://www.w3.org/2000/svg">
<path d="M21.1295 17.1492C21.3056 17.0217 21.4468 16.8648 21.5531 16.6786C21.6844 16.4488 21.75 16.2006 21.75 15.9339V7.43395C21.75 7.16728 21.6844 6.91906 21.5531 6.68927C21.4219 6.45949 21.2375 6.27438 21 6.13395L13.5 1.80895C13.2667 1.67561 13.018 1.60895 12.7541 1.60895C12.4902 1.60895 12.2388 1.67561 12 1.80895L8.06083 4.08054L14.0542 10.074L19.4 6.95895L20.25 7.43395V8.18395L15.1353 11.155L21.1295 17.1492Z" fill="#59627B"/>
<path fill-rule="evenodd" clip-rule="evenodd" d="M21.9571 20.9768L20.5429 22.3911L17.4392 19.2873L13.5 21.5589C13.2612 21.6923 13.0098 21.7589 12.7459 21.7589C12.482 21.7589 12.2333 21.6923 12 21.5589L4.50002 17.2339C4.26252 17.0935 4.07814 16.9084 3.94689 16.6786C3.81564 16.4488 3.75002 16.2006 3.75002 15.9339V7.43395C3.75002 7.16728 3.81564 6.91906 3.94689 6.68927C4.05324 6.50309 4.19446 6.34623 4.37056 6.21871L2.04291 3.89105L3.45712 2.47684L6.15808 5.1778L21.9571 20.9768ZM12 19.8339V13.8482L13.5 15.3482V19.8339L12.75 20.2589L12 19.8339ZM5.25002 7.42537L5.45905 7.30719L7.88083 9.72897L5.25002 8.20895V7.42537Z" fill="#59627B"/>
</svg>
