<svg width="24" height="24" viewBox="0 0 24 24" fill="none" xmlns="http://www.w3.org/2000/svg">
<path d="M15.1802 16.5586L11.0206 12.399V7.17533H12.9553V11.6252L16.5345 15.2044L15.1802 16.5586ZM2.91898 16.3652C2.6449 15.8009 2.43531 15.2124 2.29021 14.5998C2.1451 13.9871 2.04837 13.3664 2 12.7376H3.91052C3.94276 13.189 4.02338 13.6405 4.15236 14.0919C4.28134 14.5433 4.4345 14.9786 4.61185 15.3978L2.91898 16.3652ZM2 11.2866C2.04837 10.6417 2.14913 10.0169 2.3023 9.41233C2.45546 8.80774 2.66909 8.21524 2.94317 7.63482L4.61185 8.57799C4.41838 9.0133 4.26118 9.4607 4.14027 9.92019C4.01935 10.3797 3.94276 10.8351 3.91052 11.2866H2ZM6.35308 20.3555C5.78879 20.0008 5.2769 19.5977 4.81741 19.1463C4.35792 18.6949 3.95889 18.187 3.62031 17.6227L5.31318 16.6554C5.57114 17.0584 5.86941 17.4293 6.20798 17.7678C6.54655 18.1064 6.91737 18.4047 7.32044 18.6626L6.35308 20.3555ZM5.31318 7.32044L3.6445 6.35308C3.98307 5.82104 4.3821 5.32527 4.8416 4.86578C5.30109 4.40629 5.80492 3.99919 6.35308 3.6445L7.32044 5.33736C6.91737 5.61145 6.54655 5.91374 6.20798 6.24426C5.86941 6.57477 5.57114 6.93349 5.31318 7.32044ZM11.2624 22C10.6175 21.9516 9.99274 21.8509 9.38815 21.6977C8.78355 21.5445 8.19105 21.3309 7.61064 21.0568L8.57799 19.3881C8.99718 19.5816 9.43652 19.7388 9.89601 19.8597C10.3555 19.9807 10.811 20.0572 11.2624 20.0895V22ZM8.57799 4.63603L7.61064 2.94317C8.19105 2.68521 8.78355 2.47965 9.38815 2.32648C9.99274 2.17332 10.6175 2.06449 11.2624 2V3.9347C10.811 3.96695 10.3555 4.04353 9.89601 4.16445C9.43652 4.28537 8.99718 4.44256 8.57799 4.63603ZM12.7134 22V20.0895C13.1649 20.0572 13.6203 19.9807 14.0798 19.8597C14.5393 19.7388 14.9867 19.5816 15.422 19.3881L16.3652 21.0568C15.7848 21.3309 15.1923 21.5445 14.5877 21.6977C13.9831 21.8509 13.3583 21.9516 12.7134 22ZM15.422 4.63603C14.9867 4.44256 14.5393 4.28537 14.0798 4.16445C13.6203 4.04353 13.1649 3.96695 12.7134 3.9347V2C13.3583 2.06449 13.9831 2.16929 14.5877 2.31439C15.1923 2.45949 15.7848 2.66909 16.3652 2.94317L15.422 4.63603ZM17.6469 20.3555L16.6796 18.6626C17.0665 18.4047 17.4252 18.1104 17.7557 17.7799C18.0863 17.4494 18.3886 17.0826 18.6626 16.6796L20.3555 17.6469C20.0008 18.1951 19.5937 18.6949 19.1342 19.1463C18.6747 19.5977 18.179 20.0008 17.6469 20.3555ZM18.6385 7.32044C18.3805 6.93349 18.0863 6.57477 17.7557 6.24426C17.4252 5.91374 17.0665 5.61145 16.6796 5.33736L17.6469 3.6445C18.179 3.99919 18.6667 4.41032 19.11 4.87787C19.5534 5.34542 19.9605 5.84522 20.3313 6.37727L18.6385 7.32044ZM20.0653 11.2866C20.0331 10.819 19.9524 10.3595 19.8235 9.9081C19.6945 9.45667 19.5333 9.0133 19.3398 8.57799L21.0568 7.63482C21.347 8.19911 21.5607 8.78759 21.6977 9.40024C21.8347 10.0129 21.9355 10.6417 22 11.2866H20.0653ZM21.0568 16.3894L19.3881 15.422C19.5655 15.0028 19.7146 14.5635 19.8355 14.104C19.9565 13.6445 20.0331 13.189 20.0653 12.7376H22C21.9355 13.3825 21.8267 14.0073 21.6735 14.6118C21.5204 15.2164 21.3148 15.8089 21.0568 16.3894Z" fill="#59627B"/>
</svg>
