<svg width="24" height="24" viewBox="0 0 24 24" fill="none" xmlns="http://www.w3.org/2000/svg">
<path d="M13.6963 20.5488V21.4326C13.6962 21.7447 13.4408 21.9997 13.1279 22H10.8506C10.5375 22 10.2814 21.7448 10.2812 21.4326V20.5488H13.6963ZM15.5977 6.01855L11.5684 10.0596L10.5059 9L12.6084 6.90234C12.4168 6.87295 12.2215 6.85065 12.0225 6.83594C11.8232 6.82122 11.664 6.81348 11.5459 6.81348C9.67149 6.91654 8.11816 7.64573 6.88574 9C5.65331 10.3544 5.03713 11.9296 5.03711 13.7256C5.03711 14.4321 5.1555 15.1938 5.3916 16.0107C5.62771 16.8276 6.0551 17.5604 6.6748 18.208L5.23633 19.6436C4.52789 18.8339 3.97805 17.9287 3.58691 16.9277C3.19577 15.9267 3 14.8591 3 13.7256C3.00003 11.3555 3.80861 9.30592 5.4248 7.57617C7.04102 5.84641 9.06657 4.91472 11.502 4.78223C11.6347 4.78223 11.7711 4.78562 11.9111 4.79297C12.0514 4.80033 12.1663 4.81145 12.2549 4.82617L10.5059 3.08203L11.5684 2L15.5977 6.01855ZM18.6309 7.69727C19.3541 8.44805 19.9294 9.33527 20.3574 10.3584C20.7854 11.3815 21 12.5038 21 13.7256C21 14.8886 20.8042 15.9639 20.4131 16.9502C20.022 17.9363 19.472 18.834 18.7637 19.6436L17.3467 18.2305C17.8337 17.6564 18.2287 16.9905 18.5312 16.2324C18.8338 15.4743 18.9854 14.6383 18.9854 13.7256C18.9853 12.916 18.8371 12.1176 18.542 11.3301C18.2468 10.5425 17.7821 9.81677 17.1475 9.1543L18.6309 7.69727ZM11.9893 10.1924C14.1865 10.1926 15.9734 11.9755 15.9736 14.167C15.9736 15.5184 15.2961 16.7056 14.2656 17.4268V18.71C14.2656 19.0223 14.0094 19.2773 13.6963 19.2773H10.2812C9.96813 19.2773 9.71191 19.0223 9.71191 18.71V17.4268C8.68146 16.7056 8.00391 15.5184 8.00391 14.167C8.00409 11.9753 9.79182 10.1924 11.9893 10.1924Z" fill="#59627B"/>
</svg>
