<svg width="24" height="24" viewBox="0 0 24 24" fill="none" xmlns="http://www.w3.org/2000/svg">
<path d="M11.25 21.875L3.75 17.55C3.5125 17.4096 3.32812 17.2245 3.19688 16.9947C3.06563 16.7649 3 16.5167 3 16.25V7.75C3 7.48334 3.06563 7.23511 3.19688 7.00533C3.32812 6.77555 3.5125 6.59044 3.75 6.45L11.25 2.125C11.4888 1.99167 11.7402 1.925 12.0041 1.925C12.268 1.925 12.5167 1.99167 12.75 2.125L20.25 6.45C20.4875 6.59044 20.6719 6.77555 20.8031 7.00533C20.9344 7.23511 21 7.48334 21 7.75V16.25C21 16.5167 20.9344 16.7649 20.8031 16.9947C20.6719 17.2245 20.4875 17.4096 20.25 17.55L12.75 21.875C12.5112 22.0083 12.2598 22.075 11.9959 22.075C11.732 22.075 11.4833 22.0083 11.25 21.875ZM11.25 12.425V20.15L12 20.575L12.75 20.15V12.421L19.5 8.5V7.75L18.65 7.275L12 11.15L5.325 7.275L4.5 7.74143V8.525L11.25 12.425Z" fill="#59627B"/>
</svg>
