<svg width="24" height="24" viewBox="0 0 24 24" fill="none" xmlns="http://www.w3.org/2000/svg">
<path fill-rule="evenodd" clip-rule="evenodd" d="M11.1667 6.16667C11.625 6.16667 12 6.54167 12 7V8.04167C12 8.2 11.9667 8.35833 11.9083 8.5L10.025 12.9083C9.83333 13.35 9.39167 13.6667 8.875 13.6667H3.25C2.55833 13.6667 2 13.1083 2 12.4167V7C2 6.65833 2.14167 6.34167 2.36667 6.11667L6.48333 2L7.14167 2.65833C7.30833 2.83333 7.41667 3.06667 7.41667 3.325L7.4 3.51667L6.85 6.16667H11.1667ZM15.125 10.3333H20.75C21.4417 10.3333 22 10.8917 22 11.5833V17C22 17.3417 21.8583 17.6583 21.6333 17.8833L17.5167 22L16.8583 21.35C16.6917 21.175 16.5833 20.9417 16.5833 20.6833L16.6 20.4833L17.15 17.8333H12.8333C12.375 17.8333 12 17.4583 12 17V15.9583C12 15.8 12.0333 15.6417 12.0917 15.5L13.975 11.0917C14.1667 10.65 14.6083 10.3333 15.125 10.3333Z" fill="#59627B"/>
</svg>
