<svg width="24" height="24" viewBox="0 0 24 24" fill="none" xmlns="http://www.w3.org/2000/svg">
<path d="M21 11.583C20.9998 11.4438 20.8893 11.333 20.75 11.333H15.125C15.0278 11.333 14.9342 11.3943 14.8926 11.4902L14.8916 11.4893L13.0166 15.8809L13 15.958V16.833H18.3789L17.6211 20.4805L20.9258 17.1758C20.9715 17.1301 21 17.065 21 17V11.583ZM23 17C23 17.6183 22.7451 18.1865 22.3408 18.5908L17.5215 23.4102L16.1553 22.0615L16.1338 22.04C15.8126 21.7028 15.5831 21.2295 15.583 20.6836V20.6416L15.5869 20.6006L15.6035 20.4004L15.6084 20.3398L15.6211 20.2803L15.9209 18.833H12.833C11.8225 18.8328 11 18.0105 11 17V15.958C11 15.6629 11.0614 15.3755 11.167 15.1191L11.1719 15.1074L13.0557 10.6992L13.0576 10.6934C13.3994 9.90604 14.189 9.33301 15.125 9.33301H20.75C21.9938 9.33301 22.9998 10.3392 23 11.583V17ZM3 12.417C3.00017 12.5562 3.11073 12.667 3.25 12.667H8.875C8.97223 12.667 9.06579 12.6057 9.10742 12.5098L10.9834 8.11816C10.9942 8.09168 10.9999 8.06316 11 8.04199V7.16699H5.62109L6.37793 3.51855L3.07422 6.82422C3.02852 6.86992 3 6.93498 3 7V12.417ZM13 8.04199C13 8.33713 12.9386 8.62447 12.833 8.88086L12.8281 8.89258L10.9443 13.3008L10.9424 13.3066C10.6006 14.094 9.81103 14.667 8.875 14.667H3.25C2.00616 14.667 1.00018 13.6608 1 12.417V7C1 6.38169 1.25488 5.81348 1.65918 5.40918L6.4834 0.585938L7.86621 1.96875C8.1873 2.30601 8.41699 2.77929 8.41699 3.3252V3.36816L8.41309 3.41211L8.39648 3.60352L8.3916 3.66211L8.37891 3.71973L8.0791 5.16699H11.167C12.1775 5.16717 13 5.98949 13 7V8.04199Z" fill="#59627B"/>
</svg>
