<svg width="24" height="24" viewBox="0 0 24 24" fill="none" xmlns="http://www.w3.org/2000/svg">
<path d="M5.46958 14.2963C5.08993 14.2963 4.7501 14.1451 4.45006 13.8426C4.15002 13.5401 4 13.1975 4 12.8148V11.7778C4 11.6296 4.01837 11.4568 4.05511 11.2593C4.09185 11.0617 4.14083 10.8951 4.20207 10.7593L6.38806 5.66667C6.51052 5.34568 6.73096 5.07099 7.04937 4.84259C7.36778 4.6142 7.70455 4.5 8.0597 4.5H16.6751V14.2963L11.6969 19.5L10.8703 18.9074C10.7233 18.784 10.6223 18.6481 10.5672 18.5C10.5121 18.3519 10.4845 18.1852 10.4845 18V17.8889L11.2744 14.2963H5.46958ZM17.7773 14.2963V4.5H20V14.2963H17.7773Z" fill="#59627B"/>
</svg>
