<svg width="24" height="24" viewBox="0 0 24 24" fill="none" xmlns="http://www.w3.org/2000/svg">
<path d="M6.75 9.75V18.75H3.75V9.75H6.75ZM14.4229 4.53711C14.6253 4.73952 14.7528 5.02473 14.7529 5.33203L14.7305 5.57227L14.0176 9H18.75C19.575 9 20.25 9.67502 20.25 10.5V12C20.25 12.195 20.212 12.3754 20.1445 12.5479L17.8799 17.835C17.6549 18.3749 17.1225 18.75 16.5 18.75H9.75C8.92502 18.75 8.25 18.075 8.25 17.25V9.75C8.25 9.33751 8.41489 8.96237 8.69238 8.69238L13.6279 3.75L14.4229 4.53711ZM10.25 9.96191V16.75H16.1699L18.25 11.8916V11H11.5586L12.0596 8.59277L12.1748 8.03418L10.25 9.96191Z" fill="#59627B"/>
</svg>
