<svg width="24" height="24" viewBox="0 0 24 24" fill="none" xmlns="http://www.w3.org/2000/svg">
<path d="M16.6748 4.5V14.2959L11.6973 19.5L10.8701 18.9072C10.7599 18.8146 10.6757 18.7149 10.6172 18.6084L10.5674 18.5C10.5123 18.3519 10.4844 18.1852 10.4844 18V17.8887L11.2744 14.2959H5.46973L5.3291 14.2891C5.05189 14.2607 4.79691 14.1476 4.56445 13.9492L4.4502 13.8428C4.15016 13.5403 4 13.1972 4 12.8145V11.7773C4.00004 11.6293 4.01798 11.4561 4.05469 11.2588C4.09142 11.0614 4.14096 10.8945 4.20215 10.7588L6.3877 5.66699C6.51016 5.346 6.7314 5.07117 7.0498 4.84277C7.36811 4.6145 7.70455 4.50003 8.05957 4.5H16.6748ZM20 4.5V14.2959H17.7773V4.5H20ZM6 12.2959H13.7617L13.2275 14.7256L13.1465 15.0898L14.6748 13.4932V6.5H8.20605L6.04004 11.5479L6.03613 11.5557C6.03295 11.5674 6.028 11.59 6.02148 11.625C6.01125 11.68 6.00586 11.7206 6.00293 11.748C6.00133 11.7631 6.00024 11.7729 6 11.7773V12.2959Z" fill="#59627B"/>
</svg>
