<svg xmlns="http://www.w3.org/2000/svg" viewBox="0 0 24 24"><path d="M23.69 22.9c-.3.64-.81.97-1.52.97h-7.6c-.71 0-1.22-.32-1.52-.97-.3-.65-.23-1.24.22-1.79l2.89-3.57v-2.8h-.08c-.25 0-.47-.09-.65-.27a.904.904 0 0 1-.27-.67c0-.27.09-.48.27-.66.18-.18.4-.27.65-.27h4.58c.25 0 .47.09.65.27.18.18.27.4.27.66s-.09.49-.26.67c-.18.18-.39.27-.65.27h-.07v2.8l2.87 3.57c.45.55.52 1.15.22 1.79ZM13 18.28l-1.27 1.57c-.04.05-.07.1-.11.15H5c-1.1 0-2-.9-2-2V6c0-1.1.9-2 2-2h14.01c1.1 0 2 .9 2 2v4.91c-.11 0-.22-.03-.33-.03h-1.67V8h-6v4H14v2h-1v4.28ZM11 14H5v4h6v-4Zm0-6H5v4h6V8Z"/></svg>