<svg xmlns="http://www.w3.org/2000/svg" viewBox="0 0 24 24">
  <path d="M13,4h-3v1h3v-1ZM23.98,18.17l-3.81-.02v-1.38h1.08l-.03-.03c-.33-.31-.68-.54-1.05-.69-.37-.15-.75-.23-1.13-.23-.73,0-1.39.21-1.99.65s-.97,1.01-1.14,1.71h-1.9c.24-1.22.83-2.23,1.77-3.02.94-.79,2.03-1.18,3.27-1.17.62,0,1.22.12,1.83.36s1.16.61,1.66,1.12l.06.04v-1.12h1.4l-.02,3.75v.03ZM22.22,22.83c-.94.79-2.03,1.18-3.27,1.17-.62,0-1.22-.12-1.82-.36-.63-.26-1.2-.64-1.67-1.12l-.06-.04v1.12h-1.4l.02-3.75,3.81.02v1.38h-1.08l.03.03c.33.31.68.54,1.05.69.37.15.75.23,1.13.23.73,0,1.39-.21,1.99-.65s.97-1.01,1.14-1.71h1.9c-.24,1.22-.83,2.23-1.77,3.02,0,0,0-.03,0-.03ZM12,19c0-1.32.37-2.54,1-3.59v-1.41h1.11c1.26-1.24,2.99-2,4.89-2h-6v-4h6v4c.7,0,1.37.1,2,.29v-6.29c0-1.1-.9-2-2-2h-6c-.37,0-.7.11-1,.28-.3-.17-.63-.28-1-.28h-6c-1.1,0-2,.9-2,2v12c0,1.1.9,2,2,2h7.08c-.05-.33-.08-.66-.08-1ZM11,18h-6v-4h6v4ZM11,12h-6v-4h6v4Z"/>
</svg>