<svg xmlns="http://www.w3.org/2000/svg" viewBox="0 0 24 24">
  <path d="M13,14h1v-2h-.99v-4h6v2.88h1.67c.11,0,.22.02.33.03v-4.91c0-1.1-.9-2-2-2H5c-1.1,0-2,.9-2,2v12c0,1.1.9,2,2,2h6.62s.07-.1.11-.15l1.27-1.57v-4.28ZM11,18h-6v-4h6v4ZM11,12h-6v-4h6v4ZM23.47,21.11l-2.87-3.57v-2.8h.07c.26,0,.47-.09.65-.27.17-.18.26-.41.26-.67s-.09-.48-.27-.66-.4-.27-.65-.27h-4.58c-.25,0-.47.09-.65.27s-.27.39-.27.66c0,.25.09.49.27.67.18.18.4.27.65.27h.08v2.8l-2.89,3.57c-.45.55-.52,1.14-.22,1.79.3.65.81.97,1.52.97h7.6c.71,0,1.22-.33,1.52-.97.3-.64.23-1.24-.22-1.79ZM14.92,22.01l3.07-3.8v-3.46h.77v3.46l3.06,3.8h-6.9Z"/>
</svg>