<svg xmlns="http://www.w3.org/2000/svg" width="64" height="64" viewBox="0 0 64 64" >
    <path fill-rule="evenodd" clip-rule="evenodd" d="M14.6768 8H49.3232C50.8016 8 52 9.19843 52 10.6768V45.3232C52 46.8016 50.8016 48 49.3232 48H14.6768C13.1984 48 12 46.8016 12 45.3232V10.6768C12 9.19843 13.1984 8 14.6768 8ZM25.098 15.5882V32.467C25.098 37.3369 27.4915 39.5814 32.6447 39.5863H35.7391V35.1364H32.6447C31.1745 35.1364 30.1292 34.4794 30.1292 32.467V24.6834H35.7465V20.2286H30.1292V15.5882H25.098ZM38.6507 35.4884C38.1501 35.989 37.8688 36.668 37.8688 37.376C37.8688 38.084 38.1501 38.7629 38.6507 39.2636C39.1513 39.7642 39.8303 40.0454 40.5383 40.0454C41.2462 40.0454 41.9252 39.7642 42.4258 39.2636C42.9265 38.7629 43.2077 38.084 43.2077 37.376C43.2077 36.668 42.9265 35.989 42.4258 35.4884C41.9252 34.9878 41.2462 34.7066 40.5383 34.7066C39.8303 34.7066 39.1513 34.9878 38.6507 35.4884Z" />
</svg>