<svg xmlns="http://www.w3.org/2000/svg" width="96" height="96" fill="none"><g fill="#59627B" clip-path="url(#a)"><path d="M33.304 49.007c2.426 0 4.393 1.976 4.393 4.415v6.583c0 2.438-1.967 4.415-4.393 4.415-2.426 0-4.393-1.977-4.393-4.416v-6.582c0-2.439 1.967-4.415 4.393-4.415ZM62.377 49.007c2.425 0 4.392 1.977 4.392 4.415v6.583c0 2.438-1.967 4.414-4.392 4.415-2.426 0-4.393-1.977-4.393-4.416v-6.582c0-2.439 1.967-4.415 4.393-4.415ZM41.55 73.046c.846-.124 2.322 1.254 3.235 1.65 2.53 1.096 5.09.777 7.458-.54.888-.493 2.054-1.928 2.932-.55.557.876.166 1.387-.502 1.971-3.416 2.99-10.385 3.112-13.604-.215-.767-.794-.65-2.151.481-2.316Z"/><path fill-rule="evenodd" d="M72.068 3c1.787.026 3.854 1.222 4.361 3.544l.08.479.096.587c.61 2.895 3.116 5.13 6.113 5.346 2.672.19 4.12 2.4 4.233 4.309a4.572 4.572 0 0 1-.93 3.049 4.49 4.49 0 0 1-3.193 1.737l-.174.016c-.46.04-.904.13-1.334.26 2.774 3.992 4.839 8.475 5.96 13.204 1.868.666 3.426 2.049 4.208 3.887.181.427.295 1.295.488 1.557.153.202 1.176.703 1.508.97 1.407 1.127 2.212 2.71 2.346 4.517v.004c.241 3.266.212 8.43 0 11.714-.127 1.94-.93 3.764-2.492 4.955-.394.299-1.41.7-1.586.89-.145.159-.59 1.667-.899 2.167-2.05 3.32-6.128 4.059-9.426 2.146-1.697 6.556-6 12.392-11.129 16.671-7.905 6.594-18.752 9.297-28.863 7.395-12.381-2.33-23.457-11.772-26.9-24.066-.006.003-.013.006-.018.01l.054.3c-3.298 1.913-7.374 1.174-9.424-2.146-.308-.5-.753-2.006-.898-2.167-.177-.19-1.195-.593-1.588-.892C1.099 62.252.297 60.43.17 58.49c-.213-3.284-.242-8.448 0-11.714v-.004c.027-.366.082-.726.164-1.072.32-1.962 1.58-3.557 3.306-4.486.023-.054 1.322-3.133 2.608-4.181 1.296-1.057 1.62-1.288 2.728-1.498 5.92-24.033 31.682-36.689 54.56-27.536 1.103.441 2.184.937 3.24 1.484.39-.731.65-1.54.736-2.4.273-2.742 2.612-4.11 4.555-4.083ZM59.523 40.56c-9.776-1.19-27.182-1.012-36.215 3.028-7.371 3.297-7.237 8.893-6.89 16.05.389 7.946 3.97 15.623 9.657 21.08C41.97 95.963 68.333 90.625 77.091 70.48l-.002-.001c2.257-5.19 3.02-12.242 2.598-17.875-.708-9.432-12.818-11.15-20.164-12.045ZM52.978 8.821c-17.127-2.28-33.78 7.715-39.608 24.04-.177.496-.932 2.348-.58 2.638l1.89.801c2.03-8.425 7.666-15.746 14.903-20.335 9.366-5.938 21.057-6.802 31.17-2.9.22-.047.447-.084.686-.101l.59-.071a6.558 6.558 0 0 0 2.095-.726A36.816 36.816 0 0 0 52.978 8.82Zm25.34 15.372a6.868 6.868 0 0 0-1.28 1.95c2.08 3.12 3.655 6.572 4.538 10.157l2.035-.88a35.846 35.846 0 0 0-5.293-11.227Zm-25.293 5.92a1.584 1.584 0 1 0-.15 3.16 1.584 1.584 0 0 0 .15-3.16Zm-10.856-1.994c0 3.535 1.665 5.113 5.393 5.113h2.299l-.012-2.9h-2.29c-1.334 0-1.983-.725-1.984-2.213l-.1-3.406h4.366v-2.9h-4.266v-3.472H42.17v9.778ZM72.494 7.5c-.055-.459-.601-.558-.844-.283l.002-.004-.012.014a.51.51 0 0 0-.102.261c-.509 5.135-4.69 9.161-9.81 9.53h-.006c-.591.048-.642.925-.049.977l.17.014a10.613 10.613 0 0 1 3.178.777 10.594 10.594 0 0 1 2 1.1l-.379-.253a10.702 10.702 0 0 1 3.818 4.254l.293.634a10.63 10.63 0 0 1 .78 3.088.455.455 0 0 0 .451.422.477.477 0 0 0 .45-.432c.217-1.849.893-3.555 1.907-5.002l.035.041c.414-.597.886-1.15 1.407-1.65l-.03-.034a10.829 10.829 0 0 1 2.956-2.005l.015.02a10.655 10.655 0 0 1 3.59-.952l.174-.014c.5-.042.55-.66.21-.899a.516.516 0 0 0-.124-.065l-.033-.012-.108-.017a10.65 10.65 0 0 1-3.203-.736l-.426-.183a10.812 10.812 0 0 1-.824-.416c-2.95-1.65-5.072-4.651-5.486-8.175Z" clip-rule="evenodd"/></g><defs><clipPath id="a"><path fill="#fff" d="M0 0h96v96H0z"/></clipPath></defs></svg>