<?xml version="1.0" encoding="UTF-8"?>
<svg id="a" data-name="Layer 1" xmlns="http://www.w3.org/2000/svg" viewBox="0 0 24 24">
  <defs>
    <style>
      .b {
        fill: #000;
        stroke-width: 0px;
      }
    </style>
  </defs>
  <path class="b" d="M12,20v-1.62l6.08-6.07,1.62,1.62-6.08,6.07h-1.62ZM20.35,13.27l-1.62-1.62.62-.62c.13-.13.3-.2.5-.21.2,0,.37.05.5.19l.65.65c.13.13.2.3.19.5,0,.2-.08.37-.21.5l-.62.62ZM13.42,5.02c-.53-.05-1.06.12-1.46.46-.41.34-.66.83-.71,1.36l-.25,2.89h2.82v2h-3l-.44,5.07c-.15,1.71-1.38,3.14-3.06,3.54-1.67.4-3.41-.32-4.32-1.78l1.5-1.5c.29.91,1.18,1.49,2.13,1.38.95-.11,1.69-.87,1.77-1.82l.42-4.89h-3v-2h3.18l.27-3.07c.15-1.72,1.38-3.15,3.06-3.55,1.68-.4,3.43.32,4.33,1.79l-1.5,1.5c-.25-.77-.93-1.31-1.74-1.38Z"/>
</svg>