<svg xmlns="http://www.w3.org/2000/svg" viewBox="0 0 24 24">
  <path d="M13.42,5.02c-.53-.05-1.06.12-1.46.46-.41.34-.66.83-.71,1.36l-.25,2.89h2.82v2h-3l-.44,5.07c-.15,1.71-1.38,3.14-3.06,3.54-1.67.4-3.41-.32-4.32-1.78l1.5-1.5c.29.91,1.18,1.49,2.13,1.38.95-.11,1.69-.87,1.77-1.82l.42-4.89h-3v-2h3.18l.27-3.07c.15-1.72,1.38-3.15,3.06-3.55,1.68-.4,3.43.32,4.33,1.79l-1.5,1.5c-.25-.77-.93-1.31-1.74-1.38ZM20.88,13.31c-.08-.18-.18-.35-.31-.5l-.92-.92c-.15-.15-.32-.26-.5-.34s-.38-.11-.58-.11c-.39,0-.77.15-1.05.43l-5.53,5.5v3.08h3.08l5.5-5.5c.15-.15.26-.32.33-.51s.1-.38.1-.56-.04-.37-.11-.55c0,0-.01-.02-.01-.02ZM14.44,18.93h-.95v-.95l3.05-3.02.47.45.45.48-3.03,3.05s.01-.01.01,0h0Z"/>
</svg>