<svg xmlns="http://www.w3.org/2000/svg" width="24" height="24">
    <path d="M11.68 13.09a4.52 4.52 0 016.21-1.41c2.046 1.28 2.691 3.942 1.525 6.017l-.115.193L22.39 21 21 22.39l-3.11-3.09c-1.47.92-3.33.92-4.8 0-2.09-1.3-2.73-4.1-1.41-6.21zM14 2l6 6v2.801a6.49 6.49 0 00-1.05-.817c-2.183-1.372-4.884-1.278-6.937.015L7 10v2l3.004-.001-.015.023a6.524 6.524 0 00-.824 1.977L7 14v2h2.014a6.46 6.46 0 003.02 4.998l.237.142c1 .569 2.115.852 3.23.85L15.5 22H5.99c-1.05 0-1.909-.82-1.985-1.851L4 20l.01-16c0-1.05.81-1.918 1.841-1.994L6 2h8zm3.3 11.73c-.98-.97-2.56-.97-3.53 0-.98.98-.98 2.56-.01 3.54a2.509 2.509 0 003.409.122l.131-.122h-.03c.98-.97.99-2.55.03-3.54z"/>
</svg>
