<svg xmlns="http://www.w3.org/2000/svg" width="24" height="24">
    <path d="M9 13a2 2 0 011.748 2.972L11.967 18H12a2 2 0 11-1.748 1.028L9.033 17H9a2 2 0 010-4zm-4 4a2 2 0 110 4 2 2 0 010-4zm14 0a2 2 0 110 4 2 2 0 010-4zm1-7a2 2 0 11-.972 3.748L17 14.966V15a2 2 0 11-1.028-1.748L18 12.032V12a2 2 0 012-2zM9 7a2 2 0 11-.972 3.748L6 11.966V12a2 2 0 11-1.028-1.748L7 9.032V9a2 2 0 012-2zm3-5a2 2 0 011.748 2.972L14.967 7H15a2 2 0 11-1.748 1.028L12.033 6H12a2 2 0 010-4zM5 3a2 2 0 110 4 2 2 0 010-4zm14 0a2 2 0 110 4 2 2 0 010-4z"/>
</svg>
