<svg xmlns="http://www.w3.org/2000/svg" xmlns:xlink="http://www.w3.org/1999/xlink" width="24" height="24">
  <defs>
    <path id="a" d="M4 18h11.2c.4 1.2 1.5 2 2.8 2h.8c-.4 1.2-1.5 2-2.8 2H4c-1.7 0-3-1.3-3-3v-1h3zm11.037-6.056l-1.9-2.37L16 8.77l-.565-1.707-2.689 1.144L12.972 5h-1.857l.217 3.144-2.768-1.17L8 8.663l2.828.802L8.85 11.9l1.501 1.01 1.597-2.54L13.536 13l1.501-1.056zM8 2h12c1.7 0 3 1.3 3 3v1h-2V5c0-.6-.4-1-1-1s-1 .4-1 1v13h-1c-.6 0-1-.4-1-1v-1H5V5c0-1.7 1.3-3 3-3z"/>
  </defs>
  <use fill="#000" fill-rule="evenodd" xlink:href="#a"/>
</svg>
