<svg xmlns="http://www.w3.org/2000/svg" width="24" height="24">
    <path d="M15.503 10.992c.818 0 1.645.222 2.387.688C20 13 20.62 15.79 19.3 17.889L22.39 21 21 22.389 17.89 19.3a4.523 4.523 0 01-4.8 0c-2.09-1.3-2.73-4.1-1.41-6.21a4.517 4.517 0 013.823-2.098zm-6.49 5.009c.055.688.217 1.363.48 2L5 18v2h5v-1.022a6.383 6.383 0 001.758 1.838l.277.182.237.142.27.145c.935.474 1.958.71 2.98.704L3.998 22a2.002 2.002 0 01-1.994-1.85L2 20v-4h7.014zm4.756-2.271a2.507 2.507 0 00-.009 3.539 2.514 2.514 0 001.775.732c.638 0 1.276-.242 1.765-.732h-.03c.98-.969.99-2.549.03-3.539a2.504 2.504 0 00-3.531 0zM15.189 9a6.515 6.515 0 00-5.052 2.799l-.138.205L10 11H5v2h4.485a6.505 6.505 0 00-.473 2H2V9h13.188zm.63 0H22v6h-.026a6.474 6.474 0 00-3.023-5.016A6.468 6.468 0 0015.82 9zM20 2c1.053 0 1.918.817 1.995 1.85L22 4v4H2V4c0-1.053.817-1.918 1.85-1.995L4 2h16zM10 4H5v2h5V4zm5 0a1 1 0 100 2 1 1 0 000-2zm3 0a1 1 0 100 2 1 1 0 000-2z"/>
</svg>
