<?xml version="1.0" encoding="UTF-8" standalone="no"?>
<svg width="397px" height="398px" viewBox="0 0 397 398" version="1.1" xmlns="http://www.w3.org/2000/svg" xmlns:xlink="http://www.w3.org/1999/xlink" xmlns:sketch="http://www.bohemiancoding.com/sketch/ns">
    <!-- Generator: Sketch 3.4.2 (15855) - http://www.bohemiancoding.com/sketch -->
    <title>querygrid</title>
    <desc>Created with Sketch.</desc>
    <defs></defs>
    <g id="Page-1" stroke="none" stroke-width="1" fill-rule="evenodd" sketch:type="MSPage">
        <g id="uda-querygrid" sketch:type="MSArtboardGroup" transform="translate(-326.000000, -293.000000)">
            <g id="querygrid" sketch:type="MSLayerGroup" transform="translate(524.000000, 492.000000) rotate(-315.000000) translate(-524.000000, -492.000000) translate(244.000000, 212.000000)">
                <path d="M400.208153,120.587878 L400.416306,120.379726 L280.208153,0.171572875 L160,120.379726 L160.208153,120.587878 L160.208153,120.379726 L400.208153,120.379726 L400.208153,120.587878 Z" id="Rectangle-2" sketch:type="MSShapeGroup"></path>
                <path d="M180.379726,340 L180.587878,339.791847 L60.3797257,219.583694 L-59.8284271,339.791847 L-59.6202743,340 L-59.6202743,339.791847 L180.379726,339.791847 L180.379726,340 Z" id="Rectangle-2" sketch:type="MSShapeGroup" transform="translate(60.379726, 279.791847) rotate(-90.000000) translate(-60.379726, -279.791847) "></path>
                <path d="M618.913168,340.123412 L619.12132,339.91526 L498.913168,219.707107 L378.705015,339.91526 L378.913168,340.123412 L378.913168,339.91526 L618.913168,339.91526 L618.913168,340.123412 Z" id="Rectangle-2" sketch:type="MSShapeGroup" transform="translate(498.913168, 279.915260) rotate(-270.000000) translate(-498.913168, -279.915260) "></path>
                <path d="M400.791847,559.828427 L401,559.620274 L280.791847,439.412122 L160.583694,559.620274 L160.791847,559.828427 L160.791847,559.620274 L400.791847,559.620274 L400.791847,559.828427 Z" id="Rectangle-2" sketch:type="MSShapeGroup" transform="translate(280.791847, 499.620274) rotate(-180.000000) translate(-280.791847, -499.620274) "></path>
                <path d="M185.763158,380.5 L180.5,380.5 L180.5,180.5 L185.763158,180.5 L380.5,180.5 L380.5,185.763158 L380.5,375.236842 L380.5,380.5 L185.763158,380.5 Z M191.026316,369.973684 L191.026316,191.026316 L369.973684,191.026316 L369.973684,369.973684 L191.026316,369.973684 Z" id="Rectangle-1" sketch:type="MSShapeGroup"></path>
                <path d="M292.644972,364 C294.579533,349.229336 298.737053,339.391905 300.795145,335.230858 C317.143809,329.072337 330.036866,315.863084 335.767635,299.309779 C340.454145,297.164349 350.702718,293.018831 363.87594,290.910651 L363.87594,267.338712 C349.174245,265.397182 339.380244,261.257179 335.230858,259.204855 C329.221663,243.252597 316.499509,230.590402 300.507933,224.661807 C298.474486,220.290093 294.272272,210.165136 292.054522,197 L268.219654,197 C266.301436,210.721777 262.492489,220.038456 260.421348,224.326182 C243.897325,230.136974 230.740329,243.096085 224.661807,259.492067 C220.290093,261.525514 210.165136,265.727728 197,267.945478 L197,291.780346 C210.721777,293.698564 220.038456,297.507511 224.326182,299.578652 C230.277808,316.503161 243.728454,329.895456 260.690221,335.767635 C262.842381,340.468846 267.007198,350.767072 269.109129,364 L292.644972,364 Z M291.907925,389 C292.8573,402.875933 295.903118,412.910883 298.363085,419 L401,419 L401,433 L161,433 L161,419 L262.172844,419 C264.967855,412.492484 268.660097,401.878342 269.933873,389 L291.907925,389 Z M290.972536,172 C292.149029,158.671381 295.960125,147.675197 298.827156,141 L400,141 L400,127 L160,127 L160,141 L262.636915,141 C265.155588,147.234433 268.288409,157.605278 269.156427,172 L290.972536,172 Z M172,290.843573 C157.605278,291.711591 147.234433,294.844412 141,297.363085 L141,400 L127,400 L127,160 L141,160 L141,261.172844 C147.675197,264.039875 158.671381,267.850971 172,269.027464 L172,290.843573 Z M388.87594,290.053939 C401.810172,291.316195 412.4716,295.023175 419,297.827156 L419,399 L433,399 L433,159 L419,159 L419,261.636915 C412.892751,264.104207 402.816134,267.160845 388.87594,268.1005 L388.87594,290.053939 Z" id="Rectangle-1" sketch:type="MSShapeGroup"></path>
            </g>
        </g>
    </g>
</svg>
