<svg xmlns="http://www.w3.org/2000/svg" width="24" height="24">
    <path d="M24 18c0 3.31-2.691 6-6 6a6.02 6.02 0 01-4.035-1.572l-.201-.192L12 24v-5h5l-1.811 1.811c.747.75 1.734 1.19 2.811 1.19 2.14 0 3.89-1.688 3.995-3.801L22 18h2zM3 14.223c0 2.115 2.99 3.885 7 4.334v3.333c-3.911-.438-6.854-2.133-6.995-4.18L3 17.556v-3.333zM24 12v5h-5l1.811-1.811c-.746-.748-1.733-1.189-2.81-1.189a4.004 4.004 0 00-3.996 3.8L14 18h-2c0-3.308 2.691-6 6-6 1.524 0 2.943.563 4.038 1.568l.201.193L24 12zM3 8.667c0 2.4 3.85 4.356 8.67 4.442a7.945 7.945 0 00-1.5 3.244c-3.997-.407-7.023-2.123-7.165-4.2L3 12V8.667zM12 2c4.973 0 9 1.989 9 4.445 0 2.455-4.027 4.444-9 4.444s-9-1.99-9-4.444C3 3.989 7.027 2 12 2zm9 6.667l.001 1.915a7.94 7.94 0 00-.667-.236c.382-.46.611-.96.657-1.482L21 8.667z"/>
</svg>
