<svg xmlns="http://www.w3.org/2000/svg" width="24" height="24">
    <path d="M16.708 13.395c.107-.04.216.003.296.08l.923 1.154c.343-.013.71-.025 1.045.02l.915-1.112c.083-.101.234-.126.373-.045l1.891 1.092c.122.07.176.213.111.324l-.529 1.347c.219.288.403.593.547.924l1.461.223c.119.031.233.134.23.27L24 19.836c-.033.142-.097.254-.228.266l-1.442.173c-.073.17-.14.33-.231.488-.092.158-.197.296-.307.444l.584 1.355a.34.34 0 01-.097.342l-1.973 1.08c-.107.04-.215-.002-.295-.08l-.923-1.153c-.343.013-.71.024-1.054-.025l-.906 1.117c-.074.106-.225.13-.346.06l-1.9-1.096c-.14-.081-.194-.224-.139-.341l.524-1.338a5.577 5.577 0 01-.558-.905L13.248 20c-.103-.06-.233-.134-.219-.288L13 17.548c.022-.124.097-.255.228-.266l1.456-.178c.073-.169.14-.329.232-.487.086-.15.187-.302.297-.45l-.57-1.335c-.05-.129-.02-.247.112-.345zm2.736 3.662c-.932-.538-2.096-.241-2.618.662-.522.904-.196 2.061.735 2.599.932.538 2.097.241 2.619-.662.521-.904.195-2.06-.736-2.599zM8.444 5c.181 0 .335.126.335.294l.28 1.862c.434.182.84.406 1.218.686l1.792-.7c.154-.042.35 0 .434.154l1.442 2.422c.056.182.056.35-.084.448L12.35 11.3c.028.238.056.462.056.7 0 .238-.028.462-.056.7l1.54 1.148a.443.443 0 01.112.448l-1.47 2.422c-.084.182-.266.224-.434.182l-1.792-.7c-.378.238-.784.49-1.204.658l-.294 1.848c-.014.168-.168.294-.35.294H5.601c-.21 0-.364-.126-.378-.294l-.28-1.848a7.259 7.259 0 01-1.218-.658l-1.792.7c-.154 0-.35 0-.434-.182L.057 14.296c-.056-.154-.056-.35.084-.448L1.667 12.7c-.028-.238-.056-.462-.056-.7 0-.224.014-.462.042-.7L.141 10.166c-.14-.112-.182-.266-.098-.462l1.442-2.422c.084-.182.266-.224.434-.182l1.792.7c.378-.238.784-.49 1.19-.658l.308-1.848c.028-.168.182-.294.392-.294zM7 9.55c-1.4 0-2.52 1.092-2.52 2.45s1.12 2.45 2.52 2.45 2.52-1.092 2.52-2.45-1.12-2.45-2.52-2.45zM16.708.015c.107-.04.216.003.296.08l.923 1.154c.343-.013.71-.025 1.045.02l.915-1.112c.083-.101.234-.126.373-.045l1.891 1.092c.122.07.176.213.111.324l-.529 1.347c.219.288.403.593.547.924l1.461.223c.119.031.233.134.23.27L24 6.456c-.033.142-.097.254-.228.266l-1.442.173c-.073.17-.14.33-.231.488-.092.158-.197.296-.307.444l.584 1.355a.34.34 0 01-.097.342l-1.973 1.08c-.107.04-.215-.002-.295-.08l-.923-1.153c-.343.013-.71.024-1.054-.025l-.906 1.117c-.074.106-.225.13-.346.06l-1.9-1.096c-.14-.081-.194-.224-.139-.341l.524-1.338a5.577 5.577 0 01-.558-.905l-1.461-.223c-.103-.06-.233-.134-.219-.288L13 4.168c.022-.124.097-.255.228-.266l1.456-.178c.073-.169.14-.329.232-.487.086-.15.187-.302.297-.45l-.57-1.335c-.05-.129-.02-.247.112-.345zm2.736 3.662c-.932-.538-2.096-.241-2.618.662-.522.904-.196 2.061.735 2.599.932.538 2.097.241 2.619-.662.521-.904.195-2.06-.736-2.599z"/>
</svg>
