<?xml version="1.0" encoding="UTF-8" standalone="no"?>
<svg width="512px" height="512px" viewBox="0 0 512 512" version="1.1" xmlns="http://www.w3.org/2000/svg" xmlns:xlink="http://www.w3.org/1999/xlink">
    <title>viewpoint</title>
    <desc>Copyright Teradata, Inc.</desc>
    <defs></defs>
    <g id="viewpoint" stroke="none" stroke-width="1" fill-rule="evenodd">
        <path d="M396.613288,242 C370.089754,192.114116 317.486386,158 257,158 C196.513614,158 143.910246,192.114116 117.386712,242 L28,242 L255.401643,14 L483,242 L396.613288,242 Z M115.810448,271 C141.786897,322.687926 195.290988,358 257,358 C318.69135,358 372.182475,322.513154 398.16724,271 L483,271 L255.401643,499 L28,271 L115.810448,271 Z M259,184 C307.59098,184 349.192846,214.748858 366,258 C349.192846,301.251142 307.59098,332 259,332 C210.40902,332 168.807154,301.420091 152,258 C168.807154,214.748858 210.40902,184 259,184 Z M257,309 C283.465753,309 305,287.241438 305,260.5 C305,233.758562 283.465753,212 257,212 C230.534247,212 209,233.758562 209,260.5 C209,287.241438 230.534247,309 257,309 Z M257.5,228 C274.96,228 289,242.04 289,259.5 C289,276.96 274.96,291 257.5,291 C240.04,291 226,276.96 226,259.5 C226,242.04 240.04,228 257.5,228 Z" id="Combined-Shape" fill-rule="nonzero"></path>
    </g>
</svg>