
<svg  xmlns="http://www.w3.org/2000/svg" viewBox="0 0 24 24">

  <path  d="M18.42,15.4c.56-1.01.89-2.17.89-3.4h2c0,1.79-.52,3.46-1.43,4.86l-1.46-1.46ZM12.3,5c1.93,0,3.68.79,4.95,2.05l-2.95,2.95h7V3l-2.64,2.64c-1.62-1.63-3.87-2.64-6.36-2.64-1.79,0-3.46.52-4.86,1.43l1.46,1.46c1.01-.56,2.17-.89,3.4-.89ZM21.91,21.5l-1.41,1.41-3.34-3.34c-1.4.9-3.07,1.43-4.86,1.43-4.97,0-9-4.03-9-9,0-1.79.52-3.46,1.43-4.86L1,3.41l1.41-1.41,19.5,19.5ZM15.7,18.12L6.19,8.6c-.56,1.01-.88,2.17-.88,3.4,0,3.86,3.14,7,7,7,1.23,0,2.4-.32,3.4-.88Z"/>
</svg>