<?xml version="1.0" encoding="UTF-8"?>
<svg id="a" data-name="Layer 13 copy" xmlns="http://www.w3.org/2000/svg" viewBox="0 0 24 24">
  <defs>
    <style>
      .b {
        fill: #000;
        stroke-width: 0px;
      }
    </style>
  </defs>
  <path class="b" d="M21.54,21.54L2.47,2.47l-1.47,1.47,2.63,2.63c-.14.13-.27.28-.37.45-.17.3-.26.63-.26,1v7.95c0,.37.09.7.26,1s.42.54.74.73l7,4.02c.32.18.65.28,1,.28s.68-.09,1-.28l3.67-2.11,3.4,3.4,1.47-1.47ZM5,8.05l.07-.04,2.68,2.68-2.75-1.59v-1.05ZM13,19.42l-1,.58-1-.58v-5.48l2,2v3.48ZM13.13,10.2l-5.81-5.81,3.68-2.12c.32-.18.65-.27,1-.27s.68.09,1,.27l7,4.03c.32.18.56.42.74.72.17.3.26.63.26,1v7.95c0,.37-.09.7-.26,1-.1.17-.23.32-.38.45l-5.77-5.77,4.41-2.56v-1.05l-1.08-.62-4.8,2.77Z"/>
</svg>