<svg xmlns="http://www.w3.org/2000/svg" viewBox="0 0 24 24"><path d="M9 1H7v3h2V1Zm4 0h-2v3h2V1Zm2 0h2v3h-2V1ZM9 23v-3H7v3h2ZM20 9h3V7h-3v2ZM4 9H1V7h3v2Zm-3 4h3v-2H1v2Zm3 4H1v-2h3v2Zm14 6c-1.4 0-2.6-.5-3.5-1.5-1-1-1.5-2.2-1.5-3.5s.5-2.6 1.5-3.5c1-1 2.2-1.5 3.5-1.5s2.6.5 3.5 1.5c1 1 1.5 2.2 1.5 3.5s-.5 2.6-1.5 3.5c-1 1-2.2 1.5-3.5 1.5Zm1.6-2.6.7-.7-1.9-1.9V15h-1v3.2l2.1 2.1ZM11 18c0-1.9.7-3.6 2.1-4.9 1.4-1.4 3-2.1 4.9-2.1h1V7.3C19 6 18 5 16.7 5H7.3C6 5 5 6.1 5 7.3v9.3c0 1.3 1.1 2.3 2.3 2.3H11v-1Zm0 0v-1H7.9c-.5 0-.9-.4-.9-.9V7.9c0-.5.4-.9.9-.9H16c.5 0 .9.4.9.9V11h2V7.3c0-1.3-1-2.3-2.3-2.3H7.3C6 5 5 6.1 5 7.3v9.3c0 1.3 1.1 2.3 2.3 2.3H11v-1Zm0 0v-1H7.9c-.5 0-.9-.4-.9-.9V7.9c0-.5.4-.9.9-.9H16c.5 0 .9.4.9.9V11h2V7.3c0-1.3-1-2.3-2.3-2.3H7.3C6 5 5 6.1 5 7.3v9.3c0 1.3 1.1 2.3 2.3 2.3H11v-1Z"/></svg>