
<svg xmlns="http://www.w3.org/2000/svg" viewBox="0 0 24 24">

  <path d="M10,12l-5,5-1.38-1.45,2.55-2.55H1v-2h5.17l-2.55-2.55,1.38-1.45,5,5ZM11.7,10.87c.73.08,1.49.14,2.3.14,2.5,0,4.63-.39,6.38-1.18,1.75-.79,2.63-1.73,2.63-2.83s-.88-2.04-2.63-2.83c-1.75-.79-3.88-1.18-6.38-1.18s-4.63.39-6.38,1.18c-.68.31-1.22.63-1.64.99l5.72,5.72ZM21.97,11.37c-.68.51-1.5.92-2.45,1.24-.95.32-1.94.55-2.96.69s-1.88.21-2.56.21-1.5-.07-2.48-.2l-2.07,2.07c.65.17,1.31.32,2,.42,1.02.14,1.88.21,2.56.21s1.54-.07,2.56-.21,2.01-.37,2.96-.69c.95-.32,1.76-.73,2.45-1.24.69-.51,1.03-1.13,1.03-1.86v-2.5c0,.73-.35,1.35-1.03,1.86ZM21.97,16.37c-.68.51-1.5.92-2.45,1.24-.95.32-1.94.55-2.96.69s-1.88.21-2.56.21-1.54-.07-2.56-.21-2.01-.37-2.96-.69c-.32-.11-.6-.24-.89-.37l-1.6,1.6s.02.02.04.03c.68.51,1.5.92,2.45,1.24.95.32,1.93.55,2.96.69,1.02.14,1.88.21,2.56.21s1.53-.07,2.56-.21c1.02-.14,2.01-.37,2.96-.69.95-.32,1.76-.73,2.45-1.24.69-.51,1.03-1.13,1.03-1.86v-2.5c0,.73-.35,1.35-1.03,1.86Z"/>
</svg>