<svg xmlns="http://www.w3.org/2000/svg"  viewBox="0 0 24 24"><path d="M14.57 23.87c-.71 0-1.22-.32-1.52-.97-.3-.65-.23-1.24.22-1.79l2.89-3.57v-2.8h-.08c-.25 0-.47-.09-.65-.27s-.27-.4-.27-.67.09-.48.27-.66.4-.27.65-.27h4.58c.25 0 .47.09.65.27.18.18.27.4.27.66s-.09.49-.26.67c-.18.18-.39.27-.65.27h-.07v2.8l2.87 3.57c.45.55.52 1.15.22 1.79-.3.64-.81.97-1.52.97h-7.6Zm.35-1.86h6.9l-3.06-3.8v-3.46h-.77v3.46l-3.07 3.8Zm-3.19-2.16.7-.86c-.14 0-.29.02-.43.02-1.54 0-3.07-.22-4.55-.63-.67-.19-1.22-.4-1.66-.64-.44-.23-.7-.47-.79-.72v-2.48c.42.23.88.44 1.4.62s1.07.34 1.66.46 1.22.22 1.89.29c.67.07 1.35.1 2.05.1s1.38-.03 2.03-.1c-.52-.52-.81-1.21-.84-1.95-.39.02-.77.06-1.18.06-.7 0-1.38-.03-2.05-.1-.67-.07-1.3-.16-1.89-.29s-1.15-.28-1.66-.46c-.48-.17-.95-.37-1.4-.62v-3c.42.23.88.44 1.4.62.52.18 1.07.34 1.66.46s1.22.22 1.89.29c.67.07 1.35.1 2.05.1s1.38-.03 2.03-.1 1.27-.16 1.86-.29c.59-.13 1.15-.28 1.67-.46.53-.18 1-.39 1.44-.62v1.35h1.67c.11 0 .22.02.33.03V7.02c0-1.1-.88-2.04-2.64-2.83-1.76-.78-3.88-1.17-6.36-1.17s-4.6.39-6.36 1.17c-1.76.78-2.64 1.72-2.64 2.83v10c0 1.12.87 2.06 2.61 2.84 1.52.68 3.36 1.04 5.48 1.13.14-.39.35-.77.63-1.12v-.02ZM7.54 5.64C9 5.21 10.49 5 12 5s3 .22 4.49.65c1.49.43 2.33.89 2.51 1.38-.18.48-1.03.94-2.53 1.36-1.5.42-2.99.64-4.47.64s-3-.21-4.46-.62C6.08 7.99 5.24 7.53 5 7.03c.23-.5 1.08-.96 2.54-1.39Z"/></svg>