<svg xmlns="http://www.w3.org/2000/svg" viewBox="0 0 24 24"><path d="M5.62 9.82c1.75.78 3.88 1.17 6.38 1.17s4.62-.39 6.38-1.17C20.14 9.04 21 8.1 21 6.99s-.88-2.04-2.62-2.83C16.63 3.38 14.5 2.99 12 2.99s-4.62.39-6.38 1.17C3.87 4.94 3 5.89 3 6.99s.88 2.04 2.62 2.83Zm-1.6 4.04c.68.51 1.5.92 2.45 1.24.95.32 1.94.55 2.96.69 1.03.14 1.88.21 2.56.21.62 0 1.38-.06 2.28-.18l3.24-3.22c-.95.32-1.93.54-2.95.69-1.02.14-1.88.21-2.56.21s-1.54-.07-2.56-.21a16.14 16.14 0 0 1-2.96-.69c-.95-.32-1.77-.73-2.45-1.24C3.35 10.85 3 10.23 3 9.5V12c0 .73.34 1.35 1.03 1.86h-.01ZM12 18.5c-.68 0-1.54-.07-2.56-.21-1.02-.14-2.01-.37-2.96-.69s-1.77-.73-2.45-1.24C3.35 15.85 3 15.23 3 14.5V17c0 .73.34 1.35 1.03 1.86.68.51 1.5.92 2.45 1.24s1.94.55 2.96.69c1.03.14 1.88.21 2.56.21v-2.5Zm2 3.5v-3.08l5.53-5.5a1.451 1.451 0 0 1 1.05-.43c.2 0 .39.04.58.11.19.07.35.19.5.34l.93.93c.13.15.24.32.31.5s.11.37.11.55-.03.37-.1.56a1.4 1.4 0 0 1-.33.51l-5.5 5.5H14Zm6.58-5.6.93-.98-.93-.93-.95.95.95.95Z" /></svg>