
<svg  xmlns="http://www.w3.org/2000/svg" viewBox="0 0 24 24">

  <path d="M21.12,16.83c-.58-.55-1.29-.83-2.12-.83h-2c0-.6-.17-1.15-.51-1.65-.34-.5-.79-.85-1.34-1.05l-5.88-2.17c-.1-.03-.21-.06-.33-.09-.12-.02-.23-.04-.35-.04H1v11h6v-1.45l7,1.95,8-2.5v-1c0-.9-.29-1.62-.88-2.17ZM5,20h-2v-7h2v7ZM13.95,20.4l-6.95-1.9v-5.5h1.6l5.85,2.15c.15.05.28.16.39.32.11.17.16.34.16.53-.75-.02-1.32-.05-1.7-.1-.38-.05-.72-.12-1-.2l-2.02-.67-.55,1.95,2.33.78c.28.1.56.17.83.2.27.03.62.05,1.08.05h5.05c.2,0,.38.05.54.16.16.11.28.24.36.39l-5.95,1.85ZM10.19,6.7c.13.15.28.26.46.33.18.07.37.1.59.1s.42-.03.59-.1c.17-.07.33-.18.45-.33.12-.15.22-.35.29-.57s.1-.5.1-.82v-.74c0-.32-.04-.59-.11-.82s-.17-.42-.3-.57c-.13-.15-.28-.26-.46-.33-.18-.07-.37-.1-.59-.1s-.42.03-.59.1c-.17.07-.33.18-.45.33-.12.15-.22.35-.29.57-.07.22-.1.5-.1.82v.74c0,.32.04.59.11.82.07.23.17.42.3.57ZM10.62,4.45c0-.19.01-.35.04-.48.03-.13.07-.23.12-.31.05-.08.12-.14.19-.17.07-.03.16-.05.25-.05s.17.02.25.05c.08.03.14.09.19.17.05.08.09.18.12.31.03.13.04.29.04.48h-.01v.97c0,.19-.02.35-.04.48-.02.13-.06.24-.11.32-.05.08-.12.14-.19.17-.07.03-.16.05-.25.05s-.17-.02-.25-.05c-.08-.03-.14-.09-.19-.17-.05-.08-.09-.19-.12-.32-.03-.13-.04-.29-.04-.48v-.97ZM11.5,10.25v-.49s-1,.31-1,.31v-.69l1.77-.63h.09v1.75l-.86-.25ZM14.82,3.76l-1.01.31v-.69l1.77-.63h.09v4.27h-.85v-3.26ZM14.62,11.16l-.84-.21v-.38c0-.32.03-.6.1-.82s.17-.42.29-.57c.12-.15.28-.26.45-.33.17-.07.37-.1.59-.1s.41.03.59.1c.18.07.33.18.46.33.13.15.23.34.3.57s.11.5.11.82v.74c0,.12,0,.24-.01.35l-.85-.21s0-.02,0-.03v-.97h.01c0-.19-.01-.35-.04-.48-.03-.13-.07-.23-.12-.31-.05-.08-.11-.14-.19-.17-.08-.03-.16-.05-.25-.05s-.18.02-.25.05c-.07.03-.14.09-.19.17-.05.08-.09.18-.12.31-.03.13-.04.29-.04.48v.71ZM17.69,6.7c.13.15.28.26.46.33.18.07.37.1.59.1s.42-.03.59-.1c.17-.07.33-.18.45-.33.12-.15.22-.35.29-.57s.1-.5.1-.82v-.74c0-.32-.04-.59-.11-.82s-.17-.42-.3-.57c-.13-.15-.28-.26-.46-.33-.18-.07-.37-.1-.59-.1s-.42.03-.59.1c-.17.07-.33.18-.45.33-.12.15-.22.35-.29.57s-.1.5-.1.82v.74c0,.32.04.59.11.82.07.23.17.42.3.57ZM18.12,4.45c0-.19.01-.35.04-.48.03-.13.07-.23.12-.31.05-.08.12-.14.19-.17.07-.03.16-.05.25-.05s.17.02.25.05c.08.03.14.09.19.17.05.08.09.18.12.31.03.13.04.29.04.48h-.01v.97c0,.19-.02.35-.04.48-.02.13-.06.24-.11.32-.05.08-.12.14-.19.17-.07.03-.16.05-.25.05s-.17-.02-.25-.05c-.08-.03-.14-.09-.19-.17-.05-.08-.09-.19-.12-.32-.03-.13-.04-.29-.04-.48v-.97ZM19.01,13.02v-3.26l-1.01.31v-.69l1.77-.63h.09v4.27h-.85Z"/>
</svg>