<svg xmlns="http://www.w3.org/2000/svg" viewBox="0 0 24 24"><path d="M14.57 23.87c-.71 0-1.22-.32-1.52-.97s-.23-1.24.22-1.79l2.89-3.57v-2.8h-.08c-.25 0-.47-.09-.65-.27a.79.79 0 0 1-.2-.31.922.922 0 0 1-.07-.36c0-.27.09-.48.27-.66.18-.18.4-.27.65-.27h4.58c.25 0 .47.09.65.27.18.18.27.4.27.66s-.09.49-.26.67c-.18.18-.39.27-.65.27h-.07v2.8l2.87 3.57c.45.55.52 1.15.22 1.79-.3.64-.81.97-1.52.97h-7.6Zm.35-1.86h6.9l-3.06-3.8v-3.46h-.77v3.46l-3.07 3.8ZM8 12v2h5.19c0-.06-.02-.13-.02-.19 0-.67.23-1.29.64-1.81H8Zm3.62 8H6V4h7v5h5v1.88h2V8l-6-6H6c-.55 0-1.02.2-1.41.59C4.2 2.98 4 3.45 4 4v16c0 .55.2 1.02.59 1.41.39.39.86.59 1.41.59h4.88c.03-.71.28-1.39.74-2ZM8 18h5.22l.94-1.16v-.81l-.02-.02H8v2Z" /></svg>