<svg xmlns="http://www.w3.org/2000/svg" width="24" height="24">
    <path d="M24 18c0 3.31-2.691 6-6 6a6.026 6.026 0 01-4.236-1.764L12 24v-5h5l-1.811 1.811c.747.75 1.734 1.19 2.811 1.19 2.206 0 4-1.795 4-4zm0-6v5h-5l1.811-1.811c-.746-.748-1.733-1.189-2.81-1.189-2.207 0-4 1.794-4 4h-2c0-3.308 2.69-6 6-6 1.618 0 3.12.636 4.238 1.761L24 12zM14 2l6 6v2.252A8.014 8.014 0 0018 10c-.69 0-1.36.087-2 .252V10H7v2h5.707a8.037 8.037 0 00-1.637 2H7v2h3.252a7.986 7.986 0 00-.237 1.504l-.011.247L10 18v4H5.99c-1.05 0-1.909-.82-1.985-1.851L4 20l.01-16c0-1.05.81-1.918 1.841-1.994L6 2h8z"/>
</svg>
