<svg xmlns="http://www.w3.org/2000/svg" viewBox="0 0 24 24"><path d="M9 10h4v2H9v-2Zm0 8H1v1c0 1.66 1.34 3 3 3h9.11a7.028 7.028 0 0 1-2.03-4H9ZM20 2H8C6.34 2 5 3.34 5 5v11h2V5c0-.55.45-1 1-1h9v6.08c.33-.05.66-.08 1-.08s.67.03 1 .08V5c0-.55.45-1 1-1s1 .45 1 1v1h2V5c0-1.66-1.34-3-3-3Zm2.83 13.35-1.12 1c.03.25.05.46.05.64s-.02.39-.05.64l1.12 1-1 1.72-1.45-.47c-.17.13-.34.25-.51.35-.17.1-.36.19-.56.28l-.3 1.5h-2l-.3-1.5c-.2-.08-.39-.17-.56-.28-.17-.1-.35-.22-.51-.35l-1.45.5-1-1.73 1.12-1c-.03-.25-.05-.46-.05-.64s.02-.39.05-.64l-1.12-1 1-1.73 1.45.5c.17-.13.34-.25.51-.36s.36-.2.56-.29l.3-1.5h2l.3 1.5a4.154 4.154 0 0 1 1.07.62l1.45-.5 1 1.72ZM20 17c0-.55-.2-1.02-.59-1.41S18.55 15 18 15s-1.02.2-1.41.59S16 16.45 16 17s.2 1.02.59 1.41.86.59 1.41.59 1.02-.2 1.41-.59.59-.86.59-1.41ZM15 6H9v2h6V6Z"/></svg>