<svg xmlns="http://www.w3.org/2000/svg" viewBox="0 0 24 24"><path d="M18 22.03c-.13 0-.27-.02-.4-.05-.13-.03-.26-.09-.38-.18l-3-1.75c-.23-.13-.41-.31-.54-.54-.13-.23-.19-.47-.19-.74v-3.53c0-.27.06-.51.19-.74.13-.23.3-.4.54-.54l3-1.75c.12-.08.24-.14.38-.18.259-.072.533-.068.79.01.13.04.25.1.36.16l3 1.75a1.466 1.466 0 0 1 .75 1.28v3.53c0 .27-.07.51-.2.74-.13.23-.32.4-.55.54l-3 1.75c-.12.07-.24.12-.36.16-.12.04-.25.06-.39.06v.02Zm-2.35-7.18L18 16.23l2.35-1.38L18 13.5l-2.35 1.35Zm3.1 5.2 2.25-1.3V16l-2.25 1.33v2.73-.01ZM15 18.75l2.25 1.33v-2.73L15 16.02v2.73Zm-1.78 3.03c-.54-.31-.97-.74-1.28-1.29-.29-.53-.44-1.1-.44-1.71v-3.52c0-.61.15-1.19.44-1.71.11-.2.26-.37.4-.54H4c-.28 0-.52.1-.71.29-.19.19-.29.43-.29.71v7c0 .28.1.52.29.71.19.19.43.29.71.29h9.6l-.38-.22v-.01Zm-4.66-3.22c-.29.29-.65.44-1.06.44-.41 0-.77-.15-1.06-.44-.29-.29-.44-.65-.44-1.06 0-.41.15-.77.44-1.06.29-.29.65-.44 1.06-.44.41 0 .77.15 1.06.44.29.29.44.65.44 1.06 0 .41-.15.77-.44 1.06ZM4 12h9.64l2.51-1.47c.29-.194.611-.336.95-.42a3.44 3.44 0 0 1 2.64.38l1.22.71c.01-.07.04-.13.04-.2V4c0-.28-.1-.52-.29-.71A.973.973 0 0 0 20 3H4c-.28 0-.52.1-.71.29C3.1 3.48 3 3.72 3 4v7c0 .28.1.52.29.71.19.19.43.29.71.29Zm2.44-5.56C6.73 6.15 7.09 6 7.5 6c.41 0 .77.15 1.06.44.29.29.44.65.44 1.06 0 .41-.15.77-.44 1.06-.29.29-.65.44-1.06.44-.41 0-.77-.15-1.06-.44C6.15 8.27 6 7.91 6 7.5c0-.41.15-.77.44-1.06Z"/></svg>