<svg xmlns="http://www.w3.org/2000/svg" viewBox="0 0 24 24"><path d="M14 16h-1v-4h-2v4h-1c-.55 0-1 .45-1 1H2v2h7c0 .55.45 1 1 1h4c.55 0 1-.45 1-1h7v-2h-7c0-.55-.45-1-1-1ZM4 12h16c.28 0 .52-.1.71-.29.19-.19.29-.43.29-.71V4c0-.28-.1-.52-.29-.71A.973.973 0 0 0 20 3H4c-.28 0-.52.1-.71.29C3.1 3.48 3 3.72 3 4v7c0 .28.1.52.29.71.19.19.43.29.71.29Zm2.44-5.56C6.73 6.15 7.09 6 7.5 6c.41 0 .77.15 1.06.44.29.29.44.65.44 1.06 0 .41-.15.77-.44 1.06-.29.29-.65.44-1.06.44-.41 0-.77-.15-1.06-.44C6.15 8.27 6 7.91 6 7.5c0-.41.15-.77.44-1.06Z"/></svg>