<svg viewBox="0 0 24 24" xmlns="http://www.w3.org/2000/svg">
<path  d="M10 1L12 3H20C21.1 3 22 3.9 22 5V15C22 16.1 21.1 17 20 17H13V18H14C14.5523 18 15 18.4477 15 19H22V21H15C15 21.5523 14.5523 22 14 22H10C9.44772 22 9 21.5523 9 21H2V19H9C9 18.4477 9.44772 18 10 18H11V17H4C2.9 17 2 16.1 2 15L2.01 3C2.01 1.9 2.9 1 4 1H10ZM20 5H4V15H20V5ZM9.01374 7V8.11676H6.44643V9.49725H8.77885V10.6099H6.44643V13H5V7H9.01374ZM14.408 7V8.11676H12.6071V13H11.1607V8.11676H9.39286V7H14.408ZM17.4121 7C17.8709 7 18.2768 7.08448 18.6298 7.25343C18.9828 7.42239 19.2562 7.66277 19.4499 7.97459C19.6435 8.2864 19.7404 8.64011 19.7404 9.03571C19.7404 9.62088 19.5309 10.0886 19.1119 10.4389C18.693 10.7892 18.1181 10.9643 17.3874 10.9643H16.4643V13H15.0179V7H17.4121ZM17.4286 8.11676H16.4643V9.84753H17.4121C17.6923 9.84753 17.9059 9.77747 18.0529 9.63736C18.1999 9.49725 18.2734 9.29945 18.2734 9.04396C18.2734 8.76373 18.1978 8.53984 18.0467 8.37225C17.8956 8.20467 17.6896 8.11951 17.4286 8.11676Z" />
</svg>
