<svg xmlns="http://www.w3.org/2000/svg" viewBox="0 0 24 24"><path d="M22.9 14.9v-.02c-.09-.18-.19-.35-.32-.5l-.92-.92c-.15-.15-.32-.26-.5-.34-.18-.08-.38-.11-.58-.11a1.451 1.451 0 0 0-1.05.43L14 18.94v3.08h3.08l5.5-5.5c.15-.15.26-.32.33-.51s.1-.38.1-.56c0-.18-.04-.37-.11-.55Zm-6.45 5.6h-.95v-.95l3.05-3.02.47.45.45.48-3.02 3.04Zm1.66-8.5h-5.12V8h6v3.39c.11-.06.22-.13.34-.17.54-.2 1.1-.25 1.66-.18V6c0-1.1-.9-2-2-2h-14c-1.1 0-2 .9-2 2v12c0 1.1.9 2 2 2h7v-1.91H12l1-1v-3.1h3.11l2-1.99ZM11 18H5v-4h6v4Zm0-6H5V8h6v4Z" /></svg>