<svg xmlns="http://www.w3.org/2000/svg" width="24" height="24">
    <path d="M19.07 14.88l2.05 2.05L15.06 23H13v-2.06l6.07-6.06zM3 14.223c0 2.455 4.027 4.444 9 4.444.113 0 .225-.001.337-.003l-3.12 3.12c-3.51-.563-6.071-2.16-6.211-4.064L3 17.556v-3.333zm0-5.556c0 2.455 4.027 4.445 9 4.445 3.485 0 6.506-.978 8.001-2.408L20 11l-5.23 5.231c-.78.125-1.608.198-2.467.212l-.303.003c-4.872 0-8.835-1.91-8.995-4.296L3 12V8.668zM21.42 13.3l1.28 1.28c.22.21.22.56 0 .77l-1 1-2.05-2.05 1-1c.21-.22.56-.22.77 0zM12 2c4.973 0 9 1.989 9 4.445 0 2.455-4.027 4.444-9 4.444s-9-1.99-9-4.444C3 3.989 7.027 2 12 2z"/>
</svg>
