<svg xmlns="http://www.w3.org/2000/svg" width="24" height="24">
    <path d="M19.73 11.985c-.01.028-.018.058-.027.085.002.003.003.008.003.012A3.939 3.939 0 0 0 17 11a1 1 0 1 0 0 2 2 2 0 0 1 2 2 3.994 3.994 0 0 1-3.053 3.875 1.497 1.497 0 1 1-2.484-1.455l.027-.021a1.48 1.48 0 0 1 .19-.153c.024-.015.05-.026.075-.041.056-.032.112-.065.171-.091.047-.02.098-.03.149-.045.043-.013.084-.03.128-.04.096-.018.196-.03.298-.03a1 1 0 1 0 0-2 3.46 3.46 0 0 0-1.5.35V11c0-.09.014-.178.027-.266.006-.05.008-.101.016-.15.181-.846.9-1.487 1.78-1.565C14.882 9.013 14.94 9 15 9a.993.993 0 0 0 .74-.341.99.99 0 0 0 .26-.66 1 1 0 0 0-1-1c-.33 0-.646.052-.952.128-.04.01-.076.025-.115.036a3.966 3.966 0 0 0-.933.393V4.51l.024-.02c.114-.084.236-.155.362-.22A2.48 2.48 0 0 1 14.502 4c.114 0 .223.019.333.034a2.485 2.485 0 0 1 2.143 2.235 4.477 4.477 0 0 1 1.89 1.273A4.468 4.468 0 0 1 20 10.5c0 .524-.107 1.018-.27 1.485zM11 5.817V7.556a3.991 3.991 0 0 0-.934-.393c-.039-.011-.075-.026-.115-.036A3.936 3.936 0 0 0 9.002 7a1 1 0 0 0-1 1 .99.99 0 0 0 .258.659.994.994 0 0 0 .742.34c.06 0 .117.014.176.019a1.998 1.998 0 0 1 1.779 1.566c.008.048.01.099.017.149.012.088.027.176.027.267v4.35A3.467 3.467 0 0 0 9.5 15a1 1 0 1 0 0 2c.101 0 .201.01.297.03.044.009.085.026.128.039.05.015.101.026.148.045.06.026.115.059.171.09.026.016.053.027.076.042.069.045.131.098.19.153l.027.02c.284.274.463.655.463 1.08a1.497 1.497 0 1 1-2.948.375A3.993 3.993 0 0 1 5.002 15a2 2 0 0 1 2-2 1 1 0 0 0 0-2 3.94 3.94 0 0 0-2.708 1.082l.003-.012c-.009-.027-.016-.057-.026-.085A4.458 4.458 0 0 1 4 10.5c0-1.138.436-2.165 1.133-2.958a4.477 4.477 0 0 1 1.89-1.273 2.485 2.485 0 0 1 2.143-2.235c.11-.015.22-.034.335-.034.4 0 .776.104 1.112.272.127.064.248.135.362.219l.026.02v1.306zM22 10.5a6.496 6.496 0 0 0-3.328-5.671 4.496 4.496 0 0 0-4.171-2.83c-.926 0-1.787.282-2.5.76A4.478 4.478 0 0 0 9.5 2a4.496 4.496 0 0 0-4.172 2.83 6.495 6.495 0 0 0-2.247 9.255c-.048.3-.081.604-.081.916a6 6 0 0 0 3.67 5.53 3.47 3.47 0 0 0 3.54 1.397c.031-.007.059-.021.088-.027.2-.047.396-.105.58-.184l.017-.01A3.492 3.492 0 0 0 12 20.945c.313.32.688.582 1.104.763.007.002.012.007.018.009.184.079.379.137.579.184.03.006.056.02.088.027a3.469 3.469 0 0 0 3.541-1.397A6 6 0 0 0 21 15c0-.312-.034-.616-.081-.916A6.464 6.464 0 0 0 22 10.5z"/>
</svg>
