<svg xmlns="http://www.w3.org/2000/svg" width="24" height="24">
    <path d="M2,4.14 L2,5 L4,5 L4,4 L5,4 L5,2 L4.14,2 C2.95811064,2 2,2.95811064 2,4.14 Z M5,2 L5,4 L11,4 L11,2 L5,2 L5,2 Z M13,2 L13,4 L19,4 L19,2 L13,2 L13,2 Z M19,2 L19,4 L20,4 L20,5 L22,5 L22,4.14 C22,2.96 21.04,2 19.86,2 L19,2 Z M2,11 L4,11 L4,5 L2,5 L2,11 Z M2,19 L4,19 L4,13 L2,13 L2,19 Z M2,19.86 C2,21.04 2.96,22 4.14,22 L5,22 L5,20 L4,20 L4,19 L2,19 L2,19.86 Z M20,13 L20,19 L22,19 L22,13 L20,13 L20,13 Z M20,5 L20,11 L22,11 L22,5 L20,5 L20,5 Z M20,20 L19,20 L19,22 L20,22 C21.11,22 22,21.11 22,20 L22,19 L20,19 L20,20 Z M13,20 L13,22 L19,22 L19,20 L13,20 Z M5,20 L5,22 L11,22 L11,20 L5,20 Z M12,7 C13.1,7 14,7.9 14,9 C14,10.1 13.1,11 12,11 C10.9,11 10,10.1 10,9 C10,7.9 10.9,7 12,7 Z M17,17 L7,17 L7,15.6666667 C7,13.8933333 10.3375,13 12,13 C13.6625,13 17,13.8933333 17,15.6666667 L17,17 Z"></path>
</svg>
