<svg xmlns="http://www.w3.org/2000/svg" width="24" height="24">
    <path d="M19.07 14.88l2.05 2.05L15.06 23H13v-2.06l6.07-6.06zM15 16l-6 6H4a2.002 2.002 0 01-1.995-1.85L2 20v-4h13zm-5 2H5v2h5v-2zm11.42-4.7l1.28 1.28c.22.21.22.56 0 .77l-1 1-2.05-2.05 1-1c.21-.22.56-.22.77 0zM22 9l-3 3a1 1 0 10-1 1l-2 2H2V9h20zm-12 2H5v2h5v-2zm5 0a1 1 0 100 2 1 1 0 000-2zm5-9c1.053 0 1.918.817 1.995 1.85L22 4v4H2V4c0-1.053.817-1.918 1.85-1.995L4 2h16zM10 4H5v2h5V4zm5 0a1 1 0 100 2 1 1 0 000-2zm3 0a1 1 0 100 2 1 1 0 000-2z"/>
</svg>
