<svg xmlns="http://www.w3.org/2000/svg" width="24" height="24">
    <path d="M17 17h-4v1h1a1 1 0 0 1 1 1h7v2h-7a1 1 0 0 1-1 1h-4a1 1 0 0 1-1-1H2v-2h7a1 1 0 0 1 1-1h1v-1H4c-1.1 0-2-.9-2-2l.01-12c0-1.1.89-2 1.99-2h6l2 2h8c1.1 0 2 .9 2 2v10c0 1.1-.9 2-2 2h-3zm-8.221-6.39V9.497H6.446v-1.38h2.568V7H5v6h1.446v-2.39H8.78zm5.629-2.493V7H9.393v1.117h1.768V13h1.446V8.117h1.801zm2.056 2.847h.923c.731 0 1.306-.175 1.725-.525.419-.35.628-.818.628-1.403 0-.396-.096-.75-.29-1.061a1.91 1.91 0 0 0-.82-.722A2.789 2.789 0 0 0 17.412 7h-2.394v6h1.446v-2.036zm0-1.116V8.117h.965c.26.003.467.088.618.255.15.168.226.392.226.672 0 .255-.073.453-.22.593-.147.14-.36.21-.64.21h-.949z"/>
</svg>
