<?xml version="1.0" encoding="UTF-8" standalone="no"?>
<svg width="512px" height="512px" viewBox="0 0 512 512" version="1.1" xmlns="http://www.w3.org/2000/svg" xmlns:xlink="http://www.w3.org/1999/xlink">
    <title>workload analytics</title>
    <desc>Copyright Teradata, Inc.</desc>
    <defs></defs>
    <g id="workload-analytics" fill-rule="evenodd">
        <g>
            <path d="M77.7902893,183.525818 L236.059319,25.2567887 L396.956356,186.153826 L343.147705,240 L236.400213,132.96933 L131.950085,237.829288 L77.7902893,183.525818 Z" id="Combined-Shape"></path>
            <path d="M476.090209,225.982495 L364.572168,337.6929 L344.300036,358 L324.027905,337.6929 L237.551578,251.067405 L152.995969,335.363207 L132.723837,355.670308 L112.451706,335.363207 L20,241.968284 L60.5442631,201.354083 L132.790104,274.508288 L237.349096,169.636174 L344.207848,276.679252 L434.83438,186.073441 L411.124228,163.137294 L503.998603,157.001399 L500.9554,250.035975 L476.090209,225.982495 Z" id="Combined-Shape"></path>
            <path d="M237.5,288 L329,379.5 L237.5,471 L146,379.5 L237.5,288 Z M184.325058,382.482989 L237.760906,323.602974 L291.003321,382.482989 L184.325058,382.482989 Z" id="Combined-Shape"></path>
        </g>
    </g>
</svg>