<?xml version="1.0" standalone="no"?>
<svg width="24px" height="24px" version="1.1" xmlns="http://www.w3.org/2000/svg" xmlns:xlink="http://www.w3.org/1999/xlink">
    <defs>
        <svg id="alias_arrow" viewBox="0 0 24 24">
            <path d="M8.333 6v5.333h5.78L11.727 8.94l.94-.94 4 4-4 4-.94-.94 2.386-2.393H7V6z"/>
        </svg>
        <svg id="api" viewBox="0 0 24 24">
            <style>.darkmode { display: none; }</style>
            <path class="darkmode" d="M9 17H6c-3.31 0-6-2.69-6-6a5.994 5.994 0 0 1 5.35-5.96A7.496 7.496 0 0 1 12 1a7.49 7.49 0 0 1 7.35 6.04C21.95 7.22 24 9.36 24 12c0 2.76-2.24 5-5 5h-6v1h1a1 1 0 0 1 1 1h7v2h-7a1 1 0 0 1-1 1h-4a1 1 0 0 1-1-1H2v-2h7a1 1 0 0 1 1-1h1v-1H9zm-.626-5.12l.35 1.12h1.553L8.06 7H6.7l-2.2 6h1.545l.346-1.12h1.983zm-1.636-1.118l.642-2.08.647 2.08h-1.29zm5.423.202h.923c.73 0 1.305-.175 1.724-.525.42-.35.629-.818.629-1.403 0-.396-.097-.75-.29-1.061a1.91 1.91 0 0 0-.82-.722A2.789 2.789 0 0 0 13.108 7h-2.395v6h1.447v-2.036zm0-1.116V8.117h.964c.261.003.467.088.618.255.151.168.227.392.227.672 0 .255-.074.453-.22.593-.148.14-.361.21-.641.21h-.948zM17.749 13V7h-1.443v6h1.443z"/>
            <path class="lightmode" d="M17.749 9v4h-1.443V7h.987A5.499 5.499 0 0 0 6.71 7H6c-2.21 0-4 1.79-4 4s1.79 4 4 4h13c1.66 0 3-1.34 3-3s-1.34-3-3-3h-1.251zM9 17H6c-3.31 0-6-2.69-6-6a5.994 5.994 0 0 1 5.35-5.96A7.496 7.496 0 0 1 12 1a7.49 7.49 0 0 1 7.35 6.04C21.95 7.22 24 9.36 24 12c0 2.76-2.24 5-5 5h-6v1h1a1 1 0 0 1 1 1h7v2h-7a1 1 0 0 1-1 1h-4a1 1 0 0 1-1-1H2v-2h7a1 1 0 0 1 1-1h1v-1H9zm-.626-5.12l.35 1.12h1.553L8.06 7H6.7l-2.2 6h1.545l.346-1.12h1.983zm-1.636-1.118h1.29l-.648-2.08-.642 2.08zm5.423.202V13h-1.447V7h2.395c.458 0 .864.084 1.217.253.353.17.627.41.82.722.194.311.29.665.29 1.06 0 .586-.209 1.054-.628 1.404-.419.35-.993.525-1.724.525h-.923zm0-1.116h.948c.28 0 .493-.07.64-.21.147-.14.22-.339.22-.594 0-.28-.075-.504-.226-.672-.151-.167-.357-.252-.618-.255h-.964v1.73z"/>
        </svg>
        <svg id="application" viewBox="0 0 24 24">
            <path d="M20.47 17.38l-7.9 4.44c-.16.12-.36.18-.57.18-.21 0-.41-.06-.57-.18l-7.9-4.44A.991.991 0 013 16.5v-9c0-.38.21-.71.53-.88l7.9-4.44c.16-.12.36-.18.57-.18.21 0 .41.06.57.18l7.9 4.44c.32.17.53.5.53.88v9c0 .38-.21.71-.53.88zM10.11 5.22L16 8.61l1.96-1.11L12 4.15l-1.89 1.07zM12 10.85l1.96-1.1-5.88-3.4L6.04 7.5 12 10.85zm-1 8.44v-6.71L5 9.21v6.7l6 3.38zm8-3.38v-6.7l-6 3.37v6.71l6-3.38z"/>
        </svg>
        <svg id="bucket" viewBox="0 0 24 24">
            <path d="M20 8v2h-1.086l-.918 10.091a1.001 1.001 0 01-.878.902L17 21H7c-.477 0-.882-.337-.978-.793l-.018-.116L5.086 10H4V8h16zm-8-7a6.002 6.002 0 015.917 5h-2.043a4.002 4.002 0 00-7.748 0H6.083A6.002 6.002 0 0112 1z"/>
        </svg>
        <svg id="cluster_analysis" viewBox="0 0 24 24">
            <path d="M4 13c-.55 0-1-.45-1-1s.45-1 1-1 1 .45 1 1-.45 1-1 1zm14.5-1c0-.28.22-.5.5-.5s.5.22.5.5-.22.5-.5.5-.5-.22-.5-.5zM12 18.5c.28 0 .5.22.5.5s-.22.5-.5.5-.5-.22-.5-.5.22-.5.5-.5zm4-5.5c-.55 0-1-.45-1-1s.45-1 1-1 1 .45 1 1-.45 1-1 1zm0-4c-.55 0-1-.45-1-1s.45-1 1-1 1 .45 1 1-.45 1-1 1zm-.5 7c0-.275.225-.5.5-.5s.5.225.5.5-.225.5-.5.5a.501.501 0 0 1-.5-.5zM12 6.5c.83 0 1.5.67 1.5 1.5s-.67 1.5-1.5 1.5-1.5-.67-1.5-1.5.67-1.5 1.5-1.5zM12 5c-.55 0-1-.45-1-1s.45-1 1-1 1 .45 1 1-.45 1-1 1zm-4 5.5c.83 0 1.5.67 1.5 1.5s-.67 1.5-1.5 1.5-1.5-.67-1.5-1.5.67-1.5 1.5-1.5zM8 15c.55 0 1 .45 1 1s-.45 1-1 1-1-.45-1-1 .45-1 1-1zm4 0c.55 0 1 .45 1 1s-.45 1-1 1-1-.45-1-1 .45-1 1-1zm0-4.5c.83 0 1.5.67 1.5 1.5s-.67 1.5-1.5 1.5-1.5-.67-1.5-1.5.67-1.5 1.5-1.5zm-4-4c.83 0 1.5.67 1.5 1.5S8.83 9.5 8 9.5 6.5 8.83 6.5 8 7.17 6.5 8 6.5zM5 5v4H3V5c0-1.1.9-2 2-2h4v2H5zm14 4V5h-4V3h4c1.1 0 2 .9 2 2v4h-2zM5 15v4h4v2H5c-1.1 0-2-.9-2-2v-4h2zm15.253 2.747L23 19l-2.747 1.253L19 23l-1.253-2.747L15 19l2.747-1.253L19 15l1.253 2.747z"/>
        </svg>
        <svg id="connected_identity" viewBox="0 0 24 24">
            <path d="M13 16v2h1a1 1 0 0 1 1 1h7v2h-7a1 1 0 0 1-1 1h-4a1 1 0 0 1-1-1H2v-2h7a1 1 0 0 1 1-1h1v-2H5v-1.5c0-1.93 3.13-3.5 7-3.5s7 1.57 7 3.5V16h-6zM12 2a3.5 3.5 0 1 1 0 7 3.5 3.5 0 0 1 0-7z"/>
        </svg>
        <svg id="data_preparation" viewBox="0 0 24 24">
            <path d="M15 5V3h2v2h-2zm0 16v-2h2v2h-2zm4 0v-2h2c0 1.1-.9 2-2 2zm0-12V7h2v2h-2zm0-6c1.1 0 2 .9 2 2h-2V3zm0 14v-2h2v2h-2zm0-4v-2h2v2h-2zM3 8.666c0 1.935 2.506 3.575 6 4.185v3.333C5.506 15.575 3 13.935 3 12V8.666zm0 5.557c0 1.935 2.506 3.574 6 4.185v3.333c-3.494-.61-6-2.25-6-4.185v-3.333zm0-7.779C3 4.51 5.506 2.87 9 2.26v8.37c-3.494-.61-6-2.25-6-4.185zM11 23V1h2v22h-2z"/>
        </svg>
        <svg id="database" viewBox="0 0 24 24">
            <path d="M3 14.223v3.333C3 20.01 7.027 22 12 22s9-1.99 9-4.444v-3.333c0 2.455-4.027 4.444-9 4.444s-9-1.99-9-4.444m0-5.556V12c0 2.455 4.027 4.445 9 4.445s9-1.99 9-4.445V8.667c0 2.455-4.027 4.445-9 4.445s-9-1.99-9-4.445M12 2C7.027 2 3 3.989 3 6.445c0 2.455 4.027 4.444 9 4.444s9-1.99 9-4.444C21 3.989 16.973 2 12 2"/>
        </svg>
        <svg id="database_changed" viewBox="0 0 24 24">
            <path d="M20 16a4 4 0 110 8 4 4 0 010-8zM3 14.223c0 2.455 4.027 4.444 9 4.444.752 0 1.483-.046 2.18-.132-.118.469-.18.96-.18 1.465 0 .647.102 1.27.292 1.854-.731.095-1.5.146-2.292.146-4.872 0-8.835-1.909-8.995-4.295L3 17.555v-3.332zm18-5.556V12c0 .72-.346 1.4-.962 2.001L20 14c-1.83 0-3.468.819-4.568 2.11a17.242 17.242 0 01-3.432.335c-4.872 0-8.835-1.91-8.995-4.296L3 12V8.668c0 2.455 4.027 4.445 9 4.445 4.872 0 8.835-1.91 8.995-4.296l.005-.15zM12 2c4.973 0 9 1.989 9 4.445 0 2.455-4.027 4.444-9 4.444s-9-1.99-9-4.444C3 3.989 7.027 2 12 2z"/>
        </svg>
        <svg id="database_edit" viewBox="0 0 24 24">
            <path d="M19.07 14.88l2.05 2.05L15.06 23H13v-2.06l6.07-6.06zM3 14.223c0 2.455 4.027 4.444 9 4.444.113 0 .225-.001.337-.003l-3.12 3.12c-3.51-.563-6.071-2.16-6.211-4.064L3 17.556v-3.333zm0-5.556c0 2.455 4.027 4.445 9 4.445 3.485 0 6.506-.978 8.001-2.408L20 11l-5.23 5.231c-.78.125-1.608.198-2.467.212l-.303.003c-4.872 0-8.835-1.91-8.995-4.296L3 12V8.668zM21.42 13.3l1.28 1.28c.22.21.22.56 0 .77l-1 1-2.05-2.05 1-1c.21-.22.56-.22.77 0zM12 2c4.973 0 9 1.989 9 4.445 0 2.455-4.027 4.444-9 4.444s-9-1.99-9-4.444C3 3.989 7.027 2 12 2z"/>
        </svg>
        <svg id="database_foreign" viewBox="0 0 24 24">
            <path d="M21 8.667V12c0 2.288-3.498 4.172-8 4.418V19h1a1 1 0 011 1h7v2h-7a1 1 0 01-1 1h-4a1 1 0 01-1-1H2v-2h7a1 1 0 011-1h1v-2.582c-4.502-.246-8-2.13-8-4.418V8.667c0 2.455 4.027 4.445 9 4.445s9-1.99 9-4.445zM12 2C7.027 2 3 3.989 3 6.445c0 2.455 4.027 4.444 9 4.444s9-1.99 9-4.444C21 3.989 16.973 2 12 2"/>
        </svg>
        <svg id="database_lab" viewBox="0 0 24 24">
            <path d="M3 14.223c0 2.455 4.027 4.444 9 4.444.241 0 .48-.005.717-.014l-2.021 2.427-.078.099-.075.103-.073.106-.104.176a2.994 2.994 0 00-.161.347c-4.014-.4-7.057-2.12-7.2-4.202L3 17.556v-3.333zm0-5.556c0 2.455 4.027 4.445 9 4.445.688 0 1.357-.038 2-.11v3.333c-.643.072-1.313.11-2 .11-4.872 0-8.835-1.91-8.995-4.296L3 12V8.668zm18 0V11h-1.338c.799-.638 1.28-1.384 1.333-2.184l.005-.15zM20 13v2h-1v1.638l4.768 5.722a1 1 0 01-.64 1.632L23 24H13a1.002 1.002 0 01-.844-1.536l.076-.104L17 16.638V15h-1v-2h4zM12 2c4.973 0 9 1.989 9 4.445 0 2.455-4.027 4.444-9 4.444s-9-1.99-9-4.444C3 3.989 7.027 2 12 2z"/>
        </svg>
        <svg id="database_search" viewBox="0 0 24 24">
            <path d="M20.996 12.04a6.5 6.5 0 0 0-1.058-1.279C20.614 10.137 21 9.424 21 8.666v3.333c0 .014-.004.027-.004.041zm-11.47.898a6.475 6.475 0 0 0-.488 3.255C6.85 15.816 5.048 15.037 4 14.03c-.636-.608-1-1.297-1-2.03V8.665c0 .733.364 1.422 1 2.031 1.126 1.08 3.117 1.902 5.526 2.24zm.221 5.582a6.511 6.511 0 0 0 4.427 3.345C13.476 21.95 12.751 22 12 22c-3.489 0-6.506-.982-8-2.415-.635-.608-1-1.297-1-2.03v-3.332c0 .732.365 1.421 1 2.03 1.16 1.113 3.24 1.948 5.747 2.267zM19.514 4C20.45 4.702 21 5.541 21 6.445c0 1.249-1.047 2.376-2.726 3.183a6.477 6.477 0 0 0-7.318 1.228C7.915 10.683 5.343 9.762 4 8.475c-.635-.609-1-1.298-1-2.03 0-.733.365-1.423 1-2.031.149-.143.309-.281.486-.414 1.608-1.203 4.364-1.998 7.502-2h.025c3.138.002 5.894.797 7.5 2zm-7.834 9.09a4.517 4.517 0 0 1 6.21-1.41C20 13 20.62 15.79 19.3 17.889L22.39 21 21 22.389 17.89 19.3a4.523 4.523 0 0 1-4.8 0c-2.09-1.3-2.73-4.1-1.41-6.21zm2.08 4.179a2.514 2.514 0 0 0 1.775.732c.638 0 1.276-.242 1.765-.732h-.03c.98-.969.99-2.549.03-3.539a2.504 2.504 0 0 0-3.531 0 2.507 2.507 0 0 0-.009 3.539z"/>
        </svg>
        <svg id="database_synced" viewBox="0 0 24 24">
            <path d="M24 18c0 3.31-2.691 6-6 6a6.02 6.02 0 01-4.035-1.572l-.201-.192L12 24v-5h5l-1.811 1.811c.747.75 1.734 1.19 2.811 1.19 2.14 0 3.89-1.688 3.995-3.801L22 18h2zM3 14.223c0 2.115 2.99 3.885 7 4.334v3.333c-3.911-.438-6.854-2.133-6.995-4.18L3 17.556v-3.333zM24 12v5h-5l1.811-1.811c-.746-.748-1.733-1.189-2.81-1.189a4.004 4.004 0 00-3.996 3.8L14 18h-2c0-3.308 2.691-6 6-6 1.524 0 2.943.563 4.038 1.568l.201.193L24 12zM3 8.667c0 2.4 3.85 4.356 8.67 4.442a7.945 7.945 0 00-1.5 3.244c-3.997-.407-7.023-2.123-7.165-4.2L3 12V8.667zM12 2c4.973 0 9 1.989 9 4.445 0 2.455-4.027 4.444-9 4.444s-9-1.99-9-4.444C3 3.989 7.027 2 12 2zm9 6.667l.001 1.915a7.94 7.94 0 00-.667-.236c.382-.46.611-.96.657-1.482L21 8.667z"/>
        </svg>
        <svg id="data_source" viewBox="0 0 24 24">
            <path d="M20 2c1.103 0 2 .897 2 2v16c0 1.103-.897 2-2 2h-4c-1.103 0-2-.897-2-2V4c0-1.103.897-2 2-2zM7.707 7.293L12.414 12l-4.707 4.707-1.414-1.414L8.586 13H2v-2h6.586L6.293 8.707l1.414-1.414zM18 8a1 1 0 100 2 1 1 0 000-2zm0-3a1 1 0 100 2 1 1 0 000-2z"/>
        </svg>
        <svg id="engine" viewBox="0 0 24 24">
            <path d="M9 19v3H7v-3h2zm4 0v3h-2v-3h2zm4 0v3h-2v-3h2zM16 6a2 2 0 012 2v8a2 2 0 01-2 2H8a2 2 0 01-2-2V8a2 2 0 012-2zm6 9v2h-3v-2h3zM5 15v2H2v-2h3zm10-2h-4v2h4v-2zm7-2v2h-3v-2h3zM5 11v2H2v-2h3zm17-4v2h-3V7h3zM5 7v2H2V7h3zm4-5v3H7V2h2zm4 0v3h-2V2h2zm4 0v3h-2V2h2z"/>
        </svg>
        <svg id="formula" viewBox="0 0 24 24">
            <path d="M12.42 5.02a2 2 0 0 0-2.17 1.82L10 9.73h2.82v2h-3l-.44 5.07A4 4 0 0 1 2 18.56l1.5-1.5a2 2 0 0 0 3.9-.44l.42-4.89h-3v-2H8l.27-3.07a4 4 0 0 1 7.39-1.76l-1.5 1.5a2 2 0 0 0-1.74-1.38zM22 13.38l-1.41-1.41-2.83 2.83-2.83-2.83-1.41 1.41 2.83 2.83-2.83 2.83 1.41 1.41 2.83-2.83 2.83 2.83L22 19.04l-2.83-2.83L22 13.38z"/>
        </svg>
        <svg id="file" viewBox="0 0 24 24">
            <path d="M14 2l6 6v12a2 2 0 01-2 2H5.99c-1.05 0-1.909-.82-1.985-1.851L4 20l.01-16c0-1.05.81-1.918 1.841-1.994L6 2h8zm-1 12H7v2h6v-2zm3-4H7v2h9v-2z"/>
        </svg>
        <svg id="file_changed" viewBox="0 0 24 24">
            <path d="M20 24a4 4 0 100-8 4 4 0 000 8zM14 2l6 6v6a6 6 0 00-5.658 8H5.99c-1.05 0-1.909-.82-1.985-1.851L4 20l.01-16c0-1.05.81-1.918 1.841-1.994L6 2h8zm-1 12H7v2h6v-2zm3-4H7v2h9v-2z"/>
        </svg>
        <svg id="file_edit" viewBox="0 0 24 24">
            <path d="M14 2l6 6v2.999L9 22H5.99c-1.05 0-1.909-.82-1.985-1.851L4 20l.01-16c0-1.05.81-1.918 1.841-1.994L6 2h8zm-1 12H7v2h6v-2zm3-4H7v2h9v-2zm6.7 5.35l-1 1-2.05-2.05 1-1c.21-.22.56-.22.77 0l1.28 1.28c.22.21.22.56 0 .77zM13 20.94l6.07-6.06 2.05 2.05L15.06 23H13v-2.06z"/>
        </svg>
        <svg id="file_foreign" viewBox="0 0 24 24">
            <path d="M14 1l6 6v9c0 1.05-.82 1.918-1.851 1.994L18 18h-5v1h1a1 1 0 011 1h7v2h-7a1 1 0 01-1 1h-4a1 1 0 01-1-1H2v-2h7a1 1 0 011-1h1v-1H5.99c-1.05 0-1.909-.82-1.985-1.851L4 16l.01-13c0-1.05.81-1.918 1.841-1.994L6 1h8zm-1 10H7v2h6v-2zm3-4H7v2h9V7z"/>
        </svg>
        <svg id="file_lab" viewBox="0 0 24 24">
            <path d="M20 13v2h-1v1.638l4.768 5.722a1 1 0 01-.64 1.632L23 24H13a1.002 1.002 0 01-.844-1.536l.076-.104L17 16.638V15h-1v-2h4zM14 2l6 6v2.999h-4V10H7v2h7v5.113l-3.304 3.967-.078.099-.075.103-.073.106-.104.176c-.077.14-.142.287-.194.436H5.99c-1.05 0-1.909-.82-1.985-1.851L4 20l.01-16c0-1.05.81-1.918 1.841-1.994L6 2h8zm-1 12H7v2h6v-2z"/>
        </svg>
        <svg id="file_search" viewBox="0 0 24 24">
            <path d="M11.68 13.09a4.52 4.52 0 016.21-1.41c2.046 1.28 2.691 3.942 1.525 6.017l-.115.193L22.39 21 21 22.39l-3.11-3.09c-1.47.92-3.33.92-4.8 0-2.09-1.3-2.73-4.1-1.41-6.21zM14 2l6 6v2.801a6.49 6.49 0 00-1.05-.817c-2.183-1.372-4.884-1.278-6.937.015L7 10v2l3.004-.001-.015.023a6.524 6.524 0 00-.824 1.977L7 14v2h2.014a6.46 6.46 0 003.02 4.998l.237.142c1 .569 2.115.852 3.23.85L15.5 22H5.99c-1.05 0-1.909-.82-1.985-1.851L4 20l.01-16c0-1.05.81-1.918 1.841-1.994L6 2h8zm3.3 11.73c-.98-.97-2.56-.97-3.53 0-.98.98-.98 2.56-.01 3.54a2.509 2.509 0 003.409.122l.131-.122h-.03c.98-.97.99-2.55.03-3.54z"/>
        </svg>
        <svg id="file_synced" viewBox="0 0 24 24">
            <path d="M24 18c0 3.31-2.691 6-6 6a6.026 6.026 0 01-4.236-1.764L12 24v-5h5l-1.811 1.811c.747.75 1.734 1.19 2.811 1.19 2.206 0 4-1.795 4-4zm0-6v5h-5l1.811-1.811c-.746-.748-1.733-1.189-2.81-1.189-2.207 0-4 1.794-4 4h-2c0-3.308 2.69-6 6-6 1.618 0 3.12.636 4.238 1.761L24 12zM14 2l6 6v2.252A8.014 8.014 0 0018 10c-.69 0-1.36.087-2 .252V10H7v2h5.707a8.037 8.037 0 00-1.637 2H7v2h3.252a7.986 7.986 0 00-.237 1.504l-.011.247L10 18v4H5.99c-1.05 0-1.909-.82-1.985-1.851L4 20l.01-16c0-1.05.81-1.918 1.841-1.994L6 2h8z"/>
        </svg>
        <svg id="lab" viewBox="0 0 24 24">
            <path d="M15.333 2c.368 0 .667.448.667 1v1c0 .552-.299 1-.667 1H14v3l7.536 9.72A2 2 0 0120 21H4a2 2 0 01-1.536-3.28L10 8V5H8.667c-.34 0-.62-.382-.662-.875L8 4V3c0-.552.299-1 .667-1zM9.5 14a2.5 2.5 0 100 5 2.5 2.5 0 000-5zm5-2a1.5 1.5 0 10.001 3.001 1.5 1.5 0 000-3.001z"/>
        </svg>
        <svg id="loader_dots" viewBox="0 0 24 24">
            <path d="M6,10 C4.9,10 4,10.9 4,12 C4,13.1 4.9,14 6,14 C7.1,14 8,13.1 8,12 C8,10.9 7.1,10 6,10 Z">
                <animate 
                    attributeName="fill-opacity"
                    values="0;1;0" 
                    begin="0s"
                    dur="1s"
                    repeatCount="indefinite"/>
            </path>
            <path d="M12,10 C10.9,10 10,10.9 10,12 C10,13.1 10.9,14 12,14 C13.1,14 14,13.1 14,12 C14,10.9 13.1,10 12,10 Z">
                <animate 
                    attributeName="fill-opacity"
                    values="0;1;0" 
                    begin="0.33s"
                    dur="1s"
                    repeatCount="indefinite"/>
            </path>
            <path d="M18,10 C16.9,10 16,10.9 16,12 C16,13.1 16.9,14 18,14 C19.1,14 20,13.1 20,12 C20,10.9 19.1,10 18,10 Z">
                <animate 
                    attributeName="fill-opacity"
                    values="0;1;0" 
                    begin="0.66s"
                    dur="1s"
                    repeatCount="indefinite"/>
            </path>
        </svg>
        <svg id="machine_learning" viewBox="0 0 24 24">
            <style>.darkmode { display: none; }</style>
            <path class="lightmode" d="M19.73 11.985c-.01.028-.018.058-.027.085.002.003.003.008.003.012A3.939 3.939 0 0 0 17 11a1 1 0 1 0 0 2 2 2 0 0 1 2 2 3.994 3.994 0 0 1-3.053 3.875 1.497 1.497 0 1 1-2.484-1.455l.027-.021a1.48 1.48 0 0 1 .19-.153c.024-.015.05-.026.075-.041.056-.032.112-.065.171-.091.047-.02.098-.03.149-.045.043-.013.084-.03.128-.04.096-.018.196-.03.298-.03a1 1 0 1 0 0-2 3.46 3.46 0 0 0-1.5.35V11c0-.09.014-.178.027-.266.006-.05.008-.101.016-.15.181-.846.9-1.487 1.78-1.565C14.882 9.013 14.94 9 15 9a.993.993 0 0 0 .74-.341.99.99 0 0 0 .26-.66 1 1 0 0 0-1-1c-.33 0-.646.052-.952.128-.04.01-.076.025-.115.036a3.966 3.966 0 0 0-.933.393V4.51l.024-.02c.114-.084.236-.155.362-.22A2.48 2.48 0 0 1 14.502 4c.114 0 .223.019.333.034a2.485 2.485 0 0 1 2.143 2.235 4.477 4.477 0 0 1 1.89 1.273A4.468 4.468 0 0 1 20 10.5c0 .524-.107 1.018-.27 1.485zM11 5.817V7.556a3.991 3.991 0 0 0-.934-.393c-.039-.011-.075-.026-.115-.036A3.936 3.936 0 0 0 9.002 7a1 1 0 0 0-1 1 .99.99 0 0 0 .258.659.994.994 0 0 0 .742.34c.06 0 .117.014.176.019a1.998 1.998 0 0 1 1.779 1.566c.008.048.01.099.017.149.012.088.027.176.027.267v4.35A3.467 3.467 0 0 0 9.5 15a1 1 0 1 0 0 2c.101 0 .201.01.297.03.044.009.085.026.128.039.05.015.101.026.148.045.06.026.115.059.171.09.026.016.053.027.076.042.069.045.131.098.19.153l.027.02c.284.274.463.655.463 1.08a1.497 1.497 0 1 1-2.948.375A3.993 3.993 0 0 1 5.002 15a2 2 0 0 1 2-2 1 1 0 0 0 0-2 3.94 3.94 0 0 0-2.708 1.082l.003-.012c-.009-.027-.016-.057-.026-.085A4.458 4.458 0 0 1 4 10.5c0-1.138.436-2.165 1.133-2.958a4.477 4.477 0 0 1 1.89-1.273 2.485 2.485 0 0 1 2.143-2.235c.11-.015.22-.034.335-.034.4 0 .776.104 1.112.272.127.064.248.135.362.219l.026.02v1.306zM22 10.5a6.496 6.496 0 0 0-3.328-5.671 4.496 4.496 0 0 0-4.171-2.83c-.926 0-1.787.282-2.5.76A4.478 4.478 0 0 0 9.5 2a4.496 4.496 0 0 0-4.172 2.83 6.495 6.495 0 0 0-2.247 9.255c-.048.3-.081.604-.081.916a6 6 0 0 0 3.67 5.53 3.47 3.47 0 0 0 3.54 1.397c.031-.007.059-.021.088-.027.2-.047.396-.105.58-.184l.017-.01A3.492 3.492 0 0 0 12 20.945c.313.32.688.582 1.104.763.007.002.012.007.018.009.184.079.379.137.579.184.03.006.056.02.088.027a3.469 3.469 0 0 0 3.541-1.397A6 6 0 0 0 21 15c0-.312-.034-.616-.081-.916A6.464 6.464 0 0 0 22 10.5z"/>
            <path class="darkmode" d="M15 3c2 0 3.644 1.472 3.939 3.39A5 5 0 0122 11c0 .745-.174 1.446-.467 2.081A5.98 5.98 0 0017 11a1 1 0 100 2c2.122 0 3.846 1.664 3.976 3.754a4.48 4.48 0 01-4.241 4.222c-.018.033-.046.059-.067.091a.985.985 0 00-.604.613c-.307.199-.669.32-1.064.32-1.103 0-2-.898-2-2a2.116 2.116 0 01.096-.58A1.997 1.997 0 0115 18a1 1 0 100-2c-.731 0-1.409.212-2 .556V10c0-1.103.897-2 2-2a1 1 0 100-2c-.731 0-1.409.212-2 .556V3.554A3.967 3.967 0 0115 3zM9 3c.732 0 1.409.211 2 .554v3.002A3.962 3.962 0 009 6a1 1 0 100 2c1.103 0 2 .897 2 2v6.556A3.962 3.962 0 009 16a1 1 0 100 2c.899 0 1.653.601 1.904 1.42A2.116 2.116 0 0111 20c0 1.102-.897 2-2 2-.395 0-.757-.121-1.064-.32a.985.985 0 00-.604-.613c-.021-.032-.049-.058-.067-.091a4.48 4.48 0 01-4.241-4.222C3.154 14.664 4.878 13 7 13a1 1 0 100-2 5.98 5.98 0 00-4.533 2.081A4.948 4.948 0 012 11a5 5 0 013.061-4.61A3.99 3.99 0 019 3z"/>
        </svg>
        <svg id="model" viewBox="0 0 24 24">
            <style>.darkmode { display: none; }</style>
            <path class="lightmode" d="M9 21c0 .55.45 1 1 1h4c.55 0 1-.45 1-1v-1H9v1zm3-19C8.14 2 5 5.14 5 9c0 2.38 1.19 4.47 3 5.74V17c0 .55.45 1 1 1h6c.55 0 1-.45 1-1v-2.26c1.81-1.27 3-3.36 3-5.74 0-3.86-3.14-7-7-7zm2.85 11.1l-.85.6V16h-4v-2.3l-.85-.6A4.997 4.997 0 0 1 7 9c0-2.76 2.24-5 5-5s5 2.24 5 5c0 1.63-.8 3.16-2.15 4.1z"/>
            <path class="darkmode" d="M9 21c0 .55.45 1 1 1h4c.55 0 1-.45 1-1v-1H9v1zm3-19C8.14 2 5 5.14 5 9c0 2.38 1.19 4.47 3 5.74V17c0 .55.45 1 1 1h6c.55 0 1-.45 1-1v-2.26c1.81-1.27 3-3.36 3-5.74 0-3.86-3.14-7-7-7z"/>
        </svg>
        <svg id="model_configuration" viewBox="0 0 24 24">
            <style>.darkmode { display: none; }</style>
            <path class="lightmode" d="M11.515 20a7.97 7.97 0 0 0 .383 2H9.333C8.6 22 8 21.55 8 21v-1h3.515zm7-8.44a7.948 7.948 0 0 0-3.037 1.023A4.988 4.988 0 0 0 17 9c0-2.76-2.24-5-5-5S7 6.24 7 9a4.997 4.997 0 0 0 2.15 4.1l.85.6V16h2.304a7.942 7.942 0 0 0-.664 2H9c-.55 0-1-.45-1-1v-2.26C6.19 13.47 5 11.38 5 9c0-3.86 3.14-7 7-7s7 3.14 7 7c0 .905-.172 1.768-.485 2.56zm4.329 7.93l1.07.83a.26.26 0 0 1 .06.32l-1 1.73c-.07.11-.2.15-.31.11l-1.25-.5c-.25.2-.54.36-.84.49l-.19 1.32c-.02.12-.13.21-.25.21h-2c-.13 0-.23-.09-.25-.21l-.19-1.32c-.31-.12-.59-.29-.85-.49l-1.24.5c-.12.04-.25 0-.31-.11l-1-1.73a.26.26 0 0 1 .06-.32l1.06-.83a3.908 3.908 0 0 1 0-.98l-1.06-.83a.248.248 0 0 1-.06-.32l1-1.73c.07-.11.2-.15.31-.11l1.24.5c.26-.2.55-.36.85-.49l.19-1.32c.02-.12.13-.21.25-.21h2c.12 0 .23.09.24.21l.19 1.32c.31.12.59.29.85.49l1.24-.5c.12-.04.25 0 .31.11l1 1.73a.26.26 0 0 1-.06.32l-1.06.83c.03.16.04.32.04.49 0 .17-.02.33-.04.49zm-3.71 1.01c.83 0 1.5-.67 1.5-1.5s-.67-1.5-1.5-1.5-1.5.67-1.5 1.5.67 1.5 1.5 1.5z"/>
            <path class="darkmode" d="M20.134 14c.12 0 .23.09.24.21l.19 1.32c.31.12.59.29.85.49l1.24-.5c.12-.04.25 0 .31.11l1 1.73a.26.26 0 01-.06.32l-1.06.83c.03.16.04.32.04.49 0 .17-.02.33-.04.49l1.07.83a.26.26 0 01.06.32l-1 1.73c-.07.11-.2.15-.31.11l-1.25-.5c-.25.2-.54.36-.84.49l-.19 1.32c-.02.12-.13.21-.25.21h-2c-.13 0-.23-.09-.25-.21l-.19-1.32c-.31-.12-.59-.29-.85-.49l-1.24.5c-.12.04-.25 0-.31-.11l-1-1.73a.26.26 0 01.06-.32l1.06-.83a3.908 3.908 0 010-.98l-1.06-.83a.248.248 0 01-.06-.32l1-1.73c.07-.11.2-.15.31-.11l1.24.5c.26-.2.55-.36.85-.49l.19-1.32c.02-.12.13-.21.25-.21zm-8.235 8H9.333C8.6 22 8 21.55 8 21v-1h3.515a7.97 7.97 0 00.384 2zm7.235-4.5c-.83 0-1.5.67-1.5 1.5s.67 1.5 1.5 1.5 1.5-.67 1.5-1.5-.67-1.5-1.5-1.5zM12 2c3.86 0 7 3.14 7 7 0 .906-.172 1.77-.485 2.561a8.003 8.003 0 00-6.875 6.44L9 18c-.55 0-1-.45-1-1v-2.26C6.19 13.47 5 11.38 5 9c0-3.86 3.14-7 7-7z"/>
        </svg>
        <svg id="node_branch" viewBox="0 0 24 24">
            <path d="M20 14v6h-6l2.29-2.29-2.88-2.88 1.42-1.42 2.88 2.88L20 14zm0-4l-2.29-2.29-5.3 5.29H4v-2h7.59l4.7-4.71L14 4h6v6z"/>
        </svg>
        <svg id="node_merge" viewBox="0 0 24 24">
            <path d="M20 12l-5 5v-4H9L3 7l1.5-1.5L10 11h5V7l5 5zM7.82 15l-3.41 3.41L3 17l3.41-3.41L7.82 15z"/>
        </svg>
        <svg id="object_storage" viewBox="0 0 24 24">
            <style>.darkmode { display: none; }</style>
            <path class="lightmode" d="M6 17a3 3 0 01-3-3V4a3 3 0 013-3h12a3 3 0 013 3v10a3 3 0 01-3 3h-5v2h4v2H7v-2h4v-2zm-2 2a1 1 0 110 2 1 1 0 010-2zm16 0a1 1 0 110 2 1 1 0 010-2zm-1-9H5v4a1 1 0 00.883.993L6 15h12a1 1 0 001-1v-4zm-4 1v2H9v-2h6zm3-8H6a1 1 0 00-1 1v4h14V4a1 1 0 00-.883-.993L18 3zm-3 1v2H9V4h6z"/>
            <path class="darkmode" d="M21 10v4a2 2 0 01-2 2h-6v3h4v2H7v-2h4v-3H5a2 2 0 01-2-2v-4h18zM4 19a1 1 0 110 2 1 1 0 010-2zm16 0a1 1 0 110 2 1 1 0 010-2zm-5-8H9v2h6v-2zm4-9a2 2 0 012 2v4H3V4a2 2 0 012-2h14zm-4 1H9v2h6V3z"/>
        </svg>
        <svg id="operations" viewBox="0 0 24 24">
            <path d="M16.708 13.395c.107-.04.216.003.296.08l.923 1.154c.343-.013.71-.025 1.045.02l.915-1.112c.083-.101.234-.126.373-.045l1.891 1.092c.122.07.176.213.111.324l-.529 1.347c.219.288.403.593.547.924l1.461.223c.119.031.233.134.23.27L24 19.836c-.033.142-.097.254-.228.266l-1.442.173c-.073.17-.14.33-.231.488-.092.158-.197.296-.307.444l.584 1.355a.34.34 0 01-.097.342l-1.973 1.08c-.107.04-.215-.002-.295-.08l-.923-1.153c-.343.013-.71.024-1.054-.025l-.906 1.117c-.074.106-.225.13-.346.06l-1.9-1.096c-.14-.081-.194-.224-.139-.341l.524-1.338a5.577 5.577 0 01-.558-.905L13.248 20c-.103-.06-.233-.134-.219-.288L13 17.548c.022-.124.097-.255.228-.266l1.456-.178c.073-.169.14-.329.232-.487.086-.15.187-.302.297-.45l-.57-1.335c-.05-.129-.02-.247.112-.345zm2.736 3.662c-.932-.538-2.096-.241-2.618.662-.522.904-.196 2.061.735 2.599.932.538 2.097.241 2.619-.662.521-.904.195-2.06-.736-2.599zM8.444 5c.181 0 .335.126.335.294l.28 1.862c.434.182.84.406 1.218.686l1.792-.7c.154-.042.35 0 .434.154l1.442 2.422c.056.182.056.35-.084.448L12.35 11.3c.028.238.056.462.056.7 0 .238-.028.462-.056.7l1.54 1.148a.443.443 0 01.112.448l-1.47 2.422c-.084.182-.266.224-.434.182l-1.792-.7c-.378.238-.784.49-1.204.658l-.294 1.848c-.014.168-.168.294-.35.294H5.601c-.21 0-.364-.126-.378-.294l-.28-1.848a7.259 7.259 0 01-1.218-.658l-1.792.7c-.154 0-.35 0-.434-.182L.057 14.296c-.056-.154-.056-.35.084-.448L1.667 12.7c-.028-.238-.056-.462-.056-.7 0-.224.014-.462.042-.7L.141 10.166c-.14-.112-.182-.266-.098-.462l1.442-2.422c.084-.182.266-.224.434-.182l1.792.7c.378-.238.784-.49 1.19-.658l.308-1.848c.028-.168.182-.294.392-.294zM7 9.55c-1.4 0-2.52 1.092-2.52 2.45s1.12 2.45 2.52 2.45 2.52-1.092 2.52-2.45-1.12-2.45-2.52-2.45zM16.708.015c.107-.04.216.003.296.08l.923 1.154c.343-.013.71-.025 1.045.02l.915-1.112c.083-.101.234-.126.373-.045l1.891 1.092c.122.07.176.213.111.324l-.529 1.347c.219.288.403.593.547.924l1.461.223c.119.031.233.134.23.27L24 6.456c-.033.142-.097.254-.228.266l-1.442.173c-.073.17-.14.33-.231.488-.092.158-.197.296-.307.444l.584 1.355a.34.34 0 01-.097.342l-1.973 1.08c-.107.04-.215-.002-.295-.08l-.923-1.153c-.343.013-.71.024-1.054-.025l-.906 1.117c-.074.106-.225.13-.346.06l-1.9-1.096c-.14-.081-.194-.224-.139-.341l.524-1.338a5.577 5.577 0 01-.558-.905l-1.461-.223c-.103-.06-.233-.134-.219-.288L13 4.168c.022-.124.097-.255.228-.266l1.456-.178c.073-.169.14-.329.232-.487.086-.15.187-.302.297-.45l-.57-1.335c-.05-.129-.02-.247.112-.345zm2.736 3.662c-.932-.538-2.096-.241-2.618.662-.522.904-.196 2.061.735 2.599.932.538 2.097.241 2.619-.662.521-.904.195-2.06-.736-2.599z"/>
        </svg>
        <svg id="operators_divide" viewBox="0 0 24 24">
            <path d="M19 13H5v-2h14v2zm-7-8a2 2 0 1 1 0 4 2 2 0 0 1 0-4zm0 10a2 2 0 1 1 0 4 2 2 0 0 1 0-4z"/>
        </svg>
        <svg id="operators_equals" viewBox="0 0 24 24">
            <path d="M19,10 L5,10 L5,8 L19,8 L19,10 Z M19,16 L5,16 L5,14 L19,14 L19,16 Z"/>
        </svg>
        <svg id="operators_greater_than" viewBox="0 0 24 24">
            <path d="M8 16.59L12.58 12 8 7.41 9.41 6l6 6-6 6z"/>
        </svg>
        <svg id="operators_greater_than_or_equal" viewBox="0 0 24 24">
            <path d="M21,10 L13,10 L13,8 L21,8 L21,10 Z M21,16 L13,16 L13,14 L21,14 L21,16 Z M4.41,6 L10.41,12 L4.41,18 L3,16.59 L7.58,12 L3,7.41 L4.41,6 Z"/>
        </svg>
        <svg id="operators_less_than" viewBox="0 0 24 24">
            <path d="M15.41 16.59L10.83 12l4.58-4.59L14 6l-6 6 6 6z"/>
        </svg>
        <svg id="operators_less_than_or_equal" viewBox="0 0 24 24">
            <path d="M21,10 L13,10 L13,8 L21,8 L21,10 Z M21,16 L13,16 L13,14 L21,14 L21,16 Z M9,6 L10.41,7.41 L5.83,12 L10.41,16.59 L9,18 L3,12 L9,6 Z"/>
        </svg>
        <svg id="operators_multiply" viewBox="0 0 24 24">
            <polygon points="11 3 13 3 13 10.27 19.29 6.64 20.29 8.37 14 12 20.3 15.64 19.3 17.37 13 13.72 13 21 11 21 11 13.73 4.69 17.36 3.69 15.63 10 12 3.72 8.36 4.72 6.63 11 10.26"></polygon>
        </svg>
        <svg id="operators_not_equal" viewBox="0 0 24 24">
            <path d="M9,6 L10.41,7.41 L5.83,12 L10.41,16.59 L9,18 L3,12 L9,6 Z M15.0000002,6 L21.0000002,12 L15.0000002,18 L13.5900002,16.59 L18.1700002,12 L13.5900002,7.41 L15.0000002,6 Z"/>
        </svg>
        <svg id="operators_parenthesis" viewBox="0 0 24 24">
            <path d="M17.62 3C19.13 5.27 20 8.55 20 12c0 3.44-.87 6.72-2.38 9L16 19.96c1.26-1.89 2-4.83 2-7.96s-.74-6.08-2-7.97L17.62 3zM6.38 3L8 4.04C6.74 5.92 6 8.87 6 12s.74 6.08 2 7.96L6.38 21C4.87 18.73 4 15.45 4 12s.87-6.73 2.38-9z"/>
        </svg>
        <svg id="operators_parenthesis_left" viewBox="0 0 24 24">
            <path d="M12.38 3L14 4.04c-1.26 1.88-2 4.83-2 7.96s.74 6.08 2 7.96L12.38 21C10.87 18.73 10 15.45 10 12s.87-6.73 2.38-9z"/>
        </svg>
        <svg id="operators_parenthesis_right" viewBox="0 0 24 24">
            <path d="M11.62 3C13.13 5.27 14 8.55 14 12c0 3.44-.87 6.72-2.38 9L10 19.96c1.26-1.89 2-4.83 2-7.96s-.74-6.08-2-7.97L11.62 3z"/>
        </svg>
        <svg id="operators_subtract" viewBox="0 0 24 24">
            <rect x="5" y="11" width="14" height="2"></rect>
        </svg>
        <svg id="product_analyst" viewBox="0 0 24 24">
            <path d="M9 13a2 2 0 011.748 2.972L11.967 18H12a2 2 0 11-1.748 1.028L9.033 17H9a2 2 0 010-4zm-4 4a2 2 0 110 4 2 2 0 010-4zm14 0a2 2 0 110 4 2 2 0 010-4zm1-7a2 2 0 11-.972 3.748L17 14.966V15a2 2 0 11-1.028-1.748L18 12.032V12a2 2 0 012-2zM9 7a2 2 0 11-.972 3.748L6 11.966V12a2 2 0 11-1.028-1.748L7 9.032V9a2 2 0 012-2zm3-5a2 2 0 011.748 2.972L14.967 7H15a2 2 0 11-1.748 1.028L12.033 6H12a2 2 0 010-4zM5 3a2 2 0 110 4 2 2 0 010-4zm14 0a2 2 0 110 4 2 2 0 010-4z"/>
        </svg>
        <svg id="product_console" viewBox="0 0 24 24">
            <path d="M24 11c0-2.6-2-4.8-4.7-5-.7-3.5-3.8-6-7.3-6-2.9 0-5.4 1.6-6.7 4-3 .4-5.3 2.9-5.3 6 0 3.3 2.7 6 6 6h.2v-4.1C5.5 11.6 5 10.8 5 10c0-1.1.9-2 2-2s2 .9 2 2c0 .8-.5 1.6-1.2 1.9V18.1c-.7.3-1.2 1-1.2 1.9 0 1.1.9 2 2 2s2-.9 2-2c0-.8-.5-1.6-1.2-1.9V16h2V7.9C10.5 7.6 10 6.8 10 6c0-1.1.9-2 2-2s2 .9 2 2c0 .8-.5 1.6-1.2 1.9v12.2c-.7.3-1.3 1-1.3 1.9 0 1.1.9 2 2 2s2-.9 2-2c0-.8-.5-1.6-1.2-1.8V16h2v-3.1c-.7-.3-1.2-1-1.2-1.9 0-1.1.9-2 2-2s2 .9 2 2c0 .8-.5 1.6-1.2 1.9V17.1c-.7.3-1.2 1-1.2 1.9 0 1.1.9 2 2 2s2-.9 2-2c0-.8-.5-1.6-1.2-1.9V16c2.4-.2 4.5-2.3 4.5-5z"/>
        </svg>
        <svg id="product_editor" viewBox="0 0 24 24">
            <path d="M5.548 13l4.03 4.333c.56.602.556 1.483.03 2.08l-.104.108-.093.082c-.654.533-1.62.522-2.245.012l-.12-.11-.058-.059-5.922-6.369L1 13h4.548zM23 13l-.066.077-5.922 6.37-.058.059-.12.109c-.626.51-1.591.521-2.245-.012l-.093-.082-.105-.109a1.533 1.533 0 01.031-2.08L18.452 13H23zM9.41 4.397l.094.082c.627.593.668 1.549.074 2.188L5.548 11H1l.066-.077 5.922-6.37.058-.059c.615-.615 1.668-.666 2.365-.097zm5.18 0c.696-.569 1.749-.518 2.364.097l.058.06 5.922 6.369L23 11h-4.548l-4.03-4.333a1.536 1.536 0 01.074-2.188l.093-.082z"/>
        </svg>
        <svg id="product_explorer" viewBox="0 0 24 24">
            <path d="M5.548 13l4.03 4.333c.56.602.556 1.483.03 2.08l-.104.108-.093.082c-.654.533-1.62.522-2.245.012l-.12-.11-.058-.059-5.922-6.369L1 13h4.548zM23 13l-.066.077-5.922 6.37-.058.059-.12.109c-.626.51-1.591.521-2.245-.012l-.093-.082-.105-.109a1.533 1.533 0 01.031-2.08L18.452 13H23zM9.41 4.397l.094.082c.627.593.668 1.549.074 2.188L5.548 11H1l.066-.077 5.922-6.37.058-.059c.615-.615 1.668-.666 2.365-.097zm5.18 0c.696-.569 1.749-.518 2.364.097l.058.06 5.922 6.369L23 11h-4.548l-4.03-4.333a1.536 1.536 0 01.074-2.188l.093-.082z"/>
        </svg>
        <svg id="outbound_campaign_manager" viewBox="0 0 24 24">
            <path d="M19 14.038a9.933 9.933 0 0 1-1.53 5.172l-1.2-1.2a8.75 8.75 0 0 0 .98-4.02c0-1.45-.35-2.81-.98-4.02l1.26-1.26A10.023 10.023 0 0 1 19 13.767v.271zm-4.44 2.292l-2.32-2.32 2.33-2.32c.27.72.43 1.49.43 2.31 0 .82-.16 1.61-.44 2.33zM20 6H10v6H8V4h6V0H6v6H4c-1.1 0-2 .9-2 2v12c0 1.1.9 2 2 2h16c1.1 0 2-.9 2-2V8c0-1.1-.9-2-2-2z"/>
        </svg>
        <svg id="resize_northeast" viewBox="0 0 24 24">
            <path d="M16 6h2v8h-2V8h-6V6h6z"/>
        </svg>
        <svg id="resize_northwest" viewBox="0 0 24 24">
            <path d="M8 6h6v2H8v6H6V6h2z"/>
        </svg>
        <svg id="resize_southeast" viewBox="0 0 24 24">
            <path d="M16 18h-6v-2h6v-6h2v8h-2z"/>
        </svg>
        <svg id="resize_southwest" viewBox="0 0 24 24">
            <path d="M8 16h6v2H6v-8h2v6z"/>
        </svg>
        <svg id="rules" viewBox="0 0 24 24">
            <style>.darkmode { display: none; }</style>
            <path class="darkmode" d="M21.5 10H20V6c0-1.1-.9-2-2-2h-4V2.5a2.5 2.5 0 1 0-5 0V4H5c-1.1 0-1.99.9-1.99 2v3.8H4.5c1.49 0 2.7 1.21 2.7 2.7 0 1.49-1.21 2.7-2.7 2.7H3V19c0 1.1.9 2 2 2h3.8v-1.5a2.7 2.7 0 0 1 5.4 0V21H18c1.1 0 2-.9 2-2v-4h1.5a2.5 2.5 0 1 0 0-5z"/>
            <path class="lightmode" d="M20.5 13H18v5.5a.5.5 0 0 1-.5.5H15v-.5a3.5 3.5 0 1 0-7 0v.5H5.5a.5.5 0 0 1-.5-.5V15h.5a3.5 3.5 0 1 0 0-7H5V6.5a.5.5 0 0 1 .5-.5H10V3.5a1.5 1.5 0 1 1 3 0V6h4.5a.5.5 0 0 1 .5.5V10h2.5a1.5 1.5 0 1 1 0 3m0-5H20V6a2 2 0 0 0-2-2h-3v-.5a3.5 3.5 0 1 0-7 0V4H5a2 2 0 0 0-2 2v4h2.5a1.5 1.5 0 1 1 0 3H3v6a2 2 0 0 0 2 2H10v-2.5a1.5 1.5 0 0 1 3 0V21h5a2 2 0 0 0 2-2v-4h.5a3.5 3.5 0 1 0 0-7"/>
        </svg>
        <svg id="rules_insert" viewBox="0 0 24 24">
            <style>.darkmode { display: none; }</style>
            <path class="lightmode" d="M20.5 8a3.5 3.5 0 1 1 0 7H20v4a2 2 0 0 1-2 2H13v-2.5a1.5 1.5 0 0 0-3 0V21H5a2 2 0 0 1-2-2V13h2.5a1.5 1.5 0 1 0 0-3H3V6c0-.43.139-.826.37-1.152l1.633 1.634L5 6.5V8h.5a3.5 3.5 0 1 1 0 7H5v3.5a.5.5 0 0 0 .5.5H8v-.5a3.5 3.5 0 1 1 7 0v.5h2.5a.5.5 0 0 0 .5-.5V13h2.5a1.5 1.5 0 1 0 0-3H18V6.5a.5.5 0 0 0-.5-.5H13V3.5a1.495 1.495 0 1 0-2.93-.429L8.578 1.58A3.492 3.492 0 0 1 11.5 0 3.5 3.5 0 0 1 15 3.5V4h3a2 2 0 0 1 2 2v2h.5zM10 13.24v-2h2.59L2.76 1.41 4.17 0 14 9.83V7h2v6.24h-6z"/>
            <path class="darkmode" d="M11.5 0A2.5 2.5 0 0114 2.5V4h4c1.1 0 2 .9 2 2v4h1.5a2.5 2.5 0 110 5H20v4c0 1.1-.9 2-2 2h-3.8v-1.5a2.7 2.7 0 00-5.4 0V21H5c-1.1 0-2-.9-2-2v-3.8h1.5c1.49 0 2.7-1.21 2.7-2.7 0-1.49-1.21-2.7-2.7-2.7H3.01V6c0-1.1.89-2 1.99-2h.591l7.999 8H10v2h7V7h-2v3.59L8.411 4H9V2.5A2.5 2.5 0 0111.5 0z"/>
        </svg>
        <svg id="rules_select" viewBox="0 0 24 24">
            <style>.darkmode { display: none; }</style>
            <path class="lightmode" d="M20 15v4a2 2 0 0 1-2 2H13v-2.5a1.5 1.5 0 0 0-3 0V21H5a2 2 0 0 1-2-2V13h2.5a1.5 1.5 0 1 0 0-3H3V6a2 2 0 0 1 2-2h3v-.5a3.5 3.5 0 1 1 7 0V4h.762l-2 2H13V3.5a1.5 1.5 0 1 0-3 0V6H5.5a.5.5 0 0 0-.5.5V8h.5a3.5 3.5 0 1 1 0 7H5v3.5a.5.5 0 0 0 .5.5H8v-.5a3.5 3.5 0 1 1 7 0v.5h2.5a.5.5 0 0 0 .5-.5V13h2.5a1.5 1.5 0 1 0 0-3h-2.262l2-2h.262a3.5 3.5 0 1 1 0 7H20zM17.001 0h7v7h-2V3.41l-9.83 9.831-1.411-1.411L20.591 2h-3.59V0z"/>
            <path class="darkmode" d="M11.5 0A2.5 2.5 0 0114 2.5V4h4c1.1 0 2 .9 2 2v4h1.5a2.5 2.5 0 110 5H20v4c0 1.1-.9 2-2 2h-3.8v-1.5a2.7 2.7 0 00-5.4 0V21H5c-1.1 0-2-.9-2-2v-3.8h1.5c1.49 0 2.7-1.21 2.7-2.7 0-1.49-1.21-2.7-2.7-2.7H3.01V6c0-1.1.89-2 1.99-2h4V2.5A2.5 2.5 0 0111.5 0zm5.501 7h-7v2h3.59l-4.906 4.906 1.41 1.41L15 10.41V14h2V7z"/>
        </svg>
        <svg id="script" viewBox="0 0 24 24">
            <style>.darkmode { display: none; }</style>
            <path class="darkmode" d="M4 18h11.2c.4 1.2 1.5 2 2.8 2h.8c-.4 1.2-1.5 2-2.8 2H4c-1.7 0-3-1.3-3-3v-1h3zM8 8h8V6H8v2zm0 4h6v-2H8v2zM8 2h12c1.7 0 3 1.3 3 3v1h-2V5c0-.6-.4-1-1-1s-1 .4-1 1v13h-1c-.6 0-1-.4-1-1v-1H5V5c0-1.7 1.3-3 3-3z"/>
            <path class="lightmode" d="M21 2a3 3 0 0 1 3 3v1h-2V5a1 1 0 1 0-2 0v14a3 3 0 0 1-3 3H3a3 3 0 0 1-3-3v-1h15a2 2 0 0 0 2 2 1 1 0 0 0 1-1V4H7a1 1 0 0 0-1 1v11H4V5a3 3 0 0 1 3-3h14zM9 9V7h6v2H9zm0 3v-2h6v2H9zm0 3v-2h6v2H9z"/>
        </svg>
        <svg id="script_macro" viewBox="0 0 24 24">
            <style>.darkmode { display: none; }</style>
            <path class="darkmode" d="M4 18h11.2c.4 1.2 1.5 2 2.8 2h.8c-.4 1.2-1.5 2-2.8 2H4c-1.7 0-3-1.3-3-3v-1h3zM8 8h8V6H8v2zm0 4h6v-2H8v2zM8 2h12c1.7 0 3 1.3 3 3v1h-2V5c0-.6-.4-1-1-1s-1 .4-1 1v13h-1c-.6 0-1-.4-1-1v-1H5V5c0-1.7 1.3-3 3-3z"/>
            <path class="lightmode" d="M21 2a3 3 0 0 1 3 3v1h-2V5a1 1 0 1 0-2 0v14a3 3 0 0 1-3 3H3a3 3 0 0 1-3-3v-1h15a2 2 0 0 0 2 2 1 1 0 0 0 1-1V4H7a1 1 0 0 0-1 1v11H4V5a3 3 0 0 1 3-3h14zM9 9V7h6v2H9zm0 3v-2h6v2H9zm0 3v-2h6v2H9z"/>
        </svg>
        <svg id="script_sql" viewBox="0 0 24 24">
            <style>.darkmode { display: none; }</style>
            <path class="darkmode" d="M4 18h11.2c.4 1.2 1.5 2 2.8 2h.8c-.4 1.2-1.5 2-2.8 2H4c-1.7 0-3-1.3-3-3v-1h3zm11.037-6.056l-1.9-2.37L16 8.77l-.565-1.707-2.689 1.144L12.972 5h-1.857l.217 3.144-2.768-1.17L8 8.663l2.828.802L8.85 11.9l1.501 1.01 1.597-2.54L13.536 13l1.501-1.056zM8 2h12c1.7 0 3 1.3 3 3v1h-2V5c0-.6-.4-1-1-1s-1 .4-1 1v13h-1c-.6 0-1-.4-1-1v-1H5V5c0-1.7 1.3-3 3-3z"/>
            <path class="lightmode" d="M21 2a3 3 0 0 1 3 3v1h-2V5a1 1 0 1 0-2 0v14a3 3 0 0 1-3 3H3a3 3 0 0 1-3-3v-1h15a2 2 0 0 0 2 2 1 1 0 0 0 1-1V4H7a1 1 0 0 0-1 1v11H4V5a3 3 0 0 1 3-3h14zm-10.17 9.467L8 10.663l.564-1.69 2.768 1.172L11.115 7h1.857l-.226 3.208 2.69-1.144L16 10.77l-2.863.804 1.9 2.37-1.5 1.056-1.589-2.63-1.597 2.54-1.5-1.01 1.978-2.433z"/>
        </svg>
        <svg id="script_stored_procedure" viewBox="0 0 24 24">
            <style>.darkmode { display: none; }</style>
            <path class="darkmode" d="M4 18h11.2c.4 1.2 1.5 2 2.8 2h.8c-.4 1.2-1.5 2-2.8 2H4c-1.7 0-3-1.3-3-3v-1h3zm6-5l5-3.5L10 6v7zM8 2h12c1.7 0 3 1.3 3 3v1h-2V5c0-.6-.4-1-1-1s-1 .4-1 1v13h-1c-.6 0-1-.4-1-1v-1H5V5c0-1.7 1.3-3 3-3z"/>
            <path class="lightmode" d="M21 2a3 3 0 0 1 3 3v1h-2V5a1 1 0 1 0-2 0v14a3 3 0 0 1-3 3H3a3 3 0 0 1-3-3v-1h15a2 2 0 0 0 2 2 1 1 0 0 0 1-1V4H7a1 1 0 0 0-1 1v11H4V5a3 3 0 0 1 3-3h14zm-6 9l-5 3V8l5 3z"/>
        </svg>
        <svg id="segmentation" viewBox="0 0 24 24">
            <path d="M2,4.14 L2,5 L4,5 L4,4 L5,4 L5,2 L4.14,2 C2.95811064,2 2,2.95811064 2,4.14 Z M5,2 L5,4 L11,4 L11,2 L5,2 L5,2 Z M13,2 L13,4 L19,4 L19,2 L13,2 L13,2 Z M19,2 L19,4 L20,4 L20,5 L22,5 L22,4.14 C22,2.96 21.04,2 19.86,2 L19,2 Z M2,11 L4,11 L4,5 L2,5 L2,11 Z M2,19 L4,19 L4,13 L2,13 L2,19 Z M2,19.86 C2,21.04 2.96,22 4.14,22 L5,22 L5,20 L4,20 L4,19 L2,19 L2,19.86 Z M20,13 L20,19 L22,19 L22,13 L20,13 L20,13 Z M20,5 L20,11 L22,11 L22,5 L20,5 L20,5 Z M20,20 L19,20 L19,22 L20,22 C21.11,22 22,21.11 22,20 L22,19 L20,19 L20,20 Z M13,20 L13,22 L19,22 L19,20 L13,20 Z M5,20 L5,22 L11,22 L11,20 L5,20 Z M12,7 C13.1,7 14,7.9 14,9 C14,10.1 13.1,11 12,11 C10.9,11 10,10.1 10,9 C10,7.9 10.9,7 12,7 Z M17,17 L7,17 L7,15.6666667 C7,13.8933333 10.3375,13 12,13 C13.6625,13 17,13.8933333 17,15.6666667 L17,17 Z"></path>
        </svg>
        <svg id="server" viewBox="0 0 24 24">
            <path d="M22 16v4c0 1.103-.896 2-2 2H4c-1.103 0-2-.897-2-2v-4h20zm-4 2a1 1 0 100 2 1 1 0 000-2zm-3 0a1 1 0 100 2 1 1 0 000-2zm-5 0H5v2h5v-2zm12-9v6H2V9h20zm-12 2H5v2h5v-2zm5 0a1 1 0 100 2 1 1 0 000-2zm3 0a1 1 0 100 2 1 1 0 000-2zm2-9c1.103 0 2 .897 2 2v4H2V4c0-1.103.897-2 2-2zM10 4H5v2h5V4zm5 0a1 1 0 100 2 1 1 0 000-2zm3 0a1 1 0 100 2 1 1 0 000-2z"/>
        </svg>
        <svg id="server_changed" viewBox="0 0 24 24">
            <path d="M20 16a4 4 0 110 8 4 4 0 010-8zm-4.472 0A5.978 5.978 0 0014 20c0 .702.12 1.375.342 2H3.999a2.002 2.002 0 01-1.994-1.85L2 20v-4h13.528zm-5.529 2H5v2h5v-2zM22 9v5.342A5.99 5.99 0 0020 14a5.972 5.972 0 00-3.318 1H2V9h20zm-12 2H5v2h5v-2zm5 0a1 1 0 100 2 1 1 0 000-2zm3 0a1 1 0 100 2 1 1 0 000-2zm2-9c1.053 0 1.918.817 1.995 1.85L22 4v4H2V4c0-1.053.817-1.918 1.85-1.995L4 2h16zM10 4H5v2h5V4zm5 0a1 1 0 100 2 1 1 0 000-2zm3 0a1 1 0 100 2 1 1 0 000-2z"/>
        </svg>
        <svg id="server_edit" viewBox="0 0 24 24">
            <path d="M19.07 14.88l2.05 2.05L15.06 23H13v-2.06l6.07-6.06zM15 16l-6 6H4a2.002 2.002 0 01-1.995-1.85L2 20v-4h13zm-5 2H5v2h5v-2zm11.42-4.7l1.28 1.28c.22.21.22.56 0 .77l-1 1-2.05-2.05 1-1c.21-.22.56-.22.77 0zM22 9l-3 3a1 1 0 10-1 1l-2 2H2V9h20zm-12 2H5v2h5v-2zm5 0a1 1 0 100 2 1 1 0 000-2zm5-9c1.053 0 1.918.817 1.995 1.85L22 4v4H2V4c0-1.053.817-1.918 1.85-1.995L4 2h16zM10 4H5v2h5V4zm5 0a1 1 0 100 2 1 1 0 000-2zm3 0a1 1 0 100 2 1 1 0 000-2z"/>
        </svg>
        <svg id="server_foreign" viewBox="0 0 24 24">
            <path d="M22 9v4c0 1.103-.896 2-2 2h-7v4h1a1 1 0 011 1h7v2h-7a1 1 0 01-1 1h-4a1 1 0 01-1-1H2v-2h7a1 1 0 011-1h1v-4H4c-1.103 0-2-.897-2-2V9h20zm-4 2a1 1 0 100 2 1 1 0 000-2zm-3 0a1 1 0 100 2 1 1 0 000-2zm-5 0H5v2h5v-2zm10-9c1.103 0 2 .897 2 2v4H2V4c0-1.103.897-2 2-2zM10 4H5v2h5V4zm5 0a1 1 0 100 2 1 1 0 000-2zm3 0a1 1 0 100 2 1 1 0 000-2z"/>
        </svg>
        <svg id="server_lab" viewBox="0 0 24 24">
            <path d="M20 13v2h-1v1.638l4.768 5.722a1 1 0 01-.64 1.632L23 24H13a1.002 1.002 0 01-.844-1.536l.076-.104L17 16.638V15h-1v-2h4zm-6 3v1l.095-.001-3.4 4.08-.077.1-.075.103-.073.106c-.124.194-.223.4-.298.612H3.999a2.002 2.002 0 01-1.994-1.85L2 20v-4h12zm-4 2H5v2h5v-2zm12-9v2h-8v4H2V9h20zm-12 2H5v2h5v-2zm10-9c1.053 0 1.918.817 1.995 1.85L22 4v4H2V4c0-1.053.817-1.918 1.85-1.995L4 2h16zM10 4H5v2h5V4zm5 0a1 1 0 100 2 1 1 0 000-2zm3 0a1 1 0 100 2 1 1 0 000-2z"/>
        </svg>
        <svg id="server_search" viewBox="0 0 24 24">
            <path d="M15.503 10.992c.818 0 1.645.222 2.387.688C20 13 20.62 15.79 19.3 17.889L22.39 21 21 22.389 17.89 19.3a4.523 4.523 0 01-4.8 0c-2.09-1.3-2.73-4.1-1.41-6.21a4.517 4.517 0 013.823-2.098zm-6.49 5.009c.055.688.217 1.363.48 2L5 18v2h5v-1.022a6.383 6.383 0 001.758 1.838l.277.182.237.142.27.145c.935.474 1.958.71 2.98.704L3.998 22a2.002 2.002 0 01-1.994-1.85L2 20v-4h7.014zm4.756-2.271a2.507 2.507 0 00-.009 3.539 2.514 2.514 0 001.775.732c.638 0 1.276-.242 1.765-.732h-.03c.98-.969.99-2.549.03-3.539a2.504 2.504 0 00-3.531 0zM15.189 9a6.515 6.515 0 00-5.052 2.799l-.138.205L10 11H5v2h4.485a6.505 6.505 0 00-.473 2H2V9h13.188zm.63 0H22v6h-.026a6.474 6.474 0 00-3.023-5.016A6.468 6.468 0 0015.82 9zM20 2c1.053 0 1.918.817 1.995 1.85L22 4v4H2V4c0-1.053.817-1.918 1.85-1.995L4 2h16zM10 4H5v2h5V4zm5 0a1 1 0 100 2 1 1 0 000-2zm3 0a1 1 0 100 2 1 1 0 000-2z"/>
        </svg>
        <svg id="server_synced" viewBox="0 0 24 24">
            <path d="M24 18c0 3.31-2.691 6-6 6a6.02 6.02 0 01-4.035-1.572l-.201-.192L12 24v-5h5l-1.811 1.811c.747.75 1.734 1.19 2.811 1.19 2.14 0 3.89-1.688 3.995-3.801L22 18h2zm-13.748-2c-.116.45-.193.915-.23 1.391l-.018.36L10 18H5v2h5v2H4a2.002 2.002 0 01-1.995-1.85L2 20v-4h8.252zM24 12v5h-5l1.811-1.811c-.746-.748-1.733-1.189-2.81-1.189a4.004 4.004 0 00-3.996 3.8L14 18h-2c0-3.308 2.691-6 6-6 1.524 0 2.943.563 4.038 1.568l.201.193L24 12zm-2-3v2.07A8.003 8.003 0 0010.581 15H2V9h20zm-12 2H5v2h5v-2zm10-9c1.053 0 1.918.817 1.995 1.85L22 4v4H2V4c0-1.053.817-1.918 1.85-1.995L4 2h16zM10 4H5v2h5V4zm5 0a1 1 0 100 2 1 1 0 000-2zm3 0a1 1 0 100 2 1 1 0 000-2z"/>
        </svg>
        <svg id="sftp" viewBox="0 0 24 24">
            <style>.darkmode { display: none; }</style>
            <path class="darkmode" d="M17 17h-4v1h1a1 1 0 0 1 1 1h7v2h-7a1 1 0 0 1-1 1h-4a1 1 0 0 1-1-1H2v-2h7a1 1 0 0 1 1-1h1v-1H4c-1.1 0-2-.9-2-2l.01-12c0-1.1.89-2 1.99-2h6l2 2h8c1.1 0 2 .9 2 2v10c0 1.1-.9 2-2 2h-3zm-8.221-6.39V9.497H6.446v-1.38h2.568V7H5v6h1.446v-2.39H8.78zm5.629-2.493V7H9.393v1.117h1.768V13h1.446V8.117h1.801zm2.056 2.847h.923c.731 0 1.306-.175 1.725-.525.419-.35.628-.818.628-1.403 0-.396-.096-.75-.29-1.061a1.91 1.91 0 0 0-.82-.722A2.789 2.789 0 0 0 17.412 7h-2.394v6h1.446v-2.036zm0-1.116V8.117h.965c.26.003.467.088.618.255.15.168.226.392.226.672 0 .255-.073.453-.22.593-.147.14-.36.21-.64.21h-.949z"/>
            <path class="lightmode" d="M17 17h-4v1h1a1 1 0 0 1 1 1h7v2h-7a1 1 0 0 1-1 1h-4a1 1 0 0 1-1-1H2v-2h7a1 1 0 0 1 1-1h1v-1H4c-1.1 0-2-.9-2-2l.01-12c0-1.1.89-2 1.99-2h6l2 2h8c1.1 0 2 .9 2 2v10c0 1.1-.9 2-2 2h-3zm3-2V5H4v10h16zM8.779 10.61H6.446V13H5V7h4.014v1.117H6.446v1.38H8.78v1.113zm5.629-2.493h-1.8V13H11.16V8.117H9.393V7h5.015v1.117zm2.056 2.847V13h-1.446V7h2.394c.459 0 .865.084 1.218.253.353.17.626.41.82.722.194.311.29.665.29 1.06 0 .586-.21 1.054-.628 1.404-.419.35-.994.525-1.725.525h-.923zm0-1.116h.948c.28 0 .494-.07.64-.21.148-.14.221-.339.221-.594 0-.28-.075-.504-.226-.672-.151-.167-.357-.252-.618-.255h-.965v1.73z"/>
        </svg>
        <svg id="table" viewBox="0 0 24 24">
            <path d="M19 4c1.1 0 2 .9 2 2v12c0 1.1-.9 2-2 2H5c-1.1 0-2-.9-2-2V6c0-1.1.9-2 2-2h14zM5 8v4h6V8H5zm8 0v4h6V8h-6zm0 6v4h6v-4h-6zm-8 0v4h6v-4H5z"/>
        </svg>
        <svg id="table_changed" viewBox="0 0 24 24">
            <path d="M20 16a4 4 0 110 8 4 4 0 010-8zM19 4c1.1 0 2 .9 2 2v8.083a6.04 6.04 0 00-2 0V14h-6v4h1.341A5.99 5.99 0 0014 20H5c-1.1 0-2-.9-2-2V6c0-1.1.9-2 2-2h14zm-8 10H5v4h6v-4zm0-6H5v4h6V8zm8 0h-6v4h6V8z"/>
        </svg>
        <svg id="table_edit" viewBox="0 0 24 24">
            <path d="M22.7 15.35l-1 1-2.05-2.05 1-1c.21-.22.56-.22.77 0l1.28 1.28c.22.21.22.56 0 .77zM13 20.94l6.07-6.06 2.05 2.05L15.06 23H13v-2.06zM5 4h14c1.1 0 2 .9 2 2v4.17L17.17 14H13v4.17L11.17 20H5c-1.1 0-2-.9-2-2V6c0-1.1.9-2 2-2zm0 4v4h6V8H5zm8 0v4h6V8h-6zm-8 6v4h6v-4H5z"/>
        </svg>
        <svg id="table_foreign" viewBox="0 0 24 24">
            <path d="M19 4c1.1 0 2 .787 2 1.75v10.5c0 .962-.9 1.75-2 1.75h-6v1h1a1 1 0 011 1h7v2h-7a1 1 0 01-1 1h-4a1 1 0 01-1-1H2v-2h7a1 1 0 011-1h1v-1H5c-1.1 0-2-.788-2-1.75V5.75C3 4.787 3.9 4 5 4h14zm0 9h-6v3h6v-3zm-8 0H5v3h6v-3zm0-5H5v3h6V8zm8 0h-6v3h6V8z"/>
        </svg>
        <svg id="table_lab" viewBox="0 0 24 24">
            <path d="M20 13v2h-1v1.638l4.768 5.722a1 1 0 01-.64 1.632L23 24H13a1.002 1.002 0 01-.844-1.536l.076-.104L17 16.638V15h-1v-2h4zm-1-9c1.1 0 2 .9 2 2v4.999h-2V8h-6v4h1v2h-1v4h.259l-1.665 2H5c-1.1 0-2-.9-2-2V6c0-1.1.9-2 2-2h14zm-8 10H5v4h6v-4zm0-6H5v4h6V8z"/>
        </svg>
        <svg id="table_search" viewBox="0 0 24 24">
            <path d="M19.3 17.89c1.32-2.1.7-4.89-1.41-6.21a4.52 4.52 0 0 0-6.21 1.41C10.36 15.2 11 18 13.09 19.3c1.47.92 3.33.92 4.8 0L21 22.39 22.39 21l-3.09-3.11zm-2-.62c-.98.98-2.56.97-3.54 0-.97-.98-.97-2.56.01-3.54.97-.97 2.55-.97 3.53 0 .96.99.95 2.57-.03 3.54h.03zM19 4H5a2 2 0 0 0-2 2v12a2 2 0 0 0 2 2h5.81a6.3 6.3 0 0 1-1.31-2H5v-4h4.18c.16-.71.43-1.39.82-2H5V8h6v2.81a6.3 6.3 0 0 1 2-1.31V8h6v2a6.499 6.499 0 0 1 2 2V6a2 2 0 0 0-2-2z"/>
        </svg>
        <svg id="table_synced" viewBox="0 0 24 24">
            <path d="M24 18c0 3.31-2.691 6-6 6a6.02 6.02 0 01-4.035-1.572l-.201-.192L12 24v-5h5l-1.811 1.811c.747.75 1.734 1.19 2.811 1.19 2.14 0 3.89-1.688 3.995-3.801L22 18h2zM19 4c1.1 0 2 .9 2 2l.001 4.582a7.947 7.947 0 00-2-.52L19 8h-6v3.754a8.037 8.037 0 00-2 2.37V14H5v4h5v2H5c-1.1 0-2-.9-2-2V6c0-1.1.9-2 2-2h14zm5 8v5h-5l1.811-1.811c-.746-.748-1.733-1.189-2.81-1.189a4.004 4.004 0 00-3.996 3.8L14 18h-2c0-3.308 2.691-6 6-6 1.524 0 2.943.563 4.038 1.568l.201.193L24 12zM11 8H5v4h6V8z"/>
        </svg>
        <svg id="teradata" viewBox="0 0 24 24">
            <path d="M11 0c6.075 0 11 4.925 11 11s-4.925 11-11 11S0 17.075 0 11 4.925 0 11 0zm-.025 4H8v9.622C8 16.636 9.758 18 12.418 18c.94 0 1.836-.196 2.994-.8-.617-.597-1.183-1.341-1.507-2.176-.452.166-.927.27-1.284.27-.992 0-1.646-.572-1.646-1.892V9.07h3.05V6.693h-3.05V4z"/>
        </svg>
        <svg id="text_analysis" viewBox="0 0 24 24">
            <path d="M5 5v4H3V5c0-1.1.9-2 2-2h4v2H5zm14-2c1.1 0 2 .9 2 2v4h-2V5h-4V3h4zM5 19h4v2H5c-1.1 0-2-.9-2-2v-4h2v4zm7-9.5l-1.15 3.65h2.3L12 9.5zm-2.3 7H7.8l3.2-9h2l3.2 9h-1.9l-.7-2h-3.2l-.7 2zM19 23l-1.253-2.747L15 19l2.747-1.253L19 15l1.253 2.747L23 19l-2.747 1.253L19 23z"/>
        </svg>
        <svg id="variable" viewBox="0 0 24 24">
            <style>.darkmode { display: none; }</style>
            <path class="lightmode" d="M2 4.14V5h2V4h1V2h-.86A2.14 2.14 0 0 0 2 4.14zM5 2v2h14V2H5zm14 0v2h1v1h2v-.86C22 2.96 21.04 2 19.86 2H19zM2 19h2V5H2v14zm0 .86C2 21.04 2.96 22 4.14 22H5v-2H4v-1H2v.86zM20 5v14h2V5h-2zm0 15h-1v2h1c1.11 0 2-.89 2-2v-1h-2v1zM5 20h14v2H5v-2zm7.003-5.468l2.256-7.485h2.283L13.076 17h-2.14L7.484 7.047h2.277l2.242 7.485z"/>
            <path class="darkmode" d="M19.778 2C21.005 2 22 2.995 22 4.222v15.556A2.222 2.222 0 0119.778 22H4.222A2.222 2.222 0 012 19.778V4.222C2 2.995 2.995 2 4.222 2h15.556zM9.76 7.047H7.484L10.936 17h2.14l3.466-9.953h-2.283l-2.256 7.485L9.76 7.047z"/>
        </svg>
        <svg id="view_sankey" viewBox="0 0 24 24">
            <path d="M17,11 L3,11 C2.44771525,11 2,10.5522847 2,10 L2,8 C2,7.44771525 2.44771525,7 3,7 L17,7 L17,4 L22,9 L17,14 L17,11 Z M3,15 C2.44771525,15 2,14.5522847 2,14 C2,13.4477153 2.44771525,13 3,13 C7.09999975,13 9.59999975,13 10.5,13 C11.8500004,13 13,14.1499996 13,15.5 L13,18 L11,18 C11,17.5406667 11,16.874 11,16 C11,15.4583475 10.5332456,15 10,15 L3,15 Z M11,20 L13,20 L13,21 L11,21 L11,20 Z"/>
        </svg>
        <svg id="wand" viewBox="0 0 24 24">
            <path d="M8.5 4.6L6 6l1.4-2.5L6 1l2.5 1.4L11 1 9.6 3.5 11 6 8.5 4.6zm12 9.8L23 13l-1.4 2.5L23 18l-2.5-1.4L18 18l1.4-2.5L18 13l2.5 1.4zM23 1l-1.4 2.5L23 6l-2.5-1.4L18 6l1.4-2.5L18 1l2.5 1.4L23 1zm-8.66 10.78l2.44-2.44-2.12-2.12-2.44 2.44 2.12 2.12zm1.03-5.49l2.34 2.34c.39.37.39 1.02 0 1.41L6.04 21.71c-.39.39-1.04.39-1.41 0l-2.34-2.34c-.39-.37-.39-1.02 0-1.41L13.96 6.29c.39-.39 1.04-.39 1.41 0z"/>
        </svg>
        <svg id="workflow" viewBox="0 0 24 24">
            <path d="M12 1a3 3 0 1 1 0 6 3 3 0 0 1 0-6zm0 8a3 3 0 1 1 0 6 3 3 0 0 1 0-6zm0 8a3 3 0 1 1 0 6 3 3 0 0 1 0-6zm9.148-13.75C22.721 3.25 24 4.483 24 6v4c0 1.517-1.279 2.75-2.852 2.75H17v-1.5h4.148c.715 0 1.296-.561 1.296-1.25V6c0-.689-.581-1.25-1.296-1.25H17v-1.5h4.148zM0 14c0-1.517 1.279-2.75 2.852-2.75H7v1.5H2.852c-.715 0-1.296.561-1.296 1.25v4c0 .689.581 1.25 1.296 1.25H7v1.5H2.852C1.279 20.75 0 19.517 0 18v-4z"/>
        </svg>
    </defs>
</svg>