<svg width="1404" height="568" xmlns="http://www.w3.org/2000/svg"><g fill-rule="nonzero" fill="none" opacity=".684"><path d="M856.84 500.466l21.86 21.985-9.384 35.022-34.824 9.437-21.86-21.984-29.923 8.109-25.44-25.585 9.384-35.022 29.923-8.11 8-29.853 34.824-9.438 25.44 25.586-8 29.853zm-6.86-2.003l6.539-24.4-18.42-18.194-25.047 6.547-6.538 24.4 18.386 18.315 25.08-6.668zm-32.379 13.29l-18.275-17.823-25.26 6.431-6.6 24.631 18.66 18.2 24.74-6.3 6.735-25.138z" stroke="#43A6FF"/><path d="M1282.121 68.955l-10.177-36.032 30.479-31.561 42.321 10.373 10.177 36.032 36.365 8.913 11.844 41.934-30.478 31.561-36.365-8.913-25.98 26.903-42.322-10.373-11.844-41.934 25.98-26.903zm6.07 6.129l-21.236 21.99 8.77 30.01 30.298 7.716 21.235-21.989-8.664-30.12-30.404-7.607zm42.001 4.867l8.834 29.537 30.455 7.962 21.435-22.197-9.02-30.158-29.826-7.798-21.878 22.654z" stroke="#43A6FF" stroke-width="1.208"/><path d="M28.705 141.975l-27.97-19.66 3.478-39.763 36.03-16.88 27.971 19.66 30.96-14.505 32.552 22.881-3.479 39.762-30.96 14.506-2.965 33.894-36.03 16.88-32.553-22.88 2.966-33.895zm7.838.862L34.12 170.54l23.504 16.209 25.962-11.88 2.424-27.704-23.493-16.346-25.974 12.018zm32.635-20.592l23.277 15.836 26.214-11.796 2.447-27.965-23.768-16.169-25.673 11.553-2.497 28.541z" stroke="#43A6FF" stroke-width="1.1"/><path d="M1293.707 513L1335 537.31 1293.309 560 1252 537.31l41.707-24.31zm48.866-85L1384 451.624 1342.573 474 1302 451.162 1342.573 428z" fill="#44525D"/><path d="M146.649 471.012l32.975-34.766 12.73 45.726-31.4 35.146-14.305-46.106zm-72.156-66.77l32.338-35.05 12.484 45.398-31.38 34.396-13.442-44.744z" fill="#404F59"/></g></svg>