<?xml version="1.0" encoding="UTF-8" standalone="no"?>
<svg xmlns="http://www.w3.org/2000/svg" width="148" height="29" viewBox="0 0 148 29" fill="#FF5F02">
    <title>Teradata logo</title>
    <path d="M0 3.17767H5.11585V7.90138H10.8217V12.4272H5.11585V20.3384C5.11585 22.3855 6.17716 23.0547 7.67378 23.0547H10.8217V27.5805H7.67378C2.4392 27.5805 0 25.2996 0 20.3384V3.17767Z" />
    <path d="M23.0609 28.0482C16.765 28.0482 12.5522 23.9145 12.5522 17.7769C12.5522 11.6393 16.6859 7.42649 22.7839 7.42649C28.8819 7.42649 32.8573 11.4415 32.8573 17.5791C32.8573 18.1691 32.8177 18.7987 32.699 19.547H17.9055C18.3768 22.3028 20.0713 23.6015 23.1401 23.6015C25.0684 23.6015 26.4859 22.7741 27.0363 21.6732H32.3105C31.1304 25.4903 27.8242 28.0482 23.0609 28.0482ZM17.9846 15.3773H27.5076C26.9967 12.8985 25.5001 11.7185 22.7839 11.7185C20.226 11.7185 18.5747 12.9777 17.9846 15.3773Z" />
    <path d="M35.6923 7.89779H40.6102V10.2578C42.4199 8.44823 44.5856 7.54162 46.6327 7.89779V12.6215C44.0748 12.3085 42.4235 13.4885 40.8081 15.5716V27.5733H35.6923V7.89779Z" />
    <path d="M53.0041 27.8108C49.3849 27.8108 46.5104 25.6845 46.5104 21.2774C46.5104 17.6582 48.7913 15.1794 53.9071 15.1794H58.3538V14.5894C58.3538 12.7798 57.2134 12.0315 54.3784 12.0315C52.4897 12.0315 50.993 12.2294 48.946 12.8194V8.21438C50.5218 7.78266 52.4897 7.50564 54.8102 7.50564C60.7139 7.50564 63.4661 9.74698 63.4661 14.5894V27.5769H58.469V26.4365L57.3285 26.9078C55.8715 27.4978 54.3784 27.8144 53.0005 27.8144L53.0041 27.8108ZM55.7995 23.2058L58.3574 22.1049V19.1944H54.4612C52.6911 19.1944 51.6262 20.0219 51.6262 21.3206C51.6262 22.8568 52.6875 23.6015 54.0259 23.6015C54.5763 23.6015 55.2059 23.4432 55.7959 23.2094L55.7995 23.2058Z" />
    <path d="M81.5731 27.5769V26.2782L81.2996 26.3969C79.49 27.2639 77.5617 27.6956 75.7125 27.6956C70.7945 27.6956 66.4629 24.5081 66.4629 17.7409C66.4629 10.9738 70.7909 7.74668 75.7521 7.74668C77.5617 7.74668 79.49 8.1784 81.2996 9.04543L81.4579 9.12458V0.421875H86.5738V27.5769H81.5731ZM76.6551 22.9719C77.7559 22.9719 78.9755 22.6949 80.2347 22.1049L81.4543 21.5149V13.9598L80.2347 13.3698C78.9755 12.7798 77.7559 12.5028 76.6551 12.5028C73.8201 12.5028 71.6975 14.2728 71.6975 17.7373C71.6975 21.2019 73.8237 22.9719 76.6551 22.9719Z" />
    <path d="M95.8197 27.8108C92.2005 27.8108 89.326 25.6845 89.326 21.2774C89.326 17.6582 91.6069 15.1794 96.7227 15.1794H101.169V14.5894C101.169 12.7798 100.029 12.0315 97.194 12.0315C95.3053 12.0315 93.8086 12.2294 91.7616 12.8194V8.21438C93.3373 7.78266 95.3053 7.50564 97.6257 7.50564C103.529 7.50564 106.282 9.74698 106.282 14.5894V27.5769H101.285V26.4365L100.144 26.9078C98.687 27.4978 97.194 27.8144 95.8161 27.8144L95.8197 27.8108ZM98.6151 23.2058L101.173 22.1049V19.1944H97.2768C95.5067 19.1944 94.4418 20.0219 94.4418 21.3206C94.4418 22.8568 95.5031 23.6015 96.8415 23.6015C97.3919 23.6015 98.0215 23.4432 98.6115 23.2094L98.6151 23.2058Z" />
    <path d="M110.063 3.17767H115.179V7.90138H120.885V12.4272H115.179V20.3384C115.179 22.3855 116.24 23.0547 117.737 23.0547H120.885V27.5805H117.737C112.502 27.5805 110.063 25.2996 110.063 20.3384V3.17767Z" />
    <path d="M129.148 27.8108C125.529 27.8108 122.655 25.6845 122.655 21.2774C122.655 17.6582 124.935 15.1794 130.051 15.1794H134.498V14.5894C134.498 12.7798 133.358 12.0315 130.523 12.0315C128.634 12.0315 127.137 12.2294 125.09 12.8194V8.21438C126.666 7.78266 128.634 7.50564 130.954 7.50564C136.858 7.50564 139.61 9.74698 139.61 14.5894V27.5769H134.613V26.4365L133.473 26.9078C132.016 27.4978 130.523 27.8144 129.145 27.8144L129.148 27.8108ZM131.944 23.2058L134.502 22.1049V19.1944H130.605C128.835 19.1944 127.77 20.0219 127.77 21.3206C127.77 22.8568 128.832 23.6015 130.17 23.6015C130.721 23.6015 131.35 23.4432 131.94 23.2094L131.944 23.2058Z" />
    <path d="M142.568 25.332C142.568 23.8354 143.748 22.6553 145.284 22.6553C146.82 22.6553 148 23.8354 148 25.332C148 26.8286 146.78 28.0482 145.284 28.0482C143.787 28.0482 142.568 26.8286 142.568 25.332Z" />
</svg>