<svg viewBox="0 0 24 24" xmlns="http://www.w3.org/2000/svg">
  <path d="M9.5 2.66406C9.50167 2.69997 9.73661 7.70006 11.5996 9.56348C13.4696 11.4334 18.5 11.6641 18.5 11.6641C18.5 11.6641 13.4696 11.8938 11.5996 13.7637C9.72967 15.6336 9.5 20.6641 9.5 20.6641C9.5 20.6641 9.26936 15.6336 7.39941 13.7637C5.53772 11.9024 0.545058 11.6662 0.5 11.6641C0.543851 11.662 5.53769 11.4252 7.39941 9.56348C9.26307 7.69972 9.49846 2.69738 9.5 2.66406ZM20.1025 6.13086C20.1057 6.15846 20.2484 7.38901 20.7383 7.87891C21.2283 8.36887 22.4591 8.51154 22.4863 8.51465C22.4623 8.51739 21.2289 8.66074 20.7383 9.15137C20.2481 9.6416 20.1055 10.8734 20.1025 10.8994C20.1 10.8769 19.9567 9.64231 19.4658 9.15137C18.975 8.66052 17.7407 8.51726 17.7178 8.51465C17.7441 8.51165 18.9756 8.36905 19.4658 7.87891C19.9564 7.38834 20.0998 6.15521 20.1025 6.13086ZM15.5176 0.652344C15.5194 0.668416 15.7145 2.37858 16.3926 3.05664C17.0701 3.73409 18.7779 3.92852 18.7969 3.93066C18.785 3.932 17.0715 4.12676 16.3926 4.80566C15.7125 5.48577 15.5182 7.20405 15.5176 7.20996C15.5157 7.19333 15.3215 5.48364 14.6436 4.80566C13.9649 4.12704 12.2525 3.93216 12.2393 3.93066C12.2591 3.92842 13.9662 3.73392 14.6436 3.05664C15.3204 2.37984 15.5151 0.674669 15.5176 0.652344Z"/>
</svg>
