<svg xmlns="http://www.w3.org/2000/svg" viewBox="0 0 24 24"><path d="M11 0H9v2h2V0ZM6 22H4v2h2v-2Zm10 0h-2v2h2v-2ZM15 0h-2v2h2V0Zm-5 22H8v2h2v-2Zm10 0h-2v2h2v-2ZM19 6h-2V4h2v2Zm5 10h-2v-2h2v2Zm-5-6h-2V8h2v2Zm5 10h-2v-2h2v2ZM7 6H5V4h2v2ZM2 16H0v-2h2v2Zm5-6H5V8h2v2ZM2 20H0v-2h2v2ZM14.7 3H9.4c-.7 0-1.3.6-1.3 1.3v5.3c0 .7.6 1.3 1.3 1.3h5.3c.7 0 1.3-.6 1.3-1.3V4.3c0-.7-.6-1.3-1.3-1.3Zm-5 10H4.4c-.7 0-1.3.6-1.3 1.3v5.3c0 .7.6 1.3 1.3 1.3h5.3c.7 0 1.3-.6 1.3-1.3v-5.3c0-.7-.6-1.3-1.3-1.3Zm10 0h-5.3c-.7 0-1.3.6-1.3 1.3v5.3c0 .7.6 1.3 1.3 1.3h5.3c.7 0 1.3-.6 1.3-1.3v-5.3c0-.7-.6-1.3-1.3-1.3Z" /></svg>