<?xml version="1.0" encoding="UTF-8"?>
<svg id="a" data-name="Layer 34" xmlns="http://www.w3.org/2000/svg" viewBox="0 0 24 24">
  <defs>
    <style>
      .b {
        fill: #000;
        stroke-width: 0px;
      }
    </style>
  </defs>
  <path class="b" d="M22,19v2h-7c0,.55-.45,1-1,1h-4c-.55,0-1-.45-1-1H2v-2h7c0-.55.45-1,1-1h1v-2h-6v-2.45c0-.5.13-.95.38-1.37s.59-.73,1.02-.95c.9-.45,1.82-.79,2.76-1.02.93-.23,1.88-.34,2.84-.34s1.91.11,2.84.34c.93.23,1.85.57,2.76,1.02.42.22.76.54,1.02.95s.38.87.38,1.37v2.45h-6v2h1c.55,0,1,.45,1,1h7ZM9.1,7.45c.25.38.58.7.95.95.57.4,1.22.6,1.95.6s1.38-.2,1.95-.6c.38-.25.7-.58.95-.95.4-.57.6-1.22.6-1.95s-.2-1.38-.6-1.95c-.25-.38-.58-.7-.95-.95-.57-.4-1.22-.6-1.95-.6s-1.38.2-1.95.6c-.38.25-.7.58-.95.95-.4.57-.6,1.22-.6,1.95s.2,1.38.6,1.95Z"/>
</svg>