
<svg xmlns="http://www.w3.org/2000/svg" viewBox="0 0 24 24">
  <path d="M10,12l-5,5-1.38-1.45,2.55-2.55H1v-2h5.17l-2.55-2.55,1.38-1.45,5,5ZM20.36,4.18c-1.76-.79-3.88-1.18-6.36-1.18s-4.6.4-6.36,1.18c-.68.31-1.23.64-1.65.99l1.41,1.41c.42-.33,1.13-.64,2.14-.94,1.46-.43,2.96-.64,4.46-.64s3,.21,4.49.65,2.33.9,2.51,1.38c-.19.48-1.03.93-2.53,1.36s-3,.64-4.48.64h.01c-1.51,0-3-.2-4.46-.62-.16-.05-.31-.09-.46-.14l2.61,2.61c.08,0,.16.02.25.03.67.07,1.35.1,2.05.1s1.38-.03,2.03-.1c.65-.07,1.26-.17,1.86-.29s1.15-.27,1.68-.46c.53-.19,1.01-.4,1.44-.63v3c-.44.24-.91.45-1.44.63-.53.18-1.09.33-1.68.46s-1.21.22-1.86.29c-.65.07-1.33.1-2.03.1s-1.38-.03-2.05-.1c-.31-.03-.61-.07-.91-.12l-1.66,1.66c.22.06.45.12.68.17.59.13,1.22.22,1.89.29.67.07,1.35.1,2.05.1s1.38-.03,2.03-.1c.65-.07,1.26-.17,1.86-.29s1.15-.27,1.68-.46c.53-.19,1.01-.4,1.44-.63v2.45c-.08.25-.35.5-.8.74-.45.24-1.01.46-1.68.65-.67.19-1.4.34-2.19.46-.79.12-1.57.18-2.34.18h0c-.77.01-1.55-.06-2.35-.17-.8-.11-1.54-.27-2.2-.46s-1.22-.41-1.66-.64c-.17-.09-.3-.18-.42-.28l-1.4,1.4c.41.35.96.69,1.64.99,1.74.77,3.87,1.16,6.39,1.16s4.65-.38,6.39-1.16c1.74-.78,2.61-1.72,2.61-2.84V7.01c0-1.1-.88-2.04-2.64-2.83Z"/>
</svg>