<svg xmlns="http://www.w3.org/2000/svg" viewBox="0 0 24 24"><path d="M5.62 9.82c1.75.78 3.88 1.17 6.38 1.17s4.62-.39 6.38-1.17C20.14 9.04 21 8.1 21 6.99s-.88-2.04-2.62-2.83C16.63 3.38 14.5 2.99 12 2.99s-4.62.39-6.38 1.17C3.87 4.94 3 5.89 3 6.99s.88 2.04 2.62 2.83Zm-1.6 4.04c.68.51 1.5.92 2.45 1.24.95.32 1.94.55 2.96.69 1.03.14 1.88.21 2.56.21.55 0 1.22-.05 2-.14-.53-.54-.83-1.27-.83-2.05 0-.12.02-.24.04-.37-.45.04-.85.06-1.2.06-.68 0-1.54-.07-2.56-.21a16.14 16.14 0 0 1-2.96-.69c-.95-.32-1.77-.73-2.45-1.24C3.35 10.85 3 10.23 3 9.5V12c0 .73.34 1.35 1.03 1.86h-.01Zm7.71 5.99 1.12-1.38c-.3.02-.59.03-.85.03-.68 0-1.54-.07-2.56-.21-1.02-.14-2.01-.37-2.96-.69s-1.77-.73-2.45-1.24C3.35 15.85 3 15.23 3 14.5V17c0 .73.34 1.35 1.03 1.86.68.51 1.5.92 2.45 1.24s1.94.55 2.96.69c.62.09 1.17.14 1.66.18.14-.39.35-.77.63-1.11Zm11.71 1.24-2.87-3.57v-2.8h.07c.26 0 .48-.09.65-.27.18-.18.26-.4.26-.67s-.09-.48-.27-.66a.891.891 0 0 0-.65-.27h-4.58c-.25 0-.47.09-.65.27-.18.18-.27.4-.27.66s.09.49.27.67c.18.18.4.27.65.27h.08v2.8l-2.89 3.57c-.45.55-.52 1.15-.22 1.79.3.65.81.97 1.52.97h7.6c.71 0 1.22-.32 1.52-.97s.23-1.24-.22-1.79Zm-8.54.89.08-.09v.09h6.83-6.91Z" /></svg>