
<svg xmlns="http://www.w3.org/2000/svg" viewBox="0 0 24 24">
  <path d="M16.83,18.47l-2.83-.81.56-1.69,2.77,1.17-.22-3.14h1.86l-.22,3.21,2.68-1.15.57,1.71-2.86.8,1.9,2.37-1.5,1.06-1.59-2.63-1.6,2.54-1.5-1.01,1.98-2.43ZM13,1h-2v3h2V1ZM17,1h-2v3h2V1ZM21.31,13h1.69v-2h-3v1.35c.47.17.91.38,1.31.65ZM9,1h-2v3h2V1ZM23,7h-3v2h3v-2ZM1,9h3v-2H1v2ZM12.35,20h-1.35v3h2v-1.69c-.27-.41-.49-.85-.65-1.31ZM1,17h3v-2H1v2ZM7,23h2v-3h-2v3ZM1,13h3v-2H1v2ZM12.07,18.9c-.04-.29-.07-.59-.07-.9,0-.34.04-.67.09-1h-4.19c-.5,0-.9-.4-.9-.9V7.9c0-.5.4-.9.9-.9h8.2c.5,0,.9.4.9.9v4.19c.33-.05.66-.09,1-.09.31,0,.61.03.9.07v-4.77c0-1.3-1-2.3-2.3-2.3H7.3c-1.3,0-2.3,1.1-2.3,2.3v9.3c0,1.3,1.1,2.3,2.3,2.3h4.77Z"/>
</svg>