<svg width="20" height="20" viewBox="0 0 20 20" fill="none" xmlns="http://www.w3.org/2000/svg">
<path d="M18.543 5.625C18.543 7.25833 17.5013 8.65 16.043 9.15833V18.5417H13.543V15.2083H11.043V12.7083H13.543V9.15833C12.0846 8.65 11.043 7.25833 11.043 5.625C11.043 3.54167 12.7096 1.875 14.793 1.875C16.8763 1.875 18.543 3.54167 18.543 5.625ZM16.043 5.625C16.043 5.29348 15.9113 4.97554 15.6769 4.74112C15.4424 4.5067 15.1245 4.375 14.793 4.375C14.4614 4.375 14.1435 4.5067 13.9091 4.74112C13.6747 4.97554 13.543 5.29348 13.543 5.625C13.543 5.95652 13.6747 6.27446 13.9091 6.50888C14.1435 6.7433 14.4614 6.875 14.793 6.875C15.1245 6.875 15.4424 6.7433 15.6769 6.50888C15.9113 6.27446 16.043 5.95652 16.043 5.625Z" fill="#59627B"/>
<path d="M8.95963 5.625C8.95963 7.25833 7.91797 8.65 6.45963 9.15833L6.45963 18.5417H3.95963L3.95963 15.2083H1.45963V12.7083H3.95963V9.15833C2.5013 8.65 1.45963 7.25833 1.45963 5.625C1.45963 3.54167 3.1263 1.875 5.20963 1.875C7.29297 1.875 8.95963 3.54167 8.95963 5.625ZM6.45963 5.625C6.45963 5.29348 6.32794 4.97554 6.09352 4.74112C5.8591 4.5067 5.54116 4.375 5.20963 4.375C4.87811 4.375 4.56017 4.5067 4.32575 4.74112C4.09133 4.97554 3.95963 5.29348 3.95963 5.625C3.95963 5.95652 4.09133 6.27446 4.32575 6.50888C4.56017 6.7433 4.87811 6.875 5.20963 6.875C5.54116 6.875 5.8591 6.7433 6.09352 6.50888C6.32794 6.27446 6.45963 5.95652 6.45963 5.625Z" fill="#59627B"/>
</svg>
