
<svg xmlns="http://www.w3.org/2000/svg" viewBox="0 0 24 24">

  <path  d="M5,21c-.85,0-1.45-.38-1.81-1.14-.36-.76-.27-1.46.26-2.11l5.55-6.75v-6h-1c-.28,0-.52-.1-.71-.29s-.29-.43-.29-.71.1-.52.29-.71.43-.29.71-.29h8c.28,0,.52.1.71.29s.29.43.29.71-.1.52-.29.71-.43.29-.71.29h-1v6l5.55,6.75c.53.65.62,1.35.26,2.11s-.96,1.14-1.81,1.14H5ZM5,19h14l-6-7.3v-6.7h-2v6.7l-6,7.3ZM10.5,15c-.83,0-1.5.67-1.5,1.5s.67,1.5,1.5,1.5,1.5-.67,1.5-1.5-.67-1.5-1.5-1.5ZM13,13c-.55,0-1,.45-1,1s.45,1,1,1,1-.45,1-1-.45-1-1-1Z"/>
</svg>