<svg xmlns="http://www.w3.org/2000/svg" viewBox="0 0 24 24"><path d="M8.8 14h3.3c-.4.6-.7 1.3-.9 2s-2.9 0-2.9 0c-1.2-.7-2.1-1.6-2.7-2.8-.7-1.1-1-2.4-1-3.8 0-2.1.7-3.8 2.2-5.3s3.2-2.2 5.3-2.2 3.9.7 5.3 2.2c1.5 1.5 2.2 3.2 2.2 5.3s0 1-.2 1.5c-.4 0-.9-.1-1.3-.1h-.7c.1-.5.2-.9.2-1.4 0-1.5-.5-2.8-1.6-3.9s-2.4-1.6-3.9-1.6-2.8.5-3.9 1.6-1.6 2.4-1.6 3.9.2 1.7.6 2.5c.4.8 1 1.4 1.7 2Zm1.2 6c0 .5.2 1 .6 1.4.4.4.9.6 1.4.6h.1c-.4-.6-.7-1.3-.9-2H10Zm-2-3v2h3v-2H8Zm13.7 1.7 1.1 1-1 1.7-1.4-.5c-.2.1-.4.2-.5.3-.2 0-.4.2-.6.3L19 23h-2l-.3-1.5c-.2 0-.4-.2-.6-.3-.2 0-.4-.2-.5-.3l-1.4.4-1-1.7 1.1-1v-1.4l-1.1-1 1-1.7 1.4.4c.2-.1.4-.2.5-.3.2 0 .4-.2.6-.3l.3-1.5h2l.3 1.5c.2 0 .4.2.6.3.2 0 .4.2.5.4l1.4-.5 1 1.8-1.1 1v1.2ZM20 18c0-.5-.2-1-.6-1.4-.4-.4-.9-.6-1.4-.6s-1 .2-1.4.6c-.4.4-.6.9-.6 1.4s.2 1 .6 1.4c.4.4.9.6 1.4.6s1-.2 1.4-.6c.4-.4.6-.9.6-1.4Z" /></svg>