<svg xmlns="http://www.w3.org/2000/svg" viewBox="0 0 24 24"><path d="M3.81 15.51v4.68h4.68v2.34H3.81a2.34 2.34 0 0 1-2.34-2.34v-4.68h2.34Zm2.34 1.17a1.17 1.17 0 1 0 1.17-1.17 1.18 1.18 0 0 0-1.17 1.17Zm9.36 0a1.17 1.17 0 1 0 1.17-1.17 1.18 1.18 0 0 0-1.17 1.17Zm-5.26 0a1.75 1.75 0 1 0 3.5-.02 1.75 1.75 0 0 0-3.5.02ZM5.56 12a1.76 1.76 0 1 0 1.76-1.76A1.75 1.75 0 0 0 5.56 12Zm4.69 0a1.75 1.75 0 1 0 3.5-.02 1.75 1.75 0 0 0-3.5.02Zm-4.1-4.68a1.17 1.17 0 1 0 1.17-1.17 1.18 1.18 0 0 0-1.17 1.17Zm4.1 0a1.75 1.75 0 1 0 3.5 0 1.75 1.75 0 0 0-3.5 0Zm5.26 0a1.17 1.17 0 1 0 1.17-1.17 1.18 1.18 0 0 0-1.17 1.17ZM3.81 1.47a2.34 2.34 0 0 0-2.34 2.34v4.68h2.34V3.81h4.68V1.47H3.81Zm11.7 0v2.34h4.68v4.68h2.34V3.81a2.34 2.34 0 0 0-2.34-2.34h-4.68Zm7 14h-2.32v4.68h-4.68v2.34h4.68a2.34 2.34 0 0 0 2.34-2.34l-.02-4.68Zm-11.1 5.89a.59.59 0 1 0 1.18 0 .59.59 0 0 0-1.18 0ZM20.77 12a.59.59 0 1 0 .59-.58.58.58 0 0 0-.59.58ZM2.05 12a.58.58 0 0 0 .59.58.58.58 0 1 0 0-1.16.58.58 0 0 0-.59.58Zm9.36-9.36a.59.59 0 1 0 .59-.58.58.58 0 0 0-.59.58ZM14.92 12a1.76 1.76 0 1 0 1.76-1.76A1.75 1.75 0 0 0 14.92 12Z"/></svg>