
<svg  xmlns="http://www.w3.org/2000/svg" viewBox="0 0 24 24">
  <path d="M10,6.4l-3.3-2.4L12,0l5.3,4-3.3,2.4c-.6-.2-1.2-.4-1.8-.4h-.2c-.7,0-1.3.1-1.8.3h-.2ZM15.6,7.6c.3.4.4.9.4,1.4v.2c0,.5-.2.9-.6,1.3l3.3,2.4,5.3-4-5.3-4s-3.3,2.4-3.3,2.4v.2ZM9.5,9c0,1,1.1,1.9,2.5,1.9s2.5-.8,2.5-1.9-1.1-1.9-2.5-1.9-2.5.8-2.5,1.9ZM13,23.2l11-8.2v-4l-11,8.2v4ZM14,11.6c-.6.3-1.3.4-2,.4h-.2c-.6,0-1.3-.2-1.8-.4l-3.3,2.4,5.3,4,5.3-4-3.3-2.4ZM0,15l11,8.2v-4L0,11v4ZM8.6,10.5v-.2c-.4-.4-.6-.9-.6-1.4s.2-1.1.6-1.5l-3.3-2.4L0,9l5.3,4,3.3-2.4Z"/>
</svg>