<svg xmlns="http://www.w3.org/2000/svg" viewBox="0 0 24 24"><path d="M9 13a2 2 0 0 1 1.748 2.972L11.967 18H12a2 2 0 1 1-1.748 1.028L9.033 17H9a2 2 0 0 1 0-4Zm-4 4a2 2 0 1 1 0 4 2 2 0 0 1 0-4Zm14 0a2 2 0 1 1 0 4 2 2 0 0 1 0-4Zm1-7a2 2 0 1 1-.972 3.748L17 14.966V15a2 2 0 1 1-1.028-1.748L18 12.032V12a2 2 0 0 1 2-2ZM9 7a2 2 0 1 1-.972 3.748L6 11.966V12a2 2 0 1 1-1.028-1.748L7 9.032V9a2 2 0 0 1 2-2Zm3-5a2 2 0 0 1 1.748 2.972L14.967 7H15a2 2 0 1 1-1.748 1.028L12.033 6H12a2 2 0 0 1 0-4ZM5 3a2 2 0 1 1 0 4 2 2 0 0 1 0-4Zm14 0a2 2 0 1 1 0 4 2 2 0 0 1 0-4Z" /></svg>