<svg xmlns="http://www.w3.org/2000/svg" viewBox="0 0 24 24"><path d="M12 2c1.048 0 2.096.147 3.088.478.331.11.589.33.754.625.147.312.184.643.073.974-.091.313-.33.588-.625.736a1.282 1.282 0 0 1-.974.073 7.423 7.423 0 0 0-2.298-.368 7.469 7.469 0 0 0-7.463 7.464A7.47 7.47 0 0 0 9 18.808v-1.082C9 16.22 10.311 15 11.928 15h.143C13.689 15 15 16.22 15 17.726v1.098a7.47 7.47 0 0 0 4.483-6.842c0-.552-.074-1.103-.184-1.636a1.256 1.256 0 0 1 .165-.956c.184-.276.46-.478.79-.552.332-.073.662-.018.957.166.275.184.477.46.551.79.166.717.239 1.452.239 2.188C22 17.496 17.515 22 12 22S2 17.515 2 12 6.485 2 12 2Zm7.941 4.044a1.6 1.6 0 1 1-3.198 0 1.6 1.6 0 0 1 3.198 0ZM15 11a3 3 0 1 1-6 0 3 3 0 0 1 6 0Z"/></svg>