<svg xmlns="http://www.w3.org/2000/svg" viewBox="0 0 24 24"><path d="M19 4.2a2 2 0 1 0 0-4 2 2 0 0 0 0 4ZM4 24.2a2 2 0 1 0 0-4 2 2 0 0 0 0 4ZM2 6.2a2 2 0 1 0 0-4 2 2 0 0 0 0 4ZM6.26 10.7c.57 0 .94-.43 1.35-.84A6 6 0 0 1 12 8.2a6 6 0 0 1 4.39 1.66c.41.41.78.84 1.35.84a1.52 1.52 0 0 0 1.34-2.23 8 8 0 0 0-14.16 0 1.52 1.52 0 0 0 1.34 2.23ZM17.74 13.7c-.57 0-.94.43-1.35.84A6 6 0 0 1 12 16.2a5.999 5.999 0 0 1-4.39-1.66c-.41-.41-.78-.84-1.35-.84a1.52 1.52 0 0 0-1.34 2.23 8 8 0 0 0 14.16 0 1.52 1.52 0 0 0-1.34-2.23Z"/></svg>