<svg viewBox="0 0 24 24" xmlns="http://www.w3.org/2000/svg">
<path d="M2 4.14V5H4V4H5V2H4.14C2.95811 2 2 2.95811 2 4.14ZM5 2V4H11V2H5ZM13 2V4H19V2H13ZM19 2V4H20V5H22V4.14C22 2.96 21.04 2 19.86 2H19ZM2 11H4V5H2V11ZM2 19H4V13H2V19ZM2 19.86C2 21.04 2.96 22 4.14 22H5V20H4V19H2V19.86ZM20 13V19H22V13H20ZM20 5V11H22V5H20ZM20 20H19V22H20C21.11 22 22 21.11 22 20V19H20V20ZM13 20V22H19V20H13ZM5 20V22H11V20H5ZM12 7C13.1 7 14 7.9 14 9C14 10.1 13.1 11 12 11C10.9 11 10 10.1 10 9C10 7.9 10.9 7 12 7ZM17 17H7V15.6667C7 13.8933 10.3375 13 12 13C13.6625 13 17 13.8933 17 15.6667V17Z" />
</svg>
