
<svg id="a" data-name="Layer 1" xmlns="http://www.w3.org/2000/svg" viewBox="0 0 24 24">
  <path d="M22.89,14.88c-.08-.18-.18-.35-.31-.5l-.92-.92c-.15-.15-.32-.26-.5-.34s-.38-.11-.58-.11c-.39,0-.77.15-1.05.43l-5.53,5.5v3.08h3.08l5.5-5.5c.15-.15.26-.32.33-.51s.1-.38.1-.56-.04-.37-.11-.55c0,0-.01-.02-.01-.02ZM16.45,20.5h-.95v-.95l3.05-3.02.47.45.45.48-3.03,3.05s.01-.01.01,0ZM7.5,6c-.42,0-.77.15-1.06.44s-.44.65-.44,1.06.15.77.44,1.06c.29.29.65.44,1.06.44s.77-.15,1.06-.44c.29-.29.44-.65.44-1.06s-.15-.77-.44-1.06c-.29-.29-.65-.44-1.06-.44ZM6.44,16.44c-.29.29-.44.65-.44,1.06s.15.77.44,1.06c.29.29.65.44,1.06.44s.77-.15,1.06-.44c.29-.29.44-.65.44-1.06s-.15-.77-.44-1.06c-.29-.29-.65-.44-1.06-.44s-.77.15-1.06.44ZM4,12h14.12c.35-.35.76-.61,1.22-.78.54-.2,1.1-.24,1.65-.18v-7.04c0-.28-.1-.52-.29-.71-.19-.19-.44-.29-.71-.29H4c-.28,0-.52.1-.71.29s-.29.43-.29.71v7c0,.28.1.52.29.71s.43.29.71.29ZM5,5h14v5H5v-5ZM12,20h-7v-5h10.11l2.01-2H4c-.28,0-.52.1-.71.29s-.29.43-.29.71v7c0,.28.1.52.29.71.19.19.43.29.71.29h8v-2Z"/>
</svg>