
<svg xmlns="http://www.w3.org/2000/svg" viewBox="0 0 24 24">
  <path d="M14.57,23.87c-.71,0-1.22-.32-1.52-.97s-.23-1.24.22-1.79l2.89-3.57v-2.8h-.08c-.25,0-.47-.09-.65-.27-.18-.18-.28-.42-.27-.67,0-.27.09-.48.27-.66s.4-.27.65-.27h4.58c.25,0,.47.09.65.27s.27.4.27.66-.09.49-.26.67c-.18.18-.39.27-.65.27h-.07v2.8l2.87,3.57c.45.55.52,1.15.22,1.79-.3.64-.81.97-1.52.97h-7.6ZM14.92,22.01h6.9l-3.06-3.8v-3.46h-.77v3.46l-3.07,3.8ZM7.5,6c-.42,0-.77.15-1.06.44s-.44.65-.44,1.06.15.77.44,1.06c.29.29.65.44,1.06.44s.77-.15,1.06-.44c.29-.29.44-.65.44-1.06s-.15-.77-.44-1.06c-.29-.29-.65-.44-1.06-.44ZM11.62,20h-6.62v-5h8.42c-.16-.37-.25-.77-.25-1.19,0-.28.05-.55.13-.81H4c-.28,0-.52.1-.71.29s-.29.43-.29.71v7c0,.28.1.52.29.71.19.19.43.29.71.29h6.88c.03-.71.28-1.39.74-2ZM4,12h9.8c.07-.09.13-.18.21-.25.54-.56,1.29-.87,2.07-.87h4.58c.11,0,.22.02.33.03v-6.91c0-.28-.1-.52-.29-.71-.19-.19-.44-.29-.71-.29H4c-.28,0-.52.1-.71.29s-.29.43-.29.71v7c0,.28.1.52.29.71s.43.29.71.29ZM5,5h14v5H5v-5ZM6.44,16.44c-.29.29-.44.65-.44,1.06s.15.77.44,1.06c.29.29.65.44,1.06.44s.77-.15,1.06-.44c.29-.29.44-.65.44-1.06s-.15-.77-.44-1.06c-.29-.29-.65-.44-1.06-.44s-.77.15-1.06.44Z"/>
</svg>