<svg width="24" height="24" viewBox="0 0 24 24" fill="none" xmlns="http://www.w3.org/2000/svg">
<path fill-rule="evenodd" clip-rule="evenodd" d="M14.0175 9H18.75C19.575 9 20.25 9.67502 20.25 10.5V12C20.25 12.195 20.2125 12.375 20.145 12.5475L17.88 17.835C17.655 18.375 17.1225 18.75 16.5 18.75H9.75C8.92502 18.75 8.25 18.075 8.25 17.25V9.75C8.25 9.33751 8.41498 8.96251 8.69247 8.69252L13.6275 3.75L14.4225 4.53749C14.625 4.74001 14.7525 5.02501 14.7525 5.33249L14.73 5.57249L14.0175 9ZM6.75 9.75H3.75V18.75H6.75V9.75Z" fill="#59627B"/>
</svg>
