<svg width="24" height="24" viewBox="0 0 24 24" fill="none" xmlns="http://www.w3.org/2000/svg">
<path d="M15.1802 16.5587L11.0206 12.399V7.17535H12.9553V11.6252L16.5345 15.2044L15.1802 16.5587ZM2.91898 16.3652C2.6449 15.8009 2.43531 15.2124 2.29021 14.5998C2.1451 13.9871 2.04837 13.3664 2 12.7376H3.91052C3.94276 13.1891 4.02338 13.6405 4.15236 14.0919C4.28134 14.5433 4.4345 14.9787 4.61185 15.3978L2.91898 16.3652ZM2 11.2866C2.04837 10.6417 2.14913 10.0169 2.3023 9.41235C2.45546 8.80775 2.66909 8.21525 2.94317 7.63484L4.61185 8.57801C4.41838 9.01332 4.26118 9.46072 4.14027 9.92021C4.01935 10.3797 3.94276 10.8352 3.91052 11.2866H2ZM6.35308 20.3555C5.78879 20.0008 5.2769 19.5978 4.81741 19.1463C4.35792 18.6949 3.95889 18.187 3.62031 17.6227L5.31318 16.6554C5.57114 17.0585 5.86941 17.4293 6.20798 17.7679C6.54655 18.1064 6.91737 18.4047 7.32044 18.6627L6.35308 20.3555ZM5.31318 7.32045L3.6445 6.3531C3.98307 5.82105 4.3821 5.32529 4.8416 4.8658C5.30109 4.4063 5.80492 3.99921 6.35308 3.64451L7.32044 5.33738C6.91737 5.61146 6.54655 5.91376 6.20798 6.24427C5.86941 6.57478 5.57114 6.93351 5.31318 7.32045ZM11.2624 22C10.6175 21.9516 9.99274 21.8509 9.38815 21.6977C8.78355 21.5446 8.19105 21.3309 7.61064 21.0568L8.57799 19.3882C8.99718 19.5816 9.43652 19.7388 9.89601 19.8597C10.3555 19.9807 10.811 20.0572 11.2624 20.0895V22ZM8.57799 4.63605L7.61064 2.94318C8.19105 2.68522 8.78355 2.47966 9.38815 2.3265C9.99274 2.17333 10.6175 2.06451 11.2624 2.00002V3.93472C10.811 3.96696 10.3555 4.04355 9.89601 4.16447C9.43652 4.28538 8.99718 4.44258 8.57799 4.63605ZM12.7134 22V20.0895C13.1649 20.0572 13.6203 19.9807 14.0798 19.8597C14.5393 19.7388 14.9867 19.5816 15.422 19.3882L16.3652 21.0568C15.7848 21.3309 15.1923 21.5446 14.5877 21.6977C13.9831 21.8509 13.3583 21.9516 12.7134 22ZM15.422 4.63605C14.9867 4.44258 14.5393 4.28538 14.0798 4.16447C13.6203 4.04355 13.1649 3.96696 12.7134 3.93472V2.00002C13.3583 2.06451 13.9831 2.1693 14.5877 2.3144C15.1923 2.45951 15.7848 2.6691 16.3652 2.94318L15.422 4.63605ZM17.6469 20.3555L16.6796 18.6627C17.0665 18.4047 17.4252 18.1105 17.7557 17.7799C18.0863 17.4494 18.3886 17.0826 18.6626 16.6796L20.3555 17.6469C20.0008 18.1951 19.5937 18.6949 19.1342 19.1463C18.6747 19.5978 18.179 20.0008 17.6469 20.3555ZM18.6385 7.32045C18.3805 6.93351 18.0863 6.57478 17.7557 6.24427C17.4252 5.91376 17.0665 5.61146 16.6796 5.33738L17.6469 3.64451C18.179 3.99921 18.6667 4.41033 19.11 4.87789C19.5534 5.34544 19.9605 5.84524 20.3313 6.37728L18.6385 7.32045ZM20.0653 11.2866C20.0331 10.819 19.9524 10.3595 19.8235 9.90812C19.6945 9.45669 19.5333 9.01332 19.3398 8.57801L21.0568 7.63484C21.347 8.19913 21.5607 8.7876 21.6977 9.40026C21.8347 10.0129 21.9355 10.6417 22 11.2866H20.0653ZM21.0568 16.3894L19.3881 15.422C19.5655 15.0028 19.7146 14.5635 19.8355 14.104C19.9565 13.6445 20.0331 13.1891 20.0653 12.7376H22C21.9355 13.3825 21.8267 14.0073 21.6735 14.6119C21.5204 15.2165 21.3148 15.809 21.0568 16.3894Z" fill="#59627B"/>
</svg>
