<svg width="24" height="24" viewBox="0 0 24 24" fill="none" xmlns="http://www.w3.org/2000/svg">
<path d="M4 21.0476C3.45 21.0476 2.97917 20.8611 2.5875 20.4881C2.19583 20.1151 2 19.6667 2 19.1429V5.80952C2 5.28571 2.19583 4.8373 2.5875 4.46429C2.97917 4.09127 3.45 3.90476 4 3.90476H5V2H7V3.90476H15V2H17V3.90476H18C18.55 3.90476 19.0208 4.09127 19.4125 4.46429C19.8042 4.8373 20 5.28571 20 5.80952V10.2619C20 10.5317 19.9042 10.7579 19.7125 10.9405C19.5208 11.123 19.2833 11.2143 19 11.2143C18.7167 11.2143 18.4792 11.123 18.2875 10.9405C18.0958 10.7579 18 10.5317 18 10.2619V9.61905H4V19.1429H9.8C10.0833 19.1429 10.3208 19.2341 10.5125 19.4167C10.7042 19.5992 10.8 19.8254 10.8 20.0952C10.8 20.3651 10.7042 20.5913 10.5125 20.7738C10.3208 20.9564 10.0833 21.0476 9.8 21.0476H4ZM17 22C15.6167 22 14.4375 21.5357 13.4625 20.6071C12.4875 19.6786 12 18.5556 12 17.2381C12 15.9206 12.4875 14.7976 13.4625 13.869C14.4375 12.9405 15.6167 12.4762 17 12.4762C18.3833 12.4762 19.5625 12.9405 20.5375 13.869C21.5125 14.7976 22 15.9206 22 17.2381C22 18.5556 21.5125 19.6786 20.5375 20.6071C19.5625 21.5357 18.3833 22 17 22ZM18.675 19.5L19.375 18.8333L17.5 17.0476V14.381H16.5V17.4286L18.675 19.5Z" fill="#59627B"/>
</svg>
