
<svg  xmlns="http://www.w3.org/2000/svg" viewBox="0 0 24 24">

  <path d="M18.95,3.19c.71,0,1.13.28,1.36.51,1.42,1.42-.49,4.57-1.64,6.22.21.66.33,1.36.33,2.09,0,3.87-3.13,7-7,7-.73,0-1.43-.12-2.09-.33-1.96,1.35-3.69,2.15-4.85,2.15-1.44,0-2.77-1.19-1.01-4.61.27.51.59,1,.97,1.46-.25.61-.62,1.65.05,1.65,2.26,0,6.92-4.16,8.54-5.78,1.22-1.22,6.87-7.56,5.65-8.78-.23-.23-1.27.14-1.57.26-.46-.38-.95-.7-1.46-.97,1.07-.55,2.01-.86,2.73-.86ZM12,5c1.94,0,3.69.79,4.96,2.06-1.04,1.67-2.61,3.6-4.42,5.41-1.84,1.84-3.8,3.43-5.49,4.47-1.26-1.27-2.04-3.01-2.04-4.94,0-3.87,3.13-7,7-7Z"/>
</svg>