<svg xmlns="http://www.w3.org/2000/svg" viewBox="0 0 24 24">
  <path d="M16.5,19c.7,0,1.29-.24,1.78-.73s.73-1.08.73-1.78-.24-1.29-.73-1.78-1.08-.73-1.78-.73-1.29.24-1.78.73-.73,1.08-.73,1.78.24,1.29.73,1.78,1.08.73,1.78.73ZM21.6,23l-2.7-2.7c-.35.23-.73.41-1.14.53s-.83.18-1.26.18c-1.25,0-2.31-.44-3.19-1.31-.88-.87-1.31-1.94-1.31-3.19s.44-2.31,1.31-3.19c.87-.88,1.94-1.31,3.19-1.31s2.31.44,3.19,1.31c.88.87,1.31,1.94,1.31,3.19,0,.43-.06.85-.18,1.26s-.29.79-.53,1.14l2.7,2.7-1.4,1.4h.01ZM10.18,18h-5.18v-4h5.5c.51-1.22,1.38-2.26,2.5-2.97v-3.03h6v2.5c.75.31,1.42.76,2,1.32v-5.82c0-1.1-.9-2-2-2H5c-1.1,0-2,.9-2,2v12c0,1.1.9,2,2,2h6.03c-.39-.61-.68-1.28-.85-2ZM5,8h6v4h-6v-4Z"/>
</svg>