<svg width="96" height="96" viewBox="0 0 96 96" fill="none" xmlns="http://www.w3.org/2000/svg">
<g clip-path="url(#clip0_23860_13061)">
<path d="M33.3041 49.0066C35.7301 49.0066 37.6966 50.9834 37.6967 53.4219V60.0045C37.6967 62.443 35.7301 64.4197 33.3041 64.4197C30.8781 64.4196 28.9115 62.443 28.9115 60.0045V53.4219C28.9115 50.9834 30.8781 49.0067 33.3041 49.0066Z" fill="#59627B"/>
<path d="M62.3767 49.0066C64.8024 49.007 66.7693 50.9836 66.7693 53.4219V60.0045C66.7693 62.4428 64.8024 64.4193 62.3767 64.4197C59.9506 64.4197 57.984 62.443 57.984 60.0045V53.4219C57.9841 50.9834 59.9506 49.0066 62.3767 49.0066Z" fill="#59627B"/>
<path d="M41.5505 73.0455C42.3962 72.9225 43.8722 74.3004 44.7849 74.6957C47.3147 75.7924 49.8751 75.4732 52.2434 74.1569C53.1313 73.6634 54.2972 72.2285 55.1749 73.6063C55.7324 74.4819 55.3409 74.9929 54.6727 75.5772C51.2565 78.5671 44.2885 78.6886 41.0687 75.3619C40.3016 74.5683 40.4181 73.211 41.5505 73.0455Z" fill="#59627B"/>
<path fill-rule="evenodd" clip-rule="evenodd" d="M72.0679 3.00038C73.855 3.02551 75.9223 4.22187 76.4292 6.54395L76.5093 7.02297L76.605 7.60997C77.2143 10.5051 79.7208 12.7406 82.7184 12.9558C85.3899 13.1466 86.8388 15.356 86.9508 17.265C87.0066 18.2213 86.7669 19.342 86.0211 20.3138C85.2197 21.3574 84.0451 21.9478 82.8278 22.0513L82.6539 22.067C82.1947 22.1062 81.7495 22.1976 81.3199 22.3261C84.0942 26.3189 86.1585 30.8019 87.2809 35.5306C89.1478 36.1967 90.7062 37.5795 91.488 39.4177C91.6694 39.845 91.7834 40.7126 91.9763 40.9746C92.1295 41.1769 93.1516 41.678 93.4841 41.9444C94.891 43.0716 95.6957 44.6555 95.8298 46.4617V46.4656C96.0714 49.7318 96.0422 54.8961 95.8298 58.18C95.703 60.1196 94.9005 61.9435 93.3376 63.1352C92.9443 63.4335 91.9278 63.8355 91.7517 64.0245C91.6072 64.1837 91.1615 65.6925 90.8532 66.1919C88.8037 69.5118 84.7253 70.2508 81.4274 68.3376C79.73 74.8939 75.4274 80.7295 70.2983 85.0091C62.3933 91.6035 51.5463 94.3061 41.4347 92.4045C29.0539 90.0749 17.9783 80.632 14.5341 68.3376C14.5288 68.341 14.5216 68.3441 14.5165 68.3475L14.5712 68.6478C11.2733 70.561 7.19693 69.8215 5.14723 66.5021C4.83926 66.0029 4.3937 64.4962 4.24879 64.3347C4.07245 64.1456 3.0539 63.7417 2.66088 63.4434C1.09896 62.2517 0.297434 60.4292 0.170616 58.4902C-0.0417839 55.2063 -0.0708844 50.042 0.170616 46.7758V46.7719C0.19782 46.4055 0.252952 46.046 0.33468 45.7C0.655478 43.7381 1.9157 42.143 3.64136 41.2141C3.664 41.1602 4.96343 38.0806 6.24881 37.0325C7.54528 35.9757 7.86841 35.7453 8.97735 35.5345C14.8979 11.502 40.6595 -1.15351 63.5365 7.99868C64.64 8.44014 65.7209 8.93649 66.7768 9.48286C67.1678 8.75158 67.4279 7.94261 67.5131 7.08383C67.7861 4.3406 70.1246 2.97395 72.0679 3.00038ZM59.5228 40.5603C49.7471 39.37 32.341 39.548 23.3076 43.5876C15.937 46.8849 16.071 52.4807 16.4188 59.6387C16.8065 67.584 20.3876 75.2609 26.0752 80.7176C41.9687 95.9635 68.3328 90.6252 77.0914 70.4815L77.0894 70.4795C79.3463 65.2896 80.1089 58.238 79.6871 52.6046C78.9789 43.1731 66.869 41.4549 59.5228 40.5603ZM52.9778 8.82127C35.8507 6.54061 19.1986 16.5358 13.37 32.8607C13.1934 33.3566 12.438 35.2092 12.7899 35.4992L14.6805 36.3002C16.7099 27.8745 22.3465 20.5539 29.583 15.9654C38.9488 10.0272 50.6404 9.16278 60.7533 13.0657C60.9723 13.0179 61.2002 12.9808 61.4389 12.9636L62.0287 12.8929C62.7767 12.7705 63.4827 12.5187 64.1244 12.1666C60.652 10.4905 56.8961 9.34285 52.9778 8.82127ZM78.3179 24.1931C77.7886 24.7601 77.3537 25.4175 77.0386 26.1426C79.1174 29.2638 80.6931 32.7154 81.5758 36.3002L83.611 35.4207C82.497 31.3292 80.6812 27.5493 78.3179 24.1931ZM53.0247 30.1122C52.1587 30.0296 51.3881 30.6669 51.304 31.5355C51.2205 32.4059 51.8558 33.1805 52.72 33.2651C52.7707 33.2705 52.8236 33.2729 52.8743 33.2729C53.6757 33.2728 54.3615 32.6591 54.4407 31.8418C54.5225 30.9711 53.8892 30.1966 53.0247 30.1122ZM42.1691 28.1195C42.1694 31.6539 43.8339 33.2317 47.5618 33.2317H49.8606L49.8489 30.3321H47.5598C46.2249 30.3317 45.5757 29.6069 45.5754 28.1195L45.4758 24.7134H49.8411V21.8137H45.5754V18.3408H42.1691V28.1195ZM72.4937 7.50003C72.4391 7.04096 71.8928 6.94191 71.6499 7.21733L71.6519 7.2134C71.648 7.21762 71.6438 7.22274 71.6401 7.22715C71.6219 7.24935 71.6054 7.27502 71.5913 7.30175C71.5635 7.35468 71.5457 7.41749 71.5386 7.48825C71.029 12.6229 66.8484 16.649 61.7279 17.0176H61.7221C61.1308 17.066 61.0802 17.9429 61.6732 17.9953L61.8432 18.009C62.7004 18.0824 63.5289 18.2593 64.3158 18.5234C64.5544 18.6033 64.7903 18.6903 65.0209 18.7865C65.5874 19.0227 66.1301 19.306 66.642 19.6326C66.7702 19.7141 66.8966 19.7991 67.0209 19.8859L66.642 19.6326C66.8983 19.7961 67.1474 19.9725 67.3881 20.1568C68.6262 21.1046 69.6473 22.3197 70.3745 23.718C70.4036 23.774 70.4322 23.8303 70.4604 23.8869L70.7534 24.521C71.039 25.2007 71.2569 25.9167 71.3979 26.6609C71.4274 26.8165 71.4508 26.9741 71.4741 27.132C71.4969 27.2899 71.5168 27.449 71.5327 27.6091C71.54 27.6815 71.5606 27.7456 71.5894 27.7995C71.6702 27.9512 71.8251 28.0244 71.9839 28.0312C72.1962 28.013 72.4007 27.8716 72.4331 27.5993C72.6507 25.75 73.3269 24.0435 74.3413 22.597C74.3532 22.6107 74.3647 22.6246 74.3765 22.6383C74.7905 22.0415 75.2618 21.4882 75.7828 20.9872C75.7729 20.9761 75.7633 20.9649 75.7535 20.9538C76.617 20.1316 77.6142 19.4507 78.7086 18.9494C78.714 18.9557 78.7187 18.9627 78.7242 18.969C79.8327 18.4542 81.0426 18.1251 82.3141 18.0169L82.4879 18.0032C82.988 17.9607 83.0377 17.343 82.6988 17.104C82.6692 17.0832 82.6367 17.0638 82.6012 17.049C82.5925 17.0456 82.5829 17.0423 82.5738 17.0392C82.5631 17.0354 82.5519 17.0305 82.5406 17.0274L82.4332 17.0098C82.2732 16.9983 82.1129 16.9851 81.9547 16.9666C81.006 16.8555 80.0912 16.6188 79.2301 16.2736L78.8043 16.091C78.5231 15.9642 78.2482 15.8245 77.98 15.6748C75.0305 14.0246 72.9082 11.0236 72.4937 7.50003Z" fill="#59627B"/>
</g>
<defs>
<clipPath id="clip0_23860_13061">
<rect width="96" height="96" fill="white"/>
</clipPath>
</defs>
</svg>
