
<svg xmlns="http://www.w3.org/2000/svg" viewBox="0 0 24 24">

  <path  d="M11.41,11.67l.92.92h0s-6.99,6.99-6.99,6.99l-.92-.92,6.99-6.99M14.68,6c-.26,0-.52.1-.71.29l-.08.08h0s-2.78,2.78-2.78,2.78h0S2.29,17.96,2.29,17.96c-.39.39-.39,1.04,0,1.41l2.34,2.34c.18.2.44.29.7.29s.52-.1.71-.29l11.67-11.67c.39-.39.39-1.04,0-1.41l-.36-.36h0s-1.79-1.79-1.79-1.79h0s-.19-.19-.19-.19c-.19-.2-.44-.29-.7-.29h0ZM13.74,11.18l-.92-.92,1.85-1.85.92.92-1.85,1.85h0ZM23,13l-1.4,2.5,1.4,2.5-2.5-1.4-2.5,1.4,1.4-2.5-1.4-2.5,2.5,1.4,2.5-1.4ZM23,1l-2.5,1.4-2.5-1.4,1.4,2.5-1.4,2.5,2.5-1.4,2.5,1.4-1.4-2.5,1.4-2.5ZM6,6l1.4-2.5-1.4-2.5,2.5,1.4,2.5-1.4-1.4,2.5,1.4,2.5-2.5-1.4-2.5,1.4Z"/>
</svg>